<svg width="1623" height="963" viewBox="0 0 1623 963" fill="none" xmlns="http://www.w3.org/2000/svg">
<path d="M305.423 69.4317C378.893 34.128 367.744 41.1858 418.559 31L59.7825 32.5071C29.7836 78.0933 17.3322 104.459 7.80066 153.831C-3.08899 214.916 -2.19531 249.877 20.0316 314.34C43.9366 364.595 55.7795 392.996 121.957 437.171C158.002 463.163 186.486 476.727 253.44 498.963C320.283 521.169 356.094 527.736 439.964 545.684C490.615 551.481 520.157 557.815 574.504 573.566L682.545 606.723L783.786 634.604C831.492 650.735 950.613 678.4 941.77 685.093C1107.33 719.286 1481.06 849.172 1292.39 939.798C1459.55 939.798 1579.99 947.003 1616.52 939.798C1692.71 794.017 1076.82 663.823 852.761 606.723C818.801 597.02 790.357 595.872 749.131 573.566C712.139 571.816 682.433 558.832 615.275 545.684L436.906 527.598L322.75 507.252C255.678 491.849 226.947 478.612 176.997 452.242C148.344 429.695 134.513 415.623 115.841 386.682C105.405 350.955 100.066 330.89 106.668 293.994C118.739 249.352 129.996 225.122 161.708 183.973C206.401 133.029 231.952 104.735 305.423 69.4317Z" fill="#E2FBAD"/>
<path d="M539.115 117.878C469.676 83.5983 459.985 66.8904 411.958 57C632.23 65.897 702.199 53.2141 726.96 0C755.312 44.264 811.393 151.89 820.401 199.829C830.693 259.142 829.848 293.09 808.841 355.683C786.248 404.481 775.055 432.058 712.51 474.951C678.443 500.19 651.523 513.36 588.243 534.951C525.07 556.513 491.224 562.89 411.958 580.317C364.086 585.946 336.166 592.097 284.801 607.39L182.69 639.585L111.405 681.293C77.3159 705.507 60.3498 787.39 60.3498 787.39C66.2016 870.201 124.894 902.118 214.479 963C121.148 957.029 56.3386 953.899 21.8174 946.902C15.4439 828.183 5.31635 762.953 21.8174 639.585L111.405 602.268L246.269 580.317L414.848 562.756L522.738 543C586.129 528.044 613.283 515.191 660.492 489.585C687.572 467.692 700.643 454.029 718.29 425.927C728.154 391.237 733.199 371.753 726.96 335.927C715.552 292.58 704.912 269.053 674.941 229.098C632.701 179.631 608.553 152.158 539.115 117.878Z" fill="#D9F0F8"/>
<path d="M25.6645 579C18.7939 563.196 16.5649 553.661 14.1645 536C12.6224 560.602 12.6013 574.398 14.1645 599C16.9399 611.389 19.2206 618.05 25.6645 629C32.6115 641.366 37.5498 647.269 47.1645 657L70.6645 677.5L98.6645 693.5C121.974 701.628 135.928 703.76 162.664 702.5C178.806 700.084 187.695 698.536 201.664 693.5C224.992 682.688 236.072 674.752 254.664 659.5C234.431 670.373 223.049 676.31 201.664 682.5C186.458 686.285 177.918 687.085 162.664 686C145.346 684.833 136.282 682.928 121.164 677.5C106.298 670.586 97.8788 666.801 85.6645 657C68.2363 643.256 59.1495 635.125 47.1645 618C36.6782 603.595 31.2395 595.345 25.6645 579Z" fill="#E70880" fill-opacity="0.3"/>
<path d="M913.659 858.366C924.926 890.911 933.15 908.741 952.192 939.586C960.092 943.925 964.521 943.605 972.421 939.586C955.522 911.504 946.831 895.439 935.815 864.951C921.356 816.594 913.844 789.459 913.659 740.561C923.262 687.947 922.754 657.9 962.788 608.122C997.995 571.17 1019.96 551.661 1073.57 524.707C1148.03 498.781 1191.38 487.305 1271.05 471.293C1401.13 450.982 1470 433.987 1579.31 384.951C1582.93 269.779 1587.09 203.991 1574.49 98.1221C1567.15 143.031 1556.1 165.301 1529.21 202.025C1485.21 259.325 1446.02 287.341 1371.23 335.927C1276.13 382.796 1218.81 408.91 1109.21 455.195C1048.69 481.824 1015.22 498.256 962.788 551.049C935.241 580.354 922.406 601.452 903.063 645.439C892.952 687.263 890.838 711.734 891.503 756.659C893.43 796.843 897.436 819.171 913.659 858.366Z" fill="#FF7B01" fill-opacity="0.7"/>
<path d="M12.8532 740.561V869.341C37.7093 875.596 51.8006 878.052 76.3786 882.335L77.395 882.512C152.081 900.123 201.604 898.198 290.286 894.22C342.987 890.021 372.51 883.707 425.15 869.341C471.712 853.201 499.603 841.685 560.013 806.415C616.372 777.661 640.876 754.712 684.28 713.488C711.878 680.367 725.372 660.161 746.895 622.024L789.281 529.098C821.949 469.145 842.312 435.944 890.428 379.098C923.574 347.317 942.698 332.506 978.089 313.244C1047.19 284.07 1086.57 270.524 1162.08 269.342C1240.63 271.468 1280.16 277.914 1338.37 303.732C1394.76 335.055 1425.35 353.628 1471.3 395.195C1504.54 428.306 1517.67 448.038 1538.74 483.732V360.073C1483.21 324.456 1450.72 305.216 1387.5 273.732L1323.92 250.317C1281.49 238.135 1254.82 234.154 1204.47 229.829C1204.47 229.829 1065.81 241.564 983.869 278.122C928.026 307.066 903.399 326.692 869.235 366.659C839.85 406.149 824.471 428.728 802.767 471.293C777.667 522.866 762.267 553.982 733.409 611.781C714.855 649.398 699.835 668.678 667.904 701.049C652.643 723.129 640.718 733.971 618.775 753C589.792 775.35 571.191 785.844 535.93 802.756C477.994 832.218 440.903 843.741 362.535 851.049C298.769 851.213 265.543 846.658 214.185 823.976C133.184 796.572 88.8148 778.935 12.8532 740.561Z" fill="#FFE605" fill-opacity="0.5"/>
<path d="M948.146 837.146C962.093 882.536 972.772 905.282 995.349 942.512H1332.51C1151.66 870.351 1104.32 824.889 1062.78 739.829C1035.72 695.514 1027.21 669.88 1030.03 622.025C1064.48 557.312 1093.06 529.437 1158.15 492.512C1231.68 460.49 1267.53 443.95 1320.95 433.976C1426.32 406.149 1482.24 402.358 1583.93 390.073C1628.14 258.07 1607.23 188.069 1572.37 63.0001H1414.39C1493.88 93.6173 1515.13 130.348 1548.29 199.829C1569.87 270.649 1545.78 301.182 1482.78 350.561C1407.76 389.642 1354.97 408.487 1255.44 440.561C1213.33 449.92 1182.56 460.651 1125.4 481.537C1085.81 510.324 1075.95 515.6 1062.78 529.098C991.04 580.564 977.153 616.642 948.146 679.829C934 744.246 934.251 778.639 948.146 837.146Z" fill="#018B59" fill-opacity="0.8"/>
<path d="M117.01 711.293C94.0202 689.752 33.5175 658.171 17.6698 631.5C-7.99518 693.736 -0.874269 719.282 17.6697 801.293C17.4689 805.887 74.6145 829.839 130.377 846.529C203.158 859.326 236.769 867.18 313.406 851.049C355.369 837.515 370.035 837.504 406.966 816.529C469.783 775.431 503.271 769.346 555.316 719.944C602.69 677.473 630.686 654.95 690.179 623.358C720.062 611.374 732.287 614.372 753.758 620.431C769.794 618.73 783.461 624.085 824.079 655.553C871.676 694.987 892.775 720.328 929.08 770.431C948.852 801.247 965.826 817.723 1000.36 846.529C1028.7 868.309 1045.27 879.895 1075.5 899.944C1112.07 917.763 1135.27 924.655 1179.54 933.602C1234.43 944.36 1265.75 946.162 1323.07 937.992C1381.93 925.844 1413.69 917.192 1463.72 891.895C1499.52 869.023 1518.48 856.023 1541.75 831.163C1552.95 818.139 1559.26 810.82 1572.57 796.773C1583.11 772.619 1581 760.931 1572.57 741.163C1548.2 776.133 1526.6 795.855 1479.13 831.163C1429.99 863.375 1387.57 875.888 1302.84 894.822C1247.69 904.795 1209.43 903.109 1128.49 887.505C1098.11 881.148 1081.22 875.405 1051.42 859.7C1030.93 849.215 1017.7 840.784 987.842 816.529C963.204 788.402 949.895 774.296 920.41 730.188C881.463 690.309 858.286 668.995 817.336 630.675C797.99 615.568 784.776 608.193 753.758 598.48C728.936 596.052 714.011 596.75 685.363 602.139C645.261 620.082 619.994 637.596 571.692 677.505C523.971 720.827 471.485 723.901 406.966 757.39C366.488 770.582 353.997 767.653 307.745 774.822C252.472 774.624 244.923 775.566 195.882 757.39C159.622 740.284 145.453 736.709 117.01 711.293Z" fill="#65D053" fill-opacity="0.8"/>
<path d="M165.228 765.649C117.758 746.734 90.9871 736.068 49.1735 712.436C41.9319 705.983 41.7639 703.068 49.1735 699.265C63.0477 708.921 72.4259 713.383 90.5958 720.484C137.192 744.683 164.813 756.783 221.606 770.972C263.342 782.139 288.038 787.412 336.24 793.655C415.01 798.023 458.966 798.387 535.645 778.289C571.761 763.977 588.779 754.027 609.82 730.728C626.362 712.602 632.748 701.603 640.646 680.972C652.508 647.303 657.934 628.312 661.838 593.899C672.648 542.264 676.821 513.154 695.554 462.192C710.78 423.911 723.033 403.014 759.133 369.265C792.628 347.554 811.199 334.958 850.647 325.363C889.991 313.484 912.322 309.39 952.758 307.802C1043.02 306.273 1092.23 308.859 1178.17 318.045C1249.07 327.32 1287.71 334.328 1355.42 348.777C1399.08 358.495 1425.04 365.069 1473.91 378.777C1501.4 389.396 1515.01 396.666 1538.45 410.241L1576.02 434.387C1581.98 441.473 1580.9 443.792 1576.02 446.826L1542.3 421.948C1514.78 406.64 1499.19 398.614 1470.05 389.021C1426.54 378.496 1402.03 372.957 1355.42 372.192C1320.31 371.702 1300.28 373.155 1263.91 378.777C1240.79 384.412 1227.93 387.782 1205.14 394.143L1138.68 421.948C1092.53 440.058 1068.57 452.969 1026.93 477.558C965.733 514.928 932.555 537.59 878.583 585.85C835.709 622.126 812.554 644.333 770.692 685.363C736.961 717.512 717.162 735.011 676.288 762.924C646.101 781.156 627.203 789.425 592.48 803.167C537.787 815.827 505.886 819.363 447.02 819.997C393.358 816.022 363.227 813.205 309.267 805.363C251.648 792.723 219.614 785.153 165.734 765.85L165.228 765.649Z" fill="#E70880" fill-opacity="0.6"/>
</svg>
