<svg width="1626" height="963" viewBox="0 0 1626 963" fill="none" xmlns="http://www.w3.org/2000/svg">
<path d="M421.559 31C396.466 36.0299 386.483 36.8549 373.959 40.6524C240.039 66.9948 159.328 73.7541 62.7825 32.5071C32.7836 78.0933 20.3323 104.459 10.8007 153.831C-0.0888672 214.916 0.804688 249.877 23.0316 314.34C46.9366 364.595 58.7794 392.996 124.957 437.171C161.002 463.163 189.486 476.727 256.44 498.963C323.283 521.169 359.094 527.736 442.964 545.684C493.615 551.481 523.157 557.815 577.504 573.566L685.545 606.723L786.786 634.604C834.492 650.735 953.613 678.4 944.77 685.093C1110.33 719.286 1484.06 849.172 1295.39 939.798C1462.55 939.798 1582.99 947.003 1619.52 939.798C1695.71 794.017 1079.82 663.823 855.761 606.723C821.801 597.02 793.357 595.872 752.131 573.566C715.139 571.816 685.433 558.832 618.275 545.684L439.906 527.598L325.75 507.252C258.678 491.849 229.947 478.612 179.997 452.242C151.344 429.695 137.513 415.623 118.841 386.682C108.405 350.955 103.066 330.89 109.668 293.994C121.739 249.352 132.996 225.122 164.708 183.973C209.401 133.029 234.952 104.735 308.423 69.4317C345.613 51.5614 361.121 44.5452 373.959 40.6524C389.111 37.6719 404.945 34.4407 421.559 31Z" fill="#E2FBAD"/>
<path d="M542.115 117.878C472.676 83.5983 462.985 66.8904 414.958 57C635.23 65.897 705.199 53.2141 729.96 0C758.312 44.264 814.393 151.89 823.401 199.829C833.693 259.142 832.848 293.09 811.841 355.683C789.248 404.481 778.055 432.058 715.51 474.951C681.443 500.19 654.523 513.36 591.243 534.951C528.07 556.513 494.224 562.89 414.958 580.317C367.087 585.946 339.166 592.097 287.801 607.39L185.69 639.585L114.405 681.293C80.316 705.507 63.3498 787.39 63.3498 787.39C69.2016 870.201 127.894 902.118 217.479 963C124.148 957.029 59.3386 953.899 24.8174 946.902C10.2392 828.369 -20.6249 763.612 24.8174 639.585C57.1728 618.386 76.584 609.701 114.405 602.268L249.269 580.317L417.848 562.756L525.738 543C589.129 528.044 616.283 515.191 663.492 489.585C690.572 467.692 703.643 454.029 721.29 425.927C731.154 391.237 736.199 371.753 729.96 335.927C718.552 292.58 707.912 269.053 677.941 229.098C635.701 179.631 611.553 152.158 542.115 117.878Z" fill="#D9F0F8"/>
<path d="M28.6645 579C21.7939 563.196 19.5649 553.661 17.1645 536C15.6224 560.602 15.6013 574.398 17.1645 599C19.9399 611.389 22.2206 618.05 28.6645 629C35.6115 641.366 40.5498 647.269 50.1645 657L73.6645 677.5L101.664 693.5C124.974 701.628 138.928 703.76 165.664 702.5C181.806 700.084 190.695 698.536 204.664 693.5C227.992 682.688 239.072 674.752 257.664 659.5C237.431 670.373 226.049 676.31 204.664 682.5C189.458 686.285 180.918 687.085 165.664 686C148.346 684.833 139.282 682.928 124.164 677.5C109.298 670.586 100.879 666.801 88.6645 657C71.2363 643.256 62.1495 635.125 50.1645 618C39.6782 603.595 34.2395 595.345 28.6645 579Z" fill="#E70880" fill-opacity="0.3"/>
<path d="M916.659 858.366C927.926 890.911 936.15 908.741 955.192 939.586C963.092 943.925 967.521 943.605 975.421 939.586C958.522 911.504 949.831 895.439 938.815 864.951C924.356 816.594 916.844 789.459 916.659 740.561C926.262 687.947 925.754 657.9 965.788 608.122C1001 571.17 1022.96 551.661 1076.57 524.707C1151.03 498.781 1194.38 487.305 1274.05 471.293C1404.13 450.982 1473 433.987 1582.31 384.951C1585.93 269.779 1590.09 203.991 1577.49 98.1221C1570.15 143.031 1559.1 165.301 1532.21 202.025C1488.21 259.325 1449.02 287.341 1374.23 335.927C1279.13 382.796 1221.81 408.91 1112.21 455.195C1051.69 481.824 1018.22 498.256 965.788 551.049C938.241 580.354 925.406 601.452 906.063 645.439C895.952 687.263 893.838 711.734 894.503 756.659C896.43 796.843 900.436 819.171 916.659 858.366Z" fill="#FF7B01" fill-opacity="0.7"/>
<path d="M15.8532 740.561V869.341C40.7093 875.596 54.8006 878.052 79.3786 882.335L80.395 882.512C155.081 900.123 204.604 898.198 293.286 894.22C345.987 890.021 375.51 883.707 428.15 869.341C474.712 853.201 502.603 841.685 563.013 806.415C619.372 777.661 643.876 754.712 687.28 713.488C714.878 680.367 728.372 660.161 749.895 622.024L792.281 529.098C824.949 469.145 845.312 435.944 893.428 379.098C926.574 347.317 945.698 332.506 981.089 313.244C1050.19 284.07 1089.57 270.524 1165.08 269.342C1243.63 271.468 1283.16 277.914 1341.37 303.732C1397.76 335.055 1428.35 353.628 1474.3 395.195C1507.54 428.306 1520.67 448.038 1541.74 483.732V360.073C1486.21 324.456 1453.72 305.216 1390.5 273.732L1326.92 250.317C1284.49 238.135 1257.82 234.154 1207.47 229.829C1207.47 229.829 1068.81 241.564 986.869 278.122C931.026 307.066 906.399 326.692 872.235 366.659C842.85 406.149 827.471 428.728 805.767 471.293C780.667 522.866 765.267 553.982 736.409 611.781C717.855 649.398 702.835 668.678 670.904 701.049C655.643 723.129 643.718 733.971 621.775 753C592.792 775.35 574.191 785.844 538.93 802.756C480.994 832.218 443.903 843.741 365.535 851.049C301.769 851.213 268.543 846.658 217.185 823.976C136.184 796.572 91.8148 778.935 15.8532 740.561Z" fill="#FFE605" fill-opacity="0.5"/>
<path d="M951.146 837.146C965.093 882.536 975.772 905.282 998.349 942.512H1335.51C1154.66 870.351 1107.32 824.889 1065.78 739.829C1038.72 695.514 1030.21 669.88 1033.03 622.025C1067.48 557.312 1096.06 529.437 1161.15 492.512C1234.68 460.49 1270.53 443.95 1323.95 433.976C1429.32 406.149 1485.24 402.358 1586.93 390.073C1631.14 258.07 1610.23 188.069 1575.37 63.0001H1417.39C1496.88 93.6173 1518.13 130.348 1551.29 199.829C1572.87 270.649 1548.78 301.182 1485.78 350.561C1410.76 389.642 1357.97 408.487 1258.44 440.561C1216.33 449.92 1185.56 460.651 1128.4 481.537C1088.81 510.324 1078.95 515.6 1065.78 529.098C994.04 580.564 980.153 616.642 951.146 679.829C937 744.246 937.251 778.639 951.146 837.146Z" fill="#018B59" fill-opacity="0.8"/>
<path d="M120.01 711.293C97.0202 689.752 36.5175 658.171 20.6698 631.5C-4.99518 693.736 2.12573 719.282 20.6697 801.293C20.4689 805.887 77.6145 829.839 133.377 846.529C206.158 859.326 239.769 867.18 316.406 851.049C358.369 837.515 373.035 837.504 409.966 816.529C472.783 775.431 506.271 769.346 558.316 719.944C605.69 677.473 633.686 654.95 693.179 623.358C723.062 611.374 735.287 614.372 756.758 620.431C772.794 618.73 786.461 624.085 827.079 655.553C874.676 694.987 895.775 720.328 932.08 770.431C951.852 801.247 968.826 817.723 1003.36 846.529C1031.7 868.309 1048.27 879.895 1078.5 899.944C1115.07 917.763 1138.27 924.655 1182.54 933.602C1237.43 944.36 1268.75 946.162 1326.07 937.992C1384.93 925.844 1416.69 917.192 1466.72 891.895C1502.52 869.023 1521.48 856.023 1544.75 831.163C1555.95 818.139 1562.26 810.82 1575.57 796.773C1586.11 772.619 1584 760.931 1575.57 741.163C1551.2 776.133 1529.6 795.855 1482.13 831.163C1432.99 863.375 1390.57 875.888 1305.84 894.822C1250.69 904.795 1212.43 903.109 1131.49 887.505C1101.11 881.148 1084.22 875.405 1054.42 859.7C1033.93 849.215 1020.7 840.784 990.842 816.529C966.204 788.402 952.895 774.296 923.41 730.188C884.463 690.309 861.286 668.995 820.336 630.675C800.99 615.568 787.776 608.193 756.758 598.48C731.936 596.052 717.011 596.75 688.363 602.139C648.261 620.082 622.994 637.596 574.692 677.505C517 714.5 481.638 733.448 409.966 757.39C369.488 770.582 356.997 767.653 310.745 774.822C255.472 774.624 247.923 775.566 198.882 757.39C162.622 740.284 148.453 736.709 120.01 711.293Z" fill="#65D053" fill-opacity="0.8"/>
<path d="M168.228 765.649C120.758 746.734 93.9871 736.068 52.1735 712.436C44.9319 705.983 44.7639 703.068 52.1735 699.265C66.0477 708.921 75.4259 713.383 93.5958 720.484C140.192 744.683 167.813 756.783 224.606 770.972C266.342 782.139 291.038 787.412 339.24 793.655C418.01 798.023 461.966 798.387 538.645 778.289C574.761 763.977 591.779 754.027 612.82 730.728C629.362 712.602 635.748 701.603 643.646 680.972C655.508 647.303 660.934 628.312 664.838 593.899C675.648 542.264 679.821 513.154 698.554 462.192C713.78 423.911 726.033 403.014 762.133 369.265C795.628 347.554 814.199 334.958 853.647 325.363C892.991 313.484 915.322 309.39 955.758 307.802C1046.02 306.273 1095.23 308.859 1181.17 318.045C1252.07 327.32 1290.71 334.328 1358.42 348.777C1402.08 358.495 1428.04 365.069 1476.91 378.777C1504.4 389.396 1518.01 396.666 1541.45 410.241L1579.02 434.387C1584.98 441.473 1583.9 443.792 1579.02 446.826L1545.3 421.948C1517.78 406.64 1502.19 398.614 1473.05 389.021C1429.54 378.496 1405.03 372.957 1358.42 372.192C1323.31 371.702 1303.28 373.155 1266.91 378.777C1243.79 384.412 1230.93 387.782 1208.14 394.143L1141.68 421.948C1095.53 440.058 1071.57 452.969 1029.93 477.558C968.733 514.928 935.555 537.59 881.583 585.85C838.709 622.126 815.554 644.333 773.692 685.363C739.961 717.512 720.162 735.011 679.288 762.924C649.101 781.156 630.203 789.425 595.48 803.167C540.787 815.827 508.886 819.363 450.02 819.997C396.358 816.022 366.227 813.205 312.267 805.363C254.648 792.723 222.614 785.153 168.734 765.85L168.228 765.649Z" fill="#E70880" fill-opacity="0.6"/>
</svg>
