<svg width="450" height="350" viewBox="0 0 612 519" fill="none" xmlns="http://www.w3.org/2000/svg" className='img-fluid'>
<g id="person-two">
<path id="Vector" d="M432.917 516.957H48.0831C35.4633 516.957 23.3603 511.944 14.4368 503.02C5.5132 494.096 0.5 481.993 0.5 469.374V293.062C0.500001 290.501 1.0216 287.968 2.03293 285.616C3.04426 283.264 4.52414 281.142 6.38232 279.381L210.306 86.078C218.459 78.3494 229.266 74.0415 240.5 74.0415C251.734 74.0415 262.541 78.3494 270.694 86.078L465.124 270.382C469.982 274.986 473.85 280.531 476.493 286.679C479.137 292.828 480.5 299.45 480.5 306.142V469.374C480.5 475.622 479.269 481.81 476.878 487.583C474.487 493.356 470.982 498.601 466.563 503.02C462.145 507.438 456.899 510.943 451.126 513.335C445.353 515.726 439.166 516.957 432.917 516.957Z" fill="#3F3D56"/>
<path id="Vector_2" opacity="0.1" d="M0.500031 295.957H476.5V488.224C476.5 495.845 473.473 503.153 468.085 508.541C462.696 513.93 455.388 516.957 447.768 516.957H29.2323C21.612 516.957 14.3039 513.93 8.91551 508.541C3.52716 503.153 0.500031 495.845 0.500031 488.224V295.957Z" fill="black"/>
<path id="Vector_3" d="M390.819 144.457H89.1811C74.7217 144.457 63 156.178 63 170.638V472.276C63 486.735 74.7217 498.457 89.1811 498.457H390.819C405.278 498.457 417 486.735 417 472.276V170.638C417 156.178 405.278 144.457 390.819 144.457Z" fill="#6C63FF"/>
<path id="Vector_4" opacity="0.1" d="M417 303.907V498.457H62.9999V303.907L240 389.457L417 303.907Z" fill="black"/>
<path id="Vector_5" d="M240 400.457L13.2062 290.84C11.8034 290.162 10.2514 289.851 8.69574 289.937C7.14004 290.022 5.63157 290.502 4.31174 291.33C2.9919 292.158 1.90393 293.307 1.14978 294.671C0.395632 296.034 1.56941e-06 297.567 0 299.125V487.724C-1.31322e-06 491.498 0.743172 495.234 2.1871 498.72C3.63103 502.206 5.74746 505.373 8.4155 508.041C11.0835 510.709 14.2509 512.826 17.7369 514.27C21.2229 515.714 24.9591 516.457 28.7323 516.457H451.268C455.041 516.457 458.777 515.714 462.263 514.27C465.749 512.826 468.917 510.709 471.585 508.041C474.253 505.373 476.369 502.206 477.813 498.72C479.257 495.234 480 491.498 480 487.724V302.355C480 300.454 479.517 298.584 478.597 296.92C477.677 295.257 476.349 293.854 474.739 292.844C473.128 291.833 471.287 291.248 469.389 291.144C467.491 291.039 465.597 291.418 463.885 292.246L240 400.457Z" fill="#3F3D56"/>
<path id="Vector_6" d="M192.5 176.957H93.5V190.957H192.5V176.957Z" fill="#F2F2F2"/>
<path id="Vector_7" d="M379.5 227.957H85.5V235.957H379.5V227.957Z" fill="#F2F2F2"/>
<path id="Vector_8" d="M379.5 254.957H85.5V262.957H379.5V254.957Z" fill="#F2F2F2"/>
<path id="Vector_9" d="M379.5 281.957H85.5V289.957H379.5V281.957Z" fill="#F2F2F2"/>
<path id="Vector_10" d="M479.259 70.7357C478.658 76.0903 474.574 80.4035 473.061 85.5748C470.783 93.3583 474.721 101.711 480.109 107.773C484.456 112.612 489.72 116.541 495.596 119.331C501.473 122.121 507.845 123.718 514.342 124.027C516.251 124.195 518.175 123.985 520.002 123.41C521.635 122.754 523.104 121.749 524.309 120.467C528.366 116.393 530.544 110.749 531.412 105.065C532.28 99.3814 531.943 93.591 531.603 87.8514C531.605 86.665 531.389 85.4883 530.967 84.3794C530.414 83.3232 529.654 82.3889 528.732 81.6322C525.811 78.9526 522.594 76.6153 519.142 74.6657C517.582 73.9667 516.207 72.9139 515.124 71.5909C514.472 70.4574 514.05 69.2064 513.882 67.9095L512.823 62.5106C512.634 60.9548 512.102 59.4602 511.267 58.1342C509.395 55.6094 505.815 55.2659 502.675 55.1427L491.169 54.6914C487.591 54.551 482.875 53.5247 479.382 54.2275C476.119 54.8839 477.203 57.8902 477.795 60.6275C478.655 63.9326 479.146 67.3226 479.259 70.7357Z" fill="#A0616A"/>
<path id="Vector_11" opacity="0.1" d="M479.259 70.7357C478.658 76.0903 474.574 80.4035 473.061 85.5748C470.783 93.3583 474.721 101.711 480.109 107.773C484.456 112.612 489.72 116.541 495.596 119.331C501.473 122.121 507.845 123.718 514.342 124.027C516.251 124.195 518.175 123.985 520.002 123.41C521.635 122.754 523.104 121.749 524.309 120.467C528.366 116.393 530.544 110.749 531.412 105.065C532.28 99.3814 531.943 93.591 531.603 87.8514C531.605 86.665 531.389 85.4883 530.967 84.3794C530.414 83.3232 529.654 82.3889 528.732 81.6322C525.811 78.9526 522.594 76.6153 519.142 74.6657C517.582 73.9667 516.207 72.9139 515.124 71.5909C514.472 70.4574 514.05 69.2064 513.882 67.9095L512.823 62.5106C512.634 60.9548 512.102 59.4602 511.267 58.1342C509.395 55.6094 505.815 55.2659 502.675 55.1427L491.169 54.6914C487.591 54.551 482.875 53.5247 479.382 54.2275C476.119 54.8839 477.203 57.8902 477.795 60.6275C478.655 63.9326 479.146 67.3226 479.259 70.7357Z" fill="black"/>
<path id="Vector_12" d="M552.447 311.747C550.817 329.619 549.187 347.488 547.557 365.355C546.281 379.416 544.98 393.534 542.478 407.413C541.613 412.196 540.601 416.955 539.399 421.672C536.057 434.769 531.208 447.57 529.644 460.997C529.594 461.384 529.553 461.779 529.512 462.174C529.337 465.143 528.775 468.077 527.841 470.9C527.059 472.95 525.857 474.819 525.009 476.844C523.321 480.894 523.099 485.373 522.893 489.76C516.957 486.422 510.458 484.201 503.72 483.208C500.469 482.722 496.847 482.376 494.632 479.948C492.179 477.264 492.45 473.156 492.862 469.55C494.154 458.354 495.444 447.164 496.731 435.979C497.151 431.167 497.969 426.398 499.176 421.721C499.621 420.165 500.156 418.634 500.699 417.103C501.448 414.995 502.206 412.888 502.774 410.723C503.592 407.225 504.164 403.673 504.486 400.095C505.811 388.833 507.408 377.596 508.808 366.343L508.882 365.75C510.981 348.693 512.578 331.553 512.117 314.373C512.051 311.829 511.944 309.285 511.78 306.733C511.549 303.037 511.212 301.078 514.274 298.764C517.657 296.212 522.111 294.426 525.98 292.755C528.063 291.849 550.998 283.708 551.533 285.494C552.609 289.304 553.174 293.241 553.213 297.2C553.229 302.059 552.973 306.916 552.447 311.747Z" fill="#605D82"/>
<path id="Vector_13" opacity="0.1" d="M542.478 407.413C541.613 412.196 540.601 416.955 539.399 421.672C536.057 434.769 531.208 447.57 529.644 460.997C529.594 461.384 529.553 461.779 529.512 462.174C519.288 447.57 510.677 431.863 500.699 417.103C501.448 414.995 502.206 412.888 502.774 410.723C503.592 407.224 504.164 403.673 504.486 400.095C505.811 388.833 507.408 377.596 508.808 366.343L508.882 365.75C509.468 368.139 510.304 370.46 511.376 372.673C518.077 386.29 533.999 393.172 541.786 406.203C542.025 406.607 542.255 407.01 542.478 407.413Z" fill="black"/>
<path id="Vector_14" d="M459.513 287.684C459.851 298.605 461.599 309.427 463.343 320.213L466.943 342.467C468.913 354.646 470.964 367.074 476.727 377.983C481.039 386.143 487.251 393.106 492.871 400.428C506.686 418.426 517.065 438.814 530.165 457.34C533.972 462.725 539.415 468.548 545.914 467.424C550.179 466.686 553.276 463.135 556.629 460.397C560.581 457.169 565.345 454.807 568.455 450.761C571.565 446.716 572.174 439.99 567.961 437.111C566.436 436.267 564.818 435.605 563.139 435.138C556.607 432.654 552.38 426.276 549.69 419.826C547 413.377 545.37 406.442 541.785 400.444C533.999 387.412 518.075 380.53 511.372 366.909C507.618 359.28 507.261 350.487 506.974 341.99L506.242 320.328C506.162 317.959 506.1 315.495 507.063 313.329C509.626 307.563 517.368 307.026 523.636 306.295C530.75 305.461 537.641 303.287 543.946 299.887C547.556 297.937 551.083 295.452 553.014 291.832C554.776 288.53 555.02 284.656 555.226 280.918L557.396 241.66C557.583 238.283 557.753 234.791 556.563 231.624C553.574 223.674 543.535 221.076 535.049 221.455C519.259 222.161 504.683 228.954 489.795 233.541C486.107 234.704 482.363 235.68 478.577 236.466C475.236 237.137 471.192 236.859 468.005 237.933C462.338 239.844 462.482 252.237 461.678 257.378C460.019 267.391 459.294 277.537 459.513 287.684Z" fill="#605D82"/>
<path id="Vector_15" d="M543.77 469.07C545.162 470.474 545.617 472.531 545.98 474.475C547.991 485.258 549.037 496.199 549.106 507.167C549.013 508.191 549.217 509.219 549.694 510.129C550.086 510.672 550.618 511.099 551.232 511.365C555.256 513.283 559.927 510.61 563.281 507.673C569.497 502.228 574.757 494.918 575.11 486.662C575.045 484.535 575.12 482.407 575.333 480.29C575.879 477.181 577.694 474.473 579.293 471.752C582.015 467.121 584.211 462.2 585.839 457.081C586.45 455.157 586.857 452.736 585.349 451.393C584.815 450.975 584.208 450.659 583.558 450.462L565.379 443.712C563.804 443.127 559.884 453.197 559.262 454.297C557.74 456.99 556.227 458.519 553.174 459.14C550.057 459.775 546.347 458.864 543.439 460.419C538.52 463.049 540.984 466.261 543.77 469.07Z" fill="#535070"/>
<path id="Vector_16" d="M515.72 475.284C515.382 474.611 514.911 474.015 514.336 473.529C513.494 472.995 512.538 472.67 511.545 472.581C508.084 471.993 503.982 471.607 501.594 474.179C499.354 476.59 499.739 480.519 497.867 483.226C497.274 484.083 496.471 484.789 495.957 485.695C495.32 487.081 495.032 488.601 495.12 490.124C495.023 494.319 494.927 498.522 495.216 502.708C495.459 506.216 496.051 509.892 498.244 512.64C501.765 517.051 508.116 517.686 513.753 517.972L518.318 518.204C519.575 518.357 520.851 518.24 522.059 517.861C522.807 517.515 523.478 517.023 524.033 516.413C524.587 515.803 525.013 515.088 525.286 514.31C527.663 508.404 523.899 502.04 521.581 496.111C518.917 489.295 519.395 481.727 515.72 475.284Z" fill="#535070"/>
<path id="Vector_17" d="M477.936 40.5651C477.88 39.9663 477.968 39.3628 478.193 38.805C478.862 37.6227 480.608 37.9444 481.925 38.2765C487.221 39.6119 492.803 38.4031 498.256 38.7151C503.71 39.027 509.853 41.7534 510.949 47.1047C514.908 44.2985 518.32 40.7924 521.018 36.7594C522.531 34.4944 523.851 31.9 523.645 29.1836C523.347 25.2656 520.06 22.3355 517.016 19.8507L507.943 12.4437C506.753 11.3493 505.377 10.4748 503.881 9.8609C501.786 9.1449 499.501 9.48604 497.287 9.48746C490.682 9.49169 483.64 6.48589 477.766 9.50539C475.312 10.7667 473.465 12.9281 471.685 15.0357L463.587 24.6216C462.977 25.2325 462.532 25.9876 462.292 26.8167C462.062 27.9868 462.663 29.1416 462.873 30.3155C463.255 32.457 462.333 34.7425 463.042 36.7991C464.219 40.2132 468.364 40.6965 470.899 42.6538C471.843 43.3833 473.324 45.8555 474.449 45.8253C476.479 45.7709 477.883 42.1427 477.936 40.5651Z" fill="#3F3D56"/>
<path id="Vector_18" d="M491.677 68.8215C505.998 68.8215 517.608 57.2115 517.608 42.8899C517.608 28.5683 505.998 16.9584 491.677 16.9584C477.355 16.9584 465.745 28.5683 465.745 42.8899C465.745 57.2115 477.355 68.8215 491.677 68.8215Z" fill="#A0616A"/>
<path id="Vector_19" d="M497.75 99.6416C496.87 97.1215 495.211 94.9471 493.012 93.4339C490.813 91.9207 488.189 91.1473 485.521 91.2258C484.758 91.3679 483.969 91.2681 483.265 90.9405C482.867 90.6347 482.549 90.237 482.338 89.7814C480.761 86.9459 479.494 83.9492 478.557 80.8429C478.143 79.4704 477.578 77.8522 476.189 77.4954C475.614 77.4201 475.03 77.5026 474.498 77.7338C473.967 77.9651 473.508 78.3365 473.171 78.8084C472.511 79.7582 471.791 80.6639 471.013 81.5198C467.752 84.436 461.971 81.7781 458.509 84.4535C457.944 84.8905 457.477 85.4503 456.883 85.8478C456.289 86.2056 455.648 86.4803 454.979 86.6641C448.295 88.8464 441.742 91.4129 435.353 94.3509C437.656 108.218 440.015 122.326 445.412 135.305C447.981 141.482 450.892 147.531 452.948 153.897C457.506 168 457.708 183.091 457.759 197.912C457.794 208.056 457.743 218.417 454.461 228.015C453.578 230.137 452.956 232.357 452.608 234.628C452.41 236.916 453.076 239.437 454.929 240.793C456.003 241.495 457.232 241.927 458.51 242.05C464.197 242.885 469.93 241.371 475.529 240.075C490.538 236.599 505.844 234.61 521.121 232.626L546.721 229.302C548.556 229.178 550.352 228.714 552.018 227.934C556.702 225.369 557.147 218.322 554.238 213.843C552.843 211.696 550.875 209.935 549.704 207.658C548.532 205.382 548.432 202.198 550.449 200.622C554.553 197.414 553.329 191.464 553.524 186.259C554.072 171.707 553.998 157.149 553.302 142.585C553.097 139.57 553.049 136.546 553.158 133.527C553.613 128.41 554.558 123.348 555.981 118.412L563.76 87.7838C561.728 84.5727 557.837 82.5354 554.151 81.6104C550.465 80.6854 546.627 80.4132 542.997 79.2884C535.56 76.9841 528.94 71.1364 521.174 71.6814C520.587 71.692 520.009 71.833 519.483 72.0944C517.731 73.0867 518.009 75.6107 517.897 77.6207C517.649 82.0675 514.378 85.7841 510.766 88.3899C507.154 90.9957 503.029 92.8957 499.712 95.8674C499.124 96.3104 498.643 96.8792 498.303 97.5322C497.964 98.1853 497.775 98.906 497.75 99.6416Z" fill="#3F3D56"/>
<path id="Vector_20" d="M395.001 128.693C393.281 129.809 391.454 130.749 389.546 131.5C387.678 132.055 385.914 132.912 384.321 134.035C383.587 134.67 382.972 135.43 382.504 136.28C381.627 137.837 381.183 139.601 381.219 141.387C381.255 143.174 381.771 144.918 382.711 146.438C383.652 147.958 384.983 149.197 386.566 150.026C388.149 150.856 389.925 151.246 391.71 151.154C394.082 150.888 396.387 150.201 398.517 149.125L416.807 141.199C419.903 139.857 423.247 138.285 424.71 135.245C424.881 134.962 424.944 134.627 424.888 134.3C424.741 133.955 424.474 133.675 424.137 133.511C420.012 130.831 416.404 127.429 413.487 123.468C412.737 122.449 411.819 120.044 410.758 119.433C406.886 117.204 398.099 126.682 395.001 128.693Z" fill="#A0616A"/>
<path id="Vector_21" d="M590.528 122.19L597.271 129.893C598.719 131.546 600.168 133.202 601.488 134.959C604.728 139.425 607.328 144.322 609.211 149.509C610.677 153.355 611.893 157.452 611.381 161.536C611.041 163.629 610.475 165.68 609.694 167.652C608.459 171.445 606.926 175.135 605.112 178.688C603.587 181.387 601.863 183.97 599.956 186.415C594.735 193.334 589.023 199.869 582.863 205.967C580.557 208.249 579.591 211.939 578.587 215.024C576.736 220.714 572.332 225.145 568.073 229.347C566.704 230.793 565.191 232.094 563.558 233.232C561.111 234.808 558.252 235.622 555.342 235.572C554.068 235.581 552.807 235.32 551.641 234.806C548.727 233.422 547.245 230.052 546.942 226.839C546.67 223.924 547.159 220.989 548.359 218.319C552.229 209.747 562.165 206.033 569.189 199.779C573.308 196.111 576.457 191.505 579.563 186.948C581.673 184.103 583.435 181.016 584.81 177.752C586.378 173.566 585.768 168.612 587.138 164.357C587.718 162.559 588.747 160.935 589.37 159.151C589.993 157.368 590.15 155.25 589.06 153.707C588.238 152.726 587.191 151.959 586.007 151.472C581.521 149.195 576.495 146.264 575.637 141.306C575.294 138.556 576.013 135.78 577.646 133.542C579.273 131.333 581.174 129.341 583.304 127.612C585.266 125.877 588.566 123.925 590.528 122.19Z" fill="#A0616A"/>
<path id="Vector_22" d="M390.672 139.446C389.481 137.04 387.993 134.587 385.59 133.391C384.425 132.885 383.17 132.621 381.9 132.616C380.63 132.611 379.372 132.864 378.203 133.36C375.873 134.364 373.692 135.683 371.721 137.28L365.908 141.564C364.591 142.429 363.425 143.505 362.458 144.749C361.54 146.259 360.93 147.935 360.66 149.68C359.647 153.661 359.338 157.789 359.747 161.877C360.669 168.431 364.621 174.153 368.97 179.143C371.688 182.26 375.044 185.406 379.177 185.539C380.962 185.597 382.946 184.893 383.688 183.27C383.945 182.626 384.082 181.94 384.091 181.247C384.538 173.937 381.923 166.796 378.873 160.136C377.901 158.393 377.326 156.455 377.19 154.464C377.169 154.128 377.256 153.795 377.439 153.514C377.702 153.24 378.054 153.068 378.431 153.029C382.605 152.203 389.795 155.446 392.723 150.811C394.621 147.806 392.021 142.171 390.672 139.446Z" fill="#A0616A"/>
<path id="Vector_23" d="M476.576 32.4054C476.52 31.8066 476.608 31.2032 476.833 30.6453C477.502 29.463 479.248 29.7848 480.565 30.1168C485.861 31.4522 491.443 30.2434 496.896 30.5554C502.35 30.8674 508.493 33.5937 509.589 38.945C513.548 36.1388 516.96 32.6327 519.658 28.5997C521.172 26.3347 522.491 23.7403 522.285 21.0239C521.987 17.106 518.7 14.1758 515.657 11.691L506.583 4.28405C505.393 3.18962 504.017 2.31513 502.521 1.70124C500.426 0.985242 498.141 1.32636 495.927 1.32778C489.322 1.33202 482.28 -1.67378 476.406 1.34571C473.952 2.60702 472.105 4.76848 470.325 6.87605L462.227 16.462C461.617 17.0729 461.172 17.828 460.932 18.6571C460.702 19.8271 461.303 20.9819 461.513 22.1559C461.895 24.2974 460.973 26.5829 461.682 28.6394C462.859 32.0536 467.004 32.5368 469.539 34.4941C470.483 35.2236 471.964 37.6959 473.089 37.6657C475.119 37.6112 476.524 33.983 476.576 32.4054Z" fill="#3F3D56"/>
<path id="Vector_24" d="M421.5 103.47C420.453 104.145 419.534 105.001 418.786 105.997C417.835 107.434 417.642 109.249 416.825 110.767C415.077 114.014 410.99 115.169 408.44 117.834C408.035 118.2 407.753 118.683 407.634 119.216C407.622 119.939 407.864 120.644 408.319 121.206L420.616 140.537C424.71 140.898 428.638 138.333 432.734 138.673C434.263 138.8 435.828 139.329 437.294 138.877C438.344 138.411 439.328 137.809 440.221 137.087C442.665 135.542 445.919 135.362 447.97 133.323C449.937 131.367 450.188 128.306 450.165 125.531C450.198 123.122 449.952 120.717 449.434 118.363C447.623 110.943 441.948 105.249 438.391 98.676C436.659 95.476 435.716 93.6027 432.05 95.7999C428.365 98.0084 424.968 100.934 421.5 103.47Z" fill="#3F3D56"/>
<path id="Vector_25" d="M570.841 93.6939C573.152 95.1946 575.235 97.0194 577.027 99.1125C578.901 101.528 579.962 104.484 581.761 106.955C583.505 109.35 585.88 111.205 587.858 113.411C590.859 116.755 592.891 120.836 594.887 124.861C590.012 131.219 584.697 137.226 578.981 142.839C578.344 143.588 577.506 144.14 576.565 144.426C575.925 144.494 575.279 144.403 574.683 144.16C574.087 143.917 573.561 143.53 573.151 143.034C572.265 142.105 571.638 140.96 570.791 139.995C568.793 137.934 566.13 136.646 563.273 136.359C560.442 136.085 557.593 136.046 554.755 136.242C554.132 136.311 553.502 136.205 552.936 135.936C552.515 135.645 552.174 135.254 551.944 134.797C548.614 129.132 549.685 122.019 550.86 115.554L553.555 100.719C553.945 97.8854 554.699 95.1142 555.798 92.4735C556.819 90.2918 559.102 86.5921 561.909 87.2453C564.738 87.9036 568.461 91.9817 570.841 93.6939Z" fill="#3F3D56"/>
</g>
</svg>
