<svg width="85" height="85" viewBox="0 0 85 85" fill="none" xmlns="http://www.w3.org/2000/svg">
<g id="google">
<path id="Vector" d="M23.5298 23.6963C28.3917 18.7935 35.1246 15.7511 42.5266 15.7583C49.3509 15.765 55.5772 18.3271 60.2996 22.5404C60.9762 23.1441 62.0622 23.1044 62.7034 22.4633L71.3672 13.7995C72.0727 13.094 72.0532 11.9411 71.32 11.2645C63.5979 4.13665 53.2284 -0.164511 41.8525 0.00482172C30.3511 0.175988 19.9475 4.95348 12.3899 12.5563C11.5472 13.404 12.5329 23.6661 12.5329 23.6661C12.5329 23.6661 18.786 28.4803 23.5298 23.6963Z" fill="url(#paint0_linear)"/>
<path id="Vector_2" d="M23.5298 23.6962C28.3917 18.7934 35.1246 15.7511 42.5266 15.7582C49.3509 15.7649 55.5772 18.3271 60.2996 22.5404C60.9762 23.1441 62.0622 23.1044 62.7034 22.4632L67.6752 17.4914C67.2422 17.1567 66.8152 16.8054 66.3985 16.4364C59.9167 10.6959 51.4836 7.0431 42.1219 7.14143C32.413 7.24343 23.6925 11.2034 17.387 17.5531C16.6975 18.2474 16.4267 23.6771 16.4267 23.6771C16.4267 23.6771 17.2357 23.6039 23.5298 23.6962V23.6962Z" fill="url(#paint1_linear)"/>
<path id="Vector_3" d="M15.76 42.2582C15.6933 49.7815 18.7333 56.5948 23.6733 61.4932L19.8817 69.6756L12.5317 72.6348C4.80503 64.9498 0.0167104 54.3148 4.38232e-05 42.5615C-0.0166228 30.8899 4.7217 20.2682 12.39 12.5566L23.53 23.6966C18.7867 28.4799 15.8233 35.0349 15.76 42.2582V42.2582Z" fill="url(#paint2_linear)"/>
<path id="Vector_4" d="M15.7602 42.2582C15.6935 49.7815 18.7335 56.5948 23.6735 61.4932L17.5819 67.5865C11.2585 61.3065 7.29688 52.6515 7.14521 43.0715C6.98688 33.1065 10.9152 24.0716 17.3885 17.5549L23.5302 23.6966C18.7868 28.4799 15.8235 35.0349 15.7602 42.2582V42.2582Z" fill="url(#paint3_linear)"/>
<path id="Vector_5" d="M61.3486 61.515C56.4756 66.3435 49.7481 69.288 42.3271 69.241C35.0531 69.195 28.4698 66.2438 23.6755 61.4913L12.5329 72.634C20.188 80.2469 30.7263 84.9639 42.3668 84.9998C54.0311 85.0356 64.6392 80.2389 72.3567 72.5235L69.172 65.7141L61.3486 61.515Z" fill="url(#paint4_linear)"/>
<path id="Vector_6" d="M61.3481 61.5143C56.4747 66.343 49.7478 69.2881 42.3269 69.2415C35.0531 69.1955 28.4698 66.2443 23.6755 61.4913L17.5819 67.585C23.974 73.9351 32.7786 77.8598 42.5001 77.8598C52.2219 77.8598 61.0262 73.935 67.4185 67.585L61.3481 61.5143Z" fill="url(#paint5_linear)"/>
<path id="Vector_7" d="M85 38.1352C85 37.2974 84.3207 36.618 83.4828 36.618H43.9229C43.1724 36.618 42.5639 37.2265 42.5639 37.977V51.0572C42.5639 51.8077 43.1724 52.4162 43.9229 52.4162H63.2431C65.2331 52.4162 66.4687 54.5878 65.4452 56.2943C64.3027 58.199 62.9286 59.9445 61.3642 61.497C61.3584 61.503 61.3544 61.5088 61.3484 61.5148L72.3584 72.5248C72.8782 72.005 73.4057 71.4848 73.9374 70.9633C80.8165 63.3343 85 53.2127 85 42.1709V38.1352Z" fill="url(#paint6_linear)"/>
<path id="Vector_8" d="M76.0733 53.6298C77.6283 48.9298 74.145 44.0832 69.195 44.0832H42.5641V51.0572C42.5641 51.8077 43.1726 52.4162 43.9231 52.4162H63.2432C65.2332 52.4162 66.4689 54.5878 65.4454 56.2943C64.3065 58.1928 62.9374 59.9328 61.3794 61.4816C61.3686 61.4928 61.3599 61.5035 61.3486 61.5148L67.4185 67.5848C70.6452 64.3831 73.2552 60.5615 75.0602 56.3148C75.4317 55.4365 75.77 54.5415 76.0733 53.6298V53.6298Z" fill="url(#paint7_linear)"/>
</g>
<defs>
<linearGradient id="paint0_linear" x1="12.0492" y1="12.9073" x2="71.8832" y2="12.9073" gradientUnits="userSpaceOnUse">
<stop stop-color="#FF637B"/>
<stop offset="1" stop-color="#F90217"/>
</linearGradient>
<linearGradient id="paint1_linear" x1="57.3621" y1="35.8957" x2="19.7698" y2="-1.69669" gradientUnits="userSpaceOnUse">
<stop stop-color="#FF637B"/>
<stop offset="1" stop-color="#F90217"/>
</linearGradient>
<linearGradient id="paint2_linear" x1="1.01071" y1="31.1457" x2="24.122" y2="54.257" gradientUnits="userSpaceOnUse">
<stop stop-color="#FFD833"/>
<stop offset="1" stop-color="#F2B631"/>
</linearGradient>
<linearGradient id="paint3_linear" x1="29.3738" y1="54.4595" x2="4.67971" y2="29.7654" gradientUnits="userSpaceOnUse">
<stop stop-color="#FFD833"/>
<stop offset="1" stop-color="#F2B631"/>
</linearGradient>
<linearGradient id="paint4_linear" x1="38.8393" y1="67.1606" x2="51.7344" y2="80.0558" gradientUnits="userSpaceOnUse">
<stop stop-color="#28A265"/>
<stop offset="1" stop-color="#28895E"/>
</linearGradient>
<linearGradient id="paint5_linear" x1="58.9736" y1="84.0584" x2="21.673" y2="46.7579" gradientUnits="userSpaceOnUse">
<stop stop-color="#28A265"/>
<stop offset="1" stop-color="#28895E"/>
</linearGradient>
<linearGradient id="paint6_linear" x1="60.6641" y1="41.4454" x2="80.4432" y2="61.2245" gradientUnits="userSpaceOnUse">
<stop stop-color="#7FAEF4"/>
<stop offset="1" stop-color="#4C8DF1"/>
</linearGradient>
<linearGradient id="paint7_linear" x1="77.2287" y1="67.6995" x2="51.5511" y2="42.0219" gradientUnits="userSpaceOnUse">
<stop stop-color="#7FAEF4"/>
<stop offset="1" stop-color="#4C8DF1"/>
</linearGradient>
</defs>
</svg>
