<svg width="701" height="507" viewBox="0 0 701 507" fill="none" xmlns="http://www.w3.org/2000/svg">
<g id="login">
<path id="Vector" d="M487.082 283.482C481.447 281.283 478.793 277.111 478.789 272.985C478.786 270.786 479.527 268.613 480.961 266.617C482.396 264.621 484.489 262.851 487.094 261.429C492.898 258.197 500.627 256.615 508.177 256.213C517.313 255.726 526.389 257.005 535.114 258.637C544.456 260.385 553.61 262.584 563.173 263.807C572.453 264.995 581.758 265.112 590.894 263.395C599.326 261.81 607.886 259.01 616.893 259.495C624.672 259.914 630.58 263.248 634.554 267.367C642.444 275.545 643.068 286.52 654.414 293.33C659.32 296.274 665.711 297.608 672.099 298.605C678.224 299.561 684.758 300.173 690.379 302.108C696.406 304.182 700.055 308.081 699.112 312.549C698.041 317.623 692.434 321.99 686.261 324.971C679.763 328.07 672.273 330.196 664.337 331.195C656.401 332.193 648.22 332.04 640.388 330.745C624.009 327.947 610.7 319.773 593.25 319.26C583.515 318.974 573.931 320.682 564.197 320.399C557.452 320.203 550.191 318.597 545.493 315.366C543.237 313.855 541.828 311.902 541.488 309.817C541.382 309.09 539.602 309.083 539.71 309.817C540.377 314.381 545.594 317.753 551.819 319.606C555.096 320.574 558.595 321.195 562.18 321.443C566.943 321.782 571.799 321.461 576.541 321.126C581.552 320.772 586.572 320.337 591.624 320.376C596.236 320.423 600.806 320.946 605.16 321.926C613.521 323.773 621.053 326.836 629.04 329.223C636.771 331.532 644.866 332.964 653.428 333C661.681 333.026 669.845 331.899 677.355 329.695C684.751 327.525 691.701 324.287 696.306 319.92C700.623 315.827 702.89 310.457 699.004 305.874C695.959 302.282 690.151 300.465 684.295 299.346C677.804 298.105 671.019 297.539 664.664 295.994C661.343 295.225 658.288 294.045 655.672 292.52C652.865 290.766 650.552 288.711 648.837 286.447C645.199 281.877 643.34 276.857 640.276 272.137C637.438 267.764 633.555 263.357 627.3 260.662C623.938 259.23 620.031 258.418 616.004 258.314C611.548 258.184 607.12 258.843 602.885 259.673C598.403 260.551 594.03 261.648 589.514 262.457C584.758 263.31 579.827 263.689 574.892 263.582C564.744 263.369 554.94 261.427 545.333 259.47C528.502 256.041 509.783 252.37 492.862 257.655C486.269 259.715 480.684 263.17 478.329 267.708C476.246 271.723 476.534 276.406 479.746 280.146C481.268 281.925 483.488 283.416 486.184 284.471C487.166 284.854 488.06 283.864 487.082 283.482L487.082 283.482Z" fill="#2F2E41"/>
<path id="Vector_2" d="M51.8528 89.4616C75.6741 77.7606 105.344 85.1742 134.32 90.3196C134.589 84.0885 137.858 76.505 134.434 72.1579C130.275 66.8765 130.657 61.3273 133.16 55.7461C139.561 41.4742 130.391 26.2881 121.132 13.661C119.045 10.8213 116.408 8.59016 113.434 7.14872C110.46 5.70728 107.234 5.09622 104.017 5.36517L86.8661 6.77997C82.6926 7.12423 78.7096 8.93228 75.4502 11.9622C72.1907 14.9921 69.8103 19.0993 68.6273 23.7343V23.7343C64.532 30.1666 62.34 36.5812 63.7201 42.9623C57.5859 47.8034 56.5553 53.6472 59.3118 60.2351C61.6491 64.383 61.6243 68.4206 59.2054 72.3465C56.0288 77.3518 53.5958 82.9328 52.0061 88.8607L51.8528 89.4616Z" fill="#2F2E41"/>
<path id="Vector_3" d="M617.945 444.178H132.438C128.12 444.178 123.98 442.197 120.927 438.671C117.874 435.145 116.159 430.363 116.159 425.377C292.155 401.756 464.843 401.756 634.224 425.377C634.224 430.363 632.509 435.145 629.456 438.671C626.403 442.197 622.262 444.178 617.945 444.178Z" fill="#2F2E41"/>
<path id="Vector_4" d="M634.224 426.483L116.159 425.377L176.201 308.705L176.488 308.152V51.0197C176.488 47.8986 177.02 44.8081 178.054 41.9246C179.088 39.0411 180.604 36.4211 182.515 34.2142C184.426 32.0073 186.694 30.2567 189.191 29.0624C191.688 27.8682 194.364 27.2536 197.067 27.2539H550.443C553.146 27.2536 555.822 27.8682 558.319 29.0624C560.815 30.2567 563.084 32.0073 564.995 34.2142C566.906 36.4211 568.422 39.0411 569.456 41.9246C570.49 44.8081 571.022 47.8986 571.022 51.0197V309.922L634.224 426.483Z" fill="#3F3D56"/>
<path id="Vector_5" d="M196.598 43.8424C194.82 43.8447 193.116 44.6611 191.86 46.1123C190.603 47.5636 189.896 49.5313 189.894 51.5837V286.034C189.896 288.087 190.603 290.054 191.86 291.505C193.117 292.957 194.82 293.773 196.598 293.775H553.785C555.562 293.773 557.266 292.957 558.523 291.505C559.779 290.054 560.486 288.087 560.488 286.034V51.5837C560.486 49.5313 559.779 47.5637 558.523 46.1124C557.266 44.6612 555.562 43.8448 553.785 43.8424H196.598Z" fill="white"/>
<path id="Vector_6" d="M198.094 324.741C197.545 324.742 197.008 324.924 196.545 325.266C196.083 325.608 195.715 326.096 195.484 326.672L176.983 373.119C176.782 373.625 176.694 374.181 176.727 374.736C176.761 375.291 176.914 375.827 177.174 376.296C177.434 376.764 177.792 377.15 178.214 377.417C178.637 377.684 179.111 377.824 179.593 377.824H568.655C569.145 377.824 569.626 377.679 570.054 377.404C570.482 377.128 570.841 376.731 571.099 376.25C571.356 375.769 571.503 375.22 571.525 374.655C571.547 374.09 571.443 373.528 571.224 373.022L551.114 326.574C550.877 326.022 550.511 325.558 550.057 325.234C549.603 324.91 549.079 324.739 548.545 324.741H198.094Z" fill="#2F2E41"/>
<path id="Vector_7" d="M373.755 39.9718C376.135 39.9718 378.064 37.7437 378.064 34.9952C378.064 32.2467 376.135 30.0187 373.755 30.0187C371.375 30.0187 369.446 32.2467 369.446 34.9952C369.446 37.7437 371.375 39.9718 373.755 39.9718Z" fill="white"/>
<path id="Vector_8" d="M335.513 386.671C334.882 386.672 334.268 386.913 333.767 387.356C333.266 387.8 332.905 388.422 332.74 389.126L328.099 409.032C327.984 409.524 327.969 410.039 328.054 410.539C328.14 411.038 328.324 411.508 328.592 411.913C328.86 412.317 329.206 412.644 329.601 412.87C329.996 413.095 330.432 413.212 330.873 413.212H419.129C419.587 413.212 420.038 413.086 420.445 412.844C420.853 412.601 421.203 412.25 421.469 411.819C421.735 411.388 421.907 410.89 421.972 410.367C422.037 409.843 421.993 409.309 421.843 408.809L415.877 388.903C415.681 388.251 415.314 387.686 414.828 387.286C414.341 386.886 413.759 386.671 413.162 386.671H335.513Z" fill="#2F2E41"/>
<path id="Vector_9" d="M571.022 304.282V308.705H176.2L176.498 308.152V304.282H571.022Z" fill="#2F2E41"/>
<path id="Vector_10" d="M175.521 175.412L124.492 206.743L123.846 180.634C140.501 177.423 156.348 171.832 171 162.731L176.337 147.503C176.918 145.844 177.863 144.388 179.079 143.278C180.295 142.168 181.741 141.442 183.273 141.172C184.805 140.902 186.372 141.096 187.819 141.736C189.267 142.377 190.545 143.441 191.529 144.824V144.824C192.968 146.848 193.688 149.428 193.542 152.041C193.396 154.655 192.395 157.106 190.742 158.9L175.521 175.412Z" fill="#FFB8B8"/>
<path id="Vector_11" d="M50.8357 356.305C50.4634 354.728 50.3844 353.078 50.6037 351.463C50.8231 349.849 51.336 348.306 52.1086 346.937L63.3183 327.07C65.9696 322.37 70.0379 318.976 74.7338 317.545C79.4298 316.115 84.4185 316.75 88.7321 319.327V319.327C84.021 328.588 84.6777 336.712 90.3591 343.772C81.5394 348.744 73.3879 355.162 66.1572 362.826C64.8372 363.865 63.3213 364.525 61.7357 364.751C60.1501 364.977 58.5407 364.762 57.0417 364.124C55.5427 363.486 54.1974 362.443 53.1179 361.083C52.0384 359.723 51.2559 358.085 50.8357 356.305V356.305Z" fill="#2F2E41"/>
<path id="Vector_12" d="M177.845 330.328C176.149 333.593 173.755 336.299 170.892 338.188C168.029 340.076 164.794 341.083 161.497 341.112L87.027 341.764L83.7973 320.13L116.74 308.941L88.9648 284.324L119.324 243.295L174.466 302.649C177.689 306.118 179.783 310.759 180.398 315.797C181.013 320.836 180.112 325.965 177.845 330.328V330.328Z" fill="#2F2E41"/>
<path id="Vector_13" d="M75.4 478.276H57.9595C42.3005 354.318 26.3612 230.014 73.4622 183.618L129.013 194.061L121.908 248.517L90.9026 289.546L75.4 478.276Z" fill="#2F2E41"/>
<path id="Vector_14" d="M90.731 506.357C89.3657 506.787 87.9371 506.878 86.539 506.625C85.1409 506.371 83.8051 505.779 82.6194 504.887L63.6827 501.948C59.6135 498.886 56.6742 494.188 55.4351 488.765C54.1959 483.342 54.7452 477.58 56.9764 472.599C64.9959 478.039 72.0307 477.28 78.1439 470.718C82.4634 480.791 89.5803 480.176 96.3772 488.662C97.2772 490.186 97.8487 491.937 98.0442 493.768C98.2397 495.599 98.0535 497.458 97.5011 499.189C96.9487 500.92 96.0461 502.474 94.8685 503.721C93.6908 504.967 92.2723 505.871 90.731 506.357V506.357Z" fill="#2F2E41"/>
<path id="Vector_15" d="M116.74 100.815L84.4432 91.8633C89.8072 79.1832 90.249 65.074 87.6729 50.0889L109.635 49.3429C110.323 67.9774 112.405 85.3866 116.74 100.815Z" fill="#FFB8B8"/>
<path id="Vector_16" d="M125.617 216.522C102.106 235.024 85.4933 217.155 72.8162 189.585C74.5778 172.715 71.7255 152.527 66.4429 130.59C64.0935 120.915 64.9707 110.574 68.9011 101.609C72.8315 92.6436 79.5296 85.706 87.6729 82.1656V82.1656L115.448 95.5932C139.033 117.794 143.675 141.843 134.827 167.206L125.617 216.522Z" fill="#6C63FF"/>
<path id="Vector_17" d="M57.9595 119.464L32.1218 135.13L77.9838 166.46L84.3652 184.639C84.7911 185.852 84.9986 187.153 84.975 188.462C84.9514 189.771 84.6972 191.06 84.2279 192.252C83.7586 193.444 83.0841 194.513 82.2454 195.394C81.4067 196.275 80.4215 196.949 79.3498 197.376V197.376C78.1315 197.861 76.8325 198.014 75.5545 197.822C74.2765 197.631 73.0543 197.101 71.9835 196.273C70.9126 195.445 70.0223 194.342 69.3822 193.05C68.7422 191.758 68.3697 190.313 68.294 188.827L67.6487 176.158L9.35869 153.944C7.39475 153.195 5.60406 151.94 4.12221 150.274C2.64036 148.608 1.50622 146.575 0.805708 144.327V144.327C-0.215391 141.052 -0.267359 137.478 0.657918 134.164C1.58319 130.851 3.4335 127.985 5.91933 126.016L52.792 88.8794L57.9595 119.464Z" fill="#FFB8B8"/>
<path id="Vector_18" d="M83.7973 122.448C73.0213 116.994 63.2225 122.919 50.8542 127.67L48.9164 88.1334C61.1976 80.574 72.9069 78.5359 83.7973 84.4036L83.7973 122.448Z" fill="#6C63FF"/>
<path id="Vector_19" d="M96.6877 68.9267C108.076 68.9267 117.308 58.2649 117.308 45.113C117.308 31.9611 108.076 21.2993 96.6877 21.2993C85.2994 21.2993 76.0673 31.9611 76.0673 45.113C76.0673 58.2649 85.2994 68.9267 96.6877 68.9267Z" fill="#FFB8B8"/>
<path id="Vector_20" d="M121.357 42.1083C100.94 44.4175 85.3836 40.5615 75.441 29.5821V20.7401H119.624L121.357 42.1083Z" fill="#2F2E41"/>
<g id="portfolio">
<path id="Vector_21" d="M293.309 56.7437H283.956C284.386 57.8676 284.55 59.0871 284.434 60.2946C284.318 61.5021 283.925 62.6607 283.29 63.6682C282.654 64.6757 281.797 65.5012 280.791 66.072C279.786 66.6428 278.665 66.9414 277.526 66.9415H236.479C235.341 66.9414 234.219 66.6428 233.214 66.072C232.209 65.5012 231.351 64.6757 230.716 63.6682C230.081 62.6607 229.688 61.5021 229.572 60.2946C229.455 59.0871 229.62 57.8676 230.05 56.7437H221.314C219.395 56.7436 217.494 57.1466 215.721 57.9296C213.947 58.7126 212.336 59.8603 210.978 61.307C209.621 62.7538 208.544 64.4714 207.81 66.3617C207.075 68.252 206.697 70.278 206.697 72.3241V269.793C206.697 271.839 207.075 273.865 207.81 275.755C208.544 277.645 209.621 279.363 210.978 280.81C212.336 282.256 213.947 283.404 215.721 284.187C217.494 284.97 219.395 285.373 221.314 285.373H293.309C295.228 285.373 297.129 284.97 298.902 284.187C300.676 283.404 302.287 282.256 303.644 280.81C305.002 279.363 306.079 277.645 306.813 275.755C307.548 273.865 307.926 271.839 307.926 269.793V72.3241C307.926 70.278 307.548 68.252 306.813 66.3617C306.079 64.4714 305.002 62.7538 303.644 61.307C302.287 59.8603 300.676 58.7126 298.902 57.9296C297.129 57.1466 295.228 56.7436 293.309 56.7437V56.7437Z" fill="#E6E6E6"/>
<path id="Vector_22" d="M292.519 291.117H220.87C215.602 291.11 210.551 288.877 206.826 284.907C203.101 280.936 201.006 275.553 201 269.938V72.179C201.006 66.5639 203.101 61.1806 206.826 57.2102C210.551 53.2397 215.602 51.0063 220.87 51H292.519C297.787 51.0063 302.837 53.2397 306.562 57.2102C310.287 61.1807 312.382 66.5639 312.388 72.179V107.911H313.623V134.201H312.388V269.938C312.382 275.553 310.287 280.936 306.562 284.906C302.837 288.877 297.787 291.11 292.519 291.117V291.117ZM220.87 51.6315C215.759 51.6376 210.859 53.8044 207.245 57.6565C203.631 61.5086 201.598 66.7313 201.592 72.179V269.938C201.598 275.385 203.631 280.608 207.245 284.46C210.859 288.312 215.759 290.479 220.87 290.485H292.519C297.63 290.479 302.53 288.312 306.143 284.46C309.757 280.608 311.79 275.385 311.796 269.938V133.57H313.031V108.542H311.796V72.179C311.79 66.7314 309.757 61.5086 306.143 57.6566C302.53 53.8045 297.63 51.6377 292.519 51.6315H220.87Z" fill="#E6E6E6"/>
<path id="Vector_23" d="M226.802 88.1532C226.527 88.1536 226.264 88.2701 226.07 88.4773C225.875 88.6844 225.766 88.9653 225.766 89.2583V154.301C225.766 154.594 225.875 154.875 226.07 155.082C226.264 155.29 226.527 155.406 226.802 155.406H287.824C288.099 155.406 288.362 155.29 288.557 155.082C288.751 154.875 288.86 154.594 288.861 154.301V89.2583C288.86 88.9653 288.751 88.6844 288.557 88.4773C288.362 88.2701 288.099 88.1536 287.824 88.1532H226.802Z" fill="white"/>
<path id="Vector_24" d="M282.473 164.716H271.248C270.546 158.06 272.095 153.099 271.248 150.358H282.473C282.042 155.133 282.042 159.941 282.473 164.716V164.716Z" fill="#6C63FF"/>
<path id="Vector_25" d="M304.559 180.824H210.064V226.291H304.559V180.824Z" fill="#CCCCCC"/>
<path id="Vector_26" d="M276.864 120.956C276.864 125.066 275.72 129.084 273.578 132.502C271.435 135.919 268.39 138.583 264.828 140.156C261.265 141.729 257.345 142.14 253.563 141.339C249.781 140.537 246.307 138.557 243.58 135.651C240.853 132.744 238.996 129.041 238.244 125.01C237.492 120.979 237.878 116.8 239.353 113.003C240.829 109.205 243.328 105.959 246.534 103.676C249.741 101.392 253.51 100.173 257.366 100.173C259.927 100.172 262.463 100.709 264.829 101.753C267.195 102.797 269.345 104.328 271.156 106.258C272.967 108.188 274.403 110.479 275.382 113.001C276.361 115.523 276.865 118.226 276.864 120.956V120.956Z" fill="#6C63FF"/>
<path id="Vector_27" d="M207.903 178.376C207.707 178.377 207.518 178.46 207.379 178.608C207.241 178.756 207.163 178.957 207.162 179.166V222.738C207.163 222.948 207.241 223.148 207.379 223.296C207.518 223.444 207.707 223.528 207.903 223.528H300.62C300.816 223.528 301.005 223.444 301.144 223.296C301.282 223.148 301.361 222.948 301.361 222.738V179.166C301.36 178.957 301.282 178.756 301.144 178.608C301.005 178.46 300.816 178.377 300.62 178.376H207.903Z" fill="white"/>
<path id="Vector_28" d="M273.348 187.831C273.23 187.832 273.117 187.882 273.034 187.97C272.95 188.059 272.904 188.179 272.903 188.305V190.601C272.904 190.727 272.95 190.847 273.034 190.936C273.117 191.025 273.23 191.075 273.348 191.075H286.033C286.151 191.075 286.264 191.025 286.347 190.936C286.431 190.847 286.477 190.727 286.478 190.601V188.305C286.477 188.179 286.431 188.059 286.347 187.97C286.264 187.882 286.151 187.832 286.033 187.831H273.348Z" fill="#6C63FF"/>
<path id="Vector_29" d="M225.315 187.831C225.197 187.832 225.084 187.882 225.001 187.97C224.918 188.059 224.871 188.179 224.871 188.305V190.601C224.871 190.727 224.918 190.847 225.001 190.936C225.084 191.025 225.197 191.075 225.315 191.075H229.011C229.129 191.075 229.241 191.025 229.325 190.936C229.408 190.847 229.455 190.727 229.455 190.601V188.305C229.455 188.179 229.408 188.059 229.325 187.97C229.241 187.882 229.129 187.832 229.011 187.831H225.315Z" fill="#6C63FF"/>
<path id="Vector_30" d="M215.555 187.831C215.437 187.832 215.324 187.882 215.241 187.97C215.157 188.059 215.11 188.179 215.11 188.305V190.601C215.11 190.727 215.157 190.847 215.241 190.936C215.324 191.025 215.437 191.075 215.555 191.075H219.25C219.368 191.075 219.481 191.025 219.564 190.936C219.647 190.847 219.694 190.727 219.694 190.601V188.305C219.694 188.179 219.647 188.059 219.564 187.97C219.481 187.882 219.368 187.832 219.25 187.831H215.555Z" fill="#6C63FF"/>
<path id="Vector_31" d="M235.333 187.831C235.215 187.832 235.102 187.882 235.019 187.97C234.935 188.059 234.888 188.179 234.888 188.305V190.601C234.888 190.727 234.935 190.847 235.019 190.936C235.102 191.025 235.215 191.075 235.333 191.075H267.283C267.4 191.075 267.513 191.025 267.597 190.936C267.68 190.847 267.727 190.727 267.727 190.601V188.305C267.727 188.179 267.68 188.059 267.597 187.97C267.513 187.882 267.4 187.832 267.283 187.831H235.333Z" fill="#6C63FF"/>
<path id="Vector_32" d="M242.782 210.829C242.664 210.829 242.551 210.879 242.467 210.968C242.384 211.057 242.337 211.177 242.337 211.303V213.599C242.337 213.725 242.384 213.845 242.467 213.934C242.551 214.023 242.664 214.073 242.782 214.073H246.477C246.595 214.073 246.708 214.023 246.791 213.934C246.874 213.845 246.921 213.725 246.921 213.599V211.303C246.921 211.177 246.874 211.057 246.791 210.968C246.708 210.879 246.595 210.829 246.477 210.829H242.782Z" fill="#6C63FF"/>
<path id="Vector_33" d="M233.021 210.829C232.903 210.829 232.79 210.879 232.707 210.968C232.624 211.057 232.577 211.177 232.577 211.303V213.599C232.577 213.725 232.624 213.845 232.707 213.934C232.79 214.023 232.903 214.073 233.021 214.073H236.716C236.834 214.073 236.947 214.023 237.031 213.934C237.114 213.845 237.161 213.725 237.161 213.599V211.303C237.161 211.177 237.114 211.057 237.031 210.968C236.947 210.879 236.834 210.829 236.716 210.829H233.021Z" fill="#6C63FF"/>
<path id="Vector_34" d="M252.799 210.829C252.681 210.829 252.568 210.879 252.485 210.968C252.402 211.057 252.355 211.177 252.355 211.303V213.599C252.355 213.725 252.402 213.845 252.485 213.934C252.568 214.023 252.681 214.073 252.799 214.073H284.749C284.867 214.073 284.98 214.023 285.063 213.934C285.146 213.845 285.193 213.725 285.193 213.599V211.303C285.193 211.177 285.146 211.057 285.063 210.968C284.98 210.879 284.867 210.829 284.749 210.829H252.799Z" fill="#6C63FF"/>
<path id="Vector_35" d="M233.535 195.771C233.417 195.771 233.304 195.821 233.221 195.91C233.137 195.999 233.09 196.119 233.09 196.245V198.541C233.09 198.666 233.137 198.787 233.221 198.876C233.304 198.964 233.417 199.014 233.535 199.014H246.22C246.338 199.014 246.451 198.964 246.534 198.876C246.617 198.787 246.664 198.666 246.664 198.541V196.245C246.664 196.119 246.617 195.999 246.534 195.91C246.451 195.821 246.338 195.771 246.22 195.771H233.535Z" fill="#6C63FF"/>
<path id="Vector_36" d="M214.784 195.771C214.666 195.771 214.553 195.821 214.47 195.91C214.387 195.999 214.34 196.119 214.34 196.245V198.541C214.34 198.666 214.387 198.787 214.47 198.876C214.553 198.964 214.666 199.014 214.784 199.014H227.469C227.587 199.014 227.7 198.964 227.783 198.876C227.867 198.787 227.914 198.666 227.914 198.541V196.245C227.914 196.119 227.867 195.999 227.783 195.91C227.7 195.821 227.587 195.771 227.469 195.771H214.784Z" fill="#6C63FF"/>
<path id="Vector_37" d="M290.044 195.771C289.926 195.771 289.813 195.821 289.729 195.91C289.646 195.999 289.599 196.119 289.599 196.245V198.541C289.599 198.666 289.646 198.787 289.729 198.876C289.813 198.964 289.926 199.014 290.044 199.014H293.739C293.857 199.014 293.97 198.964 294.053 198.876C294.136 198.787 294.183 198.666 294.183 198.541V196.245C294.183 196.119 294.136 195.999 294.053 195.91C293.97 195.821 293.857 195.771 293.739 195.771H290.044Z" fill="#6C63FF"/>
<path id="Vector_38" d="M252.029 195.771C251.911 195.771 251.798 195.821 251.715 195.91C251.631 195.999 251.584 196.119 251.584 196.245V198.541C251.584 198.666 251.631 198.787 251.715 198.876C251.798 198.964 251.911 199.014 252.029 199.014H283.978C284.096 199.014 284.209 198.964 284.292 198.876C284.376 198.787 284.422 198.666 284.423 198.541V196.245C284.422 196.119 284.376 195.999 284.292 195.91C284.209 195.821 284.096 195.771 283.978 195.771H252.029Z" fill="#6C63FF"/>
<path id="Vector_39" d="M262.303 203.437C262.185 203.437 262.072 203.487 261.989 203.576C261.906 203.665 261.859 203.785 261.859 203.911V206.207C261.859 206.332 261.906 206.453 261.989 206.542C262.072 206.63 262.185 206.68 262.303 206.68H274.988C275.106 206.68 275.219 206.63 275.302 206.542C275.386 206.453 275.433 206.332 275.433 206.207V203.911C275.433 203.785 275.386 203.665 275.302 203.576C275.219 203.487 275.106 203.437 274.988 203.437H262.303Z" fill="#6C63FF"/>
<path id="Vector_40" d="M281.054 203.437C280.936 203.437 280.823 203.487 280.74 203.576C280.656 203.665 280.609 203.785 280.609 203.911V206.207C280.609 206.332 280.656 206.453 280.74 206.542C280.823 206.63 280.936 206.68 281.054 206.68H293.739C293.857 206.68 293.97 206.63 294.053 206.542C294.136 206.453 294.183 206.332 294.183 206.207V203.911C294.183 203.785 294.136 203.665 294.053 203.576C293.97 203.487 293.857 203.437 293.739 203.437H281.054Z" fill="#6C63FF"/>
<path id="Vector_41" d="M214.784 203.437C214.666 203.437 214.553 203.487 214.47 203.576C214.387 203.665 214.34 203.785 214.34 203.911V206.207C214.34 206.332 214.387 206.453 214.47 206.542C214.553 206.63 214.666 206.68 214.784 206.68H218.479C218.597 206.68 218.71 206.63 218.794 206.542C218.877 206.453 218.924 206.332 218.924 206.207V203.911C218.924 203.785 218.877 203.665 218.794 203.576C218.71 203.487 218.597 203.437 218.479 203.437H214.784Z" fill="#6C63FF"/>
<path id="Vector_42" d="M224.545 203.437C224.427 203.437 224.314 203.487 224.231 203.576C224.147 203.665 224.1 203.785 224.1 203.911V206.207C224.1 206.332 224.147 206.453 224.231 206.542C224.314 206.63 224.427 206.68 224.545 206.68H256.494C256.612 206.68 256.725 206.63 256.808 206.542C256.892 206.453 256.939 206.332 256.939 206.207V203.911C256.939 203.785 256.892 203.665 256.808 203.576C256.725 203.487 256.612 203.437 256.494 203.437H224.545Z" fill="#6C63FF"/>
<path id="Vector_43" d="M259.358 111.441C259.358 111.441 263.174 109.988 265.627 115.799C268.08 121.61 271.896 128.001 271.896 128.001L269.715 128.582C269.715 128.582 269.17 124.515 267.807 123.934L268.353 129.164C268.353 129.164 251.998 135.265 244.639 128.582L244.912 126.549C244.912 126.549 243.821 126.839 243.821 128.582L243.004 127.711C243.004 127.711 243.821 125.968 246.275 123.643C247.885 122.118 248.438 119.216 248.628 117.401C248.771 115.886 249.339 114.452 250.26 113.287C251.89 111.273 254.86 109.133 259.358 111.441Z" fill="#2F2E41"/>
<path id="Vector_44" d="M257.028 129.365C260.925 129.365 264.084 125.998 264.084 121.844C264.084 117.691 260.925 114.324 257.028 114.324C253.131 114.324 249.972 117.691 249.972 121.844C249.972 125.998 253.131 129.365 257.028 129.365Z" fill="#FFB8B8"/>
<path id="Vector_45" d="M265.457 122.757C262.74 120.854 260.541 118.661 259.086 116.054C259.086 116.054 254.101 121.416 251.054 121.684C248.007 121.953 250.777 115.249 250.777 115.249L256.317 113.909L261.579 114.445L265.734 117.126L265.457 122.757Z" fill="#2F2E41"/>
<path id="Vector_46" d="M259.683 127.779H254.351V133.462H259.683V127.779Z" fill="#FFB8B8"/>
<path id="Vector_47" d="M267.485 138.723C264.259 140.809 260.534 141.853 256.762 141.728C252.99 141.603 249.333 140.314 246.234 138.018C246.884 136.561 247.908 135.33 249.187 134.468C250.467 133.606 251.949 133.148 253.462 133.146H259.979C261.615 133.146 263.212 133.681 264.554 134.678C265.896 135.675 266.919 137.086 267.485 138.723V138.723Z" fill="#2F2E41"/>
<path id="Vector_48" d="M284.676 235.135H295.901C296.603 229.613 295.054 224.458 295.901 220.777H284.676C282.563 225.563 282.563 230.349 284.676 235.135Z" fill="#FF6584"/>
<path id="Vector_49" d="M275.868 232.525H264.643C265.064 227.005 266.421 221.85 264.643 218.168H275.868C277.981 222.954 277.981 227.739 275.868 232.525Z" fill="#6C63FF"/>
</g>
<g id="person-password">
<g id="password">
<path id="Vector_50" opacity="0.05" d="M554 64H328V198.041H554V64Z" fill="black"/>
<path id="Vector_51" d="M552.275 65.0166H329.725V196.103H552.275V65.0166Z" fill="#3F3D56"/>
<path id="Vector_52" d="M390.394 98.7528C386.016 98.7528 381.735 100.504 378.094 103.786C374.453 107.067 371.615 111.731 369.94 117.188C368.264 122.644 367.826 128.649 368.68 134.441C369.534 140.234 371.643 145.555 374.739 149.732C377.835 153.908 381.78 156.752 386.075 157.904C390.37 159.057 394.821 158.465 398.867 156.205C402.913 153.945 406.37 150.117 408.803 145.206C411.236 140.296 412.534 134.522 412.534 128.616C412.534 124.694 411.962 120.811 410.849 117.188C409.736 113.564 408.106 110.272 406.05 107.499C403.994 104.726 401.553 102.527 398.867 101.026C396.181 99.5252 393.302 98.7528 390.394 98.7528V98.7528ZM394.365 129.333V143.473H386.539V129.333C385.456 128.227 384.657 126.69 384.257 124.94C383.856 123.189 383.873 121.313 384.305 119.576C384.738 117.839 385.564 116.329 386.667 115.26C387.769 114.19 389.094 113.614 390.452 113.614C391.81 113.614 393.134 114.19 394.237 115.26C395.34 116.329 396.166 117.839 396.598 119.576C397.031 121.313 397.048 123.189 396.647 124.94C396.247 126.69 395.448 128.227 394.365 129.333V129.333Z" fill="#6C63FF"/>
<path id="Vector_53" opacity="0.05" d="M390.394 98.7528C386.016 98.7528 381.735 100.504 378.094 103.786C374.453 107.067 371.615 111.731 369.94 117.188C368.264 122.644 367.826 128.649 368.68 134.441C369.534 140.234 371.643 145.555 374.739 149.732C377.835 153.908 381.78 156.752 386.075 157.904C390.37 159.057 394.821 158.465 398.867 156.205C402.913 153.945 406.37 150.117 408.803 145.206C411.236 140.296 412.534 134.522 412.534 128.616C412.534 124.694 411.962 120.811 410.849 117.188C409.736 113.564 408.106 110.272 406.05 107.499C403.994 104.726 401.553 102.527 398.867 101.026C396.181 99.5252 393.302 98.7528 390.394 98.7528V98.7528ZM394.365 129.333V143.473H386.539V129.333C385.456 128.227 384.657 126.69 384.257 124.94C383.856 123.189 383.873 121.313 384.305 119.576C384.738 117.839 385.564 116.329 386.667 115.26C387.769 114.19 389.094 113.614 390.452 113.614C391.81 113.614 393.134 114.19 394.237 115.26C395.34 116.329 396.166 117.839 396.598 119.576C397.031 121.313 397.048 123.189 396.647 124.94C396.247 126.69 395.448 128.227 394.365 129.333V129.333Z" fill="black"/>
<path id="Vector_54" d="M390.394 90.2211C384.764 90.2211 379.261 92.4729 374.58 96.6918C369.898 100.911 366.25 106.907 364.095 113.923C361.941 120.939 361.377 128.659 362.476 136.106C363.574 143.554 366.285 150.396 370.266 155.765C374.247 161.135 379.319 164.792 384.841 166.273C390.363 167.755 396.086 166.994 401.288 164.088C406.489 161.182 410.935 156.261 414.063 149.947C417.19 143.633 418.86 136.21 418.86 128.616C418.86 118.433 415.861 108.667 410.523 101.467C405.184 94.2662 397.944 90.2211 390.394 90.2211V90.2211ZM395.498 129.539V147.717H385.434V129.539C384.041 128.117 383.015 126.141 382.499 123.889C381.984 121.638 382.005 119.225 382.561 116.991C383.117 114.757 384.18 112.815 385.598 111.44C387.016 110.064 388.719 109.324 390.466 109.324C392.213 109.324 393.916 110.064 395.334 111.44C396.753 112.815 397.815 114.757 398.371 116.991C398.927 119.225 398.949 121.638 398.433 123.889C397.918 126.141 396.891 128.117 395.498 129.539V129.539Z" fill="#6C63FF"/>
<path id="Vector_55" d="M522.659 123.577H430.649V136.763H522.659V123.577Z" fill="white"/>
<path id="Vector_56" d="M522.66 147.623H502.82V160.809H522.66V147.623Z" fill="#6C63FF"/>
<path id="Vector_57" d="M439.706 129.974H438.041L439.522 127.98C439.549 127.943 439.563 127.894 439.563 127.842C439.563 127.791 439.549 127.742 439.522 127.705C439.509 127.687 439.493 127.672 439.475 127.662C439.458 127.653 439.439 127.647 439.42 127.647C439.401 127.647 439.382 127.653 439.365 127.662C439.347 127.672 439.331 127.687 439.318 127.705L437.837 129.702V127.453C437.837 127.401 437.822 127.352 437.795 127.316C437.768 127.279 437.731 127.259 437.693 127.259C437.655 127.26 437.619 127.281 437.592 127.317C437.566 127.353 437.55 127.402 437.55 127.453V129.702L436.072 127.693C436.058 127.675 436.042 127.661 436.025 127.651C436.007 127.641 435.989 127.636 435.97 127.636C435.951 127.636 435.932 127.641 435.914 127.651C435.897 127.661 435.881 127.675 435.867 127.693C435.841 127.73 435.826 127.779 435.826 127.831C435.826 127.882 435.841 127.932 435.867 127.969L437.348 129.962H435.681C435.643 129.963 435.607 129.984 435.58 130.02C435.553 130.056 435.538 130.105 435.537 130.156C435.537 130.207 435.552 130.257 435.579 130.293C435.606 130.329 435.642 130.35 435.681 130.35H437.348L435.867 132.347C435.841 132.384 435.826 132.433 435.826 132.485C435.826 132.536 435.841 132.586 435.867 132.622C435.895 132.657 435.932 132.677 435.97 132.677C436.007 132.677 436.044 132.657 436.072 132.622L437.55 130.625V132.871C437.55 132.922 437.565 132.971 437.592 133.008C437.619 133.044 437.655 133.065 437.693 133.065C437.731 133.065 437.768 133.044 437.795 133.008C437.822 132.971 437.837 132.922 437.837 132.871V130.625L439.318 132.622C439.346 132.657 439.382 132.677 439.42 132.677C439.458 132.677 439.494 132.657 439.522 132.622C439.549 132.586 439.563 132.536 439.563 132.485C439.563 132.433 439.549 132.384 439.522 132.347L438.041 130.35H439.706C439.744 130.35 439.781 130.329 439.808 130.293C439.835 130.257 439.85 130.207 439.85 130.156C439.848 130.106 439.831 130.06 439.805 130.026C439.778 129.992 439.743 129.973 439.706 129.974Z" fill="#6C63FF"/>
<path id="Vector_58" d="M445.744 129.974H444.079L445.56 127.98C445.586 127.943 445.601 127.894 445.601 127.842C445.601 127.791 445.586 127.742 445.56 127.705C445.547 127.687 445.531 127.672 445.513 127.662C445.496 127.653 445.477 127.647 445.458 127.647C445.439 127.647 445.42 127.653 445.403 127.662C445.385 127.672 445.369 127.687 445.356 127.705L443.875 129.702V127.453C443.875 127.401 443.86 127.352 443.833 127.316C443.806 127.279 443.769 127.259 443.731 127.259C443.693 127.26 443.657 127.281 443.63 127.317C443.604 127.353 443.588 127.402 443.587 127.453V129.702L442.11 127.693C442.096 127.675 442.08 127.661 442.063 127.651C442.045 127.641 442.026 127.636 442.007 127.636C441.988 127.636 441.97 127.641 441.952 127.651C441.935 127.661 441.919 127.675 441.905 127.693C441.879 127.73 441.864 127.779 441.864 127.831C441.864 127.882 441.879 127.932 441.905 127.969L443.386 129.962H441.718C441.681 129.963 441.644 129.984 441.618 130.02C441.591 130.056 441.575 130.105 441.575 130.156C441.575 130.207 441.59 130.257 441.617 130.293C441.644 130.329 441.68 130.35 441.718 130.35H443.386L441.905 132.347C441.879 132.384 441.864 132.433 441.864 132.485C441.864 132.536 441.879 132.586 441.905 132.622C441.933 132.657 441.97 132.677 442.007 132.677C442.045 132.677 442.082 132.657 442.11 132.622L443.587 130.625V132.871C443.587 132.922 443.603 132.971 443.63 133.008C443.656 133.044 443.693 133.065 443.731 133.065C443.769 133.065 443.806 133.044 443.833 133.008C443.86 132.971 443.875 132.922 443.875 132.871V130.625L445.356 132.622C445.383 132.657 445.42 132.677 445.458 132.677C445.496 132.677 445.532 132.657 445.56 132.622C445.586 132.586 445.601 132.536 445.601 132.485C445.601 132.433 445.586 132.384 445.56 132.347L444.079 130.35H445.744C445.782 130.35 445.819 130.329 445.846 130.293C445.873 130.257 445.888 130.207 445.888 130.156C445.885 130.106 445.869 130.06 445.843 130.026C445.816 129.992 445.781 129.973 445.744 129.974Z" fill="#6C63FF"/>
<path id="Vector_59" d="M451.783 129.974H450.118L451.599 127.98C451.625 127.943 451.64 127.894 451.64 127.842C451.64 127.791 451.625 127.742 451.599 127.705C451.585 127.687 451.569 127.672 451.552 127.662C451.534 127.653 451.516 127.647 451.497 127.647C451.478 127.647 451.459 127.653 451.441 127.662C451.424 127.672 451.408 127.687 451.394 127.705L449.914 129.702V127.453C449.914 127.401 449.899 127.352 449.872 127.316C449.845 127.279 449.808 127.259 449.77 127.259C449.732 127.26 449.696 127.281 449.669 127.317C449.642 127.353 449.627 127.402 449.626 127.453V129.702L448.148 127.693C448.135 127.675 448.119 127.661 448.101 127.651C448.084 127.641 448.065 127.636 448.046 127.636C448.027 127.636 448.008 127.641 447.991 127.651C447.973 127.661 447.957 127.675 447.944 127.693C447.918 127.73 447.903 127.779 447.903 127.831C447.903 127.882 447.918 127.932 447.944 127.969L449.425 129.962H447.757C447.719 129.963 447.683 129.984 447.656 130.02C447.63 130.056 447.614 130.105 447.613 130.156C447.613 130.207 447.629 130.257 447.656 130.293C447.683 130.329 447.719 130.35 447.757 130.35H449.425L447.944 132.347C447.918 132.384 447.903 132.433 447.903 132.485C447.903 132.536 447.918 132.586 447.944 132.622C447.972 132.657 448.008 132.677 448.046 132.677C448.084 132.677 448.121 132.657 448.148 132.622L449.626 130.625V132.871C449.626 132.922 449.641 132.971 449.668 133.008C449.695 133.044 449.732 133.065 449.77 133.065C449.808 133.065 449.845 133.044 449.872 133.008C449.899 132.971 449.914 132.922 449.914 132.871V130.625L451.394 132.622C451.422 132.657 451.459 132.677 451.497 132.677C451.534 132.677 451.571 132.657 451.599 132.622C451.625 132.586 451.64 132.536 451.64 132.485C451.64 132.433 451.625 132.384 451.599 132.347L450.118 130.35H451.783C451.821 130.35 451.857 130.329 451.884 130.293C451.911 130.257 451.926 130.207 451.926 130.156C451.924 130.106 451.908 130.06 451.881 130.026C451.855 129.992 451.819 129.973 451.783 129.974Z" fill="#6C63FF"/>
<path id="Vector_60" d="M457.82 129.974H456.156L457.636 127.98C457.663 127.943 457.678 127.894 457.678 127.842C457.678 127.791 457.663 127.742 457.636 127.705C457.623 127.687 457.607 127.672 457.59 127.662C457.572 127.653 457.553 127.647 457.534 127.647C457.515 127.647 457.496 127.653 457.479 127.662C457.461 127.672 457.446 127.687 457.432 127.705L455.951 129.702V127.453C455.951 127.401 455.936 127.352 455.909 127.316C455.882 127.279 455.846 127.259 455.808 127.259C455.77 127.26 455.734 127.281 455.707 127.317C455.68 127.353 455.665 127.402 455.664 127.453V129.702L454.186 127.693C454.173 127.675 454.157 127.661 454.139 127.651C454.122 127.641 454.103 127.636 454.084 127.636C454.065 127.636 454.046 127.641 454.029 127.651C454.011 127.661 453.995 127.675 453.982 127.693C453.955 127.73 453.94 127.779 453.94 127.831C453.94 127.882 453.955 127.932 453.982 127.969L455.463 129.962H453.795C453.757 129.963 453.721 129.984 453.694 130.02C453.667 130.056 453.652 130.105 453.651 130.156C453.651 130.207 453.666 130.257 453.693 130.293C453.72 130.329 453.757 130.35 453.795 130.35H455.463L453.982 132.347C453.955 132.384 453.94 132.433 453.94 132.485C453.94 132.536 453.955 132.586 453.982 132.622C454.009 132.657 454.046 132.677 454.084 132.677C454.122 132.677 454.158 132.657 454.186 132.622L455.664 130.625V132.871C455.664 132.922 455.679 132.971 455.706 133.008C455.733 133.044 455.769 133.065 455.808 133.065C455.846 133.065 455.882 133.044 455.909 133.008C455.936 132.971 455.951 132.922 455.951 132.871V130.625L457.432 132.622C457.46 132.657 457.496 132.677 457.534 132.677C457.572 132.677 457.609 132.657 457.636 132.622C457.663 132.586 457.678 132.536 457.678 132.485C457.678 132.433 457.663 132.384 457.636 132.347L456.156 130.35H457.82C457.858 130.35 457.895 130.329 457.922 130.293C457.949 130.257 457.964 130.207 457.964 130.156C457.962 130.106 457.946 130.06 457.919 130.026C457.892 129.992 457.857 129.973 457.82 129.974Z" fill="#6C63FF"/>
<path id="Vector_61" d="M463.859 129.974H462.194L463.675 127.98C463.702 127.943 463.716 127.894 463.716 127.842C463.716 127.791 463.702 127.742 463.675 127.705C463.662 127.687 463.646 127.672 463.628 127.662C463.611 127.653 463.592 127.647 463.573 127.647C463.554 127.647 463.535 127.653 463.518 127.662C463.5 127.672 463.484 127.687 463.471 127.705L461.99 129.702V127.453C461.99 127.401 461.975 127.352 461.948 127.316C461.921 127.279 461.885 127.259 461.846 127.259C461.809 127.26 461.772 127.281 461.746 127.317C461.719 127.353 461.703 127.402 461.703 127.453V129.702L460.225 127.693C460.211 127.675 460.195 127.661 460.178 127.651C460.16 127.641 460.142 127.636 460.123 127.636C460.104 127.636 460.085 127.641 460.067 127.651C460.05 127.661 460.034 127.675 460.021 127.693C459.994 127.73 459.979 127.779 459.979 127.831C459.979 127.882 459.994 127.932 460.021 127.969L461.501 129.962H459.834C459.796 129.963 459.76 129.984 459.733 130.02C459.706 130.056 459.691 130.105 459.69 130.156C459.69 130.207 459.705 130.257 459.732 130.293C459.759 130.329 459.796 130.35 459.834 130.35H461.501L460.021 132.347C459.994 132.384 459.979 132.433 459.979 132.485C459.979 132.536 459.994 132.586 460.021 132.622C460.048 132.657 460.085 132.677 460.123 132.677C460.161 132.677 460.197 132.657 460.225 132.622L461.703 130.625V132.871C461.703 132.922 461.718 132.971 461.745 133.008C461.772 133.044 461.808 133.065 461.846 133.065C461.885 133.065 461.921 133.044 461.948 133.008C461.975 132.971 461.99 132.922 461.99 132.871V130.625L463.471 132.622C463.499 132.657 463.535 132.677 463.573 132.677C463.611 132.677 463.647 132.657 463.675 132.622C463.702 132.586 463.716 132.536 463.716 132.485C463.716 132.433 463.702 132.384 463.675 132.347L462.194 130.35H463.859C463.897 130.35 463.934 130.329 463.961 130.293C463.988 130.257 464.003 130.207 464.003 130.156C464.001 130.106 463.985 130.06 463.958 130.026C463.931 129.992 463.896 129.973 463.859 129.974Z" fill="#6C63FF"/>
<path id="Vector_62" d="M469.897 129.974H468.232L469.713 127.98C469.74 127.943 469.754 127.894 469.754 127.842C469.754 127.791 469.74 127.742 469.713 127.705C469.7 127.687 469.684 127.672 469.666 127.662C469.649 127.653 469.63 127.647 469.611 127.647C469.592 127.647 469.573 127.653 469.556 127.662C469.538 127.672 469.522 127.687 469.509 127.705L468.028 129.702V127.453C468.028 127.401 468.013 127.352 467.986 127.316C467.959 127.279 467.923 127.259 467.884 127.259C467.846 127.26 467.81 127.281 467.784 127.317C467.757 127.353 467.741 127.402 467.741 127.453V129.702L466.263 127.693C466.249 127.675 466.233 127.661 466.216 127.651C466.198 127.641 466.18 127.636 466.161 127.636C466.142 127.636 466.123 127.641 466.105 127.651C466.088 127.661 466.072 127.675 466.059 127.693C466.032 127.73 466.017 127.779 466.017 127.831C466.017 127.882 466.032 127.932 466.059 127.969L467.539 129.962H465.872C465.834 129.963 465.798 129.984 465.771 130.02C465.744 130.056 465.729 130.105 465.728 130.156C465.728 130.207 465.743 130.257 465.77 130.293C465.797 130.329 465.834 130.35 465.872 130.35H467.539L466.059 132.347C466.032 132.384 466.017 132.433 466.017 132.485C466.017 132.536 466.032 132.586 466.059 132.622C466.086 132.657 466.123 132.677 466.161 132.677C466.199 132.677 466.235 132.657 466.263 132.622L467.741 130.625V132.871C467.741 132.922 467.756 132.971 467.783 133.008C467.81 133.044 467.846 133.065 467.884 133.065C467.923 133.065 467.959 133.044 467.986 133.008C468.013 132.971 468.028 132.922 468.028 132.871V130.625L469.509 132.622C469.537 132.657 469.573 132.677 469.611 132.677C469.649 132.677 469.685 132.657 469.713 132.622C469.74 132.586 469.754 132.536 469.754 132.485C469.754 132.433 469.74 132.384 469.713 132.347L468.232 130.35H469.897C469.935 130.35 469.972 130.329 469.999 130.293C470.026 130.257 470.041 130.207 470.041 130.156C470.039 130.106 470.023 130.06 469.996 130.026C469.969 129.992 469.934 129.973 469.897 129.974Z" fill="#6C63FF"/>
<path id="Vector_63" d="M475.935 129.974H474.27L475.751 127.98C475.777 127.943 475.792 127.894 475.792 127.842C475.792 127.791 475.777 127.742 475.751 127.705C475.737 127.687 475.722 127.672 475.704 127.662C475.687 127.653 475.668 127.647 475.649 127.647C475.63 127.647 475.611 127.653 475.593 127.662C475.576 127.672 475.56 127.687 475.547 127.705L474.066 129.702V127.453C474.066 127.401 474.051 127.352 474.024 127.316C473.997 127.279 473.96 127.259 473.922 127.259C473.884 127.26 473.848 127.281 473.821 127.317C473.794 127.353 473.779 127.402 473.778 127.453V129.702L472.3 127.693C472.287 127.675 472.271 127.661 472.254 127.651C472.236 127.641 472.217 127.636 472.198 127.636C472.179 127.636 472.161 127.641 472.143 127.651C472.126 127.661 472.11 127.675 472.096 127.693C472.07 127.73 472.055 127.779 472.055 127.831C472.055 127.882 472.07 127.932 472.096 127.969L473.577 129.962H471.909C471.871 129.963 471.835 129.984 471.809 130.02C471.782 130.056 471.766 130.105 471.766 130.156C471.766 130.207 471.781 130.257 471.808 130.293C471.835 130.329 471.871 130.35 471.909 130.35H473.577L472.096 132.347C472.07 132.384 472.055 132.433 472.055 132.485C472.055 132.536 472.07 132.586 472.096 132.622C472.124 132.657 472.16 132.677 472.198 132.677C472.236 132.677 472.273 132.657 472.3 132.622L473.778 130.625V132.871C473.778 132.922 473.793 132.971 473.82 133.008C473.847 133.044 473.884 133.065 473.922 133.065C473.96 133.065 473.997 133.044 474.024 133.008C474.051 132.971 474.066 132.922 474.066 132.871V130.625L475.547 132.622C475.574 132.657 475.611 132.677 475.649 132.677C475.687 132.677 475.723 132.657 475.751 132.622C475.777 132.586 475.792 132.536 475.792 132.485C475.792 132.433 475.777 132.384 475.751 132.347L474.27 130.35H475.935C475.973 130.35 476.01 130.329 476.036 130.293C476.063 130.257 476.079 130.207 476.079 130.156C476.076 130.106 476.06 130.06 476.034 130.026C476.007 129.992 475.972 129.973 475.935 129.974Z" fill="#6C63FF"/>
<path id="Vector_64" d="M481.973 129.974H480.309L481.789 127.98C481.816 127.943 481.831 127.894 481.831 127.842C481.831 127.791 481.816 127.742 481.789 127.705C481.776 127.687 481.76 127.672 481.743 127.662C481.725 127.653 481.706 127.647 481.687 127.647C481.668 127.647 481.65 127.653 481.632 127.662C481.614 127.672 481.599 127.687 481.585 127.705L480.104 129.702V127.453C480.104 127.401 480.089 127.352 480.062 127.316C480.035 127.279 479.999 127.259 479.961 127.259C479.923 127.26 479.887 127.281 479.86 127.317C479.833 127.353 479.818 127.402 479.817 127.453V129.702L478.339 127.693C478.326 127.675 478.31 127.661 478.292 127.651C478.275 127.641 478.256 127.636 478.237 127.636C478.218 127.636 478.199 127.641 478.182 127.651C478.164 127.661 478.148 127.675 478.135 127.693C478.108 127.73 478.093 127.779 478.093 127.831C478.093 127.882 478.108 127.932 478.135 127.969L479.616 129.962H477.948C477.91 129.963 477.874 129.984 477.847 130.02C477.82 130.056 477.805 130.105 477.804 130.156C477.804 130.207 477.819 130.257 477.846 130.293C477.873 130.329 477.91 130.35 477.948 130.35H479.616L478.135 132.347C478.108 132.384 478.093 132.433 478.093 132.485C478.093 132.536 478.108 132.586 478.135 132.622C478.163 132.657 478.199 132.677 478.237 132.677C478.275 132.677 478.311 132.657 478.339 132.622L479.817 130.625V132.871C479.817 132.922 479.832 132.971 479.859 133.008C479.886 133.044 479.923 133.065 479.961 133.065C479.999 133.065 480.035 133.044 480.062 133.008C480.089 132.971 480.104 132.922 480.104 132.871V130.625L481.585 132.622C481.613 132.657 481.649 132.677 481.687 132.677C481.725 132.677 481.762 132.657 481.789 132.622C481.816 132.586 481.831 132.536 481.831 132.485C481.831 132.433 481.816 132.384 481.789 132.347L480.309 130.35H481.973C482.012 130.35 482.048 130.329 482.075 130.293C482.102 130.257 482.117 130.207 482.117 130.156C482.115 130.106 482.099 130.06 482.072 130.026C482.045 129.992 482.01 129.973 481.973 129.974Z" fill="#6C63FF"/>
<path id="Vector_65" d="M488.011 129.974H486.346L487.827 127.98C487.854 127.943 487.869 127.894 487.869 127.842C487.869 127.791 487.854 127.742 487.827 127.705C487.814 127.687 487.798 127.672 487.78 127.662C487.763 127.653 487.744 127.647 487.725 127.647C487.706 127.647 487.687 127.653 487.67 127.662C487.652 127.672 487.636 127.687 487.623 127.705L486.142 129.702V127.453C486.142 127.401 486.127 127.352 486.1 127.316C486.073 127.279 486.037 127.259 485.999 127.259C485.961 127.26 485.924 127.281 485.898 127.317C485.871 127.353 485.855 127.402 485.855 127.453V129.702L484.377 127.693C484.363 127.675 484.348 127.661 484.33 127.651C484.313 127.641 484.294 127.636 484.275 127.636C484.256 127.636 484.237 127.641 484.219 127.651C484.202 127.661 484.186 127.675 484.173 127.693C484.146 127.73 484.131 127.779 484.131 127.831C484.131 127.882 484.146 127.932 484.173 127.969L485.653 129.962H483.986C483.948 129.963 483.912 129.984 483.885 130.02C483.858 130.056 483.843 130.105 483.842 130.156C483.842 130.207 483.857 130.257 483.884 130.293C483.911 130.329 483.948 130.35 483.986 130.35H485.653L484.173 132.347C484.146 132.384 484.131 132.433 484.131 132.485C484.131 132.536 484.146 132.586 484.173 132.622C484.2 132.657 484.237 132.677 484.275 132.677C484.313 132.677 484.349 132.657 484.377 132.622L485.855 130.625V132.871C485.855 132.922 485.87 132.971 485.897 133.008C485.924 133.044 485.96 133.065 485.999 133.065C486.037 133.065 486.073 133.044 486.1 133.008C486.127 132.971 486.142 132.922 486.142 132.871V130.625L487.623 132.622C487.651 132.657 487.687 132.677 487.725 132.677C487.763 132.677 487.8 132.657 487.827 132.622C487.854 132.586 487.869 132.536 487.869 132.485C487.869 132.433 487.854 132.384 487.827 132.347L486.346 130.35H488.011C488.049 130.35 488.086 130.329 488.113 130.293C488.14 130.257 488.155 130.207 488.155 130.156C488.153 130.106 488.137 130.06 488.11 130.026C488.083 129.992 488.048 129.973 488.011 129.974Z" fill="#6C63FF"/>
<path id="Vector_66" d="M494.05 129.974H492.385L493.866 127.98C493.893 127.943 493.907 127.894 493.907 127.842C493.907 127.791 493.893 127.742 493.866 127.705C493.853 127.687 493.837 127.672 493.819 127.662C493.802 127.653 493.783 127.647 493.764 127.647C493.745 127.647 493.726 127.653 493.709 127.662C493.691 127.672 493.675 127.687 493.662 127.705L492.181 129.702V127.453C492.181 127.401 492.166 127.352 492.139 127.316C492.112 127.279 492.075 127.259 492.037 127.259C491.999 127.26 491.963 127.281 491.936 127.317C491.91 127.353 491.894 127.402 491.894 127.453V129.702L490.416 127.693C490.402 127.675 490.386 127.661 490.369 127.651C490.351 127.641 490.333 127.636 490.314 127.636C490.295 127.636 490.276 127.641 490.258 127.651C490.241 127.661 490.225 127.675 490.212 127.693C490.185 127.73 490.17 127.779 490.17 127.831C490.17 127.882 490.185 127.932 490.212 127.969L491.692 129.962H490.025C489.987 129.963 489.951 129.984 489.924 130.02C489.897 130.056 489.882 130.105 489.881 130.156C489.881 130.207 489.896 130.257 489.923 130.293C489.95 130.329 489.986 130.35 490.025 130.35H491.692L490.212 132.347C490.185 132.384 490.17 132.433 490.17 132.485C490.17 132.536 490.185 132.586 490.212 132.622C490.239 132.657 490.276 132.677 490.314 132.677C490.351 132.677 490.388 132.657 490.416 132.622L491.894 130.625V132.871C491.894 132.922 491.909 132.971 491.936 133.008C491.963 133.044 491.999 133.065 492.037 133.065C492.075 133.065 492.112 133.044 492.139 133.008C492.166 132.971 492.181 132.922 492.181 132.871V130.625L493.662 132.622C493.69 132.657 493.726 132.677 493.764 132.677C493.802 132.677 493.838 132.657 493.866 132.622C493.893 132.586 493.907 132.536 493.907 132.485C493.907 132.433 493.893 132.384 493.866 132.347L492.385 130.35H494.05C494.088 130.35 494.125 130.329 494.152 130.293C494.179 130.257 494.194 130.207 494.194 130.156C494.192 130.106 494.176 130.06 494.149 130.026C494.122 129.992 494.087 129.973 494.05 129.974Z" fill="#6C63FF"/>
<path id="Vector_67" d="M500.087 129.974H498.423L499.903 127.98C499.93 127.943 499.945 127.894 499.945 127.842C499.945 127.791 499.93 127.742 499.903 127.705C499.89 127.687 499.874 127.672 499.857 127.662C499.839 127.653 499.82 127.647 499.801 127.647C499.782 127.647 499.764 127.653 499.746 127.662C499.729 127.672 499.713 127.687 499.699 127.705L498.219 129.702V127.453C498.219 127.401 498.203 127.352 498.176 127.316C498.149 127.279 498.113 127.259 498.075 127.259C498.037 127.26 498.001 127.281 497.974 127.317C497.947 127.353 497.932 127.402 497.931 127.453V129.702L496.453 127.693C496.44 127.675 496.424 127.661 496.406 127.651C496.389 127.641 496.37 127.636 496.351 127.636C496.332 127.636 496.313 127.641 496.296 127.651C496.278 127.661 496.262 127.675 496.249 127.693C496.222 127.73 496.208 127.779 496.208 127.831C496.208 127.882 496.222 127.932 496.249 127.969L497.73 129.962H496.062C496.024 129.963 495.988 129.984 495.961 130.02C495.934 130.056 495.919 130.105 495.918 130.156C495.918 130.207 495.933 130.257 495.96 130.293C495.987 130.329 496.024 130.35 496.062 130.35H497.73L496.249 132.347C496.222 132.384 496.208 132.433 496.208 132.485C496.208 132.536 496.222 132.586 496.249 132.622C496.277 132.657 496.313 132.677 496.351 132.677C496.389 132.677 496.425 132.657 496.453 132.622L497.931 130.625V132.871C497.931 132.922 497.946 132.971 497.973 133.008C498 133.044 498.037 133.065 498.075 133.065C498.113 133.065 498.149 133.044 498.176 133.008C498.203 132.971 498.219 132.922 498.219 132.871V130.625L499.699 132.622C499.727 132.657 499.763 132.677 499.801 132.677C499.839 132.677 499.876 132.657 499.903 132.622C499.93 132.586 499.945 132.536 499.945 132.485C499.945 132.433 499.93 132.384 499.903 132.347L498.423 130.35H500.087C500.126 130.35 500.162 130.329 500.189 130.293C500.216 130.257 500.231 130.207 500.231 130.156C500.229 130.106 500.213 130.06 500.186 130.026C500.159 129.992 500.124 129.973 500.087 129.974Z" fill="#6C63FF"/>
</g>
<path id="Vector_68" d="M536.715 168.711C536.707 168.277 536.666 167.845 536.591 167.422C536.344 166.209 535.786 164.741 534.868 164.375C533.921 163.996 533.005 163.491 532.137 162.868C531.972 159.021 532.648 155.084 531.911 151.355C531.637 149.991 531.183 148.684 531.062 147.288C530.911 145.551 531.274 143.699 530.743 142.099C530.326 140.835 529.408 139.945 528.421 139.479C527.435 139.012 526.371 138.887 525.324 138.761C524.005 138.621 519.735 137.961 518.245 139.5C518.142 139.605 518.05 139.725 517.97 139.859V139.859C517.937 139.918 517.908 139.981 517.882 140.046L517.869 140.075C517.839 140.149 517.814 140.227 517.794 140.308V140.308C517.774 140.396 517.758 140.486 517.748 140.577C517.748 140.606 517.748 140.634 517.748 140.663C517.748 140.692 517.748 140.789 517.748 140.853V140.95C517.748 141.015 517.748 141.08 517.748 141.148C517.748 141.216 517.748 141.198 517.748 141.223C517.767 141.546 517.803 141.869 517.803 142.188C517.806 142.348 517.795 142.506 517.77 142.662C517.678 143.086 517.523 143.481 517.313 143.825V143.825L517.264 143.918C517.234 143.976 517.204 144.03 517.176 144.087C517.149 144.144 517.127 144.188 517.105 144.238C517.083 144.288 517.061 144.32 517.041 144.367C517.015 144.426 516.991 144.487 516.97 144.55C516.97 144.586 516.94 144.618 516.929 144.654C516.894 144.751 516.867 144.852 516.846 144.956C516.782 145.267 516.776 145.595 516.83 145.91C516.904 146.313 517.031 146.695 517.206 147.041C517.275 147.188 517.349 147.331 517.426 147.475L517.619 147.816C517.583 148.149 517.563 148.485 517.561 148.821C517.561 149.945 517.756 151.054 518.132 152.065C518.509 153.076 519.055 153.962 519.732 154.656C519.841 156.172 519.829 157.698 519.696 159.211C519.671 159.527 519.641 159.846 519.608 160.162C519.575 160.478 519.55 160.686 519.517 160.948C519.115 161.023 518.705 160.983 518.317 160.829C518.137 160.725 517.954 160.633 517.767 160.553C516.967 160.291 516.151 161.332 515.36 161.016C515.36 161.066 515.338 161.113 515.324 161.16C515.159 161.026 514.969 160.952 514.774 160.948C514.304 160.919 513.922 160.474 513.582 160.054L512.535 158.766C512.466 158.687 512.405 158.598 512.353 158.5C512.297 158.361 512.254 158.212 512.227 158.059C512.051 157.316 511.625 156.724 511.213 156.16C511.135 156.032 511.031 155.934 510.913 155.877C510.868 155.868 510.821 155.868 510.776 155.877C510.748 155.827 510.717 155.779 510.685 155.733C510.614 155.627 510.538 155.526 510.457 155.432C509.957 154.829 509.907 154.312 509.473 153.637C509.094 152.994 508.751 152.316 508.445 151.609C508.41 151.233 508.36 150.845 508.3 150.454C508.161 149.558 507.96 148.681 507.698 147.834L507.148 146.244L507.085 146.327C506.687 145.551 506.261 145.128 505.879 145.228C505.238 145.401 504.922 147.023 505.024 149.144L505.244 151.297C505.244 151.351 505.263 151.405 505.274 151.459C505.235 151.714 505.214 151.974 505.214 152.234C505.214 152.535 505.428 152.758 505.541 153.027C505.721 153.392 505.816 153.817 505.815 154.251C505.802 154.405 505.766 154.552 505.761 154.703C505.775 155.04 505.865 155.365 506.019 155.636L507.393 158.651L507.668 159.283L507.684 159.311C507.771 159.532 507.897 159.721 508.052 159.864C508.106 160.619 508.26 161.356 508.506 162.043C508.553 162.179 508.605 162.308 508.66 162.437C509.029 163.23 509.464 163.968 509.957 164.637L510.611 165.596C511.257 166.536 511.903 167.48 512.603 168.348C512.854 168.697 513.157 168.974 513.494 169.163C513.658 169.249 513.838 169.277 514.013 169.243C514.189 169.21 514.355 169.117 514.494 168.973C514.494 169.418 514.494 169.863 514.494 170.308C514.596 170.316 514.694 170.36 514.779 170.434C514.864 170.509 514.932 170.611 514.976 170.732C515.021 170.852 515.04 170.986 515.031 171.119C515.023 171.252 514.987 171.38 514.928 171.489C514.351 173.423 513.768 175.375 512.895 177.109C513.511 177.586 514.083 178.156 514.598 178.806C514.933 179.29 515.23 179.816 515.486 180.375C515.511 180.64 515.53 180.902 515.541 181.164C515.744 185.442 514.477 189.688 513.343 193.765C513.015 194.921 512.658 196.13 512.686 197.333C512.47 197.506 512.265 197.699 512.07 197.91C512.295 198.679 512.208 199.364 512.183 200.186C512.175 200.679 512.097 201.165 511.955 201.621C511.835 201.938 511.703 202.246 511.559 202.544C510.847 204.184 510.691 206.133 510.548 208.006C510.463 209.137 510.798 210.518 510.405 211.531C509.726 213.268 509.124 215.119 509.031 217.05C509.027 217.485 508.985 217.917 508.904 218.339C508.819 218.698 508.668 219.003 508.591 219.354C508.512 219.826 508.493 220.311 508.536 220.79C508.588 222.51 508.393 224.228 507.959 225.854C507.615 227.135 507.236 228.506 507.506 229.823C506.843 230.733 506.433 231.907 506.343 233.158C506.336 233.477 506.307 233.796 506.255 234.109C506.171 234.428 506.061 234.735 505.925 235.024C505.372 236.34 505.113 237.832 505.178 239.33C504.354 240.791 503.941 242.593 503.697 244.384C503.452 246.175 503.345 247.998 503.032 249.767C502.614 252.107 501.858 254.472 501.71 256.87C500.819 257.613 500.435 259.052 500.264 260.412C500.094 261.772 500.066 263.201 499.63 264.457C499.404 265.11 499.08 265.695 498.866 266.362C498.715 266.894 498.605 267.443 498.536 268.003C498.404 268.878 498.288 269.854 498.451 270.694C498.217 271.017 497.945 271.287 497.645 271.495C497.689 271.272 497.725 271.05 497.755 270.824C497.046 271.663 495.76 271.369 495.194 272.378C495.024 272.703 494.958 273.101 495.009 273.489C495.06 273.877 495.225 274.224 495.469 274.456C495.646 274.597 495.838 274.704 496.038 274.775C497.412 275.349 498.824 275.927 500.237 275.622C500.404 275.598 500.566 275.531 500.712 275.425C500.896 275.248 501.047 275.02 501.155 274.757C501.366 274.319 501.578 273.881 501.787 273.443C502.293 273.641 502.808 273.798 503.328 273.914C503.381 274.488 503.419 275.062 503.438 275.636C503.713 275.708 504.081 275.73 504.211 275.396C504.25 275.27 504.266 275.133 504.257 274.997C504.257 274.743 504.285 274.405 504.301 274.061H504.356C505.195 274.105 506.029 273.885 506.788 273.418C506.494 270.239 507.464 267.13 508.305 264.123C509.193 260.957 509.954 257.735 510.721 254.512C511.27 252.244 511.878 250.047 512.416 247.775C513.094 244.904 513.775 242.033 514.458 239.162C514.755 237.899 515.055 236.65 515.395 235.393C516.113 232.852 516.964 230.378 517.943 227.989C518.218 227.311 518.492 226.64 518.718 225.937C518.993 225.079 519.188 224.182 519.408 223.295C519.887 221.476 520.463 219.704 521.133 217.991C521.153 217.944 521.166 217.901 521.186 217.858C521.408 219.046 521.631 220.252 521.779 221.447C521.98 222.912 521.996 224.411 521.826 225.883C521.694 226.884 521.444 227.875 521.474 228.89C521.515 230.294 522.09 231.568 522.373 232.921C522.555 233.933 522.658 234.967 522.681 236.007C522.757 237.622 523.428 239.435 522.955 240.931C521.485 245.672 522.197 251.027 521.359 256.005C520.927 258.56 519.605 260.961 519.71 263.574C519.783 265.428 519.908 267.278 520.084 269.122C520.126 269.704 520.242 270.273 520.427 270.806C520.537 271.086 520.663 271.354 520.804 271.609C520.683 271.67 520.581 271.832 520.493 272.173C520.268 273.07 520.493 274.183 521.103 274.685C521.352 274.859 521.62 274.98 521.897 275.044C522.271 275.183 522.658 275.253 523.046 275.252C523.167 275.244 523.287 275.225 523.406 275.195C523.831 275.428 524.265 275.632 524.706 275.805C524.706 275.952 524.728 276.099 524.742 276.246C524.742 276.323 524.755 276.399 524.78 276.469C524.805 276.539 524.84 276.601 524.884 276.652C524.953 276.694 525.029 276.711 525.104 276.702H526.597C526.597 276.541 526.597 276.376 526.597 276.214C526.767 276.237 526.94 276.214 527.103 276.144C527.267 276.075 527.417 275.962 527.545 275.812C527.677 275.592 527.771 275.338 527.819 275.066C528.226 273.264 528.63 271.461 529.031 269.657C529.512 267.663 529.713 265.571 529.622 263.484C529.092 256.87 530.257 250.234 529.878 243.601C529.65 239.615 529.807 235.607 530.345 231.672C530.469 230.782 530.62 229.877 530.675 228.991C530.796 227.318 530.647 225.628 530.738 223.966C530.768 223.385 530.829 222.807 530.884 222.229C531.26 218.643 531.457 215.028 531.474 211.408C531.466 210.209 531.409 209.011 531.304 207.82C531.591 207.724 531.851 207.525 532.054 207.245C532.299 206.829 532.236 206.244 532.233 205.713C532.233 204.442 532.642 203.244 532.972 202.045C533.395 200.392 533.742 198.707 534.011 196.999C534.295 195.623 534.45 194.207 534.473 192.782C534.473 192.638 534.467 192.495 534.456 192.351C534.56 192.257 534.646 192.135 534.709 191.992C534.781 191.782 534.825 191.558 534.841 191.328C534.94 190.413 535.041 189.494 535.14 188.576C535.214 187.918 535.286 187.261 535.357 186.605L536.231 178.641C536.306 177.949 536.383 177.26 536.457 176.571L536.685 174.511C536.71 174.266 536.737 174.022 536.756 173.793C537.427 172.328 536.786 170.376 536.715 168.711ZM529.424 198.528C529.1 197.523 528.798 196.493 528.875 195.409H528.844C528.917 195.075 528.904 194.72 528.809 194.397C528.724 194.135 528.575 193.912 528.484 193.65C528.387 193.331 528.337 192.99 528.336 192.645C528.268 190.463 528.4 188.277 528.729 186.135C528.765 185.884 528.803 185.629 528.839 185.378C528.954 185.291 529.06 185.183 529.152 185.058C529.297 184.843 529.416 184.601 529.507 184.341C529.817 183.526 530.1 182.697 530.361 181.854C530.447 181.581 530.57 181.265 530.782 181.197C530.738 183.296 530.903 185.439 530.249 187.334C530.125 187.639 530.032 187.965 529.974 188.303C529.913 188.838 530.084 189.38 530.023 189.911C529.993 190.187 529.902 190.442 529.867 190.715C529.84 190.849 529.84 190.989 529.868 191.123C529.896 191.257 529.951 191.378 530.026 191.475C530.063 191.509 530.102 191.535 530.144 191.554C530.128 191.698 530.114 191.845 530.103 191.985C530.081 192.279 530.07 192.556 530.056 192.728C529.993 193.606 529.968 194.488 529.982 195.369C529.982 196.321 530.01 197.272 529.999 198.241C530.009 198.519 529.973 198.797 529.894 199.055C529.84 199.189 529.769 199.31 529.685 199.414C529.606 199.091 529.518 198.808 529.424 198.528Z" fill="url(#paint0_linear)"/>
<path id="Vector_69" d="M507.731 156.885C508.57 156.661 508.855 153.965 508.369 150.864C507.882 147.763 506.808 145.431 505.969 145.655C505.131 145.88 504.845 148.576 505.332 151.677C505.819 154.778 506.893 157.11 507.731 156.885Z" fill="#FBBEBE"/>
<path id="Vector_70" d="M520.536 272.241C520.311 273.131 520.536 274.244 521.146 274.728C521.394 274.9 521.66 275.021 521.935 275.087C522.308 275.225 522.694 275.294 523.081 275.292C523.557 275.263 524.013 275.019 524.488 274.933C524.543 274.915 524.601 274.925 524.65 274.962C524.674 274.995 524.692 275.035 524.702 275.078C524.713 275.122 524.716 275.168 524.711 275.213C524.716 275.566 524.736 275.918 524.771 276.268C524.772 276.345 524.785 276.421 524.809 276.491C524.834 276.561 524.87 276.623 524.914 276.673C524.983 276.715 525.059 276.733 525.134 276.724H526.623C526.657 275.015 526.514 273.308 526.197 271.649C526.177 271.522 526.14 271.401 526.087 271.29C525.961 271.109 525.795 270.984 525.612 270.931C525.248 270.733 524.855 270.644 524.461 270.669C523.98 270.752 523.578 271.157 523.169 271.495C522.76 271.832 522.202 272.13 521.704 271.958C521.207 271.785 520.792 271.243 520.536 272.241Z" fill="#3F3D56"/>
<path id="Vector_71" d="M498.668 270.666C498.249 271.252 497.735 271.708 497.164 272.001L496.912 272.159C496.877 272.177 496.847 272.208 496.826 272.249C496.822 272.277 496.822 272.306 496.826 272.334C496.831 272.362 496.841 272.388 496.854 272.411C497.064 272.835 497.375 273.159 497.739 273.332C498.103 273.505 498.501 273.518 498.871 273.369C499.035 273.315 499.186 273.212 499.313 273.067C499.523 272.743 499.643 272.336 499.654 271.912C499.737 271.474 499.723 271.015 499.613 270.587C499.231 269.464 499.091 269.974 498.668 270.666Z" fill="#FBBEBE"/>
<path id="Vector_72" d="M504.378 275.087C504.386 275.223 504.37 275.359 504.331 275.486C504.202 275.816 503.842 275.798 503.562 275.726C503.519 274.508 503.406 273.297 503.224 272.101C502.691 272.069 502.306 272.729 502.02 273.321L501.284 274.847C501.177 275.109 501.027 275.337 500.844 275.514C500.697 275.619 500.535 275.686 500.368 275.712C498.961 276.017 497.541 275.439 496.183 274.865C495.983 274.795 495.792 274.688 495.614 274.549C495.372 274.317 495.208 273.971 495.157 273.584C495.106 273.197 495.171 272.8 495.339 272.474C495.908 271.47 497.186 271.757 497.895 270.924C497.821 271.51 497.7 272.084 497.532 272.636C498.48 272.449 499.118 271.315 499.882 270.558C500.074 270.345 500.305 270.202 500.553 270.142C500.738 270.121 500.924 270.147 501.102 270.217C501.983 270.507 502.807 271.036 503.52 271.771C503.809 272.069 504.26 272.489 504.386 272.948C504.521 273.497 504.378 274.502 504.378 275.087Z" fill="#3F3D56"/>
<path id="Vector_73" d="M523.282 156.674C526.418 156.674 528.96 153.354 528.96 149.259C528.96 145.164 526.418 141.845 523.282 141.845C520.147 141.845 517.605 145.164 517.605 149.259C517.605 153.354 520.147 156.674 523.282 156.674Z" fill="#FBBEBE"/>
<path id="Vector_74" d="M534.467 193.036C534.444 194.454 534.29 195.863 534.008 197.232C533.739 198.932 533.392 200.61 532.969 202.256C532.642 203.452 532.233 204.65 532.235 205.917C532.235 206.445 532.301 207.03 532.054 207.446C531.834 207.738 531.556 207.946 531.251 208.045C531.099 208.098 530.959 208.197 530.842 208.333C530.724 208.47 530.633 208.64 530.575 208.831C530.317 208.328 530.124 207.773 530.004 207.188C529.511 205.216 529.053 203.234 528.63 201.241C528.591 201.126 528.574 201.001 528.581 200.876C528.588 200.751 528.618 200.63 528.668 200.523C528.738 200.444 528.819 200.384 528.907 200.347C529.189 200.197 529.447 199.981 529.669 199.708C529.773 199.588 529.858 199.443 529.921 199.281C530.001 199.024 530.038 198.747 530.029 198.47C530.029 197.519 530.029 196.572 530.009 195.621C529.998 194.742 530.023 193.864 530.086 192.99C530.086 192.818 530.111 192.541 530.133 192.247C530.174 191.683 530.257 191.03 530.49 190.811C530.839 190.506 531.884 190.915 532.279 190.987C532.961 191.109 533.653 191.253 534.318 191.421C534.415 191.951 534.465 192.493 534.467 193.036Z" fill="#3F3D56"/>
<path id="Vector_75" d="M511.543 157.561C511.323 158.136 510.795 158.412 510.388 158.774L508.995 160.023C508.902 160.133 508.793 160.217 508.674 160.27C508.556 160.323 508.43 160.344 508.305 160.332C508.192 160.277 508.088 160.194 508 160.086C507.912 159.978 507.841 159.848 507.791 159.704C507.792 159.694 507.792 159.685 507.791 159.675L507.503 159.044L506.129 156.036C505.976 155.767 505.887 155.445 505.873 155.11C505.873 154.956 505.914 154.812 505.925 154.658C505.929 154.224 505.833 153.799 505.651 153.438C505.541 153.168 505.321 152.946 505.326 152.644C505.316 152.248 505.368 151.854 505.48 151.485C505.624 151.144 505.831 150.856 506.082 150.645C506.211 150.523 506.343 150.409 506.481 150.287C506.554 150.221 506.634 150.173 506.72 150.143C506.948 150.082 507.173 150.33 507.404 150.34C508.396 151.209 508.778 152.853 509.558 154.037C509.998 154.712 510.042 155.228 510.54 155.831C510.619 155.925 510.696 156.025 510.77 156.129C510.869 156.269 510.952 156.426 511.018 156.596C511.108 156.905 511.655 157.267 511.543 157.561Z" fill="#3F3D56"/>
<path id="Vector_76" d="M521.287 156.678C521.697 157.809 522.015 159.05 521.897 160.292C521.873 160.629 521.791 160.954 521.658 161.243C521.262 162.036 520.433 162.18 519.71 162.227C519.557 162.21 519.404 162.233 519.259 162.295C519.114 162.356 518.979 162.455 518.863 162.586C518.767 162.769 518.72 162.989 518.729 163.211C518.738 163.433 518.804 163.645 518.916 163.813C519.148 164.137 519.436 164.383 519.756 164.531C520.9 165.187 522.134 165.729 523.376 165.579C523.953 165.507 524.513 165.288 525.088 165.177C525.714 165.088 526.343 165.043 526.973 165.04C527.72 165.004 528.465 164.908 529.21 164.811L531.183 164.556C531.291 164.558 531.396 164.508 531.477 164.416C531.623 164.193 531.436 163.867 531.254 163.698C530.207 162.686 528.875 161.99 528.278 160.468C528.003 159.75 527.918 158.896 527.715 158.121C527.512 157.346 527.187 156.646 527.061 155.856C526.993 155.164 526.963 154.466 526.97 153.767C526.977 153.063 526.781 152.382 526.421 151.858C526.028 151.381 525.459 151.259 524.926 151.23C523.612 151.155 522.213 151.564 521.282 152.773C521.032 153.1 520.817 153.491 520.559 153.785C520.301 154.08 519.949 154.166 520.119 154.553C520.29 154.941 520.625 155.182 520.806 155.522C520.99 155.89 521.151 156.277 521.287 156.678V156.678Z" fill="#FBBEBE"/>
<path id="Vector_77" d="M532.48 167.118C532.133 169.881 531.57 172.591 530.798 175.203C530.41 176.383 530.08 177.594 529.809 178.828C529.597 179.941 529.638 181.132 529.443 182.248C529.201 183.637 528.96 185.03 528.764 186.43C528.437 188.567 528.306 190.748 528.374 192.926C528.375 193.269 528.425 193.608 528.523 193.927C528.613 194.185 528.759 194.408 528.844 194.673C528.908 194.907 528.934 195.155 528.921 195.402C528.907 195.649 528.855 195.89 528.767 196.109C528.626 196.52 528.435 196.898 528.201 197.229C525.64 198.226 522.9 197.9 520.232 198.112C517.772 198.305 515.285 198.966 512.861 198.417C512.586 196.981 513.045 195.477 513.438 194.078C514.579 190.011 515.84 185.776 515.637 181.516C515.615 181.019 515.572 180.525 515.508 180.034C515.109 177.016 515.543 173.89 516.239 170.965C516.67 169.142 516.651 167.2 516.552 165.302C516.503 164.685 516.496 164.064 516.533 163.446C516.572 162.815 516.752 162.213 517.049 161.713C517.049 161.687 517.074 161.662 517.088 161.637C517.101 161.612 517.209 161.616 517.294 161.637C517.316 161.649 517.339 161.655 517.363 161.655C517.386 161.655 517.41 161.649 517.431 161.637L517.461 161.612C517.473 161.601 517.487 161.595 517.501 161.595C517.516 161.595 517.53 161.601 517.541 161.612C517.604 161.662 517.64 161.835 517.778 161.867C517.981 161.907 518.185 161.932 518.39 161.942C518.637 161.952 518.882 161.998 519.121 162.079H519.154C519.512 162.157 519.879 162.117 520.221 161.96C520.448 161.886 520.668 161.775 520.875 161.63C520.935 161.544 521.314 161.465 521.391 161.404C521.641 161.207 521.586 160.281 521.639 159.9C521.667 159.519 521.737 159.144 521.845 158.788C521.97 158.524 522.143 158.305 522.348 158.15C522.553 157.994 522.784 157.906 523.021 157.894C523.494 157.879 523.967 157.935 524.431 158.059C525.456 158.249 526.505 158.217 527.511 158.526C528.017 158.68 528.569 158.913 529.034 158.612C529.16 158.651 529.179 158.795 529.179 158.971C529.167 159.138 529.142 159.303 529.102 159.462C528.927 160.453 529.523 161.364 530.072 162.082C530.305 162.421 530.579 162.706 530.883 162.926C531.158 163.091 531.433 163.159 531.708 163.338C531.93 163.493 532.119 163.719 532.257 163.995C532.416 164.311 532.522 164.667 532.57 165.039C532.629 165.734 532.599 166.436 532.48 167.118Z" fill="#3F3D56"/>
<path id="Vector_78" opacity="0.1" d="M532.48 167.119C532.134 169.882 531.57 172.592 530.798 175.205C530.41 176.385 530.08 177.595 529.809 178.83C529.597 179.942 529.639 181.134 529.444 182.25C529.202 183.639 528.96 185.031 528.765 186.431C528.707 186.474 528.647 186.513 528.586 186.549C528.244 186.763 527.882 186.915 527.509 187.002C526.839 187.107 526.16 187.078 525.497 186.915L521.576 186.23C520.009 185.954 518.341 185.62 517.179 184.235C516.533 183.474 516.11 182.469 515.645 181.5C515.624 181.003 515.581 180.508 515.516 180.018C515.118 176.999 515.552 173.873 516.247 170.948C516.679 169.125 516.659 167.183 516.56 165.285C516.512 164.668 516.505 164.047 516.541 163.429C516.581 162.798 516.761 162.196 517.058 161.696C517.138 161.665 517.22 161.641 517.302 161.624V161.624C517.358 161.61 517.414 161.6 517.47 161.595H517.55C517.642 161.596 517.735 161.61 517.825 161.639C518.012 161.716 518.195 161.809 518.374 161.915H518.407C518.643 162.016 518.89 162.062 519.138 162.051C519.501 162.051 519.875 161.976 520.237 161.944C520.686 161.852 521.144 161.96 521.54 162.249C521.796 162.517 522.038 162.806 522.266 163.114C522.54 163.396 522.85 163.615 523.181 163.763C525.546 164.942 528.171 164.87 530.496 163.562C530.719 163.396 530.973 163.312 531.23 163.318C531.42 163.367 531.599 163.467 531.757 163.612C531.922 163.738 532.084 163.86 532.252 163.971C532.411 164.288 532.517 164.643 532.565 165.016C532.628 165.718 532.6 166.429 532.48 167.119V167.119Z" fill="black"/>
<path id="Vector_79" d="M534.873 164.741C533.779 164.305 532.728 163.703 531.741 162.947C531.582 162.802 531.403 162.702 531.213 162.653C530.955 162.649 530.701 162.733 530.477 162.897C528.152 164.204 525.528 164.277 523.164 163.098C522.834 162.948 522.524 162.729 522.249 162.448C522.02 162.141 521.778 161.852 521.523 161.583C520.619 160.819 519.369 161.716 518.357 161.224C518.178 161.119 517.995 161.027 517.808 160.948C517.008 160.686 516.195 161.727 515.409 161.411C515.116 162.449 514.9 163.521 514.763 164.612C514.651 165.865 514.592 167.126 514.584 168.388C514.584 169.145 514.557 169.902 514.584 170.659C514.681 170.68 514.774 170.727 514.856 170.797C514.938 170.867 515.009 170.958 515.062 171.065C515.099 171.19 515.113 171.324 515.106 171.457C515.098 171.59 515.068 171.72 515.019 171.837C514.444 173.764 513.862 175.713 512.99 177.439C513.604 177.917 514.174 178.485 514.689 179.133C515.651 180.461 516.123 182.324 517.162 183.551C518.333 184.933 520.001 185.27 521.559 185.543L525.48 186.228C526.145 186.391 526.824 186.421 527.495 186.318C527.867 186.229 528.228 186.076 528.569 185.862C528.792 185.741 528.995 185.565 529.168 185.345C529.313 185.131 529.433 184.889 529.523 184.628C529.833 183.817 530.117 182.987 530.378 182.148C530.468 181.85 530.606 181.502 530.853 181.477C532.309 179.761 533.684 178.002 535.14 176.287C535.725 175.653 536.25 174.93 536.704 174.134C537.426 172.737 536.77 170.76 536.704 169.073C536.696 168.642 536.654 168.212 536.58 167.792C536.344 166.568 535.789 165.104 534.873 164.741Z" fill="#6C63FF"/>
<path id="Vector_80" opacity="0.1" d="M511.542 157.56C511.322 158.134 510.795 158.41 510.388 158.773L508.995 160.022C508.902 160.131 508.793 160.215 508.674 160.268C508.556 160.321 508.43 160.342 508.305 160.33C508.192 160.276 508.088 160.192 508 160.084C507.911 159.976 507.84 159.846 507.791 159.702C507.791 159.62 507.791 159.53 507.791 159.444C507.781 159.153 507.81 158.863 507.879 158.586C508.016 158.18 508.227 157.825 508.495 157.553C509.012 156.913 509.627 156.423 510.3 156.117C510.405 156.064 510.519 156.049 510.63 156.074C510.673 156.088 510.713 156.111 510.751 156.142C510.849 156.282 510.932 156.439 510.998 156.609C511.108 156.903 511.655 157.265 511.542 157.56Z" fill="black"/>
<path id="Vector_81" d="M514.823 161.343C514.356 161.314 513.974 160.873 513.633 160.453L512.592 159.19C512.522 159.113 512.461 159.023 512.41 158.924C512.354 158.785 512.311 158.636 512.284 158.483C512.063 157.758 511.717 157.109 511.272 156.588C511.195 156.459 511.091 156.362 510.973 156.308C510.861 156.281 510.746 156.296 510.64 156.351C509.967 156.657 509.352 157.146 508.835 157.786C508.567 158.059 508.356 158.414 508.219 158.82C508.15 159.097 508.12 159.387 508.131 159.678C508.138 160.626 508.301 161.561 508.61 162.42C508.656 162.552 508.709 162.685 508.763 162.814C509.13 163.606 509.563 164.341 510.055 165.007L510.709 165.962C511.352 166.902 511.995 167.843 512.693 168.708C512.943 169.056 513.247 169.332 513.584 169.519C513.753 169.609 513.938 169.636 514.118 169.598C514.298 169.56 514.467 169.458 514.606 169.303C514.738 169.104 514.837 168.872 514.897 168.621C515.32 167.186 515.722 165.693 515.746 164.146C515.752 163.527 515.732 162.907 515.686 162.291C515.645 161.637 515.29 161.382 514.823 161.343Z" fill="#6C63FF"/>
<path id="Vector_82" d="M531.477 211.587C531.461 215.197 531.264 218.802 530.889 222.379C530.834 222.957 530.773 223.535 530.743 224.112C530.652 225.788 530.801 227.472 530.68 229.137C530.616 230.038 530.474 230.931 530.353 231.811C529.816 235.735 529.659 239.732 529.885 243.708C530.265 250.322 529.102 256.94 529.63 263.537C529.694 264.82 529.639 266.108 529.468 267.374C529.369 268.159 529.227 268.934 529.042 269.692C528.641 271.489 528.238 273.283 527.833 275.075C527.785 275.348 527.691 275.603 527.558 275.822C527.418 275.98 527.253 276.098 527.076 276.166C526.898 276.235 526.711 276.253 526.527 276.22C524.942 276.156 523.449 275.262 522.009 274.39C521.844 274.305 521.691 274.183 521.556 274.031C521.256 273.626 521.281 272.987 521.149 272.452C521.017 271.917 520.66 271.415 520.457 270.866C520.29 270.346 520.188 269.795 520.157 269.233C519.974 267.395 519.849 265.55 519.783 263.698C519.679 261.093 520.998 258.695 521.432 256.162C522.257 251.18 521.559 245.84 523.024 241.113C523.485 239.62 522.815 237.811 522.749 236.204C522.725 235.166 522.622 234.135 522.441 233.124C522.166 231.775 521.586 230.504 521.545 229.105C521.515 228.093 521.765 227.106 521.894 226.108C522.065 224.64 522.05 223.144 521.847 221.683C521.702 220.477 521.479 219.271 521.256 218.094L521.207 218.227C520.537 219.936 519.962 221.705 519.484 223.52C519.264 224.4 519.072 225.297 518.797 226.151C518.572 226.869 518.294 227.525 518.022 228.2C517.046 230.58 516.197 233.044 515.48 235.575C515.139 236.817 514.84 238.088 514.543 239.333L512.507 247.947C511.957 250.211 511.355 252.4 510.816 254.662C510.055 257.892 509.294 261.093 508.409 264.251C507.585 267.248 506.604 270.352 506.898 273.518C506.14 273.983 505.308 274.203 504.471 274.16C503.055 273.997 501.665 273.556 500.349 272.854C499.824 272.599 499.28 272.312 498.925 271.748C498.315 270.776 498.467 269.351 498.651 268.113C498.72 267.555 498.83 267.007 498.98 266.476C499.189 265.816 499.53 265.231 499.744 264.578C500.176 263.325 500.203 261.908 500.374 260.547C500.544 259.187 500.923 257.752 501.814 257.012C501.965 254.622 502.718 252.264 503.133 249.928C503.446 248.158 503.551 246.339 503.798 244.544C504.045 242.75 504.444 240.955 505.274 239.502C505.208 238.003 505.467 236.51 506.021 235.195C506.155 234.906 506.265 234.599 506.348 234.28C506.399 233.968 506.429 233.651 506.436 233.332C506.527 232.085 506.935 230.914 507.596 230.005C507.321 228.695 507.703 227.328 508.046 226.058C508.479 224.436 508.675 222.724 508.623 221.008C508.581 220.529 508.599 220.044 508.676 219.572C508.753 219.213 508.904 218.908 508.992 218.564C509.07 218.142 509.112 217.71 509.115 217.275C509.223 215.334 509.824 213.503 510.489 211.77C510.885 210.758 510.55 209.383 510.632 208.256C510.775 206.383 510.932 204.445 511.644 202.812C511.776 202.503 511.918 202.209 512.037 201.89C512.18 201.434 512.257 200.947 512.265 200.454C512.289 199.632 512.377 198.95 512.152 198.186C513.622 196.589 515.628 196.14 517.541 196.032C519.454 195.925 521.388 196.151 523.26 195.62C523.809 195.458 524.359 195.236 524.939 195.128C526.255 194.877 527.591 195.268 528.891 195.656C528.8 196.732 529.102 197.766 529.44 198.767C530.76 202.823 531.452 207.18 531.477 211.587V211.587Z" fill="#33313F"/>
<path id="Vector_83" opacity="0.1" d="M525.005 212.41L521.848 221.684C521.702 220.478 521.479 219.273 521.257 218.095L521.207 218.228V218.034L522.928 213.092L525.005 212.41Z" fill="black"/>
<path id="Vector_84" opacity="0.1" d="M534.467 193.036C534.285 193.214 534.067 193.32 533.841 193.342C533.492 193.358 533.145 193.296 532.813 193.159L530.339 192.351C530.262 192.326 530.186 192.291 530.114 192.247C530.155 191.683 530.238 191.03 530.471 190.811C530.82 190.506 531.865 190.915 532.26 190.987C532.942 191.109 533.634 191.253 534.299 191.421C534.403 191.95 534.459 192.492 534.467 193.036V193.036Z" fill="black"/>
<path id="Vector_85" d="M536.558 171.683C536.61 171.98 536.685 172.275 536.729 172.576C536.803 173.316 536.783 174.066 536.671 174.798L536.446 176.851L536.22 178.914L535.349 186.857L535.135 188.823L534.832 191.569C534.818 191.797 534.774 192.021 534.701 192.229C534.61 192.424 534.485 192.587 534.335 192.703C534.184 192.819 534.015 192.884 533.84 192.893C533.492 192.908 533.145 192.846 532.813 192.71L530.339 191.899C530.231 191.874 530.128 191.819 530.037 191.738C529.961 191.641 529.907 191.52 529.879 191.387C529.851 191.254 529.85 191.114 529.878 190.98C529.913 190.708 530.004 190.453 530.034 190.18C530.095 189.649 529.924 189.103 529.985 188.576C530.044 188.24 530.136 187.915 530.26 187.61C531.084 185.231 530.606 182.453 530.886 179.869C531.138 177.835 531.796 175.924 532.793 174.328C533.409 173.32 534.116 172.414 534.898 171.629C535.206 171.317 535.695 170.674 536.083 170.552C536.58 170.416 536.476 171.23 536.558 171.683Z" fill="#6C63FF"/>
<path id="Vector_86" d="M517.841 140.768C517.66 141.521 517.943 142.35 517.814 143.118C517.673 143.965 517.063 144.554 516.89 145.404C516.615 146.7 517.456 147.881 518.072 148.958C520.353 152.956 520.053 158.49 519.273 163.367C518.645 167.28 517.776 171.121 516.676 174.852C516.332 176.011 515.953 177.188 515.277 178.057C516.541 177.583 517.885 177.106 519.152 177.565C520.757 178.146 522.142 180.181 523.769 179.718C524.747 179.435 525.434 178.301 526.313 177.673C527.962 176.513 529.949 177.242 531.788 177.615C532.184 177.737 532.598 177.71 532.983 177.536C533.277 177.33 533.527 177.03 533.709 176.664C534.529 175.289 535.02 173.629 535.121 171.891C535.165 171.025 535.067 170.158 534.834 169.345C534.601 168.533 534.239 167.794 533.772 167.179C533.381 166.698 532.914 166.31 532.615 165.743C532.323 165.081 532.167 164.332 532.161 163.568C531.944 159.62 532.681 155.59 531.922 151.771C531.647 150.411 531.199 149.108 531.079 147.716C530.927 145.982 531.287 144.127 530.76 142.54C530.345 141.281 529.43 140.387 528.443 139.928C527.457 139.468 526.401 139.339 525.354 139.21C523.848 139.045 518.47 138.201 517.841 140.768Z" fill="#33313F"/>
</g>
<g id="lock">
<path id="Vector_87" d="M547.711 74.7917C567.986 74.7917 584.422 58.049 584.422 37.3959C584.422 16.7427 567.986 0 547.711 0C527.436 0 511 16.7427 511 37.3959C511 58.049 527.436 74.7917 547.711 74.7917Z" fill="#6C63FF"/>
<path id="Vector_88" d="M562.92 53.6896H532.502C531.946 53.6891 531.413 53.4638 531.019 53.0631C530.626 52.6625 530.405 52.1193 530.404 51.5527V32.8548C530.405 32.2882 530.626 31.7451 531.019 31.3444C531.413 30.9438 531.946 30.7185 532.502 30.7179H562.92C563.476 30.7185 564.009 30.9438 564.402 31.3444C564.796 31.7451 565.017 32.2882 565.018 32.8548V51.5527C565.017 52.1193 564.796 52.6625 564.402 53.0631C564.009 53.4638 563.476 53.6891 562.92 53.6896ZM532.502 32.8548V51.5527H562.921L562.92 32.8548L532.502 32.8548Z" fill="white"/>
<path id="Vector_89" d="M557.151 32.855H538.271V24.3073C538.271 18.1163 542.241 13.6228 547.711 13.6228C553.181 13.6228 557.151 18.1163 557.151 24.3073L557.151 32.855ZM540.369 30.7181H555.053V24.3073C555.053 19.2747 552.034 15.7597 547.711 15.7597C543.388 15.7597 540.369 19.2747 540.369 24.3073L540.369 30.7181Z" fill="white"/>
<path id="Vector_90" d="M547.711 43.8064C548.869 43.8064 549.809 42.8497 549.809 41.6695C549.809 40.4893 548.869 39.5326 547.711 39.5326C546.552 39.5326 545.613 40.4893 545.613 41.6695C545.613 42.8497 546.552 43.8064 547.711 43.8064Z" fill="white"/>
</g>
</g>
<defs>
<linearGradient id="paint0_linear" x1="495.01" y1="207.597" x2="537.056" y2="207.597" gradientUnits="userSpaceOnUse">
<stop stop-color="#808080" stop-opacity="0.25"/>
<stop offset="0.54" stop-color="#808080" stop-opacity="0.12"/>
<stop offset="1" stop-color="#808080" stop-opacity="0.1"/>
</linearGradient>
</defs>
</svg>
