<svg width="701" height="504" viewBox="0 0 701 504" fill="none" xmlns="http://www.w3.org/2000/svg">
<g id="login">
<path id="Vector" d="M487.082 280.482C481.447 278.283 478.793 274.111 478.789 269.985C478.786 267.786 479.527 265.613 480.961 263.617C482.396 261.621 484.489 259.851 487.094 258.429C492.898 255.197 500.627 253.615 508.177 253.213C517.313 252.726 526.389 254.005 535.114 255.637C544.456 257.385 553.61 259.584 563.173 260.807C572.453 261.995 581.758 262.112 590.894 260.395C599.326 258.81 607.886 256.01 616.893 256.495C624.672 256.914 630.58 260.248 634.554 264.367C642.444 272.545 643.068 283.52 654.414 290.33C659.32 293.274 665.711 294.608 672.099 295.605C678.224 296.561 684.758 297.173 690.379 299.108C696.406 301.182 700.055 305.081 699.112 309.549C698.041 314.623 692.434 318.99 686.261 321.971C679.763 325.07 672.273 327.196 664.337 328.195C656.401 329.193 648.22 329.04 640.388 327.745C624.009 324.947 610.7 316.773 593.25 316.26C583.515 315.974 573.931 317.682 564.197 317.399C557.452 317.203 550.191 315.597 545.493 312.366C543.237 310.855 541.828 308.902 541.488 306.817C541.382 306.09 539.602 306.083 539.71 306.817C540.377 311.381 545.594 314.753 551.819 316.606C555.096 317.574 558.595 318.195 562.18 318.443C566.943 318.782 571.799 318.461 576.541 318.126C581.552 317.772 586.572 317.337 591.624 317.376C596.236 317.423 600.806 317.946 605.16 318.926C613.521 320.773 621.053 323.836 629.04 326.223C636.771 328.532 644.866 329.964 653.428 330C661.681 330.026 669.845 328.899 677.355 326.695C684.751 324.525 691.701 321.287 696.306 316.92C700.623 312.827 702.89 307.457 699.004 302.874C695.959 299.282 690.151 297.465 684.295 296.346C677.804 295.105 671.019 294.539 664.664 292.994C661.343 292.225 658.288 291.045 655.672 289.52C652.865 287.766 650.552 285.711 648.837 283.447C645.199 278.877 643.34 273.857 640.276 269.137C637.438 264.764 633.555 260.357 627.3 257.662C623.938 256.23 620.031 255.418 616.004 255.314C611.548 255.184 607.12 255.843 602.885 256.673C598.403 257.551 594.03 258.648 589.514 259.457C584.758 260.31 579.827 260.689 574.892 260.582C564.744 260.369 554.94 258.427 545.333 256.47C528.502 253.041 509.783 249.37 492.862 254.655C486.269 256.715 480.684 260.17 478.329 264.708C476.246 268.723 476.534 273.406 479.746 277.146C481.268 278.925 483.488 280.416 486.184 281.471C487.166 281.854 488.06 280.864 487.082 280.482L487.082 280.482Z" fill="#2F2E41"/>
<path id="Vector_2" d="M51.8528 86.4616C75.6741 74.7606 105.344 82.1742 134.32 87.3196C134.589 81.0885 137.858 73.505 134.434 69.1579C130.275 63.8765 130.657 58.3273 133.16 52.7461C139.561 38.4742 130.391 23.2881 121.132 10.661C119.045 7.82133 116.408 5.59016 113.434 4.14872C110.46 2.70728 107.234 2.09622 104.017 2.36517L86.8661 3.77997C82.6926 4.12423 78.7096 5.93228 75.4502 8.96219C72.1907 11.9921 69.8103 16.0993 68.6273 20.7343V20.7343C64.532 27.1666 62.34 33.5812 63.7201 39.9623C57.5859 44.8034 56.5553 50.6472 59.3118 57.2351C61.6491 61.383 61.6243 65.4206 59.2054 69.3465C56.0288 74.3518 53.5958 79.9328 52.0061 85.8607L51.8528 86.4616Z" fill="#2F2E41"/>
<path id="Vector_3" d="M617.945 441.178H132.438C128.12 441.178 123.98 439.197 120.927 435.671C117.874 432.145 116.159 427.363 116.159 422.377C292.155 398.756 464.843 398.756 634.224 422.377C634.224 427.363 632.509 432.145 629.456 435.671C626.403 439.197 622.262 441.178 617.945 441.178Z" fill="#2F2E41"/>
<path id="Vector_4" d="M634.224 423.483L116.159 422.377L176.201 305.705L176.488 305.152V48.0197C176.488 44.8987 177.02 41.8082 178.054 38.9246C179.088 36.0411 180.604 33.4211 182.515 31.2142C184.426 29.0073 186.694 27.2567 189.191 26.0625C191.688 24.8682 194.364 24.2537 197.067 24.254H550.443C553.146 24.2537 555.822 24.8682 558.319 26.0625C560.815 27.2567 563.084 29.0073 564.995 31.2142C566.906 33.4211 568.422 36.0411 569.456 38.9246C570.49 41.8082 571.022 44.8987 571.022 48.0197V306.922L634.224 423.483Z" fill="#3F3D56"/>
<path id="Vector_5" d="M196.598 40.8424C194.82 40.8447 193.117 41.6611 191.86 43.1123C190.603 44.5636 189.896 46.5313 189.894 48.5837V283.034C189.896 285.087 190.603 287.054 191.86 288.505C193.117 289.957 194.82 290.773 196.598 290.775H553.785C555.562 290.773 557.266 289.957 558.523 288.505C559.779 287.054 560.486 285.087 560.488 283.034V48.5837C560.486 46.5313 559.779 44.5637 558.523 43.1124C557.266 41.6612 555.562 40.8448 553.785 40.8424H196.598Z" fill="white"/>
<path id="Vector_6" d="M198.094 321.741C197.545 321.742 197.008 321.924 196.545 322.266C196.083 322.608 195.715 323.096 195.484 323.672L176.983 370.119C176.782 370.625 176.694 371.181 176.727 371.736C176.761 372.291 176.914 372.827 177.174 373.296C177.434 373.764 177.792 374.15 178.214 374.417C178.637 374.684 179.111 374.824 179.593 374.824H568.655C569.145 374.824 569.626 374.679 570.054 374.404C570.482 374.128 570.841 373.731 571.099 373.25C571.356 372.769 571.503 372.22 571.525 371.655C571.547 371.09 571.443 370.528 571.224 370.022L551.114 323.574C550.877 323.022 550.511 322.558 550.057 322.234C549.603 321.91 549.079 321.739 548.545 321.741H198.094Z" fill="#2F2E41"/>
<path id="Vector_7" d="M373.755 36.9718C376.135 36.9718 378.064 34.7437 378.064 31.9952C378.064 29.2467 376.135 27.0187 373.755 27.0187C371.375 27.0187 369.446 29.2467 369.446 31.9952C369.446 34.7437 371.375 36.9718 373.755 36.9718Z" fill="white"/>
<path id="Vector_8" d="M335.513 383.671C334.882 383.672 334.268 383.913 333.767 384.356C333.266 384.8 332.905 385.422 332.74 386.126L328.099 406.032C327.984 406.524 327.969 407.039 328.055 407.539C328.14 408.038 328.324 408.508 328.592 408.913C328.861 409.317 329.206 409.644 329.601 409.87C329.997 410.095 330.432 410.212 330.873 410.212H419.129C419.587 410.212 420.038 410.086 420.445 409.844C420.853 409.601 421.203 409.25 421.469 408.819C421.735 408.388 421.907 407.89 421.972 407.367C422.037 406.843 421.993 406.309 421.843 405.809L415.877 385.903C415.681 385.251 415.314 384.686 414.828 384.286C414.341 383.886 413.759 383.671 413.162 383.671H335.513Z" fill="#2F2E41"/>
<path id="Vector_9" d="M571.022 301.282V305.705H176.2L176.498 305.152V301.282H571.022Z" fill="#2F2E41"/>
<path id="Vector_10" d="M175.521 172.412L124.492 203.743L123.846 177.634C140.501 174.423 156.348 168.832 171 159.731L176.337 144.503C176.918 142.844 177.863 141.388 179.079 140.278C180.295 139.168 181.741 138.442 183.273 138.172C184.805 137.902 186.372 138.096 187.819 138.736C189.267 139.377 190.545 140.441 191.529 141.824V141.824C192.968 143.848 193.688 146.428 193.542 149.041C193.396 151.655 192.395 154.106 190.742 155.9L175.521 172.412Z" fill="#FFB8B8"/>
<path id="Vector_11" d="M50.8357 353.305C50.4634 351.728 50.3844 350.078 50.6037 348.463C50.8231 346.849 51.336 345.306 52.1086 343.937L63.3183 324.07C65.9696 319.37 70.0379 315.976 74.7338 314.545C79.4298 313.115 84.4185 313.75 88.7321 316.327V316.327C84.021 325.588 84.6777 333.712 90.3591 340.772C81.5394 345.744 73.3879 352.162 66.1572 359.826C64.8372 360.865 63.3213 361.525 61.7357 361.751C60.1501 361.977 58.5407 361.762 57.0417 361.124C55.5427 360.486 54.1974 359.443 53.1179 358.083C52.0384 356.723 51.2559 355.085 50.8357 353.305V353.305Z" fill="#2F2E41"/>
<path id="Vector_12" d="M177.845 327.328C176.149 330.593 173.755 333.299 170.892 335.188C168.029 337.076 164.794 338.083 161.497 338.112L87.027 338.764L83.7973 317.13L116.74 305.941L88.9648 281.324L119.324 240.295L174.466 299.649C177.689 303.118 179.783 307.759 180.398 312.797C181.013 317.836 180.112 322.965 177.845 327.328V327.328Z" fill="#2F2E41"/>
<path id="Vector_13" d="M75.4 475.276H57.9595C42.3005 351.318 26.3612 227.014 73.4622 180.618L129.013 191.061L121.908 245.517L90.9026 286.546L75.4 475.276Z" fill="#2F2E41"/>
<path id="Vector_14" d="M90.731 503.357C89.3657 503.787 87.9371 503.878 86.539 503.625C85.1409 503.371 83.8051 502.779 82.6194 501.887L63.6827 498.948C59.6135 495.886 56.6742 491.188 55.4351 485.765C54.1959 480.342 54.7452 474.58 56.9764 469.599C64.9959 475.039 72.0307 474.28 78.1439 467.718C82.4634 477.791 89.5803 477.176 96.3772 485.662C97.2772 487.186 97.8487 488.937 98.0442 490.768C98.2397 492.599 98.0535 494.458 97.5011 496.189C96.9487 497.92 96.0461 499.474 94.8685 500.721C93.6908 501.967 92.2723 502.871 90.731 503.357V503.357Z" fill="#2F2E41"/>
<path id="Vector_15" d="M116.74 97.8149L84.4432 88.8633C89.8072 76.1832 90.249 62.074 87.6729 47.0889L109.635 46.3429C110.323 64.9774 112.405 82.3866 116.74 97.8149Z" fill="#FFB8B8"/>
<path id="Vector_16" d="M125.617 213.522C102.106 232.024 85.4933 214.155 72.8162 186.585C74.5778 169.715 71.7255 149.527 66.4429 127.59C64.0935 117.915 64.9707 107.574 68.9011 98.6087C72.8315 89.6436 79.5296 82.706 87.6729 79.1656V79.1656L115.448 92.5932C139.033 114.794 143.675 138.843 134.827 164.206L125.617 213.522Z" fill="#6C63FF"/>
<path id="Vector_17" d="M57.9595 116.464L32.1218 132.13L77.9838 163.46L84.3652 181.639C84.7911 182.852 84.9986 184.153 84.975 185.462C84.9514 186.771 84.6972 188.06 84.2279 189.252C83.7586 190.444 83.0841 191.513 82.2454 192.394C81.4067 193.275 80.4215 193.949 79.3498 194.376V194.376C78.1315 194.861 76.8325 195.014 75.5545 194.822C74.2765 194.631 73.0543 194.101 71.9835 193.273C70.9126 192.445 70.0223 191.342 69.3822 190.05C68.7422 188.758 68.3697 187.313 68.294 185.827L67.6487 173.158L9.35869 150.944C7.39475 150.195 5.60406 148.94 4.12221 147.274C2.64036 145.608 1.50622 143.575 0.805708 141.327V141.327C-0.215391 138.052 -0.267359 134.478 0.657918 131.164C1.58319 127.851 3.4335 124.985 5.91933 123.016L52.792 85.8794L57.9595 116.464Z" fill="#FFB8B8"/>
<path id="Vector_18" d="M83.7973 119.448C73.0213 113.994 63.2225 119.919 50.8542 124.67L48.9164 85.1334C61.1976 77.5741 72.9069 75.5359 83.7973 81.4036L83.7973 119.448Z" fill="#6C63FF"/>
<path id="Vector_19" d="M96.6877 65.9267C108.076 65.9267 117.308 55.2649 117.308 42.113C117.308 28.9611 108.076 18.2993 96.6877 18.2993C85.2994 18.2993 76.0673 28.9611 76.0673 42.113C76.0673 55.2649 85.2994 65.9267 96.6877 65.9267Z" fill="#FFB8B8"/>
<path id="Vector_20" d="M121.357 39.1083C100.94 41.4175 85.3836 37.5615 75.441 26.5821V17.7401H119.624L121.357 39.1083Z" fill="#2F2E41"/>
<g id="project-logo 1" clip-path="url(#clip0)">
<g id="logo ready">
<g id="Clock settings">
<g id="Settings">
<path id="Vector_21" d="M363.892 191.274L372.206 186.487C375.594 184.536 376.756 180.215 374.799 176.834L359.046 149.623C357.734 147.356 355.352 146.088 352.904 146.088C351.701 146.088 350.483 146.393 349.368 147.036L341.054 151.823C339.912 152.48 338.701 152.78 337.522 152.78C333.82 152.78 330.426 149.829 330.426 145.704V136.13C330.426 132.227 327.254 129.063 323.34 129.063H291.834C287.921 129.063 284.748 132.226 284.748 136.13V145.704C284.748 149.829 281.352 152.78 277.652 152.78C276.473 152.78 275.262 152.48 274.12 151.823L265.806 147.036C264.691 146.394 263.472 146.089 262.27 146.088C259.821 146.088 257.44 147.356 256.128 149.623L240.375 176.834C238.419 180.215 239.58 184.536 242.969 186.487L251.282 191.274C256.006 193.995 256.006 200.794 251.282 203.514L242.969 208.301C239.579 210.252 238.419 214.574 240.375 217.954L256.128 245.166C257.44 247.433 259.822 248.7 262.27 248.7C263.473 248.7 264.691 248.394 265.806 247.752L274.12 242.965C275.262 242.308 276.473 242.008 277.652 242.008C281.353 242.008 284.748 244.959 284.748 249.085V258.658C284.748 262.562 287.92 265.725 291.834 265.725H323.339C327.252 265.725 330.425 262.562 330.425 258.658V249.085C330.425 244.959 333.821 242.008 337.521 242.008C338.7 242.008 339.911 242.308 341.053 242.965L349.367 247.752C350.482 248.394 351.701 248.7 352.902 248.7C355.352 248.7 357.732 247.433 359.045 245.166L374.797 217.954C376.754 214.574 375.592 210.252 372.205 208.301L363.891 203.514C359.168 200.794 359.168 193.993 363.892 191.274ZM307.588 218.359C295.977 218.359 286.566 208.972 286.566 197.394C286.566 185.815 295.979 176.429 307.588 176.429C319.197 176.429 328.609 185.816 328.609 197.394C328.609 208.972 319.197 218.359 307.588 218.359Z" fill="url(#paint0_linear)"/>
<path id="hour" d="M306.693 197.394L327.184 207.644" stroke="black" stroke-width="0.7"/>
<path id="minutes" d="M307.063 197.099L322.4 169.766" stroke="black" stroke-width="0.7"/>
<path id="seconds" d="M307.587 197.366L288.843 167.499" stroke="#EF2424" stroke-width="0.4" stroke-linejoin="round"/>
</g>
<g id="three">
<path id="Line 11" d="M357.088 197.636H347.421" stroke="black"/>
<path id="Line 12" d="M357.088 192.153H347.421" stroke="black"/>
<path id="Line 10" d="M357.088 203.118H347.421" stroke="black"/>
</g>
<g id="twelve">
<path id="Line 6" d="M302.69 153.677L309.92 145.23" stroke="black"/>
<path id="Line 7" d="M302.856 145.23L310.086 153.677" stroke="black"/>
<path id="Line 8" d="M312.754 144.73V154.286" stroke="black"/>
<path id="Line 9" d="M317.138 144.73V154.286" stroke="black"/>
</g>
<g id="nine">
<path id="Line 6 2" d="M266.119 200.801L257.713 193.516" stroke="black" stroke-width="0.999997"/>
<path id="Line 7 2" d="M257.651 200.596L266.183 193.46" stroke="black" stroke-width="0.999997"/>
<path id="Line 8 2" d="M257.111 204.769L266.692 204.85" stroke="black"/>
</g>
<g id="six">
<path id="Line 10 2" d="M305.407 236.488L307.909 245.801" stroke="black"/>
<path id="Line 11 2" d="M307.429 245.727L309.931 236.415" stroke="black"/>
<path id="Line 12 2" d="M312.77 236.322V245.228" stroke="black"/>
</g>
</g>
<g id="ROJECT">
<path id="Vector_22" style="mix-blend-mode:darken" d="M294.859 99.3227H292.741V105.051H290.082V89.4028H294.877C296.401 89.4028 297.577 89.8148 298.404 90.6388C299.231 91.4626 299.645 92.627 299.645 94.1317C299.645 95.1992 299.453 96.0913 299.069 96.8078C298.691 97.5172 298.115 98.0831 297.341 98.5059L300.133 104.901V105.051H297.279L294.859 99.3227ZM292.741 96.711H294.886C295.553 96.711 296.07 96.5069 296.437 96.0985C296.803 95.6829 296.986 95.1132 296.986 94.3897C296.986 93.6517 296.812 93.0712 296.463 92.6486C296.12 92.2258 295.592 92.0145 294.877 92.0145H292.741V96.711ZM312.638 97.5816C312.638 99.122 312.414 100.473 311.965 101.633C311.515 102.794 310.871 103.69 310.032 104.32C309.199 104.951 308.242 105.266 307.161 105.266C306.091 105.266 305.137 104.954 304.298 104.331C303.459 103.708 302.809 102.819 302.348 101.666C301.887 100.505 301.654 99.1722 301.648 97.6677V96.8937C301.648 95.3533 301.875 93.9991 302.33 92.8313C302.791 91.6561 303.438 90.7569 304.271 90.1336C305.11 89.5031 306.068 89.1879 307.143 89.1879C308.218 89.1879 309.173 89.5031 310.006 90.1336C310.845 90.7569 311.492 91.6561 311.947 92.8313C312.408 93.9991 312.638 95.3497 312.638 96.8831V97.5816ZM309.944 96.8723C309.944 95.2315 309.701 93.9849 309.217 93.1322C308.732 92.2796 308.041 91.8532 307.143 91.8532C306.251 91.8532 305.562 92.276 305.078 93.1214C304.593 93.9596 304.348 95.192 304.342 96.8184V97.5816C304.342 99.1794 304.584 100.419 305.069 101.3C305.554 102.181 306.251 102.622 307.161 102.622C308.053 102.622 308.738 102.199 309.217 101.354C309.696 100.501 309.938 99.2618 309.944 97.6352V96.8723ZM320.136 89.4028H322.795V100.236C322.795 101.232 322.612 102.113 322.245 102.88C321.885 103.64 321.374 104.227 320.712 104.643C320.05 105.058 319.303 105.266 318.47 105.266C317.105 105.266 316.041 104.847 315.279 104.009C314.517 103.163 314.136 101.97 314.136 100.43H316.812C316.812 101.196 316.945 101.762 317.211 102.128C317.477 102.493 317.897 102.676 318.47 102.676C318.978 102.676 319.382 102.465 319.684 102.042C319.985 101.619 320.136 101.017 320.136 100.236V89.4028ZM333.2 98.2693H328.095V102.461H334.086V105.051H325.436V89.4028H334.068V92.0145H328.095V95.7437H333.2V98.2693ZM346.14 99.8385C346.039 101.522 345.525 102.848 344.597 103.815C343.676 104.782 342.459 105.266 340.946 105.266C339.291 105.266 337.988 104.592 337.037 103.246C336.092 101.891 335.619 100.036 335.619 97.6783V96.7218C335.619 95.2171 335.838 93.8916 336.275 92.7453C336.712 91.5989 337.336 90.7211 338.145 90.1122C338.961 89.4959 339.906 89.1879 340.981 89.1879C342.47 89.1879 343.67 89.6716 344.58 90.6388C345.49 91.6061 346.016 92.9638 346.157 94.712H343.498C343.433 93.7017 343.2 92.971 342.798 92.5195C342.402 92.0609 341.797 91.8318 340.981 91.8318C340.095 91.8318 339.43 92.2186 338.987 92.9924C338.55 93.7592 338.325 94.9521 338.314 96.5713V97.7535C338.314 99.4445 338.523 100.681 338.943 101.461C339.368 102.242 340.036 102.633 340.946 102.633C341.767 102.633 342.379 102.407 342.781 101.956C343.188 101.497 343.422 100.792 343.481 99.8385H346.14ZM357.697 92.0145H353.744V105.051H351.085V92.0145H347.185V89.4028H357.697V92.0145Z" fill="url(#paint1_linear)"/>
</g>
<g id="Management">
<path id="Vector_23" style="mix-blend-mode:darken" d="M291.065 110.257L293.777 119.542L296.475 110.257H299.332V123.06H297.149V119.56L297.366 113.519L294.517 123.06H293.023L290.18 113.528L290.398 119.56V123.06H288.222V110.257H291.065ZM305.938 123.06C305.841 122.831 305.771 122.547 305.727 122.207C305.22 122.893 304.56 123.236 303.748 123.236C302.979 123.236 302.341 122.966 301.833 122.427C301.33 121.887 301.079 121.207 301.079 120.387C301.079 119.378 301.386 118.604 302 118.065C302.619 117.526 303.511 117.253 304.676 117.247H305.64V116.702C305.64 116.262 305.546 115.911 305.358 115.647C305.174 115.383 304.881 115.251 304.48 115.251C304.127 115.251 303.849 115.354 303.646 115.559C303.448 115.764 303.349 116.046 303.349 116.403H301.253C301.253 115.852 301.393 115.342 301.674 114.873C301.954 114.404 302.35 114.038 302.863 113.774C303.375 113.504 303.951 113.369 304.589 113.369C305.556 113.369 306.322 113.666 306.888 114.258C307.458 114.844 307.743 115.67 307.743 116.737V120.862C307.748 121.764 307.852 122.447 308.055 122.91V123.06H305.938ZM304.205 121.292C304.514 121.292 304.799 121.21 305.06 121.046C305.321 120.876 305.515 120.65 305.64 120.369V118.733H304.857C303.808 118.733 303.25 119.173 303.182 120.053L303.175 120.202C303.175 120.519 303.267 120.779 303.45 120.985C303.634 121.19 303.885 121.292 304.205 121.292ZM311.579 113.545L311.644 114.645C312.205 113.794 312.957 113.369 313.9 113.369C314.731 113.369 315.35 113.666 315.756 114.258C316.162 114.85 316.37 115.735 316.38 116.913V123.06H314.284V116.975C314.284 116.436 314.187 116.046 313.994 115.805C313.801 115.559 313.479 115.436 313.029 115.436C312.44 115.436 311.997 115.741 311.702 116.351V123.06H309.607V113.545H311.579ZM322.819 123.06C322.722 122.831 322.652 122.547 322.609 122.207C322.101 122.893 321.441 123.236 320.629 123.236C319.86 123.236 319.222 122.966 318.715 122.427C318.212 121.887 317.96 121.207 317.96 120.387C317.96 119.378 318.267 118.604 318.881 118.065C319.5 117.526 320.392 117.253 321.557 117.247H322.522V116.702C322.522 116.262 322.427 115.911 322.239 115.647C322.055 115.383 321.763 115.251 321.361 115.251C321.008 115.251 320.73 115.354 320.527 115.559C320.329 115.764 320.23 116.046 320.23 116.403H318.134C318.134 115.852 318.275 115.342 318.555 114.873C318.835 114.404 319.232 114.038 319.744 113.774C320.257 113.504 320.832 113.369 321.47 113.369C322.437 113.369 323.203 113.666 323.769 114.258C324.339 114.844 324.625 115.67 324.625 116.737V120.862C324.629 121.764 324.733 122.447 324.936 122.91V123.06H322.819ZM321.086 121.292C321.395 121.292 321.68 121.21 321.941 121.046C322.202 120.876 322.396 120.65 322.522 120.369V118.733H321.738C320.689 118.733 320.131 119.173 320.063 120.053L320.056 120.202C320.056 120.519 320.148 120.779 320.332 120.985C320.515 121.19 320.767 121.292 321.086 121.292ZM326.227 118.232C326.227 116.773 326.512 115.597 327.083 114.706C327.658 113.815 328.431 113.369 329.403 113.369C330.264 113.369 330.933 113.727 331.412 114.442L331.499 113.545H333.399V122.743C333.399 123.576 333.242 124.3 332.927 124.915C332.618 125.531 332.18 126 331.615 126.322C331.049 126.645 330.387 126.806 329.628 126.806C329.053 126.806 328.492 126.665 327.945 126.384C327.399 126.108 326.986 125.751 326.706 125.311L327.634 123.763C328.156 124.473 328.789 124.827 329.534 124.827C330.09 124.827 330.522 124.646 330.832 124.282C331.141 123.924 331.296 123.414 331.296 122.752V122.242C330.812 122.905 330.177 123.236 329.389 123.236C328.446 123.236 327.682 122.79 327.097 121.899C326.517 121.002 326.227 119.815 326.227 118.338V118.232ZM328.323 118.417C328.323 119.279 328.465 119.956 328.75 120.448C329.036 120.935 329.427 121.178 329.925 121.178C330.563 121.178 331.02 120.888 331.296 120.307V116.307C331.015 115.726 330.563 115.436 329.94 115.436C329.437 115.436 329.041 115.685 328.75 116.183C328.465 116.682 328.323 117.426 328.323 118.417ZM338.924 123.236C337.774 123.236 336.836 122.808 336.111 121.952C335.39 121.096 335.03 119.956 335.03 118.531V118.285C335.03 117.329 335.182 116.477 335.487 115.726C335.791 114.97 336.222 114.39 336.778 113.985C337.338 113.575 337.977 113.369 338.692 113.369C339.765 113.369 340.609 113.78 341.223 114.601C341.842 115.421 342.151 116.585 342.151 118.092V119.129H337.155C337.222 119.751 337.426 120.249 337.764 120.624C338.107 120.999 338.54 121.187 339.062 121.187C339.869 121.187 340.5 120.832 340.955 120.123L341.984 121.521C341.67 122.06 341.245 122.482 340.708 122.787C340.171 123.086 339.577 123.236 338.924 123.236ZM338.685 115.427C338.269 115.427 337.931 115.597 337.67 115.937C337.413 116.277 337.249 116.764 337.177 117.397H340.092V117.195C340.082 116.632 339.956 116.198 339.715 115.893C339.473 115.583 339.13 115.427 338.685 115.427ZM345.61 113.545L345.675 114.609C346.231 113.783 346.983 113.369 347.93 113.369C348.941 113.369 349.635 113.853 350.012 114.82C350.563 113.853 351.348 113.369 352.369 113.369C353.219 113.369 353.853 113.671 354.268 114.275C354.684 114.873 354.892 115.776 354.892 116.984V123.06H352.789V116.992C352.789 116.453 352.702 116.06 352.528 115.814C352.354 115.562 352.047 115.436 351.607 115.436C350.979 115.436 350.544 115.799 350.302 116.526L350.309 123.06H348.213V117.001C348.213 116.45 348.124 116.052 347.945 115.805C347.766 115.559 347.462 115.436 347.031 115.436C346.437 115.436 346.006 115.735 345.741 116.333V123.06H343.645V113.545H345.61ZM360.418 123.236C359.267 123.236 358.329 122.808 357.604 121.952C356.884 121.096 356.523 119.956 356.523 118.531V118.285C356.523 117.329 356.676 116.477 356.98 115.726C357.285 114.97 357.715 114.39 358.271 113.985C358.832 113.575 359.47 113.369 360.186 113.369C361.259 113.369 362.102 113.78 362.716 114.601C363.335 115.421 363.645 116.585 363.645 118.092V119.129H358.648C358.716 119.751 358.919 120.249 359.257 120.624C359.601 120.999 360.033 121.187 360.555 121.187C361.363 121.187 361.994 120.832 362.448 120.123L363.478 121.521C363.164 122.06 362.738 122.482 362.202 122.787C361.665 123.086 361.07 123.236 360.418 123.236ZM360.178 115.427C359.762 115.427 359.424 115.597 359.163 115.937C358.907 116.277 358.742 116.764 358.67 117.397H361.585V117.195C361.575 116.632 361.45 116.198 361.208 115.893C360.966 115.583 360.623 115.427 360.178 115.427ZM367.067 113.545L367.132 114.645C367.693 113.794 368.445 113.369 369.388 113.369C370.219 113.369 370.838 113.666 371.244 114.258C371.65 114.85 371.858 115.735 371.868 116.913V123.06H369.772V116.975C369.772 116.436 369.675 116.046 369.482 115.805C369.288 115.559 368.967 115.436 368.517 115.436C367.928 115.436 367.485 115.741 367.19 116.351V123.06H365.095V113.545H367.067ZM376.269 111.206V113.545H377.61V115.41H376.269V120.158C376.269 120.51 376.325 120.762 376.436 120.914C376.548 121.067 376.759 121.143 377.074 121.143C377.307 121.143 377.511 121.122 377.69 121.081V123.007C377.279 123.159 376.856 123.236 376.421 123.236C374.952 123.236 374.202 122.336 374.173 120.536V115.41H373.028V113.545H374.173V111.206H376.269Z" fill="url(#paint2_linear)"/>
</g>
<path id="Rectangle 6" d="M223.749 277.135L209.874 100.288C207.46 69.5243 234.363 47.2996 257.04 61.3239L272.056 70.6105C298.918 87.223 287.837 136.624 257.493 135.54C241.797 134.979 228.499 149.891 227.792 168.846L223.749 277.135Z" fill="url(#paint3_linear)"/>
<path id="Rectangle 7" d="M247.118 125.756C236.091 134.588 221.866 126.494 221.866 111.295L221.866 99.3909C221.866 81.9915 237.605 69.5381 250.669 76.6006L267.451 85.6726C283.425 94.3082 275.639 123.559 257.717 122.239C254.039 121.969 250.287 123.219 247.118 125.756Z" fill="white"/>
<g id="inside p">
<path id="arrow 1" d="M228.401 90.9186C227.563 90.9748 226.949 91.6623 227.028 92.4549C227.107 93.2477 227.851 93.8446 228.688 93.7886L232.521 93.5322C226.526 100.974 227.421 111.614 234.493 118.369L234.336 117.967C233.887 116.816 234.118 115.53 234.94 114.611C234.957 114.592 234.976 114.574 234.994 114.555C230.589 108.914 230.395 101.136 234.838 95.4696L235.193 99.0133C235.272 99.8057 236.015 100.403 236.853 100.347C237.272 100.319 237.635 100.133 237.883 99.8547C238.132 99.5768 238.266 99.2066 238.226 98.8104L237.52 91.7534C237.481 91.3728 237.285 91.0186 236.974 90.7685C236.662 90.5184 236.262 90.3929 235.859 90.4199L228.401 90.9186Z" fill="#48C64D"/>
<g id="person">
<path id="Vector 2" d="M247.975 99.9732C250.193 99.9732 251.998 97.9744 251.998 95.5176C251.998 93.0608 250.193 91.062 247.975 91.062C245.757 91.062 243.953 93.0608 243.953 95.5176C243.953 97.9744 245.757 99.9732 247.975 99.9732Z" fill="#0028F9" fill-opacity="0.8"/>
<path id="Vector 2_2" d="M255.811 111.984V105.859C255.811 104.164 254.827 102.66 253.373 102.132L253.366 102.13L251.238 101.74C251.057 101.678 250.864 101.784 250.799 101.982L248.385 109.319C248.245 109.742 247.705 109.742 247.566 109.319L245.152 101.982C245.099 101.822 244.963 101.722 244.817 101.722C244.783 101.722 242.585 102.129 242.585 102.129C241.118 102.671 240.138 104.176 240.138 105.879V111.984C240.138 112.899 240.808 113.64 241.634 113.64H254.315C255.141 113.64 255.811 112.899 255.811 111.984Z" fill="#4664D1"/>
<path id="Vector 3" d="M248.852 101.656C248.759 101.544 248.624 101.488 248.486 101.488H247.464C247.327 101.488 247.191 101.544 247.098 101.656C246.955 101.829 246.934 102.079 247.036 102.275L247.583 103.188L247.327 105.579L247.831 107.064C247.88 107.214 248.07 107.214 248.12 107.064L248.624 105.579L248.368 103.188L248.914 102.275C249.016 102.079 248.995 101.829 248.852 101.656Z" fill="black"/>
</g>
<path id="arrow 2" d="M255.234 85.0413C256.746 85.62 257.272 87.1666 256.869 88.7381C263.272 91.9621 266.613 99.2378 264.716 106.338L263.137 103.28C262.784 102.596 261.927 102.339 261.222 102.704C260.518 103.07 260.233 103.92 260.586 104.604L263.73 110.693C264.084 111.377 264.941 111.634 265.645 111.269L271.918 108.015C272.27 107.832 272.517 107.528 272.633 107.184C272.748 106.84 272.731 106.457 272.554 106.115C272.201 105.431 271.344 105.173 270.639 105.539L267.416 107.211C270.08 97.7239 264.768 87.9109 255.234 85.0413Z" fill="#5286EC" fill-opacity="0.93"/>
</g>
</g>
</g>
<g id="portfolio">
<path id="Vector_24" d="M492.624 55.768H483.271C483.701 56.892 483.865 58.1114 483.749 59.319C483.633 60.5265 483.24 61.685 482.605 62.6925C481.969 63.7 481.111 64.5255 480.106 65.0964C479.101 65.6672 477.98 65.9658 476.841 65.9659H435.794C434.655 65.9658 433.534 65.6672 432.529 65.0964C431.524 64.5255 430.666 63.7 430.031 62.6925C429.396 61.685 429.003 60.5265 428.886 59.319C428.77 58.1114 428.934 56.892 429.365 55.768H420.629C418.71 55.768 416.809 56.171 415.035 56.954C413.262 57.737 411.651 58.8846 410.293 60.3314C408.936 61.7782 407.859 63.4957 407.125 65.386C406.39 67.2763 406.012 69.3024 406.012 71.3484V268.817C406.012 270.863 406.39 272.889 407.125 274.779C407.859 276.67 408.936 278.387 410.293 279.834C411.651 281.281 413.262 282.428 415.035 283.211C416.809 283.994 418.71 284.397 420.629 284.397H492.624C494.543 284.397 496.444 283.994 498.217 283.211C499.991 282.428 501.602 281.281 502.959 279.834C504.317 278.387 505.393 276.67 506.128 274.779C506.863 272.889 507.241 270.863 507.241 268.817V71.3484C507.241 69.3024 506.863 67.2763 506.128 65.386C505.393 63.4957 504.317 61.7782 502.959 60.3314C501.602 58.8846 499.991 57.737 498.217 56.954C496.444 56.171 494.543 55.768 492.624 55.768V55.768Z" fill="#E6E6E6"/>
<path id="Vector_25" d="M491.834 290.141H420.185C414.917 290.135 409.866 287.901 406.141 283.931C402.416 279.96 400.321 274.577 400.315 268.962V71.2033C400.321 65.5883 402.416 60.205 406.141 56.2345C409.866 52.2641 414.917 50.0307 420.185 50.0244H491.834C497.102 50.0307 502.152 52.2641 505.877 56.2345C509.602 60.205 511.697 65.5883 511.703 71.2033V106.935H512.938V133.226H511.703V268.962C511.697 274.577 509.602 279.96 505.877 283.931C502.152 287.901 497.102 290.135 491.834 290.141V290.141ZM420.185 50.6558C415.074 50.662 410.174 52.8288 406.56 56.6808C402.946 60.5329 400.913 65.7557 400.907 71.2033V268.962C400.913 274.41 402.946 279.632 406.56 283.485C410.174 287.337 415.074 289.504 420.185 289.51H491.834C496.945 289.503 501.844 287.337 505.458 283.484C509.072 279.632 511.105 274.41 511.111 268.962V132.594H512.345V107.567H511.111V71.2033C511.105 65.7557 509.072 60.533 505.458 56.6809C501.844 52.8289 496.945 50.662 491.834 50.6558H420.185Z" fill="#E6E6E6"/>
<path id="Vector_26" d="M426.117 87.1775C425.842 87.1778 425.579 87.2944 425.384 87.5016C425.19 87.7087 425.081 87.9896 425.08 88.2826V153.326C425.081 153.619 425.19 153.9 425.384 154.107C425.579 154.314 425.842 154.43 426.117 154.431H487.139C487.414 154.43 487.677 154.314 487.872 154.107C488.066 153.9 488.175 153.619 488.176 153.326V88.2826C488.175 87.9896 488.066 87.7087 487.872 87.5016C487.677 87.2944 487.414 87.1778 487.139 87.1775H426.117Z" fill="white"/>
<path id="Vector_27" d="M481.788 163.74H470.563C469.861 157.085 471.41 152.124 470.563 149.383H481.788C481.357 154.157 481.357 158.965 481.788 163.74V163.74Z" fill="#6C63FF"/>
<path id="Vector_28" d="M503.874 179.848H409.379V225.315H503.874V179.848Z" fill="#CCCCCC"/>
<path id="Vector_29" d="M476.179 119.98C476.179 124.09 475.035 128.108 472.893 131.526C470.75 134.944 467.705 137.607 464.143 139.18C460.58 140.753 456.66 141.165 452.878 140.363C449.096 139.561 445.621 137.582 442.895 134.675C440.168 131.769 438.311 128.066 437.559 124.034C436.806 120.003 437.193 115.824 438.668 112.027C440.144 108.23 442.643 104.984 445.849 102.7C449.056 100.417 452.825 99.1978 456.681 99.1978C459.242 99.1965 461.778 99.7332 464.144 100.777C466.51 101.821 468.66 103.352 470.471 105.282C472.281 107.212 473.718 109.504 474.697 112.026C475.676 114.548 476.18 117.251 476.179 119.98V119.98Z" fill="#6C63FF"/>
<path id="Vector_30" d="M407.218 177.401C407.021 177.401 406.833 177.484 406.694 177.632C406.556 177.78 406.477 177.981 406.477 178.19V221.763C406.477 221.972 406.556 222.173 406.694 222.321C406.833 222.469 407.021 222.552 407.218 222.552H499.935C500.131 222.552 500.32 222.469 500.458 222.321C500.597 222.173 500.675 221.972 500.676 221.763V178.19C500.675 177.981 500.597 177.78 500.458 177.632C500.32 177.484 500.131 177.401 499.935 177.401H407.218Z" fill="white"/>
<path id="Vector_31" d="M472.663 186.856C472.545 186.856 472.432 186.906 472.349 186.995C472.265 187.083 472.219 187.204 472.218 187.329V189.626C472.219 189.751 472.265 189.872 472.349 189.96C472.432 190.049 472.545 190.099 472.663 190.099H485.348C485.466 190.099 485.579 190.049 485.662 189.96C485.745 189.872 485.792 189.751 485.792 189.626V187.329C485.792 187.204 485.745 187.083 485.662 186.995C485.579 186.906 485.466 186.856 485.348 186.856H472.663Z" fill="#6C63FF"/>
<path id="Vector_32" d="M424.63 186.856C424.512 186.856 424.399 186.906 424.316 186.995C424.233 187.083 424.186 187.204 424.186 187.329V189.626C424.186 189.751 424.233 189.872 424.316 189.96C424.399 190.049 424.512 190.099 424.63 190.099H428.326C428.443 190.099 428.556 190.049 428.64 189.96C428.723 189.872 428.77 189.751 428.77 189.626V187.329C428.77 187.204 428.723 187.083 428.64 186.995C428.556 186.906 428.443 186.856 428.326 186.856H424.63Z" fill="#6C63FF"/>
<path id="Vector_33" d="M414.87 186.856C414.752 186.856 414.639 186.906 414.555 186.995C414.472 187.083 414.425 187.204 414.425 187.329V189.626C414.425 189.751 414.472 189.872 414.555 189.96C414.639 190.049 414.752 190.099 414.87 190.099H418.565C418.683 190.099 418.796 190.049 418.879 189.96C418.962 189.872 419.009 189.751 419.009 189.626V187.329C419.009 187.204 418.962 187.083 418.879 186.995C418.796 186.906 418.683 186.856 418.565 186.856H414.87Z" fill="#6C63FF"/>
<path id="Vector_34" d="M434.647 186.856C434.53 186.856 434.417 186.906 434.333 186.995C434.25 187.083 434.203 187.204 434.203 187.329V189.626C434.203 189.751 434.25 189.872 434.333 189.96C434.417 190.049 434.53 190.099 434.647 190.099H466.597C466.715 190.099 466.828 190.049 466.911 189.96C466.995 189.872 467.042 189.751 467.042 189.626V187.329C467.042 187.204 466.995 187.083 466.911 186.995C466.828 186.906 466.715 186.856 466.597 186.856H434.647Z" fill="#6C63FF"/>
<path id="Vector_35" d="M442.096 209.854C441.979 209.854 441.866 209.904 441.782 209.992C441.699 210.081 441.652 210.202 441.652 210.327V212.624C441.652 212.749 441.699 212.87 441.782 212.958C441.866 213.047 441.979 213.097 442.096 213.097H445.792C445.91 213.097 446.023 213.047 446.106 212.958C446.189 212.87 446.236 212.749 446.236 212.624V210.327C446.236 210.202 446.189 210.081 446.106 209.992C446.023 209.904 445.91 209.854 445.792 209.854H442.096Z" fill="#6C63FF"/>
<path id="Vector_36" d="M432.336 209.854C432.218 209.854 432.105 209.904 432.022 209.992C431.939 210.081 431.892 210.202 431.892 210.327V212.624C431.892 212.749 431.939 212.87 432.022 212.958C432.105 213.047 432.218 213.097 432.336 213.097H436.031C436.149 213.097 436.262 213.047 436.345 212.958C436.429 212.87 436.476 212.749 436.476 212.624V210.327C436.476 210.202 436.429 210.081 436.345 209.992C436.262 209.904 436.149 209.854 436.031 209.854H432.336Z" fill="#6C63FF"/>
<path id="Vector_37" d="M452.114 209.854C451.996 209.854 451.883 209.904 451.8 209.992C451.717 210.081 451.67 210.202 451.67 210.327V212.624C451.67 212.749 451.717 212.87 451.8 212.958C451.883 213.047 451.996 213.097 452.114 213.097H484.064C484.182 213.097 484.295 213.047 484.378 212.958C484.461 212.87 484.508 212.749 484.508 212.624V210.327C484.508 210.202 484.461 210.081 484.378 209.992C484.295 209.904 484.182 209.854 484.064 209.854H452.114Z" fill="#6C63FF"/>
<path id="Vector_38" d="M432.85 194.795C432.732 194.795 432.619 194.845 432.536 194.934C432.452 195.023 432.405 195.143 432.405 195.269V197.565C432.405 197.691 432.452 197.811 432.536 197.9C432.619 197.989 432.732 198.039 432.85 198.039H445.535C445.653 198.039 445.766 197.989 445.849 197.9C445.932 197.811 445.979 197.691 445.979 197.565V195.269C445.979 195.143 445.932 195.023 445.849 194.934C445.766 194.845 445.653 194.795 445.535 194.795H432.85Z" fill="#6C63FF"/>
<path id="Vector_39" d="M414.099 194.795C413.981 194.795 413.868 194.845 413.785 194.934C413.701 195.023 413.655 195.143 413.654 195.269V197.565C413.655 197.691 413.701 197.811 413.785 197.9C413.868 197.989 413.981 198.039 414.099 198.039H426.784C426.902 198.039 427.015 197.989 427.098 197.9C427.182 197.811 427.229 197.691 427.229 197.565V195.269C427.229 195.143 427.182 195.023 427.098 194.934C427.015 194.845 426.902 194.795 426.784 194.795H414.099Z" fill="#6C63FF"/>
<path id="Vector_40" d="M489.358 194.795C489.241 194.795 489.128 194.845 489.044 194.934C488.961 195.023 488.914 195.143 488.914 195.269V197.565C488.914 197.691 488.961 197.811 489.044 197.9C489.128 197.989 489.241 198.039 489.358 198.039H493.054C493.172 198.039 493.285 197.989 493.368 197.9C493.451 197.811 493.498 197.691 493.498 197.565V195.269C493.498 195.143 493.451 195.023 493.368 194.934C493.285 194.845 493.172 194.795 493.054 194.795H489.358Z" fill="#6C63FF"/>
<path id="Vector_41" d="M451.344 194.795C451.226 194.795 451.113 194.845 451.029 194.934C450.946 195.023 450.899 195.143 450.899 195.269V197.565C450.899 197.691 450.946 197.811 451.029 197.9C451.113 197.989 451.226 198.039 451.344 198.039H483.293C483.411 198.039 483.524 197.989 483.607 197.9C483.691 197.811 483.737 197.691 483.737 197.565V195.269C483.737 195.143 483.691 195.023 483.607 194.934C483.524 194.845 483.411 194.795 483.293 194.795H451.344Z" fill="#6C63FF"/>
<path id="Vector_42" d="M461.618 202.461C461.5 202.462 461.387 202.511 461.304 202.6C461.22 202.689 461.174 202.809 461.173 202.935V205.231C461.174 205.357 461.22 205.477 461.304 205.566C461.387 205.655 461.5 205.705 461.618 205.705H474.303C474.421 205.705 474.534 205.655 474.617 205.566C474.701 205.477 474.747 205.357 474.748 205.231V202.935C474.747 202.809 474.701 202.689 474.617 202.6C474.534 202.511 474.421 202.462 474.303 202.461H461.618Z" fill="#6C63FF"/>
<path id="Vector_43" d="M480.369 202.461C480.251 202.462 480.138 202.511 480.055 202.6C479.971 202.689 479.924 202.809 479.924 202.935V205.231C479.924 205.357 479.971 205.477 480.055 205.566C480.138 205.655 480.251 205.705 480.369 205.705H493.054C493.172 205.705 493.285 205.655 493.368 205.566C493.451 205.477 493.498 205.357 493.498 205.231V202.935C493.498 202.809 493.451 202.689 493.368 202.6C493.285 202.511 493.172 202.462 493.054 202.461H480.369Z" fill="#6C63FF"/>
<path id="Vector_44" d="M414.099 202.461C413.981 202.462 413.868 202.511 413.785 202.6C413.701 202.689 413.655 202.809 413.654 202.935V205.231C413.655 205.357 413.701 205.477 413.785 205.566C413.868 205.655 413.981 205.705 414.099 205.705H417.794C417.912 205.705 418.025 205.655 418.108 205.566C418.192 205.477 418.239 205.357 418.239 205.231V202.935C418.239 202.809 418.192 202.689 418.108 202.6C418.025 202.511 417.912 202.462 417.794 202.461H414.099Z" fill="#6C63FF"/>
<path id="Vector_45" d="M423.86 202.461C423.742 202.462 423.629 202.511 423.546 202.6C423.462 202.689 423.415 202.809 423.415 202.935V205.231C423.415 205.357 423.462 205.477 423.546 205.566C423.629 205.655 423.742 205.705 423.86 205.705H455.809C455.927 205.705 456.04 205.655 456.123 205.566C456.207 205.477 456.254 205.357 456.254 205.231V202.935C456.254 202.809 456.207 202.689 456.123 202.6C456.04 202.511 455.927 202.462 455.809 202.461H423.86Z" fill="#6C63FF"/>
<path id="Vector_46" d="M458.673 110.466C458.673 110.466 462.489 109.013 464.942 114.823C467.395 120.634 471.211 127.026 471.211 127.026L469.03 127.607C469.03 127.607 468.485 123.539 467.122 122.958L467.667 128.188C467.667 128.188 451.313 134.289 443.954 127.607L444.227 125.573C444.227 125.573 443.136 125.864 443.136 127.607L442.319 126.735C442.319 126.735 443.136 124.992 445.589 122.668C447.2 121.142 447.753 118.24 447.943 116.425C448.085 114.91 448.654 113.476 449.575 112.312C451.205 110.298 454.175 108.157 458.673 110.466Z" fill="#2F2E41"/>
<path id="Vector_47" d="M456.343 128.39C460.24 128.39 463.399 125.022 463.399 120.869C463.399 116.715 460.24 113.348 456.343 113.348C452.446 113.348 449.287 116.715 449.287 120.869C449.287 125.022 452.446 128.39 456.343 128.39Z" fill="#FFB8B8"/>
<path id="Vector_48" d="M464.772 121.781C462.055 119.878 459.856 117.686 458.401 115.078C458.401 115.078 453.416 120.441 450.369 120.709C447.322 120.977 450.092 114.274 450.092 114.274L455.631 112.933L460.894 113.469L465.049 116.151L464.772 121.781Z" fill="#2F2E41"/>
<path id="Vector_49" d="M458.998 126.803H453.666V132.487H458.998V126.803Z" fill="#FFB8B8"/>
<path id="Vector_50" d="M466.8 137.747C463.574 139.833 459.849 140.877 456.077 140.752C452.305 140.627 448.648 139.339 445.549 137.043C446.199 135.586 447.223 134.355 448.502 133.493C449.781 132.63 451.264 132.172 452.777 132.171H459.294C460.93 132.171 462.527 132.705 463.869 133.702C465.211 134.699 466.234 136.111 466.8 137.747V137.747Z" fill="#2F2E41"/>
<path id="Vector_51" d="M483.991 234.159H495.216C495.918 228.637 494.369 223.483 495.216 219.801H483.991C481.877 224.587 481.877 229.373 483.991 234.159Z" fill="#FF6584"/>
<path id="Vector_52" d="M475.183 231.55H463.958C464.379 226.029 465.736 220.874 463.958 217.192H475.183C477.296 221.978 477.296 226.764 475.183 231.55Z" fill="#6C63FF"/>
</g>
<g id="lock">
<path id="Vector_53" d="M552.248 84.7917C572.523 84.7917 588.959 65.8104 588.959 42.3959C588.959 18.9813 572.523 0 552.248 0C531.973 0 515.537 18.9813 515.537 42.3959C515.537 65.8104 531.973 84.7917 552.248 84.7917Z" fill="#6C63FF"/>
<path id="Vector_54" d="M567.457 60.8683H537.039C536.483 60.8677 535.949 60.6122 535.556 60.158C535.163 59.7038 534.942 59.088 534.941 58.4457V37.2477C534.942 36.6054 535.163 35.9896 535.556 35.5355C535.95 35.0813 536.483 34.8258 537.039 34.8251H567.457C568.013 34.8258 568.546 35.0813 568.939 35.5355C569.333 35.9896 569.554 36.6054 569.554 37.2477V58.4457C569.554 59.088 569.333 59.7038 568.939 60.158C568.546 60.6122 568.013 60.8677 567.457 60.8683ZM537.039 37.2478V58.4457H567.458L567.457 37.2477L537.039 37.2478Z" fill="white"/>
<path id="Vector_55" d="M561.688 37.2478H542.808V27.5573C542.808 20.5385 546.778 15.4442 552.248 15.4442C557.718 15.4442 561.688 20.5385 561.688 27.5573L561.688 37.2478ZM544.906 34.8252H559.59V27.5573C559.59 21.8518 556.571 17.8668 552.248 17.8668C547.925 17.8668 544.906 21.8518 544.906 27.5573L544.906 34.8252Z" fill="white"/>
<path id="Vector_56" d="M552.248 49.6637C553.406 49.6637 554.345 48.5791 554.345 47.2411C554.345 45.9031 553.406 44.8185 552.248 44.8185C551.089 44.8185 550.15 45.9031 550.15 47.2411C550.15 48.5791 551.089 49.6637 552.248 49.6637Z" fill="white"/>
</g>
</g>
<defs>
<linearGradient id="paint0_linear" x1="307.587" y1="129.063" x2="307.587" y2="265.725" gradientUnits="userSpaceOnUse">
<stop offset="0.578125" stop-color="#4664D1"/>
<stop offset="1" stop-color="#46D14B" stop-opacity="0.59"/>
</linearGradient>
<linearGradient id="paint1_linear" x1="323.583" y1="85.0413" x2="323.583" y2="111.054" gradientUnits="userSpaceOnUse">
<stop offset="0.411458" stop-color="#4664D1"/>
<stop offset="1" stop-color="#46D175" stop-opacity="0.79"/>
</linearGradient>
<linearGradient id="paint2_linear" x1="335.134" y1="105.051" x2="340.904" y2="138.943" gradientUnits="userSpaceOnUse">
<stop offset="0.5625" stop-color="#4664D1"/>
<stop offset="1" stop-color="#46D17E" stop-opacity="0.81"/>
</linearGradient>
<linearGradient id="paint3_linear" x1="249.326" y1="57.0277" x2="248.113" y2="277.133" gradientUnits="userSpaceOnUse">
<stop offset="0.0188868" stop-color="#4664D1"/>
<stop offset="0.989583" stop-color="#46D17E" stop-opacity="0.63"/>
</linearGradient>
<clipPath id="clip0">
<rect width="173.266" height="220.107" fill="white" transform="translate(209.722 57.0277)"/>
</clipPath>
</defs>
</svg>
