<svg width="100" height="200" viewBox="0 0 461 287" fill="none" xmlns="http://www.w3.org/2000/svg">
<g id="money">
<g id="money_2">
<path id="Vector" d="M365.232 226.478C365.232 228.973 350.127 236.248 332.185 236.248C314.242 236.248 300.262 228.973 300.262 226.478C300.262 223.983 314.805 224.786 332.764 224.786C350.724 224.786 365.232 223.978 365.232 226.478Z" fill="#504F60"/>
<path id="Vector_2" opacity="0.2" d="M365.232 226.478C365.232 228.973 350.127 236.248 332.185 236.248C314.242 236.248 300.262 228.973 300.262 226.478" fill="black"/>
<path id="Vector_3" d="M184.54 180.691C187.452 181.05 190.474 181.279 193.263 180.407C193.702 180.276 194.185 179.985 194.141 179.562C194.11 179.408 194.042 179.263 193.943 179.139C192.892 177.62 192.009 176 191.308 174.305C191.28 174.216 191.223 174.139 191.146 174.085C191.055 174.053 190.955 174.053 190.865 174.085C189.578 174.41 188.466 175.21 187.188 175.552C186.537 175.724 185.856 175.773 185.185 175.696C184.606 175.633 183.815 175.172 183.288 175.231C183.587 177.079 184.316 178.805 184.54 180.691Z" fill="#6C63FF"/>
<path id="Vector_4" d="M239.614 176.009C241.533 174.74 243.523 173.408 244.656 171.45C244.737 171.333 244.784 171.197 244.792 171.056C244.773 170.918 244.717 170.787 244.63 170.676C243.55 169.023 242.161 167.579 240.532 166.417C239.682 166.995 238.914 167.677 238.248 168.447C237.765 168.937 236.429 169.716 236.416 170.464C236.416 170.887 236.926 171.378 237.163 171.733C237.484 172.19 237.787 172.655 238.077 173.129C238.243 173.361 239.768 175.916 239.614 176.009Z" fill="#6C63FF"/>
<path id="Vector_5" d="M195.955 186.354C195.989 186.79 195.865 187.223 195.604 187.58C195.399 187.779 195.145 187.925 194.866 188.003C190.794 189.408 186.081 187.657 182.019 189.04C181.184 189.323 180.393 189.733 179.555 190.004C178.554 190.293 177.523 190.469 176.48 190.528C175.044 190.659 173.599 190.744 172.158 190.782C171.063 190.857 169.963 190.764 168.899 190.507C168.367 190.376 167.869 190.138 167.438 189.81C167.008 189.481 166.654 189.069 166.4 188.6C166.179 188.179 166.135 187.693 166.277 187.242C166.341 187.088 166.431 186.945 166.545 186.819C166.82 186.522 167.143 186.269 167.502 186.071L169 185.14C169.702 184.662 170.465 184.272 171.271 183.981C171.864 183.795 172.492 183.715 173.094 183.558C175.197 182.966 176.805 181.359 178.298 179.815L180.336 177.722C180.527 177.492 180.768 177.305 181.043 177.176C181.326 177.086 181.627 177.058 181.922 177.096C183.902 177.232 185.813 177.849 187.478 178.889C187.904 179.197 188.363 179.458 188.848 179.667C190.043 180.116 191.576 179.777 192.678 179.211C193.201 178.94 193.087 178.788 193.307 178.306C193.526 177.823 194.062 177.515 194.528 177.954C194.668 178.107 194.768 178.29 194.817 178.487C195.257 179.883 195.09 181.384 195.09 182.848C195.077 183.077 195.107 183.306 195.178 183.525C195.29 183.745 195.424 183.955 195.577 184.15C195.609 184.202 195.637 184.256 195.661 184.311C195.929 184.959 196.03 185.66 195.955 186.354V186.354Z" fill="#514E7F"/>
<path id="Vector_6" d="M195.955 186.354C195.989 186.79 195.865 187.223 195.604 187.58C195.399 187.779 195.145 187.925 194.866 188.003C190.794 189.408 186.081 187.657 182.019 189.04C181.184 189.323 180.393 189.733 179.555 190.004C178.554 190.293 177.523 190.469 176.48 190.528C175.044 190.659 173.599 190.744 172.158 190.782C171.063 190.857 169.963 190.764 168.899 190.507C168.367 190.376 167.869 190.138 167.438 189.81C167.008 189.481 166.654 189.069 166.4 188.6C166.179 188.179 166.135 187.693 166.277 187.242C166.341 187.087 166.431 186.944 166.545 186.819C166.782 187.297 166.953 187.931 167.103 188.16C167.304 188.498 167.579 188.791 167.907 189.02C168.236 189.248 168.612 189.406 169.009 189.484C169.603 189.519 170.199 189.446 170.766 189.268C174.455 188.388 178.377 188.376 181.922 187.043C183.139 186.582 184.298 185.969 185.576 185.69C186.854 185.411 188.212 185.487 189.529 185.381C191.611 185.22 193.627 184.616 195.678 184.298C195.943 184.952 196.038 185.657 195.955 186.354V186.354Z" fill="#464353"/>
<path id="Vector_7" d="M248.939 175.751C248.745 177.24 247.766 178.521 246.69 179.608C245.614 180.695 244.397 181.672 243.541 182.924C242.486 184.476 242.012 186.4 240.642 187.712C240.116 188.188 239.525 188.594 238.885 188.917C238.168 189.324 237.41 189.66 236.623 189.919C234.576 190.549 232.371 190.406 230.232 190.253C229.538 190.247 228.85 190.119 228.203 189.877C227.908 189.733 227.626 189.566 227.36 189.378C226.823 189.06 226.372 188.625 226.042 188.109C225.88 187.828 225.834 187.499 225.915 187.187C226.037 186.844 226.247 186.535 226.525 186.291C227.006 185.809 227.523 185.36 228.071 184.95C228.823 184.483 229.501 183.913 230.083 183.258C230.44 182.741 230.703 182.169 230.86 181.566C231.171 180.511 231.361 179.426 231.427 178.331C231.424 177.603 231.502 176.877 231.66 176.165C231.985 175.049 232.845 174.051 232.749 172.896C232.71 172.731 232.725 172.558 232.793 172.401C232.895 172.279 233.038 172.194 233.197 172.16C233.868 171.903 234.576 171.744 235.296 171.691C235.658 171.667 236.02 171.72 236.357 171.848C236.695 171.975 236.998 172.173 237.246 172.427C237.545 172.773 237.743 173.273 238.182 173.408C238.4 173.465 238.628 173.474 238.85 173.433C239.93 173.328 241.072 173.196 241.924 172.524C242.318 172.184 242.635 171.769 242.854 171.305C243.073 170.842 243.19 170.339 243.198 169.83C243.198 169.445 243.018 169.043 243.637 168.984C244.103 168.925 244.472 169.407 244.709 169.703C245.565 170.807 246.444 171.961 246.764 173.306C246.889 173.26 247.022 173.235 247.155 173.234C247.429 173.232 247.7 173.294 247.944 173.414C248.188 173.534 248.398 173.709 248.557 173.924C248.906 174.469 249.042 175.118 248.939 175.751Z" fill="#514E7F"/>
<path id="Vector_8" d="M248.938 175.751C248.745 177.24 247.766 178.521 246.69 179.608C245.614 180.695 244.397 181.672 243.54 182.924C242.486 184.476 242.012 186.401 240.642 187.712C240.116 188.188 239.525 188.594 238.885 188.917C238.168 189.324 237.41 189.66 236.623 189.919C234.576 190.55 232.371 190.406 230.232 190.253C229.538 190.247 228.85 190.12 228.203 189.877C227.908 189.733 227.626 189.566 227.36 189.378C226.823 189.06 226.372 188.626 226.042 188.109C226.454 187.919 226.903 187.815 227.36 187.805C228.308 187.855 229.002 188.718 229.911 188.985C231.207 189.361 232.498 188.481 233.812 188.181C234.668 187.987 235.569 188.037 236.416 187.758C237.123 187.495 237.775 187.114 238.344 186.633C239.124 186.096 239.818 185.452 240.404 184.721C240.891 183.991 241.296 183.212 241.612 182.4C242.306 180.842 243.122 179.337 244.054 177.9C244.192 177.672 244.359 177.462 244.551 177.274C244.757 177.092 244.99 176.965 245.223 176.804C246.101 176.166 246.466 175.112 246.773 174.08C246.856 173.767 246.973 173.462 247.12 173.171C247.394 173.169 247.665 173.23 247.908 173.35C248.152 173.47 248.363 173.645 248.521 173.861C248.899 174.419 249.048 175.093 248.938 175.751V175.751Z" fill="#464353"/>
<path id="Vector_9" d="M156.838 43.8881C157.931 44.6769 158.831 45.6876 159.473 46.8486C160.088 48.0074 163.633 56.9991 163.426 58.3059C164.581 57.1851 169.136 57.0033 170.304 55.8825C170.792 55.413 173.423 53.07 173.818 52.5244C174.214 51.9788 177.148 50.8327 177.468 50.2575C178.667 48.1893 168.965 40.3523 170.208 38.3095C170.277 38.2157 170.312 38.1029 170.309 37.9881C170.281 37.8917 170.224 37.8051 170.146 37.7386C169.351 36.9561 168.297 36.4698 167.34 35.8903C166.382 35.3109 165.46 34.5031 165.201 33.4373C164.288 33.842 163.449 34.3878 162.719 35.0529C160.939 36.5219 159.189 38.0205 157.47 39.5487C156.798 40.1493 155.498 40.9487 155.186 41.8072C154.817 42.7292 156.197 43.3848 156.838 43.8881Z" fill="#A1616A"/>
<path id="Vector_10" d="M172.545 40.5595C171.056 41.5228 169.665 42.6188 168.389 43.833C167.186 44.9792 166.044 46.3072 165.754 47.9101C165.631 48.5403 165.649 49.1789 165.548 49.8176C165.108 52.5878 162.622 54.6179 161.524 57.2105C161.206 58.0107 160.972 58.8395 160.826 59.6847C160.518 61.2867 160.349 62.9108 160.321 64.54C160.295 66.1175 161.902 67.2044 162.491 68.6763C163.079 70.1481 163.237 71.6622 163.536 73.1721C164.098 76.0227 165.13 78.7717 166.171 81.5039C168.337 87.2643 175.356 103.188 177.521 108.952C184.158 107.35 201.823 103.666 207.7 100.286C209.659 99.1615 194.106 86.4692 196.201 85.5937C196.321 85.5757 196.435 85.5312 196.534 85.4637C196.632 85.3961 196.714 85.3073 196.771 85.2044C196.828 85.1014 196.859 84.9871 196.862 84.8704C196.866 84.7538 196.841 84.6379 196.79 84.5321C194.695 75.7097 188.141 68.4606 185.168 59.8708C184.136 56.8891 182.282 54.343 180.877 51.5093C179.603 48.9421 178.922 46.1042 177.398 43.6639C177.111 43.1611 176.735 42.7103 176.287 42.3316C175.907 42.0509 175.496 41.8113 175.061 41.6168C174.192 41.2108 173.383 40.9698 172.545 40.5595Z" fill="#514E7F"/>
<path id="Vector_11" d="M157.189 42.8857C162.926 42.8857 167.577 38.4075 167.577 32.8833C167.577 27.3591 162.926 22.8809 157.189 22.8809C151.452 22.8809 146.802 27.3591 146.802 32.8833C146.802 38.4075 151.452 42.8857 157.189 42.8857Z" fill="#A1616A"/>
<path id="Vector_12" d="M167.757 37.5821C168.275 37.1223 168.925 36.8244 169.622 36.7278C170.319 36.6311 171.03 36.7402 171.662 37.0407C172.364 37.3918 172.979 38.1023 172.821 38.8467L177.973 38.9228C178.793 38.9012 179.613 38.9736 180.415 39.1385C181.223 39.3078 181.944 39.743 182.453 40.3692C182.515 40.4496 182.585 40.5469 182.691 40.5595C182.776 40.5608 182.86 40.534 182.928 40.4834C183.72 40.1007 184.613 39.9534 185.493 40.0605C188.278 40.2339 190.851 41.5746 193.034 43.2494C193.428 43.51 193.733 43.8762 193.913 44.3025C194.093 44.865 193.878 45.5713 194.352 45.9731C194.352 50.6254 196.012 54.9732 197.119 59.5071C197.317 60.3149 198.121 61.0296 198.678 61.664C199.368 62.3674 199.93 63.1764 200.343 64.0579C201.283 66.4094 199.987 69.1754 200.901 71.5354C201.287 72.5335 202.034 73.354 202.658 74.221C203.48 75.2221 204 76.4221 204.16 77.6891C204.199 78.2558 204.125 78.8268 204.16 79.3808C204.219 80.1429 204.366 80.8961 204.599 81.6266C204.974 82.9913 205.366 84.3545 205.776 85.7164C206.444 87.9157 207.313 90.2883 209.36 91.4599C204.419 92.2677 199.21 93.0586 194.501 91.4049C193.845 91.1892 193.221 90.889 192.648 90.5125C190.948 89.3452 190.127 87.3489 189.393 85.4626C188.576 83.3479 187.746 81.1952 187.579 78.9452C187.581 78.2296 187.476 77.5174 187.267 76.8305C186.789 75.604 185.51 74.8639 184.351 74.1829C183.041 73.4921 181.855 72.604 180.837 71.5523C180.332 71.0226 179.945 70.3987 179.7 69.7193C179.455 69.0398 179.358 68.3192 179.414 67.6021C179.502 66.9042 179.787 66.2318 179.814 65.5297C179.84 64.8276 179.515 64.024 178.817 63.8379C175.219 62.7891 173.502 58.6866 172.703 55.1508C172.358 53.3234 172.203 51.4674 172.241 49.6104L172.193 46.0027C171.697 45.5679 171.297 45.0402 171.02 44.452C170.742 43.8638 170.591 43.2273 170.577 42.5812C170.625 42.2042 170.617 41.8227 170.555 41.4477C170.381 40.9894 170.098 40.5766 169.729 40.2423C168.935 39.4575 168.27 38.5604 167.757 37.5821V37.5821Z" fill="#464353"/>
<path id="Vector_13" d="M156.693 49.0182C156.574 50.1348 156.838 51.2809 156.579 52.3763C156.478 52.7993 156.302 53.2222 156.175 53.6155C155.785 55.1922 155.954 56.8489 156.653 58.3228C157.352 59.7823 158.189 61.1768 159.153 62.4887C159.479 62.9366 159.747 63.4209 159.952 63.931C160.118 64.4665 160.221 65.0184 160.259 65.5762C160.514 67.8158 160.922 70.0369 161.48 72.2247C161.972 74.1195 167.559 90.3179 168.859 91.8193C169.095 92.1517 169.453 92.3859 169.861 92.4749C170.155 92.4855 170.447 92.4275 170.713 92.3057L173.348 91.3329C173.572 91.2669 173.78 91.1576 173.959 91.0115C174.206 90.7337 174.34 90.3791 174.337 90.0134C174.525 87.9495 168.925 71.6368 168.214 69.6871C166.062 63.7998 163.198 58.124 161.797 52.0295C161.406 50.3378 161.199 47.7325 159.912 46.3833C159.381 45.8251 159.561 46.0619 158.924 46.3537C158.602 46.4882 158.291 46.6451 157.993 46.8232C157.62 47.0727 157.31 47.3993 157.085 47.7791C156.86 48.1589 156.726 48.5822 156.693 49.0182Z" fill="#464353"/>
<path id="Vector_14" d="M164.691 60.188C165.398 63.7871 166.127 67.3778 166.852 70.977L177.165 68.376C177.249 67.3356 176.673 66.3713 176.287 65.4154C175.347 63.1443 175.325 60.6151 174.565 58.2805C173.99 56.5042 172.988 54.8717 172.448 53.0826C172.136 52.0422 171.978 50.968 171.67 49.9148C171.341 48.8807 170.936 47.8702 170.458 46.8909C169.879 45.4706 169.124 44.1229 168.209 42.8772C166.892 43.3509 165.486 43.9007 164.735 45.0469C164.35 45.6927 164.13 46.4176 164.094 47.1615C163.914 49.3904 164.753 51.632 164.476 53.8481C164.191 55.9587 164.264 58.0998 164.691 60.188V60.188Z" fill="#6C63FF"/>
<path id="Vector_15" d="M177.336 108.064C177.916 110.179 177.077 112.404 176.392 114.497C175.361 117.651 174.657 120.895 174.293 124.182C174.248 125.019 174.073 125.844 173.774 126.631C173.449 127.337 172.896 127.934 172.518 128.606C171.482 130.374 171.508 132.531 171.732 134.553C171.881 135.885 172.105 137.213 172.382 138.524C172.72 140.127 173.137 141.802 172.65 143.367C173.467 143.193 174.02 144.213 173.968 145.012C173.915 145.811 173.647 146.704 174.047 147.393C175.057 147.748 175.066 149.085 175.035 150.121C175.052 151.918 175.288 153.706 175.738 155.45C177.266 162.527 178.888 169.585 180.604 176.622C184.316 177.73 188.651 178.885 192.191 177.35C192.85 177.066 193.509 176.614 193.658 175.929C193.697 175.559 193.649 175.186 193.517 174.837L191.84 168.959C191.431 167.538 191.023 166.07 191.238 164.611C191.4 163.524 191.892 162.352 191.339 161.392C191.15 161.062 190.851 160.804 190.632 160.491C189.753 159.252 190.214 157.594 190.285 156.093C190.312 155.756 190.289 155.417 190.215 155.086C190.094 154.7 189.926 154.33 189.714 153.982C188.327 151.39 187.661 148.497 187.781 145.583C187.834 145.211 187.781 144.833 187.627 144.488C187.521 144.345 187.425 144.195 187.342 144.039C187.276 143.768 187.309 143.483 187.434 143.231C186.931 142.864 186.476 142.437 186.081 141.963C186.325 141.817 186.531 141.62 186.684 141.386C186.837 141.152 186.932 140.888 186.964 140.613C186.995 140.339 186.961 140.061 186.865 139.801C186.768 139.541 186.611 139.305 186.406 139.112C186.586 139.077 186.751 138.995 186.885 138.876C187.019 138.756 187.115 138.602 187.164 138.433C187.213 138.263 187.211 138.084 187.161 137.915C187.11 137.746 187.012 137.594 186.876 137.475C186.661 137.331 186.376 137.268 186.222 137.052C185.985 136.739 186.178 136.304 186.371 135.97L187.395 134.189C188.159 132.865 188.33 131.229 189.152 129.96C190.329 128.111 191.097 126.052 191.857 124.013L194.813 116.159L196.803 117.821C197.466 118.309 198.021 118.919 198.437 119.615C198.72 120.303 198.899 121.026 198.968 121.763C199.697 126.026 202.482 129.723 203.514 133.923C203.743 134.857 203.896 135.838 204.454 136.638C204.654 136.883 204.833 137.143 204.99 137.416C205.135 137.832 205.211 138.267 205.214 138.706C205.306 139.565 205.589 140.395 206.044 141.139C206.499 141.884 207.114 142.525 207.849 143.02C208.829 143.667 210.045 144.111 210.577 145.135C210.683 145.452 210.831 145.754 211.016 146.035C211.491 146.585 212.514 146.649 212.716 147.338C212.83 147.723 212.619 148.184 212.843 148.522C212.971 148.679 213.139 148.8 213.331 148.873L216.19 150.248C219.388 151.787 221.022 155.323 223.38 157.899C224.195 158.738 224.916 159.656 225.532 160.639C226.551 162.395 227.021 164.598 228.743 165.715C229.206 165.946 229.627 166.247 229.991 166.607C230.531 167.292 230.333 168.252 230.382 169.115C230.43 169.978 231.115 171.006 231.967 170.743C231.669 171.788 231.669 172.892 231.967 173.937C235.708 173.752 239.275 172.36 242.096 169.986C242.93 169.284 243.734 168.388 243.743 167.322C243.756 167.138 243.713 166.954 243.62 166.793C243.451 166.585 243.228 166.423 242.974 166.324C240.299 164.928 239.495 161.693 238.143 159.066C236.961 156.748 235.213 154.752 233.75 152.599C230.57 147.968 228.401 142.364 223.591 139.307C222.533 138.634 221.303 138.038 220.771 136.925C220.477 136.304 220.442 135.593 220.209 134.95C219.976 134.307 219.418 133.682 218.707 133.682C219.102 132.751 219.023 131.618 219.05 130.611C219.077 130.164 219.023 129.716 218.891 129.287C218.709 128.826 218.471 128.386 218.184 127.976C216.929 125.93 216.302 123.584 216.375 121.209C216.41 119.987 216.634 118.727 216.252 117.559C216.058 116.971 215.72 116.434 215.487 115.867C215.137 114.841 214.951 113.768 214.938 112.687L214.675 108.623C214.635 107.269 214.453 105.923 214.13 104.605C213.252 101.45 212.373 88.2328 209.365 86.7441C206.356 85.2554 201.186 95.427 197.8 95.6257C196.302 95.6858 194.821 95.9609 193.408 96.442C191.154 97.2541 189.266 98.7682 187.425 100.248L181.197 105.286C179.88 106.33 178.79 107.328 177.336 108.064Z" fill="#464353"/>
<path id="Vector_16" d="M147.443 21.777C148.813 19.9753 151.167 19.0194 153.487 18.9391C155.806 18.8587 158.09 19.5608 160.167 20.5547C160.78 20.8905 161.436 21.1491 162.117 21.3244C163.215 21.5401 164.436 21.2525 165.429 21.7474C166.747 22.4198 167.001 24.1327 166.887 25.5538C166.773 26.9748 166.496 28.5524 167.283 29.7831C167.561 30.1341 167.815 30.5029 168.042 30.887C168.381 31.6187 168.183 32.4645 167.981 33.2385C167.467 32.8156 167.177 32.1769 166.72 31.6863C166.264 31.1957 165.469 30.8658 164.902 31.2338C164.335 31.6018 164.344 32.27 164.313 32.8706C164.283 33.4711 164.125 34.1901 163.536 34.3847C163.29 34.4385 163.033 34.4202 162.798 34.332C162.563 34.2438 162.361 34.0897 162.218 33.8898C161.212 32.7056 161.617 30.8151 160.62 29.6224C160.053 28.9457 159.109 28.6158 158.586 27.9053C158.173 27.347 158.068 26.6365 157.707 26.0359C157.347 25.4353 156.508 24.9955 155.951 25.41C155.76 25.5851 155.601 25.7895 155.481 26.0148C155.133 26.4945 154.627 26.8473 154.045 27.0162C153.463 27.185 152.84 27.16 152.274 26.9452C151.842 26.6899 151.375 26.4948 150.886 26.3658C150.566 26.3504 150.248 26.4214 149.968 26.5709C149.688 26.7204 149.457 26.9423 149.301 27.2117C148.986 27.7498 148.833 28.3623 148.862 28.9796C148.862 29.8254 149.02 30.7263 148.519 31.403C148.329 31.6577 148.09 31.8758 147.816 32.0458C147.083 32.4984 146.059 32.8029 145.383 32.2869C145.154 32.0813 144.983 31.8224 144.888 31.535C144.792 31.2476 144.775 30.9415 144.838 30.6459C144.97 30.0573 145.143 29.4779 145.357 28.9119C145.743 27.6008 145.238 26.1247 145.66 24.8898C146.101 23.7776 146.701 22.7299 147.443 21.777V21.777Z" fill="#464353"/>
<path id="Vector_17" d="M153.008 51.6151C152.942 51.9233 152.976 52.2436 153.104 52.5329C153.235 52.7298 153.413 52.8937 153.623 53.0108C155.1 53.8968 156.78 54.421 158.516 54.5376C158.752 54.5415 158.984 54.5995 159.192 54.7068C159.605 54.969 159.631 55.5526 159.478 56.0179C159.273 56.4567 159.166 56.9323 159.166 57.4135C159.293 58.2975 160.382 58.6824 161.3 58.8135C162.587 58.97 163.997 58.8896 165.016 58.1156C165.707 57.5094 166.233 56.7501 166.549 55.9037C169.07 50.3251 169.953 44.1587 172.505 38.5971C172.698 38.234 172.828 37.8423 172.887 37.4383C172.914 37.236 172.884 37.0305 172.801 36.8431C172.717 36.6557 172.583 36.4932 172.413 36.3725C171.938 36.0891 171.2 36.2498 170.88 35.8057C170.722 35.5816 170.739 35.2771 170.599 35.0402C170.304 34.5369 169.531 34.6173 169.004 34.3255C168.592 34.114 168.306 33.6784 167.845 33.5938C167.618 33.5815 167.392 33.6202 167.184 33.7068C166.976 33.7934 166.792 33.9256 166.646 34.0929C165.148 35.4378 164.362 37.3452 163.527 39.1469C162.253 41.9087 160.761 44.5725 159.065 47.1151C159.262 46.819 158.116 44.5774 157.668 44.4802C156.882 44.3279 155.876 45.6559 155.45 46.1508C154.113 47.7116 153.266 49.6071 153.008 51.6151V51.6151Z" fill="#6C63FF"/>
<path id="Vector_18" opacity="0.1" d="M168.965 34.7188C168.649 34.7238 168.339 34.7971 168.057 34.9333C167.775 35.0695 167.528 35.265 167.335 35.5054C166.865 36.0933 166.773 36.8715 166.655 37.6201C166.255 39.9918 165.376 42.2649 164.068 44.3109" fill="black"/>
<path id="Vector_19" opacity="0.1" d="M171.205 36.4063C170.769 36.4157 170.344 36.5341 169.97 36.7499C169.597 36.9657 169.288 37.2714 169.075 37.6371C168.784 38.3023 168.603 39.0073 168.539 39.7264C168.162 41.3206 167.436 42.8189 166.409 44.1207" fill="black"/>
<path id="Vector_20" d="M275.591 119.09V113.837C275.59 109.971 273.993 106.262 271.153 103.528C268.313 100.795 264.462 99.2588 260.446 99.2588H45.0116C40.9958 99.2588 37.1445 100.795 34.3045 103.528C31.4645 106.262 29.8684 109.971 29.8672 113.837V123.523L275.591 119.09Z" fill="#33323D"/>
<path id="Vector_21" d="M104.944 93.1009C104.944 93.1009 104.329 129.837 111.093 141.925C117.857 154.012 120.756 206.596 120.756 206.596C120.756 206.596 191.664 213.659 241.076 198.137C290.489 182.615 395.63 176.267 395.63 176.267L377.912 61.275C377.912 61.275 290.379 55.8699 240.585 78.738C190.79 101.606 104.944 93.1009 104.944 93.1009Z" fill="#8DD070"/>
<path id="Vector_22" opacity="0.1" d="M104.944 93.1009C104.944 93.1009 104.329 129.837 111.093 141.925C117.857 154.012 120.756 206.596 120.756 206.596C120.756 206.596 191.664 213.659 241.076 198.137C290.489 182.615 395.63 176.267 395.63 176.267L377.912 61.275C377.912 61.275 290.379 55.8699 240.585 78.738C190.79 101.606 104.944 93.1009 104.944 93.1009Z" fill="black"/>
<path id="Vector_23" d="M120.637 106.521C120.637 106.521 118.419 136.832 123.984 146.518C129.549 156.203 129.808 199.44 129.808 199.44C129.808 199.44 193.623 202.29 239.017 187.411C284.41 172.532 379.801 162.881 379.801 162.881L368.961 68.8413C368.961 68.8413 290.032 68.0589 243.967 89.0027C197.901 109.946 120.637 106.521 120.637 106.521Z" fill="#8DD070"/>
<path id="Vector_24" opacity="0.1" d="M243.266 170.193C252.346 169.104 257.74 153.02 255.314 134.268C252.889 115.517 243.562 101.198 234.482 102.287C225.402 103.376 220.008 119.46 222.433 138.212C224.859 156.964 234.186 171.282 243.266 170.193Z" fill="black"/>
<path id="Vector_25" opacity="0.2" d="M329.923 5.25714C329.923 5.25714 244.885 25.981 204.784 62.4592C164.682 98.9374 80.2638 116.21 80.2638 116.21C80.2638 116.21 91.3849 151.352 101.672 160.859C111.958 170.367 131.468 219.563 131.468 219.563C131.468 219.563 201.204 205.327 243.281 175.941C285.359 146.556 383.424 109.443 383.424 109.443L329.923 5.25714Z" fill="black"/>
<path id="Vector_26" d="M78.9855 110.949C78.9855 110.949 90.1022 146.095 100.38 155.602C110.658 165.11 130.177 214.302 130.177 214.302C130.177 214.302 199.921 200.07 242.003 170.684C284.085 141.299 382.142 104.199 382.142 104.199L328.64 0C328.64 0 243.606 20.7239 203.505 57.2021C163.404 93.6803 78.9855 110.949 78.9855 110.949Z" fill="#8DD070"/>
<path id="Vector_27" opacity="0.1" d="M78.9855 110.949C78.9855 110.949 90.1022 146.095 100.38 155.602C110.658 165.11 130.177 214.302 130.177 214.302C130.177 214.302 199.921 200.07 242.003 170.684C284.085 141.299 382.142 104.199 382.142 104.199L328.64 0C328.64 0 243.606 20.7239 203.505 57.2021C163.404 93.6803 78.9855 110.949 78.9855 110.949Z" fill="black"/>
<path id="Vector_28" d="M98.184 119.086C98.184 119.086 105.734 148.594 114.119 156.165C122.504 163.735 136.519 204.802 136.519 204.802C136.519 204.802 198.16 188.655 236.623 161.079C275.086 133.504 362.807 96.1713 362.807 96.1713L322.526 9.84167C322.526 9.84167 247.16 32.4138 209.988 65.961C172.817 99.5083 98.184 119.086 98.184 119.086Z" fill="#8DD070"/>
<path id="Vector_29" opacity="0.1" d="M235.201 143.451C243.495 139.731 243.504 122.829 235.22 105.699C226.935 88.5684 213.495 77.6966 205.201 81.416C196.906 85.1354 196.897 102.037 205.182 119.168C213.466 136.298 226.906 147.17 235.201 143.451Z" fill="black"/>
<path id="Vector_30" opacity="0.1" d="M281.406 124.246V270.159C281.406 271.816 281.067 273.457 280.408 274.988C279.75 276.519 278.784 277.91 277.567 279.081C276.35 280.253 274.905 281.182 273.315 281.816C271.725 282.449 270.021 282.775 268.3 282.775H42.9781C39.504 282.774 36.1725 281.444 33.7164 279.078C31.2602 276.712 29.8804 273.504 29.8804 270.159V109.536C36.337 111.845 36.337 111.845 42.9781 111.651H268.3C271.771 111.651 275.101 112.977 277.558 115.338C280.015 117.7 281.399 120.903 281.406 124.246V124.246Z" fill="black"/>
<path id="Vector_31" d="M281.406 126.102V272.015C281.405 275.362 280.024 278.571 277.566 280.937C275.108 283.302 271.775 284.632 268.3 284.632H42.9781C39.504 284.63 36.1725 283.301 33.7164 280.935C31.2602 278.569 29.8804 275.361 29.8804 272.015V111.389C36.337 113.694 36.337 113.694 42.9781 113.503H268.3C271.772 113.503 275.102 114.83 277.56 117.192C280.017 119.554 281.4 122.759 281.406 126.102V126.102Z" fill="#504F60"/>
<path id="Vector_32" opacity="0.1" d="M280.765 180.048V226.71H233.768C227.398 226.628 221.319 224.133 216.845 219.767C212.371 215.4 209.862 209.513 209.862 203.379C209.862 197.245 212.371 191.358 216.845 186.991C221.319 182.625 227.398 180.131 233.768 180.048H280.765Z" fill="black"/>
<path id="Vector_33" d="M281.406 178.805V225.475H234.409C228.04 225.393 221.96 222.898 217.486 218.532C213.012 214.166 210.503 208.278 210.503 202.144C210.503 196.01 213.012 190.123 217.486 185.757C221.96 181.39 228.04 178.896 234.409 178.813L281.406 178.805Z" fill="#33323D"/>
<path id="Vector_34" opacity="0.1" d="M236.662 212.479C241.88 212.479 246.11 208.406 246.11 203.381C246.11 198.357 241.88 194.284 236.662 194.284C231.445 194.284 227.215 198.357 227.215 203.381C227.215 208.406 231.445 212.479 236.662 212.479Z" fill="black"/>
<path id="Vector_35" d="M237.304 211.244C242.521 211.244 246.751 207.171 246.751 202.146C246.751 197.122 242.521 193.049 237.304 193.049C232.086 193.049 227.856 197.122 227.856 202.146C227.856 207.171 232.086 211.244 237.304 211.244Z" fill="#6C63FF"/>
<path id="Vector_36" d="M362.983 178.403C363.356 182.298 360.295 186.079 361.187 189.894C361.38 190.71 361.744 191.48 361.876 192.305C362.245 194.572 360.844 196.716 359.504 198.611L347.997 214.868C347.536 215.583 346.984 216.239 346.354 216.822C344.158 218.709 340.855 218.514 337.965 219.076C335.933 219.474 334.015 220.29 332.343 221.47C332.273 221.528 332.228 221.609 332.218 221.697C332.209 221.785 332.234 221.873 332.29 221.944C332.768 222.57 333.4 223.071 334.131 223.402C334.861 223.732 335.666 223.881 336.471 223.835C336.774 224.219 336.471 224.782 336.032 225.057C335.413 225.48 334.565 225.581 334.442 226.588C334.398 226.939 334.472 227.295 334.653 227.603C335.117 228.287 335.838 228.77 336.665 228.952C340.648 230.124 344.953 228.064 347.935 225.26C350.917 222.456 353.056 218.916 355.982 216.061C357.602 214.483 359.443 213.13 361.112 211.599C364.441 208.545 367.028 204.832 369.527 201.114C370.278 199.994 371.034 198.843 371.35 197.545C371.666 196.246 371.517 194.935 371.873 193.679C372.338 192.03 373.59 190.719 374.631 189.336C376.674 186.629 378.035 183.317 377.767 179.985C377.499 176.652 375.351 173.357 372.084 172.224C371.071 171.832 369.954 171.767 368.899 172.038C367.56 172.435 366.571 173.501 365.658 174.52L363.462 176.952C362.914 177.486 362.481 178.118 362.188 178.813C362.047 179.162 362.014 179.543 362.092 179.909C362.17 180.276 362.356 180.613 362.627 180.881" fill="#FBBEBE"/>
<path id="Vector_37" opacity="0.05" d="M362.983 178.403C363.356 182.298 360.295 186.079 361.187 189.894C361.38 190.71 361.744 191.48 361.876 192.305C362.245 194.572 360.844 196.716 359.504 198.611L347.997 214.868C347.536 215.583 346.984 216.239 346.354 216.822C344.158 218.709 340.855 218.514 337.965 219.076C335.933 219.474 334.015 220.29 332.343 221.47C332.273 221.528 332.228 221.609 332.218 221.697C332.209 221.785 332.234 221.873 332.29 221.944C332.768 222.57 333.4 223.071 334.131 223.402C334.861 223.732 335.666 223.881 336.471 223.835C336.774 224.219 336.471 224.782 336.032 225.057C335.413 225.48 334.565 225.581 334.442 226.588C334.398 226.939 334.472 227.295 334.653 227.603C335.117 228.287 335.838 228.77 336.665 228.952C340.648 230.124 344.953 228.064 347.935 225.26C350.917 222.456 353.056 218.916 355.982 216.061C357.602 214.483 359.443 213.13 361.112 211.599C364.441 208.545 367.028 204.832 369.527 201.114C370.278 199.994 371.034 198.843 371.35 197.545C371.666 196.246 371.517 194.935 371.873 193.679C372.338 192.03 373.59 190.719 374.631 189.336C376.674 186.629 378.035 183.317 377.767 179.985C377.499 176.652 375.351 173.357 372.084 172.224C371.071 171.832 369.954 171.767 368.899 172.038C367.56 172.435 366.571 173.501 365.658 174.52L363.462 176.952C362.914 177.486 362.481 178.118 362.188 178.813C362.047 179.162 362.014 179.543 362.092 179.909C362.17 180.276 362.356 180.613 362.627 180.881" fill="black"/>
<path id="Vector_38" d="M371.693 278.681C369.18 280.157 366.049 280.246 363.128 279.903C362.658 279.848 362.1 279.814 361.81 280.165C361.371 280.673 361.889 281.434 362.425 281.828C364.148 283.073 366.172 283.875 368.306 284.158C370.212 284.418 372.135 284.541 374.06 284.526C379.331 284.615 384.601 284.699 389.789 283.972C390.096 283.949 390.395 283.866 390.667 283.727C391.002 283.5 391.234 283.16 391.317 282.775C391.673 281.472 390.988 280.077 389.951 279.171C388.915 278.266 387.584 277.763 386.284 277.277L381.716 275.564C380.644 275.162 378.927 274.096 377.763 274.181C375.575 274.333 373.507 277.657 371.693 278.681Z" fill="#3F3D56"/>
<path id="Vector_39" opacity="0.05" d="M371.693 278.681C369.18 280.157 366.049 280.246 363.128 279.903C362.658 279.848 362.1 279.814 361.81 280.165C361.371 280.673 361.889 281.434 362.425 281.828C364.148 283.073 366.172 283.875 368.306 284.158C370.212 284.418 372.135 284.541 374.06 284.526C379.331 284.615 384.601 284.699 389.789 283.972C390.096 283.949 390.395 283.866 390.667 283.727C391.002 283.5 391.234 283.16 391.317 282.775C391.673 281.472 390.988 280.077 389.951 279.171C388.915 278.266 387.584 277.763 386.284 277.277L381.716 275.564C380.644 275.162 378.927 274.096 377.763 274.181C375.575 274.333 373.507 277.657 371.693 278.681Z" fill="black"/>
<path id="Vector_40" d="M374.895 220.29C372.993 222.726 371.025 225.539 371.495 228.555C371.75 230.179 372.694 231.612 373.388 233.114C374.328 235.152 374.82 237.343 375.303 239.526C376.015 242.714 376.731 245.912 377.165 249.152C377.662 252.81 375.329 263.396 375.114 267.08C375.062 267.968 374.952 268.928 374.31 269.567C374.06 269.82 373.726 270.023 373.612 270.353C373.545 270.671 373.6 271.002 373.766 271.284C374.838 273.61 377.029 275.344 379.476 276.334C381.922 277.323 387.821 279.032 390.487 279.121C390.838 279.158 391.194 279.113 391.524 278.99C391.878 278.781 392.157 278.473 392.323 278.106C394.234 274.587 392.398 262.076 392.424 258.105C392.45 254.793 393.263 251.503 393.114 248.196C392.991 245.54 392.235 242.943 391.985 240.295C391.546 235.956 392.371 231.595 393.201 227.307C393.834 224.016 394.471 220.726 395.283 217.478C395.78 215.494 396.355 213.494 397.479 211.772C398.358 210.406 399.592 209.264 400.615 207.966C403.456 204.38 404.718 199.862 404.129 195.388C404.068 194.965 397.541 196.982 396.966 197.223C394.618 198.181 392.458 199.518 390.579 201.178C389.068 202.565 387.878 204.418 386.556 205.97C384.685 208.166 382.837 210.378 381.013 212.606C378.931 215.152 376.892 217.713 374.895 220.29Z" fill="#464353"/>
<path id="Vector_41" opacity="0.05" d="M374.895 220.142C372.993 222.578 371.025 225.395 371.495 228.407C371.75 230.035 372.694 231.469 373.388 232.97C374.328 235.004 374.82 237.199 375.303 239.377C376.015 242.571 376.731 245.768 377.165 249.003C377.662 252.666 375.329 263.248 375.114 266.932C375.062 267.82 374.952 268.784 374.31 269.423C374.06 269.672 373.726 269.875 373.612 270.205C373.545 270.523 373.599 270.854 373.766 271.136C374.838 273.466 377.029 275.196 379.476 276.211C381.922 277.226 387.821 278.11 390.487 278.195C390.838 278.232 391.194 278.187 391.524 278.063C391.879 277.858 392.158 277.55 392.323 277.184C394.234 273.665 392.398 261.958 392.424 257.982C392.45 254.667 393.263 251.38 393.114 248.069C392.991 245.413 392.235 242.816 391.985 240.173C391.546 235.829 392.371 231.469 393.201 227.18C393.834 223.894 394.471 220.603 395.283 217.351C395.78 215.367 396.355 213.367 397.479 211.646C398.358 210.279 399.592 209.138 400.615 207.839C403.457 204.254 404.719 199.735 404.129 195.261C404.068 194.838 397.541 196.856 396.966 197.097C394.619 198.057 392.459 199.396 390.579 201.055C389.068 202.438 387.878 204.291 386.556 205.843C384.685 208.039 382.837 210.253 381.013 212.483C378.931 215.009 376.892 217.562 374.895 220.142Z" fill="black"/>
<path id="Vector_42" d="M353.733 166.637C359.62 166.637 364.393 162.041 364.393 156.372C364.393 150.703 359.62 146.107 353.733 146.107C347.846 146.107 343.073 150.703 343.073 156.372C343.073 162.041 347.846 166.637 353.733 166.637Z" fill="#FBBEBE"/>
<path id="Vector_43" d="M363.334 155.941C364.319 157.453 365.61 158.76 367.131 159.781C368.651 160.803 370.37 161.519 372.184 161.887L371.381 164.7C369.993 169.53 368.434 174.639 364.56 177.988C364.999 176.352 364.437 174.605 363.479 173.184C362.522 171.763 361.178 170.646 359.86 169.542L353.724 164.425C353.547 164.286 353.398 164.117 353.285 163.926C353.133 163.565 353.133 163.162 353.285 162.801C354.067 160.458 356.298 158.994 358.116 157.413C359.029 156.595 359.843 155.681 360.545 154.689C361.771 153.006 362.53 154.697 363.334 155.941Z" fill="#FBBEBE"/>
<path id="Vector_44" d="M339.691 146.052L339.449 144.124C341.132 144.547 342.73 143.168 343.806 141.743C344.883 140.317 345.88 138.638 347.518 138.042C349.508 137.323 351.616 138.465 353.518 139.429C355.647 140.567 357.984 141.299 360.4 141.586C360.786 141.598 361.168 141.658 361.538 141.764C362.777 142.187 363.365 143.684 363.545 145.042C363.725 146.399 363.677 147.841 364.287 149.051C364.727 149.969 365.544 150.65 366.044 151.555C367.362 153.982 366.088 157.302 367.463 159.684L364.046 156.668C363.734 156.393 363.295 156.106 362.948 156.338C362.675 156.524 362.654 156.926 362.544 157.247C362.214 158.186 360.993 158.466 360.11 158.093C359.228 157.721 358.582 156.913 357.914 156.177C356.403 154.46 354.603 152.95 352.494 152.219C351.57 151.886 350.583 151.746 349.599 151.809C348.614 151.872 347.655 152.136 346.784 152.583C345.19 153.45 344.022 155.471 342.067 155.543C339.388 155.64 338.272 150.836 337.034 148.937C337.487 148.608 337.806 148.137 337.934 147.605C338.063 147.073 337.993 146.514 337.736 146.027C337.917 145.955 339.651 145.756 339.691 146.052Z" fill="#464353"/>
<path id="Vector_45" d="M207.84 86.0421C206.984 86.7757 206.192 87.5763 205.473 88.4359C204.749 89.3074 204.364 90.3949 204.384 91.5107C204.388 91.8342 204.495 92.1488 204.691 92.4115C204.792 92.5372 204.93 92.6297 205.088 92.6759C205.245 92.7222 205.414 92.7199 205.57 92.6695C205.746 92.5829 205.897 92.4549 206.009 92.2973C206.473 91.7602 206.966 91.2463 207.485 90.7578C207.674 90.576 207.924 90.3856 208.179 90.4533C208.293 90.4923 208.395 90.5577 208.477 90.6436C208.773 90.8896 208.988 91.2128 209.097 91.5741C209.25 92.2212 208.859 92.8683 208.416 93.3758C207.972 93.8833 207.45 94.3697 207.269 95.0083C207.201 95.177 207.201 95.3641 207.269 95.5328C207.354 95.6548 207.473 95.7515 207.612 95.8119C208.241 96.1454 208.938 96.3417 209.655 96.387C210.371 96.4323 211.09 96.3255 211.758 96.0741C212.637 95.7316 213.419 95.1437 214.323 94.8392C214.715 94.7359 215.095 94.5942 215.457 94.4162C215.715 94.2503 215.938 94.0368 216.11 93.7878C216.283 93.5388 216.403 93.2593 216.462 92.9656C216.577 92.3785 216.599 91.7783 216.528 91.185C216.419 88.8874 215.908 86.624 215.017 84.4899C214.966 84.3523 214.878 84.2299 214.763 84.1346C214.631 84.0571 214.478 84.0175 214.323 84.0205C213.199 83.9063 211.354 83.3522 210.269 83.754C209.89 83.9543 209.563 84.2349 209.312 84.5745C209.11 84.7902 207.84 85.7587 207.84 86.0421Z" fill="#A1616A"/>
<path id="Vector_46" d="M207.485 85.0862C207.485 84.0542 206.167 81.5631 208.262 81.3982C208.262 80.2943 206.641 79.6092 206.945 78.4376C207.041 78.0485 207.384 77.7313 207.423 77.3338C207.555 76.2045 205.438 75.5913 205.789 74.5086C205.921 74.0856 206.387 73.8403 206.488 73.4216C206.725 72.4446 204.911 72.009 204.876 71.0066C204.876 70.6683 205.073 70.3511 205.056 70.0127C205.056 69.5898 204.674 69.2684 204.463 68.9004C203.914 67.9573 204.182 66.4982 203.18 66.0118C203.844 66.0668 204.059 65.1194 203.787 64.54C203.514 63.9605 202.956 63.4572 202.952 62.8144C202.985 62.5814 202.985 62.3453 202.952 62.1123C202.768 61.4948 201.718 61.4441 201.542 60.8435C201.519 60.613 201.512 60.3813 201.52 60.1499C201.45 59.672 200.94 59.3675 200.462 59.2321C199.964 59.1508 199.486 58.9862 199.047 58.7457C198.74 58.5216 198.384 58.1494 198.055 58.3228C197.932 58.3947 197.87 58.53 197.778 58.6315C197.383 59.0756 196.627 58.8811 196.131 58.5554C194.664 57.5954 193.935 55.874 193.623 54.195C193.311 52.5159 193.32 50.7819 192.929 49.1197C192.81 48.6017 192.651 48.0928 192.454 47.5972C192.288 47.1742 191.752 46.5102 191.717 46.0831C191.638 45.1103 193.728 45.7743 194.523 45.8716C195.295 45.9442 196.058 46.0858 196.803 46.2945C197.598 46.5836 198.376 46.9126 199.135 47.28C202.306 48.6291 206.136 48.7941 208.684 51.061C209.523 51.8054 210.23 52.7824 211.319 53.1207C211.819 53.2129 212.312 53.3358 212.795 53.4887C214.003 54.0342 214.192 55.578 214.851 56.6945C215.058 56.9894 215.238 57.3006 215.391 57.625C215.518 58.0075 215.577 58.4078 215.567 58.8092L215.659 61.7401C215.808 66.6504 215.957 71.5734 215.413 76.4541C215.237 78.0654 214.974 79.7234 215.47 81.2713C215.602 81.6942 215.786 82.0918 215.909 82.519C216.018 83.0198 216.074 83.5299 216.076 84.0415L216.146 85.9405C216.171 86.0882 216.136 86.2393 216.05 86.3634C215.976 86.4209 215.89 86.4617 215.798 86.4829C215.706 86.5041 215.611 86.5052 215.518 86.4861C212.773 86.2493 209.997 84.7605 207.406 85.6614" fill="#464353"/>
<path id="Vector_47" d="M332.76 230.999C350.701 230.999 365.245 228.975 365.245 226.478C365.245 223.981 350.701 221.957 332.76 221.957C314.819 221.957 300.275 223.981 300.275 226.478C300.275 228.975 314.819 230.999 332.76 230.999Z" fill="#504F60"/>
<path id="Vector_48" d="M360.708 226.698C360.137 224.342 359.781 222.274 359.781 222.274C359.781 222.274 359.913 219.711 358.718 217.787V217.144V212.407C359.058 211.547 359.474 210.716 359.961 209.924C360.839 208.435 359.961 202.98 359.961 202.98C359.961 202.98 356.68 195.286 357.475 190.406C358.27 185.525 350.737 168.734 350.737 168.734C350.784 167.115 351.021 165.506 351.444 163.938C351.525 163.609 351.557 163.27 351.541 162.932C351.541 162.889 351.541 162.851 351.541 162.809C351.541 162.767 351.541 162.835 351.541 162.847C351.427 159.629 348.783 153.598 348.783 153.598L349.139 142.102C349.139 142.102 350.825 135.335 348.076 126.221C347.114 123.045 346.499 120.503 346.108 118.54C346.064 118.321 346.02 118.118 345.985 117.902C351.646 117.056 355.973 116.379 355.973 116.379C355.973 116.379 352.687 103.146 350.469 100.828C348.251 98.5102 346.477 91.2315 346.477 91.2315C346.477 91.2315 345.322 81.8888 347.188 79.1567C349.055 76.4245 349.319 71.713 349.319 71.713C349.319 71.713 353.575 68.7524 354.111 67.4117C354.646 66.071 355.529 63.1105 355.529 61.5414C355.529 59.9723 354.998 58.5808 355.173 57.735C355.349 56.8891 353.93 53.7636 354.642 52.2749C354.826 51.8175 354.921 51.3316 354.923 50.8411C354.925 50.8271 354.925 50.8129 354.923 50.7988C354.923 50.7988 354.923 50.7988 354.923 50.7988C354.93 49.496 354.805 48.1957 354.55 46.9163C353.319 45.9152 351.882 45.1758 350.333 44.7466L350.241 44.3913L349.999 43.4609C349.865 43.3751 349.725 43.296 349.582 43.224V42.8857L349.543 41.5407L350.21 38.521C351.528 33.2681 344.241 32.4857 344.241 32.4857C343.799 31.6799 343.064 31.0595 342.177 30.7432C340.714 30.2484 341.935 38.6436 342.616 39.2019C343.13 39.6248 344.72 42.2386 345.489 43.5328L345.612 43.7442C345.491 43.8484 345.38 43.9615 345.278 44.0826L345.554 45.9054L345.598 46.1846C345.115 46.762 344.723 47.4047 344.434 48.092C344.434 48.092 345.752 49.4962 345.502 51.0526C345.251 52.609 345.91 54.5841 345.941 54.6898C345.862 54.601 344.926 53.6282 343.991 53.8651C343.055 54.1019 340.442 54.859 340.442 54.859C340.442 54.859 338.492 55.1889 338.685 55.6034C338.878 56.0178 337.367 57.8365 337.367 57.8365L332.123 53.0488C332.07 52.905 332.013 52.7612 331.969 52.6259C331.755 51.9356 331.608 51.2277 331.53 50.5112C332.102 50.3804 332.662 50.2094 333.208 49.9995C333.759 49.8173 334.256 49.5097 334.657 49.1028C335.189 48.498 335.29 47.6775 335.505 46.9247C335.918 45.4529 336.823 44.146 337.451 42.7461C338.514 40.3806 338.857 37.7724 338.439 35.2263C338.359 34.4417 338.083 33.6873 337.635 33.0271C336.779 31.8936 335.224 31.4326 334.095 30.5275C332.966 29.6224 332.237 28.2394 330.92 27.5669C329.729 26.9537 328.284 27.0256 326.94 27.2371C324.315 27.6539 321.794 28.5373 319.504 29.8423C318.74 30.2653 317.897 30.7855 317.018 30.629C316.263 30.4979 315.701 29.9185 315.226 29.3602C315.231 29.3371 315.239 29.3145 315.248 29.2925C315.227 29.2719 315.208 29.2492 315.191 29.2249C314.635 30.4126 314.356 31.7032 314.374 33.0059C314.374 33.2089 314.374 33.4288 314.4 33.6107V33.8222C314.4 33.8814 314.4 33.9406 314.4 33.9956C314.4 34.0857 314.387 34.1754 314.361 34.262C314.25 34.5207 314.082 34.7531 313.869 34.9429C313.708 35.1193 313.561 35.3073 313.43 35.5054C313.43 35.4378 313.474 35.3701 313.5 35.2982C313.165 35.7692 312.976 36.3222 312.955 36.8927C312.931 37.308 313.072 37.7166 313.351 38.0346C313.614 38.2805 313.9 38.5014 314.207 38.6944C314.103 39.2527 314.05 39.8188 314.049 40.3861C314.059 42.0679 314.519 43.7188 315.386 45.1792C316.252 46.6395 317.495 47.8598 318.995 48.7222C319.056 48.8618 319.113 49.0056 319.17 49.1451C319.842 50.8369 320.347 52.8247 320.123 54.6433C320.123 54.7744 320.084 54.9097 320.062 55.0409C320.04 55.172 319.93 55.1804 319.873 55.2523C319.873 55.2523 311.207 55.3369 309.169 53.5606C307.131 51.7842 304.022 57.9041 304.022 57.9041C304.022 57.9041 300.916 58.4836 300.293 57.9041C299.669 57.3247 296.037 57.8238 296.037 57.8238C294.548 56.5494 292.612 55.8688 290.621 55.9206C289.415 55.0379 288.083 54.3258 286.668 53.8059V53.8059L286.571 53.772C285.946 53.5528 285.278 53.4718 284.617 53.5352C284.617 53.5352 280.356 50.1517 279.113 48.3246C277.87 46.4976 271.954 39.7517 271.928 39.7221V39.3965L271.862 38.4152C271.686 38.4418 271.508 38.4559 271.33 38.4575C271.299 38.3603 271.256 38.2461 271.212 38.115C270.871 37.1579 270.451 36.2287 269.955 35.3363C269.955 35.3363 269.955 34.0971 270.329 33.7841C270.702 33.4711 270.175 28.9246 270.175 28.9246C270.175 28.9246 266.336 20.284 262.897 26.7338C262.897 26.7338 256.397 30.9081 261.852 35.7719C261.852 35.7719 264.048 36.7869 264.338 37.5905C264.54 38.1107 265.278 39.5699 265.774 40.5511L265.998 40.974L265.937 41.0248L266.016 41.8368L266.051 42.1498C265.023 42.7123 264.325 43.2706 264.496 43.6893C264.799 44.4058 265.007 45.156 265.115 45.9224C265.115 45.9224 272.661 55.0239 273.636 58.9107C273.636 58.9107 293.871 70.4907 300.525 71.3154L299.348 77.0885C299.177 78.655 299.089 80.229 299.085 81.8042C299.173 83.0434 298.285 88.6685 298.285 88.6685C298.285 88.6685 297.13 96.9411 296.155 98.1C295.18 99.2588 295.356 104.22 295.356 104.22C295.126 106.595 294.685 108.946 294.038 111.249C293.063 114.391 293.77 118.282 293.77 118.282C293.77 118.282 290.401 125.726 298.474 120.681C298.474 120.681 302.427 120.444 307.004 120.291C307.004 120.435 307.004 120.583 307.004 120.714C307.004 121.281 307.004 121.894 306.973 122.537C306.912 126.8 306.885 132.688 307.087 137.12C307.443 144.978 309.929 160.53 309.929 160.53V168.358C309.769 169.092 309.689 169.841 309.692 170.591C309.639 173.346 310.401 176.058 311.888 178.411L312.512 183.622C312.512 183.622 313.97 187.056 313.996 189.12C313.991 189.286 313.97 189.452 313.935 189.615C313.878 189.878 313.854 190.146 313.865 190.414C313.781 192.783 315.261 198.45 315.261 198.45C315.261 198.45 315.349 204.155 316.236 204.489C316.996 204.773 315.222 207.776 314.695 208.638C314.681 208.586 314.67 208.532 314.664 208.478L314.554 208.647C314.371 209.109 314.277 209.599 314.277 210.093C314.227 210.483 314.293 210.878 314.468 211.233C314.642 211.588 314.917 211.888 315.261 212.098C316.948 213.092 317.853 213.917 316.421 214.247C315.894 214.325 315.372 214.431 314.857 214.564C314.857 214.5 314.804 214.433 314.783 214.373C314.581 214.449 314.412 214.59 314.306 214.772C314.199 214.954 314.161 215.166 314.198 215.372C314.212 216.043 314.391 216.701 314.721 217.292C316.14 220.354 317.124 221.521 317.124 221.521L317.804 221.449C317.704 221.7 317.571 221.937 317.409 222.155C317.15 222.51 316.807 222.8 316.408 223.001C316.036 223.216 315.621 223.353 315.191 223.403C314.71 223.418 314.238 223.531 313.805 223.733C313.372 223.936 312.988 224.224 312.679 224.579C311.8 225.683 311.238 227.184 312.986 228.504L319.333 230.618C319.333 230.618 330.252 231.985 329.672 229.625C329.092 227.265 328.741 225.201 328.741 225.201C328.788 223.76 328.487 222.328 327.863 221.018C327.748 220.804 327.619 220.598 327.476 220.4L327.863 220.362C327.863 220.362 328.662 215.147 329.725 214.158C329.971 213.929 330.028 213.735 329.971 213.616C330.081 213.333 329.8 213.168 329.444 213.071L329.365 213.278C329.017 213.205 328.662 213.167 328.306 213.164C328.306 213.164 327.95 210.436 329.106 209.442C329.199 209.329 329.267 209.198 329.305 209.058C329.344 208.919 329.352 208.773 329.33 208.63C329.338 208.256 329.297 207.882 329.207 207.518C329.195 207.541 329.182 207.564 329.167 207.585C328.587 205.107 326.62 201.169 326.62 201.169C326.62 201.169 326.532 198.691 327.243 197.697C327.955 196.703 327.151 184.214 327.151 184.214C327.151 184.214 327.419 178.179 326.62 175.366C325.82 172.554 327.595 169.242 327.595 169.242C327.595 169.242 327.595 169.179 327.595 169.064V169.022L327.494 168.07C327.491 168.09 327.491 168.11 327.494 168.13C327.314 166.531 326.975 163.634 326.725 162.297C326.369 160.394 326.817 151.301 326.817 151.301L328.412 147.41L331.253 154.114L334.271 163.046C334.271 163.046 335.764 164.932 335.799 166.852C335.799 166.945 335.799 167.039 335.799 167.132C335.775 167.329 335.763 167.529 335.764 167.728C335.711 168.856 336.032 169.972 336.682 170.913C336.682 170.913 337.482 175.142 338.725 176.204C339.968 177.265 339.968 179.346 339.968 179.346C339.968 179.346 341.474 185.47 342.164 186.536C342.761 187.441 342.792 189.919 342.787 190.693C342.787 190.833 342.787 190.913 342.787 190.913C342.787 190.913 342.998 193.104 342.989 194.94C342.989 195.168 342.989 195.388 342.989 195.595C342.991 195.58 342.991 195.564 342.989 195.549C342.989 196.05 342.927 196.55 342.805 197.037L342.779 197.122C342.779 197.016 342.779 196.915 342.809 196.813C342.501 198.06 342.353 199.338 342.37 200.62C342.331 202.819 342.678 205.424 344.061 206.964C346.459 209.611 347.966 209.281 347.966 209.281C347.966 209.281 346.815 212.589 345.392 213.253C345.338 213.277 345.288 213.308 345.243 213.346C345.243 213.278 345.216 213.215 345.207 213.151C345.049 213.316 344.928 213.511 344.852 213.724C344.777 213.937 344.748 214.162 344.768 214.386C344.667 215.841 345.62 218.193 346.525 219.288C346.861 219.605 347.273 219.837 347.724 219.965C347.653 220.013 347.578 220.057 347.5 220.096C347.342 220.179 347.179 220.254 347.013 220.32C346.782 220.414 346.537 220.476 346.288 220.502C345.806 220.514 345.333 220.625 344.9 220.828C344.467 221.031 344.083 221.321 343.776 221.678C342.897 222.777 342.335 224.279 344.083 225.598L350.43 227.713C350.43 227.713 361.279 229.054 360.708 226.698Z" fill="url(#paint0_linear)"/>
<path id="Vector_49" d="M319.021 230.606L312.872 228.491C311.176 227.171 311.717 225.67 312.573 224.566C312.868 224.214 313.238 223.927 313.657 223.724C314.077 223.521 314.537 223.408 315.007 223.39C315.423 223.339 315.823 223.202 316.179 222.989C316.569 222.785 316.903 222.495 317.154 222.143C317.603 221.457 317.845 220.665 317.853 219.855C317.853 219.855 324.599 217.951 326.444 219.855C326.773 220.199 327.048 220.588 327.261 221.009C327.874 222.323 328.174 223.752 328.139 225.192C328.139 225.192 328.482 227.256 329.04 229.616C329.598 231.976 319.021 230.606 319.021 230.606Z" fill="#2D293D"/>
<path id="Vector_50" d="M349.082 227.687L342.932 225.573C341.237 224.253 341.777 222.752 342.634 221.652C342.926 221.299 343.295 221.011 343.714 220.808C344.134 220.605 344.594 220.492 345.063 220.476C345.306 220.452 345.543 220.391 345.765 220.295C345.928 220.229 346.086 220.154 346.24 220.07C347.957 219.161 347.913 216.928 347.913 216.928C347.913 216.928 354.655 215.025 356.505 216.928C356.752 217.186 356.969 217.469 357.15 217.774C358.305 219.698 358.178 222.265 358.178 222.265C358.178 222.265 358.521 224.334 359.056 226.689C359.592 229.045 349.082 227.687 349.082 227.687Z" fill="#2D293D"/>
<path id="Vector_51" opacity="0.1" d="M326.448 219.85C326.778 220.195 327.053 220.584 327.265 221.005L317.163 222.134C317.612 221.449 317.854 220.657 317.862 219.846C317.862 219.846 324.604 217.947 326.448 219.85Z" fill="black"/>
<path id="Vector_52" opacity="0.1" d="M357.159 217.782V219.605C355.586 222.096 347.983 221.551 345.774 220.303C345.937 220.237 346.095 220.162 346.249 220.079C347.966 219.17 347.922 216.936 347.922 216.936C347.922 216.936 354.664 215.033 356.513 216.936C356.761 217.194 356.977 217.478 357.159 217.782V217.782Z" fill="black"/>
<path id="Vector_53" d="M358.358 209.924C357.888 210.719 357.487 211.549 357.159 212.407V218.941C355.437 221.669 346.508 220.76 345.3 219.271C344.092 217.782 342.831 213.908 344.189 213.236C345.546 212.563 346.679 209.264 346.679 209.264C346.679 209.264 345.216 209.594 342.897 206.947C340.578 204.299 341.268 198.429 341.698 197.025C342.129 195.621 341.698 190.905 341.698 190.905C341.698 190.905 341.786 187.593 341.101 186.519C340.416 185.445 338.953 179.329 338.953 179.329C338.953 179.329 338.953 177.261 337.749 176.187C336.546 175.112 335.773 170.891 335.773 170.891C335.069 169.837 334.767 168.58 334.917 167.335C335.171 165.266 333.454 163.033 333.454 163.033L330.533 154.097L327.784 147.397L326.237 151.284C326.237 151.284 325.798 160.382 326.154 162.281C326.51 164.179 327.032 169.229 327.032 169.229C327.032 169.229 325.315 172.537 326.088 175.349C326.861 178.162 326.58 184.206 326.58 184.206C326.58 184.206 327.353 196.691 326.663 197.684C325.974 198.678 326.062 201.161 326.062 201.161C326.062 201.161 329.576 208.436 328.469 209.429C327.362 210.423 327.696 213.151 327.696 213.151C327.696 213.151 330.098 213.151 329.07 214.145C328.043 215.139 327.265 220.35 327.265 220.35L316.878 221.521C316.878 221.521 315.929 220.367 314.554 217.292C313.179 214.217 314.809 214.564 316.192 214.23C317.576 213.896 316.702 213.075 315.068 212.081C313.434 211.087 314.383 208.854 314.383 208.854C314.383 208.854 316.873 204.802 316.012 204.473C315.151 204.143 315.068 198.433 315.068 198.433C315.068 198.433 313.351 191.666 313.781 189.831C314.211 187.995 312.406 183.63 312.406 183.63L311.805 178.42C309.967 175.463 309.296 171.968 309.916 168.574V160.538C309.916 160.538 307.509 144.991 307.166 137.133C306.947 132.1 307.008 125.231 307.078 120.947C307.122 118.545 307.166 116.95 307.166 116.95L344.272 113.228C344.272 113.228 344.237 114.878 344.944 118.536C345.326 120.499 345.919 123.041 346.85 126.217C349.512 135.314 347.882 142.094 347.882 142.094L347.535 153.593C347.535 153.593 350.799 161.282 350.114 163.93C349.7 165.502 349.467 167.113 349.42 168.735C349.42 168.735 356.72 185.525 355.947 190.406C355.173 195.286 358.349 202.98 358.349 202.98C358.349 202.98 359.219 208.436 358.358 209.924Z" fill="#464353"/>
<path id="Vector_54" opacity="0.05" d="M337.143 166.835L348.44 165.385C348.44 165.385 342.041 171.674 337.143 166.835Z" fill="black"/>
<path id="Vector_55" opacity="0.1" d="M346.806 154.756C346.806 154.756 347.193 158.605 344.746 160.052C344.746 160.052 349.125 159.392 346.806 154.756Z" fill="black"/>
<path id="Vector_56" opacity="0.1" d="M346.112 142.517C346.112 142.517 336.669 150.003 333.234 149.381C329.8 148.759 346.112 142.517 346.112 142.517Z" fill="black"/>
<path id="Vector_57" opacity="0.1" d="M323.141 170.346C323.141 170.346 315.968 171.915 315.753 174.689C315.538 177.464 323.141 170.346 323.141 170.346Z" fill="black"/>
<path id="Vector_58" opacity="0.05" d="M324.718 204.841C324.718 204.841 314.585 206.659 317.462 207.898C320.339 209.138 325.065 210.131 325.065 210.131C325.065 210.131 328.337 210.296 324.718 204.841Z" fill="black"/>
<g id="Group" opacity="0.05">
<path id="Vector_59" opacity="0.05" d="M315.415 209.869C315.16 209.716 314.945 209.509 314.784 209.265C314.624 209.02 314.523 208.744 314.488 208.457L314.383 208.63C314.383 208.63 313.439 210.863 315.072 211.853C315.257 211.967 315.437 212.081 315.599 212.191C315.903 212.136 316.228 212.094 316.539 212.018C317.923 211.688 317.049 210.863 315.415 209.869Z" fill="black"/>
<path id="Vector_60" opacity="0.05" d="M328.469 209.205C328.75 208.96 328.741 208.325 328.57 207.513C328.13 208.152 328.003 209.15 327.994 209.907C328.101 209.644 328.262 209.406 328.469 209.205V209.205Z" fill="black"/>
<path id="Vector_61" opacity="0.05" d="M326.909 168.058C326.536 169.036 326.306 170.059 326.224 171.099C326.42 170.381 326.683 169.681 327.01 169.009L326.909 168.058Z" fill="black"/>
<path id="Vector_62" opacity="0.05" d="M350.118 163.718C350.186 163.421 350.216 163.118 350.21 162.813C350.083 163.431 349.995 164.002 349.929 164.505C349.986 164.247 350.048 164.002 350.118 163.718Z" fill="black"/>
<path id="Vector_63" opacity="0.05" d="M326.668 197.464C326.808 197.261 326.888 196.576 326.923 195.625C326.605 196.361 326.436 197.149 326.426 197.947C326.486 197.777 326.568 197.615 326.668 197.464V197.464Z" fill="black"/>
<path id="Vector_64" opacity="0.05" d="M328.776 213.062C328.244 214.721 327.849 216.418 327.595 218.138L317.207 219.292C317.207 219.292 316.258 218.138 314.884 215.063C314.773 214.825 314.674 214.582 314.589 214.335C313.966 214.61 313.711 215.232 314.537 217.046C315.911 220.108 316.864 221.276 316.864 221.276L327.252 220.117C327.252 220.117 328.025 214.906 329.053 213.912C329.58 213.435 329.255 213.185 328.776 213.062Z" fill="black"/>
<path id="Vector_65" opacity="0.05" d="M315.072 198.209C315.072 198.209 315.156 203.914 316.017 204.244C316.456 203.301 316.741 202.404 316.355 202.256C315.476 201.926 315.411 196.217 315.411 196.217C315.411 196.217 313.693 189.45 314.124 187.614C314.554 185.779 312.749 181.414 312.749 181.414L312.147 176.203C310.309 173.247 309.639 169.751 310.259 166.358V158.322C310.259 158.322 307.852 142.775 307.509 134.916C307.289 129.884 307.351 123.015 307.421 118.731C307.421 117.957 307.447 117.272 307.461 116.692L307.166 116.722C307.166 116.722 307.118 118.312 307.079 120.719C307.008 125.003 306.942 131.871 307.166 136.9C307.509 144.758 309.912 160.31 309.912 160.31V168.345C309.295 171.738 309.967 175.232 311.805 178.187L312.402 183.398C312.402 183.398 314.207 187.779 313.777 189.602C313.346 191.425 315.072 198.209 315.072 198.209Z" fill="black"/>
<path id="Vector_66" opacity="0.05" d="M345.651 217.063C344.807 215.887 344.245 214.545 344.004 213.134C342.946 214.056 344.162 217.634 345.322 219.055C346.521 220.544 355.455 221.454 357.181 218.721V217.148C354.84 219.36 346.784 218.472 345.651 217.063Z" fill="black"/>
<path id="Vector_67" opacity="0.05" d="M358.705 207.716C358.234 208.511 357.831 209.341 357.501 210.199V211.371C357.699 210.948 357.976 210.381 358.38 209.713C358.652 209.061 358.78 208.363 358.758 207.661C358.758 207.661 358.718 207.699 358.705 207.716Z" fill="black"/>
<path id="Vector_68" opacity="0.05" d="M346.178 209.023C346.505 208.386 346.788 207.729 347.026 207.057C347.026 207.057 345.563 207.386 343.244 204.739C341.558 202.815 341.461 199.177 341.703 196.8C341.263 198.209 340.582 204.079 342.902 206.727C344.417 208.456 345.563 208.913 346.178 209.023Z" fill="black"/>
<path id="Vector_69" opacity="0.05" d="M341.698 190.681C341.85 192.31 341.907 193.947 341.869 195.582C341.912 195.324 341.971 195.069 342.045 194.817C342.484 193.409 342.045 188.697 342.045 188.697C342.045 188.697 342.133 185.385 341.443 184.311C340.754 183.237 339.317 177.113 339.317 177.113C339.317 177.113 339.317 175.045 338.114 173.97C336.911 172.896 336.138 168.675 336.138 168.675C335.428 167.623 335.117 166.366 335.259 165.118C335.518 163.05 333.801 160.817 333.801 160.817L330.88 151.885L328.131 145.185L326.58 149.076C326.58 149.076 326.58 149.567 326.527 150.345L327.784 147.186L330.533 153.872L333.454 162.805C333.454 162.805 335.171 165.038 334.912 167.106C334.77 168.354 335.081 169.61 335.791 170.663C335.791 170.663 336.564 174.892 337.767 175.958C338.97 177.024 338.966 179.101 338.966 179.101C338.966 179.101 340.429 185.22 341.114 186.291C341.799 187.361 341.698 190.681 341.698 190.681Z" fill="black"/>
</g>
<path id="Vector_70" d="M348.91 38.5083L348.265 41.5281L348.304 42.873L348.33 43.8627L344.746 44.2179L344.347 43.5032C343.604 42.209 342.063 39.5783 341.566 39.1723C340.903 38.6394 339.722 30.2399 341.127 30.739C341.992 31.0607 342.703 31.6801 343.121 32.4772C343.121 32.4772 350.18 33.2554 348.91 38.5083Z" fill="#FFCDD3"/>
<path id="Vector_71" opacity="0.1" d="M348.33 43.8626L344.746 44.2179L344.347 43.5031C344.829 42.9747 345.486 42.6235 346.207 42.5094C346.928 42.3952 347.667 42.5252 348.3 42.8772L348.33 43.8626Z" fill="black"/>
<path id="Vector_72" d="M349.235 45.4994L344.509 46.5525L344.408 45.8758L344.14 44.053C344.14 44.053 346.011 41.6507 348.717 43.4524L348.954 44.3786L349.235 45.4994Z" fill="#6C63FF"/>
<path id="Vector_73" d="M272.679 38.8382L267.632 41.4435L267.193 40.5299C266.714 39.5614 265.998 38.1023 265.8 37.5694C265.502 36.7658 263.398 35.7508 263.398 35.7508C258.127 30.8912 264.408 26.7126 264.408 26.7126C267.737 20.2629 271.436 28.9035 271.436 28.9035C271.436 28.9035 271.954 33.4585 271.589 33.763C271.225 34.0675 271.225 35.3152 271.225 35.3152C271.706 36.209 272.113 37.1382 272.441 38.0938C272.595 38.5548 272.679 38.8382 272.679 38.8382Z" fill="#FFCDD3"/>
<path id="Vector_74" opacity="0.1" d="M272.679 38.8382L267.632 41.4434L267.193 40.5299C267.904 39.9547 270.43 37.9923 271.26 38.0726C271.656 38.1203 272.056 38.1302 272.455 38.1023C272.595 38.5548 272.679 38.8382 272.679 38.8382Z" fill="black"/>
<path id="Vector_75" d="M273.193 40.3058L267.522 42.9957L267.408 41.8241L267.329 41.0121C267.329 41.0121 270.614 38.3011 271.585 38.4068C272.076 38.4753 272.574 38.4753 273.065 38.4068L273.131 39.388L273.193 40.3058Z" fill="#6C63FF"/>
<path id="Vector_76" d="M335.167 58.5682C335.167 58.5682 310.447 61.2538 315.068 59.8074C318.283 58.7966 319.561 56.8468 319.829 54.6475C320.049 52.8162 319.557 50.8411 318.911 49.1494C318.33 47.6486 317.595 46.2076 316.715 44.8481C316.715 44.8481 335.602 34.8415 331.829 43.9388C331.247 45.3148 330.886 46.768 330.757 48.2485C330.644 49.7199 330.809 51.1988 331.245 52.6132C331.957 54.9083 333.315 56.9692 335.167 58.5682V58.5682Z" fill="#FFCDD3"/>
<path id="Vector_77" opacity="0.1" d="M331.815 43.9261C331.234 45.3021 330.872 46.7553 330.744 48.2358C328.965 49.678 327.015 49.5808 324.507 49.5808C322.583 49.5808 320.449 50.0291 318.911 49.1367C318.33 47.6359 317.595 46.1949 316.715 44.8354C316.715 44.8354 335.597 34.8288 331.815 43.9261Z" fill="black"/>
<path id="Vector_78" d="M324.173 50.2152C329.818 50.2152 334.394 45.8089 334.394 40.3735C334.394 34.938 329.818 30.5317 324.173 30.5317C318.528 30.5317 313.952 34.938 313.952 40.3735C313.952 45.8089 318.528 50.2152 324.173 50.2152Z" fill="#FFCDD3"/>
<path id="Vector_79" opacity="0.1" d="M335.167 58.5681C335.167 58.5681 310.447 61.2538 315.068 59.8073C318.283 58.7965 319.561 56.8468 319.829 54.6475C321.059 53.3787 323.532 52.4356 325.1 51.9449C326.55 51.4755 328.115 51.4504 329.58 51.873C330.156 52.0402 330.705 52.2851 331.21 52.6005C331.93 54.904 333.3 56.9699 335.167 58.5681V58.5681Z" fill="black"/>
<path id="Vector_80" opacity="0.1" d="M349.235 45.4994L344.509 46.5525L344.408 45.8758C344.914 45.2065 345.622 44.7037 346.435 44.4358C347.249 44.1679 348.128 44.1479 348.954 44.3787L349.235 45.4994Z" fill="black"/>
<path id="Vector_81" opacity="0.1" d="M273.193 40.3058L267.522 42.9957L267.408 41.8241C269.245 40.8732 271.153 40.0575 273.118 39.3838L273.193 40.3058Z" fill="black"/>
<path id="Vector_82" opacity="0.1" d="M344.944 118.545C335.365 120.016 321.749 121.894 319.588 121.26C317.791 120.735 312.064 120.79 307.079 120.955C307.122 118.553 307.166 116.959 307.166 116.959L344.272 113.237C344.272 113.237 344.237 114.886 344.944 118.545Z" fill="black"/>
<path id="Vector_83" d="M354.493 116.379C354.493 116.379 322.97 121.59 319.588 120.609C316.206 119.627 298.834 120.689 298.834 120.689C291.016 125.735 294.28 118.291 294.28 118.291C294.28 118.291 293.594 114.404 294.539 111.262C295.173 108.955 295.606 106.601 295.834 104.224C295.834 104.224 295.663 99.2588 296.608 98.0999C297.552 96.9411 298.672 88.6727 298.672 88.6727C298.672 88.6727 299.528 83.0476 299.445 81.8084C299.361 80.5692 299.7 77.0927 299.7 77.0927L300.82 71.3027C294.376 70.478 274.791 58.898 274.791 58.898C273.847 55.0112 266.547 45.9139 266.547 45.9139C266.441 45.1489 266.239 44.3991 265.945 43.6808C265.431 42.357 273.162 39.7094 273.162 39.7094C273.162 39.7094 278.916 46.4764 280.119 48.3119C281.323 50.1475 285.442 53.5225 285.442 53.5225C286.083 53.4591 286.729 53.5402 287.331 53.7593L287.432 53.7889C288.813 54.3109 290.107 55.0232 291.275 55.9036C293.212 55.8594 295.091 56.5418 296.515 57.8068C296.515 57.8068 300.029 57.3078 300.64 57.8872C301.25 58.4666 304.246 57.8872 304.246 57.8872C304.246 57.8872 307.25 51.7673 309.226 53.5436C311.203 55.32 319.588 55.2354 319.588 55.2354C320.703 53.8059 323.422 52.7824 325.122 52.2748C326.572 51.8073 328.137 51.7822 329.602 52.2029C330.234 52.3846 330.829 52.6708 331.359 53.0488L336.458 57.8449C336.458 57.8449 337.916 56.022 337.745 55.6118C337.574 55.2016 339.463 54.8674 339.463 54.8674C339.463 54.8674 341.953 54.1231 342.897 53.8735C343.842 53.624 344.707 54.6094 344.786 54.6983C344.755 54.5925 344.11 52.5836 344.347 51.061C344.584 49.5384 343.314 48.1005 343.314 48.1005C346.319 40.9867 353.105 46.9416 353.105 46.9416C353.105 46.9416 353.878 50.8284 353.193 52.3171C352.507 53.8059 353.878 56.9483 353.707 57.7772C353.535 58.6062 354.054 60.0103 354.054 61.5836C354.054 63.157 353.175 66.1302 352.679 67.454C352.182 68.7778 348.041 71.7553 348.041 71.7553C348.041 71.7553 347.781 76.471 345.976 79.1989C344.171 81.9269 345.304 91.2568 345.304 91.2568C345.304 91.2568 347.022 98.5355 349.169 100.853C351.317 103.171 354.493 116.379 354.493 116.379Z" fill="#3F3D56"/>
<path id="Vector_84" opacity="0.1" d="M308.541 61.9558C308.541 61.9558 307.597 59.2279 306.736 58.9953C305.881 58.6926 305.049 58.3336 304.246 57.921L304.799 56.9017C304.799 56.9017 308.023 57.7476 308.541 58.6654C309.059 59.5831 308.541 61.9558 308.541 61.9558Z" fill="black"/>
<path id="Vector_85" opacity="0.1" d="M291.275 55.9206C291.104 56.7665 283.457 57.4897 283.457 57.4897L287.322 53.7594L287.419 53.7932C288.805 54.318 290.104 55.0347 291.275 55.9206V55.9206Z" fill="black"/>
<path id="Vector_86" d="M269.156 45.2287C269.534 45.2287 269.841 44.9333 269.841 44.569C269.841 44.2046 269.534 43.9092 269.156 43.9092C268.778 43.9092 268.471 44.2046 268.471 44.569C268.471 44.9333 268.778 45.2287 269.156 45.2287Z" fill="#575988"/>
<path id="Vector_87" d="M270.034 46.5525C270.413 46.5525 270.72 46.2571 270.72 45.8928C270.72 45.5284 270.413 45.233 270.034 45.233C269.656 45.233 269.349 45.5284 269.349 45.8928C269.349 46.2571 269.656 46.5525 270.034 46.5525Z" fill="#575988"/>
<path id="Vector_88" d="M270.895 47.7749C271.274 47.7749 271.581 47.4795 271.581 47.1151C271.581 46.7507 271.274 46.4553 270.895 46.4553C270.517 46.4553 270.21 46.7507 270.21 47.1151C270.21 47.4795 270.517 47.7749 270.895 47.7749Z" fill="#575988"/>
<path id="Vector_89" d="M271.796 49.0943C272.174 49.0943 272.481 48.7989 272.481 48.4346C272.481 48.0702 272.174 47.7748 271.796 47.7748C271.417 47.7748 271.111 48.0702 271.111 48.4346C271.111 48.7989 271.417 49.0943 271.796 49.0943Z" fill="#575988"/>
<path id="Vector_90" d="M352.762 48.8998C353.07 48.8998 353.32 48.6593 353.32 48.3627C353.32 48.066 353.07 47.8256 352.762 47.8256C352.454 47.8256 352.204 48.066 352.204 48.3627C352.204 48.6593 352.454 48.8998 352.762 48.8998Z" fill="#575988"/>
<path id="Vector_91" d="M352.85 50.1221C353.158 50.1221 353.408 49.8816 353.408 49.585C353.408 49.2883 353.158 49.0479 352.85 49.0479C352.542 49.0479 352.292 49.2883 352.292 49.585C352.292 49.8816 352.542 50.1221 352.85 50.1221Z" fill="#575988"/>
<path id="Vector_92" d="M352.925 51.3402C353.233 51.3402 353.482 51.0997 353.482 50.8031C353.482 50.5064 353.233 50.2659 352.925 50.2659C352.617 50.2659 352.367 50.5064 352.367 50.8031C352.367 51.0997 352.617 51.3402 352.925 51.3402Z" fill="#575988"/>
<path id="Vector_93" opacity="0.1" d="M308.572 84.3715C308.489 84.2742 327.854 107.819 342.884 94.2132C342.897 94.2174 319.149 97.3175 308.572 84.3715Z" fill="black"/>
<path id="Vector_94" opacity="0.1" d="M297.46 96.6112C297.46 96.6112 309.046 96.9157 310.259 100.126V103.467C309.929 103.643 309.558 103.736 309.18 103.736C308.803 103.736 308.432 103.643 308.102 103.467C306.934 102.858 299.928 99.4322 297.46 101.082V96.6112Z" fill="black"/>
<path id="Vector_95" d="M297.675 96.6112C297.675 96.6112 308.756 96.903 309.916 99.9651V103.146C309.6 103.314 309.245 103.403 308.884 103.403C308.523 103.403 308.167 103.314 307.852 103.146C306.736 102.57 300.038 99.3011 297.675 100.874V96.6112Z" fill="#3F3D56"/>
<path id="Vector_96" opacity="0.1" d="M303.784 72.3854C304.968 75.0239 306.477 77.5159 308.278 79.8079C310.236 82.3414 312.61 84.5512 315.305 86.3508C315.305 86.3508 303.978 73.9165 303.784 72.3854Z" fill="black"/>
<path id="Vector_97" opacity="0.1" d="M299.994 59.4225C299.994 59.4225 301.926 67.4583 306.907 70.1862L299.994 59.4225Z" fill="black"/>
<path id="Vector_98" opacity="0.1" d="M297.029 60.2345C296.981 60.0865 295.312 66.5785 303.451 70.1862C303.451 70.1862 299.994 69.0569 297.029 60.2345Z" fill="black"/>
<path id="Vector_99" opacity="0.1" d="M347.623 54.8463C347.496 54.8463 351.638 57.3839 352.767 58.5681C352.767 58.5681 350.07 54.6771 347.623 54.8463Z" fill="black"/>
<path id="Vector_100" d="M321.41 49.2932C321.412 49.5079 321.46 49.72 321.551 49.916C321.642 50.112 321.774 50.2877 321.939 50.432C322.104 50.5763 322.299 50.686 322.51 50.7543C322.721 50.8225 322.945 50.8478 323.167 50.8285C326.281 51.0146 329.527 51.1457 332.391 49.9826C332.928 49.798 333.411 49.4902 333.797 49.086C334.306 48.4812 334.407 47.6607 334.614 46.9078C335.018 45.436 335.879 44.1292 336.498 42.7292C337.546 40.3641 337.897 37.7667 337.512 35.2221C337.431 34.4421 337.164 33.6908 336.731 33.0271C335.905 31.8894 334.398 31.4284 333.305 30.5233C332.211 29.6182 331.508 28.2352 330.23 27.5628C329.079 26.9453 327.669 27.0214 326.374 27.2329C323.825 27.6496 321.383 28.5325 319.179 29.8339C318.437 30.2569 317.624 30.7771 316.772 30.6206C316.026 30.4853 315.481 29.8805 315.015 29.3137C314.416 30.6672 314.165 32.1396 314.282 33.6065C314.314 33.8218 314.307 34.0408 314.26 34.2536C314.153 34.5108 313.989 34.743 313.781 34.9345C313.013 35.7804 312.534 37.1549 313.294 38.0262C313.623 38.4026 314.133 38.6098 314.453 38.9947C315.029 39.6841 314.835 40.6865 314.822 41.5662C314.79 41.8733 314.871 42.1815 315.051 42.4374C315.217 42.5866 315.42 42.6918 315.641 42.7429C315.862 42.7941 316.093 42.7894 316.311 42.7292C316.746 42.603 317.203 42.5613 317.655 42.6066C318.131 42.7557 318.542 43.0533 318.823 43.4525C320.242 45.233 320.804 47.1701 321.41 49.2932Z" fill="#2D293D"/>
<g id="Group_2" opacity="0.1">
<path id="Vector_101" opacity="0.1" d="M334.161 48.3374C333.775 48.7417 333.293 49.0494 332.756 49.234C329.874 50.3886 326.633 50.2575 323.532 50.0799C323.199 50.0831 322.87 50.0121 322.57 49.8726C322.096 49.6062 321.916 49.0479 321.771 48.5404C321.164 46.4257 320.607 44.4844 319.166 42.7208C318.888 42.314 318.477 42.0087 317.998 41.8538C317.546 41.8127 317.09 41.8543 316.654 41.9764C316.436 42.0371 316.205 42.0425 315.984 41.9921C315.763 41.9417 315.56 41.8372 315.393 41.6888C315.214 41.4329 315.133 41.1248 315.165 40.8176C315.165 39.9294 315.371 38.9355 314.796 38.2461C314.475 37.8613 313.966 37.654 313.636 37.2734C313.421 36.9927 313.289 36.6613 313.255 36.3142C313.22 35.9672 313.283 35.6175 313.439 35.3025C312.89 36.1484 312.657 37.2099 313.294 37.9374C313.623 38.3138 314.133 38.521 314.453 38.9059C315.029 39.5995 314.835 40.5976 314.822 41.4774C314.788 41.7841 314.868 42.0925 315.046 42.3486C315.213 42.4985 315.417 42.6041 315.639 42.6553C315.86 42.7064 316.092 42.7013 316.311 42.6404C316.746 42.5142 317.203 42.4725 317.655 42.5178C318.131 42.6669 318.542 42.9645 318.823 43.3636C320.26 45.1273 320.822 47.0643 321.428 49.1875C321.499 49.7099 321.77 50.188 322.188 50.5282C322.489 50.6679 322.82 50.7374 323.154 50.7312C326.268 50.9173 329.514 51.0526 332.378 49.8853C332.916 49.7019 333.398 49.394 333.783 48.9887C333.977 48.7505 334.126 48.4813 334.223 48.1936C334.227 48.2486 334.196 48.2951 334.161 48.3374Z" fill="black"/>
<path id="Vector_102" opacity="0.1" d="M314.282 33.9956C314.42 33.8514 314.526 33.6816 314.594 33.4966C314.633 33.2826 314.633 33.0635 314.594 32.8495C314.508 31.6437 314.671 30.4334 315.072 29.2884L315.015 29.2249C314.414 30.5763 314.163 32.0479 314.282 33.5135C314.295 33.6739 314.295 33.8352 314.282 33.9956V33.9956Z" fill="black"/>
</g>
<path id="Vector_103" opacity="0.1" d="M319.588 55.2565C319.588 55.2565 332.356 56.8891 333.502 55.0408Z" fill="black"/>
<path id="Vector_104" opacity="0.1" d="M344.408 50.1686C344.408 50.1686 351.506 50.1686 353.065 52.7401Z" fill="black"/>
<path id="Vector_105" d="M384.118 278.617C382.013 280.43 379.277 281.414 376.454 281.375C375.734 281.375 374.737 281.506 374.732 282.2C374.75 282.403 374.822 282.599 374.943 282.766C375.834 284.197 377.242 285.262 378.896 285.757C380.433 286.205 382.076 286.129 383.679 286.048L388.357 285.816C389.235 285.769 390.114 285.727 390.992 285.621C391.871 285.516 392.828 285.342 393.746 285.198C396.002 284.89 398.283 284.788 400.558 284.894C401.165 284.915 401.876 284.894 402.236 284.471C402.596 284.048 402.412 283.24 402.276 282.606C401.995 281.299 402.276 279.929 402.017 278.617C401.577 276.317 399.509 274.553 397.242 273.72C395.134 272.95 391.401 272.066 389.407 273.352C387.303 274.701 386.016 276.955 384.118 278.617Z" fill="#3F3D56"/>
<path id="Vector_106" d="M388.765 201.533C389.178 203.424 391.08 204.87 391.133 206.799C391.181 208.347 390.035 209.645 389.209 210.969C388.431 212.34 387.774 213.772 387.246 215.249C385.691 219.095 383.761 222.791 381.483 226.288C380.385 227.979 379.155 229.785 379.406 231.752C379.58 232.672 379.918 233.556 380.403 234.366L383.697 240.667C384.418 241.926 384.983 243.261 385.379 244.647C385.664 245.844 385.691 247.083 385.858 248.301C386.376 252.167 388.26 256.058 387.145 259.805C387.048 260.127 386.705 260.516 386.437 260.292C387.527 262.25 388.401 264.221 388.317 266.441C388.273 267.604 387.904 268.818 388.348 269.901C388.537 270.353 388.866 270.776 388.862 271.263C388.862 271.584 388.708 271.884 388.673 272.197C388.581 273.09 389.433 273.834 390.316 274.117C391.199 274.401 392.161 274.38 393.052 274.638C394.765 275.133 395.991 276.554 397.444 277.539C398.936 278.528 400.694 279.079 402.504 279.125C402.762 279.152 403.023 279.101 403.251 278.981C403.38 278.873 403.484 278.739 403.555 278.588C403.626 278.438 403.663 278.275 403.664 278.11C403.743 277.32 403.62 276.523 403.304 275.79C402.989 275.057 402.491 274.41 401.854 273.906C401.575 273.738 401.344 273.505 401.182 273.229C401.1 272.985 401.079 272.726 401.121 272.472C401.386 269.006 401.321 265.523 400.927 262.068C400.75 260.973 400.692 259.863 400.756 258.756C400.848 257.834 401.138 256.921 401.033 256.003C400.927 255.085 400.44 254.248 400.154 253.364C399.645 251.791 399.785 250.099 399.715 248.454C399.627 245.595 398.946 242.786 398.27 239.995C398.002 238.9 397.708 237.753 396.904 236.941C396.219 236.252 395.112 235.592 395.371 234.674C395.515 234.336 395.728 234.03 395.999 233.774C396.317 233.389 396.551 232.946 396.685 232.472C396.82 231.998 396.852 231.503 396.781 231.016C397.07 231.087 397.376 231.059 397.646 230.937C397.916 230.815 398.133 230.607 398.261 230.348C403.611 227.916 407.924 223.052 409.848 217.66C409.961 217.259 410.136 216.877 410.366 216.526C410.863 215.858 411.723 215.57 412.488 215.202C414.886 214.039 416.542 211.861 418.061 209.73C418.94 208.495 419.818 207.217 420.214 205.763C420.421 204.822 420.52 203.861 420.508 202.899L420.644 197.93C420.674 197.603 420.641 197.273 420.547 196.957C420.417 196.662 420.228 196.395 419.99 196.17C418.529 194.683 416.61 193.687 414.517 193.328C413.111 193.087 411.675 193.134 410.252 193.019C407.494 192.8 404.771 191.975 402.012 192.174C397.677 192.482 393.816 195.375 391.774 199.072C391.058 200.374 390.303 201.508 388.765 201.533Z" fill="#464353"/>
<path id="Vector_107" d="M364.696 169.221C364.754 169.988 364.647 170.759 364.38 171.484C364.041 172.177 363.194 172.719 362.451 172.435C362.675 171.949 362.083 171.395 361.529 171.454C361.257 171.514 361.004 171.638 360.792 171.813C360.58 171.988 360.415 172.211 360.312 172.461C359.946 173.171 359.822 173.975 359.961 174.757C360.137 175.73 360.721 176.665 360.567 177.642C360.444 178.454 359.825 179.261 360.154 180.014C360.368 180.358 360.636 180.668 360.949 180.932C361.383 181.447 361.596 182.102 361.543 182.763C361.489 183.424 361.175 184.04 360.664 184.485L368.974 184.645C368.671 185.982 369.295 187.348 370.006 188.536C371.999 191.804 374.751 194.582 378.046 196.654C381.341 198.725 385.09 200.033 388.998 200.476C388.787 200.595 388.606 200.757 388.468 200.952C388.329 201.146 388.238 201.368 388.2 201.601C388.161 201.833 388.177 202.071 388.246 202.297C388.315 202.523 388.436 202.732 388.599 202.908C389.275 203.555 390.421 203.474 391.269 203.056C392.117 202.637 392.78 201.943 393.553 201.406C394.918 200.475 396.583 200.043 398.248 200.188C399.289 200.286 400.299 200.611 401.345 200.662C404.419 200.818 407.055 198.687 410.015 197.816C412.172 197.177 414.618 197.177 416.428 195.879C417.21 195.32 417.851 194.402 417.623 193.497C417.434 192.977 417.134 192.501 416.744 192.097C415.703 190.799 415.088 189.238 414.342 187.762C412.862 184.84 410.825 182.212 408.337 180.014C406.459 178.434 404.469 176.981 402.381 175.666C401.877 175.308 401.339 174.995 400.774 174.732C400.045 174.423 399.237 174.275 398.578 173.886C397.603 173.294 397.04 172.249 396.289 171.408C394.642 169.555 392.112 168.705 390.083 167.25C388.722 166.273 387.518 164.987 385.893 164.518C385.102 164.285 384.263 164.268 383.473 164.04C381.676 163.516 380.367 161.98 378.606 161.359C377.214 160.868 375.677 160.995 374.214 160.821C372.565 160.626 370.99 160.048 369.624 159.138C369.184 158.793 368.69 158.516 368.161 158.318C365.935 157.666 365.754 161.659 365.526 163.042C365.232 165.097 364.696 167.14 364.696 169.221Z" fill="#6C63FF"/>
<path id="Vector_108" d="M366.866 182.611C367.239 186.51 364.182 190.287 365.074 194.106C365.263 194.918 365.627 195.692 365.759 196.517C366.132 198.78 364.727 200.924 363.387 202.819L351.879 219.081C351.417 219.795 350.866 220.451 350.237 221.035C348.041 222.917 344.738 222.726 341.847 223.285C339.817 223.686 337.9 224.503 336.225 225.679C336.15 225.735 336.1 225.817 336.087 225.908C336.074 225.999 336.098 226.091 336.155 226.165C336.632 226.791 337.264 227.291 337.994 227.622C338.724 227.952 339.527 228.101 340.332 228.055C340.635 228.436 340.332 229.003 339.915 229.278C339.3 229.701 338.448 229.798 338.325 230.809C338.283 231.16 338.357 231.515 338.536 231.824C339.001 232.505 339.722 232.987 340.547 233.169C344.531 234.344 348.836 232.281 351.818 229.476C354.8 226.672 356.939 223.132 359.864 220.282C361.485 218.7 363.326 217.351 364.995 215.82C368.324 212.762 370.915 209.053 373.41 205.335C374.161 204.215 374.921 203.064 375.233 201.766C375.545 200.467 375.4 199.152 375.756 197.896C376.221 196.251 377.473 194.935 378.514 193.557C380.556 190.85 381.922 187.538 381.65 184.201C381.378 180.864 379.234 177.574 375.966 176.44C374.953 176.053 373.837 175.987 372.782 176.254C371.442 176.652 370.454 177.718 369.541 178.741L367.344 181.169C366.81 181.706 366.39 182.34 366.11 183.034C365.969 183.383 365.935 183.765 366.013 184.132C366.091 184.5 366.277 184.838 366.549 185.106" fill="#FBBEBE"/>
<path id="Vector_109" d="M372.699 166.616C371.188 166.7 369.523 166.844 368.456 167.884C368.008 168.362 367.646 168.908 367.384 169.5C366.347 171.534 365.337 173.662 365.262 175.929C365.201 177.739 365.746 179.511 366.031 181.3C366.268 182.789 365.667 184.307 365.552 185.813C367.428 185.259 369.905 184.506 371.605 183.571C372.764 182.932 373.884 182.205 375.149 181.799C376.955 181.22 379.981 182.222 381.698 183.026C381.791 181.867 380.886 179.845 380.982 178.682C380.996 178.192 381.086 177.708 381.25 177.244C381.507 176.754 381.812 176.288 382.16 175.853C382.813 174.829 383.114 173.633 383.018 172.435C382.923 171.237 382.436 170.098 381.628 169.183C380.104 167.533 377.719 166.916 375.444 166.645C374.011 166.485 372.567 166.437 371.126 166.501" fill="#6C63FF"/>
</g>
</g>
<defs>
<linearGradient id="paint0_linear" x1="310.188" y1="230.999" x2="310.188" y2="24.3273" gradientUnits="userSpaceOnUse">
<stop stop-color="#808080" stop-opacity="0.25"/>
<stop offset="0.54" stop-color="#808080" stop-opacity="0.12"/>
<stop offset="1" stop-color="#808080" stop-opacity="0.1"/>
</linearGradient>
</defs>
</svg>
