<svg width="200" height="160" viewBox="0 0 268 160" fill="none" xmlns="http://www.w3.org/2000/svg">
<g id="money">
<path id="Vector" d="M229.991 126.652C229.991 128.048 219.632 132.116 207.328 132.116C195.023 132.116 185.435 128.048 185.435 126.652C185.435 125.257 195.409 125.706 207.725 125.706C220.042 125.706 229.991 125.255 229.991 126.652Z" fill="#504F60"/>
<path id="Vector_2" opacity="0.2" d="M229.991 126.652C229.991 128.048 219.632 132.116 207.328 132.116C195.023 132.116 185.435 128.048 185.435 126.652" fill="black"/>
<path id="Vector_3" d="M106.074 101.047C108.071 101.248 110.143 101.376 112.056 100.889C112.357 100.815 112.688 100.652 112.658 100.416C112.637 100.33 112.59 100.249 112.523 100.179C111.802 99.3299 111.196 98.4238 110.715 97.4756C110.696 97.4262 110.657 97.383 110.604 97.3526C110.542 97.3349 110.473 97.3349 110.411 97.3526C109.529 97.5348 108.766 97.9818 107.89 98.1733C107.443 98.2696 106.977 98.2969 106.516 98.2538C106.119 98.2183 105.577 97.9605 105.215 97.9936C105.42 99.0272 105.92 99.9922 106.074 101.047Z" fill="#6C63FF"/>
<path id="Vector_4" d="M143.843 98.4288C145.159 97.7193 146.524 96.9742 147.301 95.8791C147.357 95.8136 147.389 95.7377 147.394 95.6592C147.381 95.5819 147.343 95.5086 147.283 95.4463C146.543 94.5223 145.59 93.7145 144.473 93.0646C143.89 93.3879 143.363 93.7695 142.906 94.1999C142.575 94.4742 141.659 94.9094 141.65 95.3281C141.65 95.5646 142 95.8389 142.162 96.0376C142.382 96.2931 142.59 96.5532 142.789 96.8181C142.903 96.9482 143.949 98.3768 143.843 98.4288Z" fill="#6C63FF"/>
<path id="Vector_5" d="M113.902 104.214C113.926 104.458 113.84 104.7 113.661 104.9C113.521 105.011 113.346 105.092 113.155 105.136C110.363 105.922 107.131 104.942 104.345 105.716C103.772 105.874 103.23 106.104 102.655 106.255C101.969 106.417 101.261 106.515 100.546 106.548C99.5612 106.622 98.5702 106.669 97.5822 106.69C96.8316 106.732 96.0772 106.68 95.3472 106.537C94.9822 106.463 94.6409 106.33 94.3456 106.146C94.0503 105.963 93.8076 105.732 93.6333 105.47C93.4818 105.235 93.4516 104.963 93.5489 104.711C93.5926 104.624 93.6548 104.544 93.7327 104.474C93.9215 104.308 94.1432 104.166 94.3893 104.055L95.4165 103.535C95.8981 103.268 96.4215 103.05 96.9738 102.887C97.3804 102.783 97.8112 102.738 98.2238 102.651C99.6666 102.319 100.769 101.421 101.793 100.557L103.191 99.3866C103.322 99.2578 103.487 99.1536 103.676 99.0815C103.87 99.0308 104.076 99.0154 104.278 99.0366C105.636 99.1127 106.947 99.4577 108.089 100.039C108.38 100.211 108.696 100.357 109.028 100.475C109.848 100.725 110.899 100.536 111.655 100.219C112.014 100.068 111.935 99.9826 112.086 99.713C112.236 99.4434 112.604 99.2707 112.923 99.5167C113.02 99.6018 113.088 99.7041 113.122 99.8147C113.423 100.595 113.309 101.435 113.309 102.253C113.3 102.381 113.32 102.509 113.369 102.632C113.446 102.755 113.538 102.872 113.643 102.982C113.665 103.011 113.684 103.041 113.7 103.072C113.885 103.434 113.954 103.826 113.902 104.214V104.214Z" fill="#514E7F"/>
<path id="Vector_6" d="M113.902 104.214C113.926 104.458 113.84 104.7 113.661 104.9C113.521 105.011 113.347 105.092 113.155 105.136C110.363 105.922 107.131 104.942 104.345 105.716C103.772 105.874 103.23 106.104 102.655 106.255C101.969 106.417 101.261 106.515 100.546 106.548C99.5612 106.622 98.5702 106.669 97.5822 106.69C96.8316 106.732 96.0772 106.68 95.3472 106.537C94.9822 106.463 94.6409 106.33 94.3456 106.146C94.0503 105.963 93.8076 105.732 93.6333 105.47C93.4818 105.235 93.4516 104.963 93.5489 104.711C93.5926 104.624 93.6548 104.544 93.7327 104.474C93.8953 104.741 94.0128 105.096 94.1152 105.224C94.2536 105.413 94.4418 105.577 94.6672 105.705C94.8926 105.832 95.1501 105.921 95.4225 105.964C95.8302 105.984 96.239 105.943 96.6274 105.844C99.1576 105.352 101.847 105.344 104.278 104.599C105.113 104.342 105.908 103.999 106.784 103.843C107.661 103.687 108.592 103.729 109.495 103.67C110.923 103.58 112.306 103.242 113.712 103.064C113.894 103.43 113.959 103.824 113.902 104.214V104.214Z" fill="#464353"/>
<path id="Vector_7" d="M150.238 98.2846C150.105 99.1172 149.434 99.8338 148.696 100.442C147.958 101.049 147.123 101.596 146.536 102.296C145.813 103.164 145.488 104.24 144.548 104.973C144.187 105.24 143.782 105.467 143.343 105.647C142.852 105.875 142.332 106.063 141.792 106.208C140.388 106.56 138.876 106.48 137.409 106.395C136.933 106.391 136.461 106.32 136.017 106.184C135.815 106.104 135.622 106.01 135.439 105.905C135.071 105.727 134.762 105.484 134.535 105.196C134.424 105.039 134.393 104.854 134.448 104.68C134.532 104.488 134.676 104.316 134.867 104.179C135.197 103.909 135.551 103.659 135.927 103.429C136.443 103.168 136.908 102.849 137.307 102.483C137.552 102.194 137.732 101.874 137.84 101.537C138.053 100.947 138.184 100.34 138.228 99.7274C138.227 99.3204 138.28 98.9145 138.388 98.5164C138.611 97.892 139.201 97.3338 139.135 96.6881C139.108 96.5957 139.119 96.4989 139.165 96.4114C139.235 96.343 139.333 96.2954 139.442 96.2766C139.903 96.1325 140.388 96.044 140.882 96.014C141.13 96.0006 141.378 96.0306 141.61 96.1017C141.841 96.1729 142.049 96.2835 142.22 96.4256C142.424 96.6195 142.56 96.8986 142.861 96.9743C143.01 97.0063 143.167 97.0111 143.319 96.9885C144.06 96.9294 144.843 96.8561 145.428 96.48C145.698 96.2898 145.915 96.0577 146.065 95.7984C146.215 95.5391 146.296 95.2582 146.301 94.9734C146.301 94.7581 146.178 94.5335 146.602 94.5003C146.922 94.4672 147.175 94.7369 147.337 94.9024C147.925 95.5197 148.527 96.1654 148.747 96.9175C148.832 96.8915 148.923 96.8779 149.015 96.8773C149.203 96.876 149.388 96.9104 149.556 96.9775C149.723 97.0447 149.867 97.1426 149.976 97.2629C150.216 97.568 150.309 97.9304 150.238 98.2846Z" fill="#514E7F"/>
<path id="Vector_8" d="M150.238 98.2846C150.105 99.1171 149.434 99.8338 148.696 100.442C147.958 101.049 147.123 101.596 146.536 102.296C145.813 103.164 145.488 104.24 144.548 104.973C144.187 105.24 143.782 105.467 143.343 105.647C142.852 105.875 142.332 106.063 141.792 106.208C140.388 106.56 138.876 106.48 137.409 106.395C136.933 106.391 136.461 106.32 136.018 106.184C135.816 106.104 135.622 106.01 135.439 105.905C135.072 105.727 134.762 105.484 134.536 105.196C134.818 105.089 135.126 105.031 135.439 105.025C136.09 105.054 136.566 105.536 137.189 105.685C138.078 105.896 138.963 105.404 139.864 105.236C140.451 105.127 141.069 105.155 141.65 104.999C142.135 104.852 142.582 104.639 142.973 104.37C143.507 104.07 143.983 103.71 144.385 103.301C144.719 102.892 144.997 102.457 145.214 102.003C145.689 101.131 146.249 100.29 146.888 99.4861C146.983 99.3588 147.097 99.2412 147.229 99.136C147.37 99.0343 147.53 98.9634 147.69 98.8735C148.292 98.5164 148.542 97.9274 148.753 97.3503C148.81 97.1749 148.89 97.0045 148.991 96.8418C149.179 96.8405 149.364 96.8749 149.532 96.942C149.699 97.0092 149.843 97.107 149.952 97.2274C150.211 97.5397 150.313 97.9165 150.238 98.2846V98.2846Z" fill="#464353"/>
<path id="Vector_9" d="M87.0757 24.5433C87.8255 24.9844 88.4425 25.5497 88.883 26.1989C89.3047 26.847 91.7355 31.8753 91.594 32.6061C92.3862 31.9794 95.5098 31.8777 96.311 31.2509C96.6454 30.9884 98.4497 29.6781 98.7208 29.373C98.9919 29.0679 101.004 28.4269 101.224 28.1052C102.046 26.9487 95.3923 22.566 96.2448 21.4236C96.2919 21.3712 96.3162 21.3081 96.314 21.2439C96.2946 21.19 96.256 21.1416 96.2026 21.1044C95.6574 20.6668 94.9345 20.3948 94.2778 20.0708C93.6212 19.7467 92.9886 19.295 92.8109 18.699C92.1847 18.9253 91.6098 19.2305 91.109 19.6025C89.8881 20.424 88.6882 21.262 87.5095 22.1166C87.0486 22.4525 86.157 22.8995 85.9431 23.3796C85.6901 23.8952 86.6359 24.2618 87.0757 24.5433Z" fill="#A1616A"/>
<path id="Vector_10" d="M97.8474 22.6819C96.8265 23.2206 95.8725 23.8335 94.9979 24.5125C94.1725 25.1535 93.3894 25.8961 93.1906 26.7925C93.1062 27.145 93.1183 27.5021 93.049 27.8592C92.7478 29.4084 91.0429 30.5437 90.2898 31.9935C90.0717 32.441 89.9113 32.9046 89.8109 33.3772C89.5993 34.2731 89.4835 35.1813 89.4645 36.0924C89.4464 36.9746 90.5489 37.5824 90.9525 38.4055C91.3562 39.2286 91.4646 40.0753 91.6694 40.9197C92.055 42.5138 92.7628 44.0512 93.4767 45.5791C94.9617 48.8004 99.7752 57.7053 101.26 60.929C105.812 60.0326 117.927 57.9725 121.957 56.0828C123.3 55.4536 112.634 48.3558 114.071 47.8662C114.153 47.8561 114.231 47.8312 114.299 47.7935C114.367 47.7557 114.422 47.706 114.462 47.6485C114.501 47.5909 114.522 47.5269 114.524 47.4617C114.527 47.3965 114.51 47.3317 114.475 47.2725C113.038 42.3388 108.544 38.2849 106.504 33.4812C105.797 31.8138 104.525 30.39 103.561 28.8053C102.688 27.3696 102.221 25.7826 101.176 24.4179C100.979 24.1368 100.721 23.8847 100.414 23.6729C100.153 23.5159 99.8713 23.3819 99.5734 23.2732C98.977 23.0461 98.4227 22.9113 97.8474 22.6819Z" fill="#514E7F"/>
<path id="Vector_11" d="M87.3168 23.9828C91.2512 23.9828 94.4406 21.4784 94.4406 18.3892C94.4406 15.2999 91.2512 12.7955 87.3168 12.7955C83.3824 12.7955 80.193 15.2999 80.193 18.3892C80.193 21.4784 83.3824 23.9828 87.3168 23.9828Z" fill="#A1616A"/>
<path id="Vector_12" d="M94.5641 21.0168C94.9191 20.7597 95.3651 20.5931 95.8431 20.539C96.3212 20.485 96.8089 20.546 97.2419 20.714C97.7238 20.9104 98.1455 21.3077 98.0371 21.724L101.57 21.7665C102.133 21.7545 102.695 21.795 103.245 21.8872C103.799 21.9818 104.293 22.2252 104.643 22.5754C104.685 22.6204 104.733 22.6748 104.805 22.6819C104.864 22.6826 104.922 22.6676 104.968 22.6393C105.512 22.4252 106.124 22.3429 106.727 22.4028C108.637 22.4997 110.402 23.2495 111.899 24.1861C112.169 24.3318 112.379 24.5366 112.502 24.775C112.625 25.0896 112.477 25.4846 112.803 25.7093C112.803 28.311 113.941 30.7424 114.7 33.2778C114.836 33.7296 115.387 34.1293 115.77 34.4841C116.242 34.8774 116.628 35.3298 116.911 35.8227C117.556 37.1378 116.667 38.6846 117.294 40.0044C117.559 40.5625 118.071 41.0214 118.499 41.5062C119.063 42.0661 119.419 42.7371 119.529 43.4457C119.556 43.7626 119.505 44.0819 119.529 44.3917C119.569 44.8179 119.67 45.2391 119.83 45.6476C120.087 46.4108 120.356 47.1732 120.637 47.9348C121.095 49.1646 121.692 50.4915 123.095 51.1467C119.707 51.5984 116.134 52.0407 112.905 51.1159C112.455 50.9953 112.027 50.8274 111.634 50.6169C110.468 49.9641 109.905 48.8477 109.402 47.7928C108.842 46.6103 108.272 45.4064 108.158 44.1481C108.159 43.7479 108.087 43.3497 107.944 42.9655C107.616 42.2796 106.739 41.8657 105.944 41.4849C105.046 41.0986 104.233 40.6019 103.534 40.0138C103.188 39.7176 102.922 39.3687 102.755 38.9887C102.587 38.6088 102.52 38.2058 102.558 37.8047C102.619 37.4145 102.814 37.0384 102.832 36.6458C102.851 36.2532 102.628 35.8038 102.149 35.6998C99.6817 35.1132 98.504 32.819 97.9558 30.8417C97.7192 29.8198 97.6132 28.7818 97.6395 27.7433L97.6064 25.7258C97.2659 25.4826 96.9921 25.1876 96.8015 24.8586C96.6109 24.5297 96.5076 24.1737 96.4979 23.8124C96.5306 23.6016 96.5255 23.3883 96.4828 23.1786C96.3636 22.9222 96.1697 22.6914 95.9165 22.5045C95.3719 22.0656 94.9158 21.5639 94.5641 21.0168V21.0168Z" fill="#464353"/>
<path id="Vector_13" d="M86.9764 27.4124C86.8951 28.0368 87.0758 28.6777 86.8981 29.2903C86.8288 29.5268 86.7084 29.7633 86.621 29.9833C86.3539 30.865 86.4695 31.7915 86.9493 32.6157C87.4285 33.4319 88.0022 34.2117 88.6633 34.9454C88.8868 35.1959 89.0709 35.4667 89.2115 35.752C89.3254 36.0515 89.3961 36.3601 89.4223 36.672C89.5968 37.9245 89.8765 39.1665 90.2597 40.39C90.5971 41.4496 94.4286 50.5082 95.3202 51.3479C95.4819 51.5338 95.7273 51.6647 96.0069 51.7145C96.2086 51.7204 96.4091 51.688 96.5913 51.6199L98.3986 51.0759C98.5523 51.0389 98.6948 50.9778 98.8173 50.8961C98.9867 50.7407 99.0787 50.5425 99.0764 50.3379C99.2059 49.1837 95.3654 40.0613 94.8774 38.9709C93.4014 35.6786 91.4375 32.5046 90.4766 29.0964C90.2085 28.1503 90.0669 26.6934 89.1844 25.9389C88.8199 25.6267 88.9434 25.7591 88.5066 25.9223C88.2859 25.9975 88.0725 26.0853 87.868 26.1848C87.6124 26.3244 87.3997 26.507 87.2454 26.7194C87.0911 26.9318 86.9992 27.1685 86.9764 27.4124Z" fill="#464353"/>
<path id="Vector_14" d="M92.4615 33.6587C92.9464 35.6714 93.4465 37.6794 93.9435 39.6922L101.016 38.2376C101.073 37.6558 100.679 37.1165 100.414 36.582C99.769 35.3119 99.754 33.8975 99.2329 32.592C98.8383 31.5986 98.1515 30.6856 97.781 29.6852C97.5671 29.1033 97.4587 28.5026 97.2478 27.9137C97.0217 27.3353 96.7439 26.7702 96.4165 26.2226C96.0195 25.4283 95.5016 24.6747 94.8742 23.978C93.9706 24.2429 93.0067 24.5504 92.4916 25.1914C92.2274 25.5525 92.0767 25.9579 92.0518 26.3739C91.9283 27.6204 92.5036 28.8739 92.3139 30.1133C92.1184 31.2935 92.1683 32.4909 92.4615 33.6587V33.6587Z" fill="#6C63FF"/>
<path id="Vector_15" d="M101.134 60.4324C101.531 61.615 100.956 62.8591 100.486 64.0298C99.7786 65.7933 99.2963 67.6076 99.0462 69.4461C99.0155 69.9139 98.8957 70.3755 98.6908 70.8155C98.4679 71.2105 98.0883 71.544 97.8293 71.92C97.1184 72.9087 97.1365 74.1149 97.2901 75.2454C97.3925 75.9905 97.5462 76.7331 97.7359 77.4663C97.9679 78.3627 98.254 79.2993 97.9197 80.1745C98.4799 80.0775 98.8595 80.6475 98.8233 81.0945C98.7872 81.5415 98.6034 82.0406 98.8775 82.4261C99.5703 82.6248 99.5764 83.3722 99.5553 83.9516C99.5668 84.9564 99.7285 85.9566 100.037 86.9317C101.085 90.8895 102.198 94.8361 103.375 98.7718C105.92 99.3915 108.893 100.037 111.321 99.1786C111.773 99.0201 112.224 98.767 112.327 98.3839C112.353 98.1774 112.32 97.9688 112.23 97.7737L111.08 94.4861C110.8 93.6914 110.52 92.8707 110.667 92.0547C110.779 91.4468 111.116 90.7917 110.736 90.2548C110.607 90.0703 110.402 89.926 110.251 89.751C109.649 89.058 109.965 88.1309 110.014 87.2912C110.032 87.1028 110.016 86.9131 109.965 86.7283C109.883 86.5125 109.768 86.3052 109.622 86.111C108.671 84.6614 108.214 83.0431 108.297 81.4138C108.333 81.2059 108.296 80.9942 108.191 80.8012C108.118 80.7216 108.053 80.6378 107.995 80.5505C107.95 80.3987 107.973 80.2393 108.059 80.0988C107.713 79.8931 107.402 79.6548 107.131 79.3892C107.298 79.3077 107.439 79.1974 107.544 79.0667C107.649 78.936 107.715 78.7883 107.736 78.6347C107.757 78.4812 107.734 78.3258 107.668 78.1803C107.602 78.0349 107.494 77.9032 107.354 77.7951C107.477 77.7757 107.59 77.7299 107.682 77.6628C107.774 77.5958 107.84 77.5101 107.873 77.4152C107.907 77.3204 107.906 77.2201 107.871 77.1256C107.836 77.0311 107.769 76.946 107.676 76.8798C107.528 76.7994 107.333 76.7639 107.227 76.6433C107.065 76.4682 107.197 76.2246 107.33 76.0378L108.032 75.042C108.556 74.3017 108.673 73.3864 109.236 72.6769C110.044 71.6433 110.571 70.4915 111.092 69.3514L113.119 64.9593L114.484 65.8888C114.938 66.1615 115.319 66.5024 115.604 66.8917C115.798 67.2764 115.921 67.6811 115.969 68.0932C116.469 70.4773 118.378 72.5444 119.086 74.893C119.243 75.4157 119.348 75.9645 119.731 76.4115C119.868 76.5487 119.991 76.6942 120.098 76.8467C120.198 77.0792 120.25 77.3227 120.252 77.568C120.315 78.0484 120.509 78.5125 120.821 78.9288C121.133 79.3451 121.555 79.7038 122.059 79.9805C122.731 80.3424 123.565 80.5907 123.93 81.1631C124.003 81.3403 124.104 81.5096 124.231 81.6669C124.556 81.9743 125.258 82.0098 125.397 82.3953C125.475 82.6106 125.33 82.8684 125.484 83.0576C125.571 83.1452 125.687 83.2129 125.818 83.2539L127.779 84.0226C129.972 84.8835 131.093 86.8608 132.71 88.3012C133.269 88.7703 133.764 89.284 134.186 89.8338C134.885 90.8153 135.207 92.0476 136.388 92.672C136.706 92.8012 136.994 92.9697 137.244 93.171C137.614 93.5542 137.479 94.0911 137.512 94.5736C137.545 95.0561 138.015 95.6308 138.599 95.4842C138.394 96.0686 138.394 96.6855 138.599 97.2699C141.165 97.1664 143.611 96.3883 145.545 95.0608C146.117 94.6682 146.669 94.1668 146.675 93.5708C146.683 93.4679 146.654 93.3652 146.59 93.2751C146.475 93.1587 146.322 93.0682 146.148 93.0126C144.313 92.2321 143.762 90.4227 142.834 88.954C142.024 87.6578 140.825 86.5415 139.822 85.3376C137.641 82.7478 136.153 79.6139 132.855 77.9039C132.129 77.5278 131.285 77.1943 130.921 76.5723C130.719 76.2246 130.695 75.8273 130.535 75.4678C130.376 75.1083 129.993 74.7582 129.505 74.7582C129.776 74.2379 129.722 73.604 129.74 73.0411C129.759 72.7913 129.722 72.5408 129.632 72.3008C129.507 72.0426 129.344 71.7966 129.147 71.5676C128.286 70.4235 127.856 69.1115 127.906 67.7833C127.93 67.0998 128.084 66.395 127.822 65.7422C127.689 65.4134 127.457 65.1131 127.297 64.7961C127.057 64.2219 126.93 63.622 126.921 63.0175L126.74 60.7446C126.713 59.9876 126.588 59.2348 126.367 58.4977C125.764 56.7333 125.162 49.3421 123.098 48.5096C121.035 47.677 117.49 53.3653 115.167 53.4764C114.14 53.51 113.125 53.6639 112.155 53.9329C110.61 54.387 109.315 55.2338 108.053 56.0616L103.781 58.8785C102.878 59.4627 102.131 60.0209 101.134 60.4324Z" fill="#464353"/>
<path id="Vector_16" d="M80.6327 12.1783C81.5725 11.1707 83.187 10.6362 84.7774 10.5913C86.3679 10.5463 87.9342 10.9389 89.359 11.4948C89.7795 11.6825 90.229 11.8272 90.6964 11.9252C91.4494 12.0458 92.2868 11.885 92.9675 12.1617C93.8712 12.5378 94.0459 13.4957 93.9676 14.2904C93.8893 15.0851 93.6995 15.9673 94.2387 16.6556C94.4299 16.8518 94.604 17.0581 94.7598 17.2729C94.9917 17.682 94.8562 18.1551 94.7176 18.5879C94.3652 18.3514 94.1664 17.9942 93.8531 17.7199C93.5398 17.4455 92.9946 17.261 92.6061 17.4668C92.2175 17.6726 92.2235 18.0463 92.2024 18.3821C92.1814 18.718 92.0729 19.1201 91.6693 19.2289C91.5007 19.259 91.3245 19.2487 91.1634 19.1994C91.0023 19.1501 90.8637 19.0639 90.7656 18.9521C90.0759 18.2899 90.353 17.2327 89.6692 16.5657C89.2806 16.1873 88.633 16.0028 88.2746 15.6054C87.9914 15.2932 87.9191 14.8959 87.6721 14.56C87.4251 14.2242 86.8498 13.9782 86.4673 14.21C86.3367 14.3079 86.2278 14.4222 86.145 14.5482C85.9064 14.8165 85.5596 15.0138 85.1606 15.1082C84.7616 15.2026 84.3337 15.1886 83.9461 15.0685C83.6499 14.9257 83.3294 14.8167 82.9942 14.7445C82.7748 14.7359 82.5567 14.7756 82.3646 14.8592C82.1724 14.9428 82.0139 15.0669 81.9068 15.2175C81.6907 15.5185 81.5863 15.861 81.6056 16.2062C81.6056 16.6792 81.7141 17.183 81.3707 17.5614C81.2401 17.7039 81.0766 17.8258 80.8887 17.9209C80.3857 18.174 79.6839 18.3443 79.22 18.0557C79.0627 17.9408 78.9458 17.7959 78.8804 17.6352C78.815 17.4745 78.8033 17.3033 78.8465 17.138C78.9368 16.8089 79.0555 16.4849 79.2019 16.1683C79.467 15.4351 79.1206 14.6097 79.4097 13.9191C79.7126 13.2971 80.1242 12.7112 80.6327 12.1783V12.1783Z" fill="#464353"/>
<path id="Vector_17" d="M84.4492 28.8645C84.4039 29.0369 84.4271 29.216 84.5154 29.3778C84.605 29.4879 84.7269 29.5796 84.8709 29.645C85.8838 30.1405 87.0359 30.4337 88.2264 30.4988C88.3884 30.501 88.5474 30.5335 88.6903 30.5934C88.9735 30.7401 88.9915 31.0665 88.8861 31.3266C88.7455 31.5721 88.6727 31.8381 88.6722 32.1072C88.7596 32.6015 89.5066 32.8167 90.1362 32.89C91.0187 32.9775 91.9856 32.9326 92.6845 32.4998C93.1578 32.1608 93.5187 31.7361 93.7357 31.2628C95.4647 28.1431 96.0701 24.6947 97.8202 21.5845C97.9528 21.3814 98.0414 21.1624 98.0823 20.9365C98.1007 20.8234 98.0803 20.7084 98.0231 20.6036C97.9659 20.4988 97.874 20.4079 97.7569 20.3404C97.4316 20.182 96.9256 20.2719 96.7057 20.0235C96.5973 19.8982 96.6093 19.7279 96.5129 19.5954C96.3111 19.314 95.781 19.3589 95.4195 19.1957C95.1364 19.0774 94.9406 18.8338 94.6243 18.7865C94.469 18.7796 94.3139 18.8013 94.1711 18.8497C94.0284 18.8982 93.902 18.9721 93.802 19.0656C92.7748 19.8177 92.2356 20.8844 91.6633 21.892C90.7894 23.4364 89.7663 24.9261 88.603 26.348C88.7385 26.1824 87.9523 24.9289 87.6451 24.8745C87.1059 24.7893 86.4161 25.532 86.1239 25.8087C85.2071 26.6816 84.6261 27.7416 84.4492 28.8645V28.8645Z" fill="#6C63FF"/>
<path id="Vector_18" opacity="0.1" d="M95.3924 19.4156C95.1761 19.4185 94.9633 19.4595 94.7699 19.5356C94.5764 19.6118 94.4073 19.7211 94.2749 19.8556C93.9526 20.1843 93.8894 20.6195 93.808 21.0382C93.5339 22.3645 92.9311 23.6357 92.0339 24.7798" fill="black"/>
<path id="Vector_19" opacity="0.1" d="M96.9286 20.3594C96.6299 20.3646 96.3381 20.4308 96.082 20.5515C95.8258 20.6722 95.6141 20.8432 95.4677 21.0476C95.2683 21.4197 95.1443 21.8139 95.1002 22.216C94.8419 23.1076 94.3438 23.9455 93.6393 24.6734" fill="black"/>
<path id="Vector_20" d="M168.516 66.5985V63.6609C168.515 61.4985 167.42 59.4248 165.473 57.8959C163.525 56.367 160.884 55.5082 158.13 55.5082H10.386C7.63195 55.5082 4.9907 56.367 3.04304 57.8959C1.09538 59.4248 0.000798726 61.4985 0 63.6609V69.0772L168.516 66.5985Z" fill="#33323D"/>
<path id="Vector_21" d="M51.487 52.0644C51.487 52.0644 51.0653 72.6082 55.7041 79.3679C60.3428 86.1275 62.3308 115.534 62.3308 115.534C62.3308 115.534 110.959 119.483 144.846 110.803C178.733 102.123 250.838 98.573 250.838 98.573L238.687 34.2665C238.687 34.2665 178.658 31.2438 144.509 44.0323C110.36 56.8207 51.487 52.0644 51.487 52.0644Z" fill="#8DD070"/>
<path id="Vector_22" opacity="0.1" d="M51.487 52.0644C51.487 52.0644 51.0653 72.6082 55.7041 79.3679C60.3428 86.1275 62.3308 115.534 62.3308 115.534C62.3308 115.534 110.959 119.483 144.846 110.803C178.733 102.123 250.838 98.573 250.838 98.573L238.687 34.2665C238.687 34.2665 178.658 31.2438 144.509 44.0323C110.36 56.8207 51.487 52.0644 51.487 52.0644Z" fill="black"/>
<path id="Vector_23" d="M62.2496 59.5691C62.2496 59.5691 60.7285 76.5203 64.5449 81.9365C68.3613 87.3527 68.539 111.532 68.539 111.532C68.539 111.532 112.303 113.126 143.434 104.805C174.564 96.4846 239.983 91.0873 239.983 91.0873L232.549 38.4978C232.549 38.4978 178.42 38.0603 146.828 49.7726C115.237 61.4849 62.2496 59.5691 62.2496 59.5691Z" fill="#8DD070"/>
<path id="Vector_24" opacity="0.1" d="M146.348 95.1766C152.574 94.5676 156.274 85.5729 154.61 75.0864C152.947 64.5999 146.55 56.5926 140.324 57.2016C134.097 57.8106 130.397 66.8053 132.061 77.2918C133.724 87.7783 140.121 95.7856 146.348 95.1766Z" fill="black"/>
<path id="Vector_25" opacity="0.2" d="M205.776 2.93994C205.776 2.93994 147.458 14.5293 119.957 34.9288C92.4556 55.3284 34.5617 64.9877 34.5617 64.9877C34.5617 64.9877 42.1885 84.6399 49.243 89.9568C56.2975 95.2737 69.6775 122.785 69.6775 122.785C69.6775 122.785 117.502 114.824 146.358 98.391C175.215 81.9578 242.468 61.2035 242.468 61.2035L205.776 2.93994Z" fill="black"/>
<path id="Vector_26" d="M33.6851 62.0454C33.6851 62.0454 41.3089 81.7 48.3573 87.0169C55.4058 92.3338 68.7919 119.843 68.7919 119.843C68.7919 119.843 116.622 111.884 145.482 95.451C174.341 79.0179 241.588 58.2706 241.588 58.2706L204.897 0C204.897 0 146.581 11.5893 119.08 31.9889C91.579 52.3884 33.6851 62.0454 33.6851 62.0454Z" fill="#8DD070"/>
<path id="Vector_27" opacity="0.1" d="M33.6851 62.0454C33.6851 62.0454 41.3089 81.7 48.3573 87.0169C55.4058 92.3338 68.7919 119.843 68.7919 119.843C68.7919 119.843 116.622 111.884 145.482 95.451C174.341 79.0179 241.588 58.2706 241.588 58.2706L204.897 0C204.897 0 146.581 11.5893 119.08 31.9889C91.579 52.3884 33.6851 62.0454 33.6851 62.0454Z" fill="black"/>
<path id="Vector_28" d="M46.8513 66.5959C46.8513 66.5959 52.0292 83.0977 57.7794 87.3313C63.5297 91.565 73.1415 114.531 73.1415 114.531C73.1415 114.531 115.414 105.501 141.792 90.0797C168.169 74.6588 228.329 53.7814 228.329 53.7814L200.704 5.50366C200.704 5.50366 149.018 18.1266 123.526 36.8871C98.0341 55.6476 46.8513 66.5959 46.8513 66.5959Z" fill="#8DD070"/>
<path id="Vector_29" opacity="0.1" d="M140.817 80.2213C146.505 78.1414 146.511 68.6893 140.83 59.1095C135.148 49.5297 125.931 43.4499 120.243 45.5299C114.554 47.6099 114.548 57.062 120.23 66.6417C125.911 76.2215 135.128 82.3013 140.817 80.2213Z" fill="black"/>
<path id="Vector_30" opacity="0.1" d="M172.504 69.4814V151.08C172.504 152.006 172.272 152.924 171.82 153.78C171.368 154.636 170.706 155.414 169.871 156.069C169.037 156.725 168.046 157.244 166.955 157.599C165.865 157.953 164.696 158.135 163.516 158.135H8.99142C6.60889 158.134 4.32421 157.391 2.63979 156.068C0.955372 154.745 0.00912462 152.95 0.00912476 151.08V61.2554C4.43702 62.5468 4.43702 62.5468 8.99142 62.438H163.516C165.897 62.438 168.18 63.1796 169.865 64.5001C171.55 65.8206 172.499 67.6121 172.504 69.4814V69.4814Z" fill="black"/>
<path id="Vector_31" d="M172.504 70.5198V152.118C172.503 153.989 171.556 155.784 169.87 157.107C168.185 158.43 165.899 159.173 163.516 159.173H8.99142C6.60889 159.173 4.32421 158.429 2.63979 157.106C0.955372 155.783 0.00912462 153.989 0.00912476 152.118V62.2914C4.43702 63.5804 4.43702 63.5804 8.99142 63.474H163.516C165.897 63.474 168.181 64.2159 169.866 65.5369C171.551 66.8579 172.5 68.65 172.504 70.5198V70.5198Z" fill="#504F60"/>
<path id="Vector_32" opacity="0.1" d="M172.064 100.688V126.782H139.834C135.466 126.736 131.296 125.341 128.228 122.899C125.16 120.458 123.439 117.165 123.439 113.735C123.439 110.305 125.16 107.012 128.228 104.57C131.296 102.129 135.466 100.734 139.834 100.688H172.064Z" fill="black"/>
<path id="Vector_33" d="M172.504 99.9923V126.092H140.274C135.905 126.046 131.736 124.651 128.668 122.209C125.6 119.767 123.879 116.475 123.879 113.044C123.879 109.614 125.6 106.322 128.668 103.88C131.736 101.438 135.905 100.043 140.274 99.997L172.504 99.9923Z" fill="#33323D"/>
<path id="Vector_34" opacity="0.1" d="M141.819 118.824C145.397 118.824 148.298 116.546 148.298 113.736C148.298 110.926 145.397 108.649 141.819 108.649C138.241 108.649 135.34 110.926 135.34 113.736C135.34 116.546 138.241 118.824 141.819 118.824Z" fill="black"/>
<path id="Vector_35" d="M142.259 118.133C145.837 118.133 148.738 115.855 148.738 113.045C148.738 110.236 145.837 107.958 142.259 107.958C138.68 107.958 135.78 110.236 135.78 113.045C135.78 115.855 138.68 118.133 142.259 118.133Z" fill="#6C63FF"/>
<path id="Vector_36" d="M228.449 99.7676C228.705 101.946 226.605 104.06 227.217 106.194C227.349 106.65 227.6 107.081 227.69 107.542C227.943 108.81 226.982 110.009 226.063 111.068L218.171 120.16C217.855 120.56 217.477 120.927 217.045 121.253C215.539 122.308 213.274 122.199 211.292 122.513C209.898 122.735 208.583 123.192 207.436 123.852C207.388 123.884 207.358 123.93 207.351 123.979C207.344 124.028 207.362 124.078 207.4 124.117C207.727 124.467 208.161 124.747 208.662 124.932C209.163 125.117 209.715 125.2 210.267 125.174C210.475 125.389 210.267 125.704 209.966 125.858C209.542 126.094 208.96 126.151 208.876 126.714C208.846 126.91 208.896 127.109 209.02 127.282C209.338 127.664 209.833 127.934 210.4 128.036C213.132 128.691 216.084 127.539 218.129 125.971C220.174 124.403 221.641 122.424 223.648 120.827C224.759 119.945 226.021 119.188 227.166 118.332C229.449 116.624 231.223 114.547 232.937 112.469C233.452 111.842 233.97 111.198 234.187 110.472C234.404 109.746 234.302 109.013 234.546 108.311C234.865 107.388 235.723 106.655 236.437 105.882C237.838 104.368 238.772 102.516 238.588 100.652C238.404 98.7884 236.931 96.9459 234.69 96.3121C233.996 96.093 233.229 96.0565 232.506 96.208C231.588 96.4303 230.91 97.0263 230.283 97.5963L228.777 98.9563C228.402 99.2547 228.105 99.6083 227.904 99.997C227.807 100.192 227.784 100.405 227.838 100.61C227.891 100.815 228.019 101.004 228.205 101.154" fill="#FBBEBE"/>
<path id="Vector_37" opacity="0.05" d="M228.449 99.7676C228.705 101.946 226.605 104.06 227.217 106.194C227.349 106.65 227.6 107.081 227.69 107.542C227.943 108.81 226.982 110.009 226.063 111.068L218.171 120.16C217.855 120.56 217.477 120.927 217.045 121.253C215.539 122.308 213.274 122.199 211.292 122.513C209.898 122.735 208.583 123.192 207.436 123.852C207.388 123.884 207.358 123.93 207.351 123.979C207.344 124.028 207.362 124.078 207.4 124.117C207.727 124.467 208.161 124.747 208.662 124.932C209.163 125.117 209.715 125.2 210.267 125.174C210.475 125.389 210.267 125.704 209.966 125.858C209.542 126.094 208.96 126.151 208.876 126.714C208.846 126.91 208.896 127.109 209.02 127.282C209.338 127.664 209.833 127.934 210.4 128.036C213.132 128.691 216.084 127.539 218.129 125.971C220.174 124.403 221.641 122.424 223.648 120.827C224.759 119.945 226.021 119.188 227.166 118.332C229.449 116.624 231.223 114.547 232.937 112.469C233.452 111.842 233.97 111.198 234.187 110.472C234.404 109.746 234.302 109.013 234.546 108.311C234.865 107.388 235.723 106.655 236.437 105.882C237.838 104.368 238.772 102.516 238.588 100.652C238.404 98.7884 236.931 96.9459 234.69 96.3121C233.996 96.093 233.229 96.0565 232.506 96.208C231.588 96.4303 230.91 97.0263 230.283 97.5963L228.777 98.9563C228.402 99.2547 228.105 99.6083 227.904 99.997C227.807 100.192 227.784 100.405 227.838 100.61C227.891 100.815 228.019 101.004 228.205 101.154" fill="black"/>
<path id="Vector_38" d="M234.422 155.846C232.699 156.671 230.551 156.721 228.548 156.529C228.226 156.498 227.844 156.479 227.645 156.676C227.344 156.96 227.699 157.385 228.066 157.605C229.248 158.302 230.636 158.75 232.1 158.909C233.407 159.054 234.726 159.123 236.046 159.114C239.66 159.164 243.275 159.211 246.832 158.804C247.043 158.792 247.248 158.745 247.435 158.667C247.664 158.541 247.823 158.351 247.88 158.135C248.124 157.407 247.655 156.626 246.944 156.12C246.233 155.614 245.32 155.332 244.429 155.06L241.296 154.102C240.561 153.878 239.383 153.282 238.585 153.329C237.085 153.414 235.666 155.273 234.422 155.846Z" fill="#3F3D56"/>
<path id="Vector_39" opacity="0.05" d="M234.422 155.846C232.699 156.671 230.551 156.721 228.548 156.529C228.226 156.498 227.844 156.479 227.645 156.676C227.344 156.96 227.699 157.385 228.066 157.605C229.248 158.302 230.636 158.75 232.1 158.909C233.407 159.054 234.726 159.123 236.046 159.114C239.66 159.164 243.275 159.211 246.832 158.804C247.043 158.792 247.248 158.745 247.435 158.667C247.664 158.541 247.823 158.351 247.88 158.135C248.124 157.407 247.655 156.626 246.944 156.12C246.233 155.614 245.32 155.332 244.429 155.06L241.296 154.102C240.561 153.878 239.383 153.282 238.585 153.329C237.085 153.414 235.666 155.273 234.422 155.846Z" fill="black"/>
<path id="Vector_40" d="M236.618 123.192C235.314 124.554 233.964 126.127 234.287 127.814C234.461 128.722 235.109 129.524 235.585 130.363C236.229 131.503 236.567 132.728 236.898 133.949C237.386 135.732 237.877 137.52 238.175 139.332C238.516 141.378 236.916 147.298 236.769 149.358C236.732 149.855 236.657 150.392 236.217 150.749C236.046 150.891 235.817 151.004 235.738 151.189C235.692 151.366 235.73 151.551 235.844 151.709C236.579 153.01 238.082 153.979 239.76 154.533C241.437 155.086 245.483 156.042 247.311 156.092C247.552 156.112 247.796 156.087 248.022 156.018C248.265 155.902 248.457 155.729 248.57 155.524C249.88 153.556 248.621 146.56 248.639 144.339C248.658 142.487 249.215 140.647 249.112 138.797C249.028 137.312 248.51 135.86 248.338 134.379C248.037 131.953 248.603 129.514 249.173 127.116C249.606 125.276 250.043 123.436 250.6 121.619C250.941 120.51 251.335 119.391 252.106 118.429C252.709 117.665 253.555 117.026 254.257 116.3C256.205 114.295 257.071 111.768 256.667 109.266C256.625 109.029 252.149 110.158 251.754 110.292C250.144 110.828 248.663 111.576 247.374 112.504C246.338 113.28 245.522 114.316 244.615 115.184C243.332 116.412 242.065 117.649 240.814 118.895C239.386 120.318 237.987 121.751 236.618 123.192Z" fill="#464353"/>
<path id="Vector_41" opacity="0.05" d="M236.618 123.109C235.314 124.472 233.964 126.047 234.287 127.731C234.461 128.641 235.109 129.443 235.585 130.283C236.229 131.421 236.567 132.648 236.898 133.866C237.386 135.652 237.877 137.44 238.175 139.249C238.516 141.297 236.916 147.215 236.769 149.275C236.732 149.772 236.657 150.311 236.217 150.668C236.046 150.808 235.817 150.921 235.738 151.106C235.692 151.284 235.73 151.468 235.844 151.626C236.579 152.929 238.082 153.897 239.76 154.464C241.437 155.032 245.483 155.526 247.311 155.574C247.552 155.594 247.796 155.569 248.022 155.5C248.266 155.385 248.457 155.213 248.57 155.008C249.88 153.041 248.621 146.494 248.639 144.271C248.658 142.416 249.215 140.578 249.112 138.727C249.028 137.241 248.51 135.789 248.338 134.311C248.037 131.882 248.603 129.443 249.173 127.045C249.606 125.207 250.043 123.367 250.6 121.548C250.941 120.439 251.335 119.32 252.106 118.358C252.709 117.594 253.555 116.955 254.257 116.229C256.206 114.224 257.071 111.697 256.667 109.195C256.625 108.959 252.149 110.087 251.754 110.222C250.144 110.759 248.663 111.507 247.374 112.435C246.338 113.209 245.522 114.245 244.615 115.113C243.332 116.341 242.065 117.579 240.814 118.826C239.386 120.239 237.987 121.667 236.618 123.109Z" fill="black"/>
<path id="Vector_42" d="M222.105 93.1876C226.143 93.1876 229.416 90.6176 229.416 87.4473C229.416 84.277 226.143 81.707 222.105 81.707C218.068 81.707 214.795 84.277 214.795 87.4473C214.795 90.6176 218.068 93.1876 222.105 93.1876Z" fill="#FBBEBE"/>
<path id="Vector_43" d="M228.69 87.2061C229.365 88.0521 230.251 88.7825 231.294 89.3539C232.336 89.9252 233.515 90.3257 234.759 90.5316L234.208 92.1044C233.256 94.8054 232.187 97.6625 229.53 99.5358C229.831 98.6204 229.446 97.6436 228.789 96.8489C228.133 96.0542 227.211 95.4298 226.307 94.8125L222.099 91.9507C221.978 91.873 221.876 91.7784 221.798 91.6716C221.694 91.4698 221.694 91.2442 221.798 91.0424C222.334 89.7321 223.864 88.9138 225.111 88.0292C225.737 87.5718 226.296 87.0609 226.777 86.5061C227.618 85.5647 228.139 86.5108 228.69 87.2061Z" fill="#FBBEBE"/>
<path id="Vector_44" d="M212.475 81.6762L212.31 80.5977C213.463 80.8342 214.56 80.0632 215.298 79.2661C216.036 78.4691 216.72 77.5301 217.843 77.1966C219.208 76.7945 220.654 77.4331 221.958 77.9724C223.418 78.6086 225.021 79.0181 226.678 79.1786C226.942 79.1855 227.204 79.2189 227.458 79.2779C228.307 79.5145 228.711 80.3517 228.835 81.111C228.958 81.8702 228.925 82.6767 229.344 83.3531C229.645 83.8664 230.205 84.2472 230.549 84.7533C231.452 86.1109 230.579 87.9676 231.521 89.2992L229.178 87.6128C228.964 87.4591 228.663 87.2982 228.425 87.4283C228.238 87.5324 228.223 87.7571 228.148 87.9368C227.922 88.4619 227.085 88.618 226.479 88.4099C225.874 88.2017 225.431 87.75 224.973 87.3384C223.937 86.3782 222.702 85.5338 221.256 85.1247C220.622 84.9386 219.945 84.8605 219.27 84.8956C218.595 84.9307 217.937 85.0781 217.34 85.3281C216.247 85.8129 215.446 86.9435 214.105 86.9837C212.268 87.0381 211.503 84.3512 210.653 83.2893C210.964 83.1056 211.183 82.842 211.271 82.5444C211.359 82.2469 211.311 81.9345 211.135 81.662C211.259 81.6218 212.448 81.5107 212.475 81.6762Z" fill="#464353"/>
<path id="Vector_45" d="M122.053 48.117C121.466 48.5272 120.923 48.9749 120.43 49.4556C119.933 49.943 119.669 50.5512 119.683 51.1751C119.685 51.3561 119.759 51.532 119.893 51.6789C119.962 51.7492 120.057 51.8009 120.165 51.8268C120.273 51.8526 120.389 51.8514 120.496 51.8232C120.617 51.7747 120.72 51.7032 120.797 51.615C121.115 51.3147 121.453 51.0273 121.809 50.7541C121.939 50.6524 122.11 50.546 122.285 50.5838C122.363 50.6057 122.434 50.6422 122.49 50.6903C122.693 50.8278 122.84 51.0086 122.915 51.2106C123.02 51.5725 122.752 51.9343 122.448 52.2182C122.143 52.502 121.785 52.774 121.662 53.1311C121.615 53.2254 121.615 53.3301 121.662 53.4244C121.72 53.4926 121.801 53.5467 121.897 53.5805C122.328 53.767 122.806 53.8768 123.297 53.9021C123.789 53.9274 124.281 53.8677 124.74 53.7271C125.342 53.5356 125.879 53.2068 126.499 53.0365C126.768 52.9788 127.028 52.8995 127.276 52.8C127.454 52.7072 127.606 52.5878 127.725 52.4486C127.843 52.3093 127.925 52.153 127.966 51.9887C128.044 51.6605 128.06 51.3248 128.011 50.993C127.936 49.7081 127.586 48.4424 126.975 47.2489C126.94 47.172 126.879 47.1035 126.8 47.0503C126.71 47.0069 126.605 46.9847 126.499 46.9864C125.728 46.9226 124.463 46.6127 123.719 46.8374C123.459 46.9494 123.234 47.1063 123.062 47.2963C122.924 47.4169 122.053 47.9585 122.053 48.117Z" fill="#A1616A"/>
<path id="Vector_46" d="M121.809 47.5825C121.809 47.0054 120.906 45.6123 122.342 45.5201C122.342 44.9028 121.231 44.5196 121.439 43.8645C121.505 43.6469 121.74 43.4695 121.767 43.2472C121.857 42.6157 120.405 42.2727 120.646 41.6672C120.737 41.4307 121.056 41.2935 121.125 41.0594C121.288 40.513 120.044 40.2694 120.02 39.7089C120.02 39.5197 120.155 39.3423 120.143 39.1531C120.143 38.9165 119.881 38.7368 119.737 38.531C119.36 38.0036 119.544 37.1876 118.857 36.9156C119.312 36.9464 119.46 36.4166 119.273 36.0925C119.086 35.7685 118.704 35.4871 118.701 35.1276C118.723 34.9973 118.723 34.8652 118.701 34.7349C118.574 34.3896 117.854 34.3612 117.734 34.0254C117.718 33.8965 117.713 33.7669 117.719 33.6375C117.67 33.3702 117.321 33.1999 116.993 33.1243C116.652 33.0788 116.323 32.9867 116.023 32.8523C115.812 32.7269 115.568 32.5188 115.342 32.6157C115.258 32.656 115.215 32.7316 115.152 32.7884C114.881 33.0367 114.363 32.9279 114.023 32.7458C113.017 32.2089 112.517 31.2463 112.303 30.3073C112.089 29.3684 112.095 28.3987 111.827 27.4691C111.745 27.1795 111.636 26.8949 111.501 26.6177C111.387 26.3812 111.02 26.0098 110.995 25.771C110.941 25.227 112.375 25.5983 112.92 25.6527C113.45 25.6933 113.973 25.7725 114.484 25.8892C115.029 26.0509 115.562 26.2348 116.083 26.4403C118.258 27.1948 120.884 27.287 122.631 28.5548C123.207 28.971 123.692 29.5174 124.439 29.7066C124.781 29.7582 125.119 29.8269 125.451 29.9124C126.279 30.2175 126.409 31.0808 126.861 31.7052C127.003 31.8701 127.127 32.0441 127.231 32.2255C127.318 32.4394 127.359 32.6633 127.352 32.8877L127.415 34.5268C127.517 37.2728 127.62 40.0258 127.246 42.7552C127.126 43.6563 126.945 44.5835 127.285 45.4491C127.376 45.6857 127.502 45.908 127.587 46.1469C127.661 46.4269 127.699 46.7122 127.701 46.9983L127.749 48.0603C127.766 48.1429 127.742 48.2274 127.683 48.2968C127.633 48.3289 127.574 48.3517 127.511 48.3636C127.448 48.3755 127.382 48.3761 127.318 48.3654C125.436 48.2329 123.532 47.4004 121.755 47.9042" fill="#464353"/>
<path id="Vector_47" d="M207.722 129.181C220.026 129.181 230 128.049 230 126.652C230 125.256 220.026 124.124 207.722 124.124C195.418 124.124 185.444 125.256 185.444 126.652C185.444 128.049 195.418 129.181 207.722 129.181Z" fill="#504F60"/>
<path id="Vector_48" d="M226.889 126.775C226.497 125.458 226.253 124.301 226.253 124.301C226.253 124.301 226.343 122.868 225.524 121.792V121.432V118.783C225.757 118.302 226.043 117.838 226.377 117.395C226.979 116.562 226.377 113.511 226.377 113.511C226.377 113.511 224.126 109.209 224.672 106.48C225.217 103.75 220.051 94.3607 220.051 94.3607C220.083 93.4551 220.246 92.5553 220.536 91.6786C220.591 91.4942 220.613 91.3048 220.602 91.1156C220.602 91.092 220.602 91.0707 220.602 91.0471C220.602 91.0234 220.602 91.0612 220.602 91.0683C220.524 89.2684 218.711 85.8957 218.711 85.8957L218.955 79.4672C218.955 79.4672 220.111 75.6829 218.226 70.586C217.566 68.8098 217.144 67.3883 216.876 66.2909C216.846 66.1679 216.816 66.0543 216.792 65.9337C220.675 65.4607 223.642 65.0822 223.642 65.0822C223.642 65.0822 221.388 57.6816 219.867 56.3855C218.346 55.0894 217.129 51.019 217.129 51.019C217.129 51.019 216.337 45.7943 217.617 44.2664C218.897 42.7385 219.078 40.1037 219.078 40.1037C219.078 40.1037 221.997 38.4481 222.364 37.6983C222.732 36.9486 223.337 35.293 223.337 34.4155C223.337 33.538 222.973 32.7599 223.093 32.2868C223.214 31.8138 222.241 30.0659 222.729 29.2334C222.855 28.9777 222.92 28.7059 222.922 28.4316C222.923 28.4238 222.923 28.4158 222.922 28.408C222.922 28.408 222.922 28.408 222.922 28.408C222.926 27.6794 222.84 26.9522 222.666 26.2367C221.821 25.6769 220.836 25.2634 219.774 25.0234L219.711 24.8247L219.545 24.3044C219.453 24.2564 219.357 24.2122 219.259 24.1719V23.9827L219.232 23.2306L219.69 21.5419C220.593 18.6043 215.596 18.1668 215.596 18.1668C215.293 17.7162 214.789 17.3692 214.18 17.1923C213.177 16.9156 214.015 21.6105 214.482 21.9227C214.834 22.1592 215.924 23.6209 216.451 24.3446L216.536 24.4629C216.453 24.5211 216.377 24.5844 216.307 24.6521L216.497 25.6715L216.527 25.8276C216.196 26.1505 215.927 26.5099 215.729 26.8943C215.729 26.8943 216.632 27.6795 216.461 28.5499C216.289 29.4203 216.741 30.5248 216.762 30.5839C216.708 30.5342 216.066 29.9903 215.424 30.1227C214.783 30.2552 212.991 30.6785 212.991 30.6785C212.991 30.6785 211.653 30.863 211.786 31.0948C211.918 31.3266 210.882 32.3436 210.882 32.3436L207.285 29.6662C207.249 29.5858 207.21 29.5054 207.18 29.4297C207.033 29.0437 206.932 28.6478 206.879 28.2471C207.271 28.174 207.655 28.0783 208.029 27.9609C208.407 27.8591 208.748 27.6871 209.023 27.4595C209.388 27.1213 209.457 26.6625 209.605 26.2415C209.888 25.4184 210.508 24.6876 210.939 23.9047C211.669 22.5818 211.904 21.1233 211.617 19.6994C211.562 19.2606 211.373 18.8388 211.066 18.4695C210.478 17.8357 209.412 17.5779 208.638 17.0717C207.864 16.5656 207.364 15.7922 206.46 15.4161C205.644 15.0731 204.653 15.1134 203.731 15.2316C201.931 15.4647 200.202 15.9587 198.632 16.6886C198.107 16.9251 197.529 17.216 196.927 17.1285C196.409 17.0552 196.023 16.7311 195.698 16.4189C195.701 16.406 195.706 16.3933 195.713 16.3811C195.698 16.3696 195.685 16.3569 195.674 16.3432C195.292 17.0075 195.101 17.7292 195.113 18.4577C195.113 18.5712 195.113 18.6942 195.131 18.7959V18.9142C195.131 18.9473 195.131 18.9804 195.131 19.0111C195.131 19.0616 195.122 19.1117 195.104 19.1602C195.028 19.3048 194.913 19.4348 194.767 19.5409C194.656 19.6396 194.556 19.7447 194.466 19.8555C194.466 19.8177 194.496 19.7798 194.514 19.7396C194.284 20.003 194.155 20.3123 194.14 20.6313C194.124 20.8635 194.221 21.092 194.411 21.2699C194.592 21.4074 194.788 21.5309 194.999 21.6388C194.927 21.9511 194.891 22.2677 194.89 22.5849C194.897 23.5254 195.213 24.4486 195.807 25.2653C196.401 26.082 197.254 26.7644 198.282 27.2467C198.324 27.3247 198.363 27.4051 198.403 27.4832C198.863 28.4292 199.21 29.5409 199.056 30.5579C199.056 30.6312 199.029 30.7069 199.014 30.7802C198.999 30.8535 198.924 30.8583 198.885 30.8985C198.885 30.8985 192.942 30.9458 191.544 29.9524C190.146 28.959 188.014 32.3814 188.014 32.3814C188.014 32.3814 185.884 32.7055 185.456 32.3814C185.029 32.0574 182.538 32.3365 182.538 32.3365C181.517 31.6238 180.189 31.2432 178.824 31.2722C177.996 30.7786 177.083 30.3803 176.113 30.0896V30.0896L176.046 30.0707C175.618 29.948 175.16 29.9028 174.706 29.9382C174.706 29.9382 171.784 28.0461 170.932 27.0243C170.079 26.0026 166.022 22.2301 166.004 22.2136V22.0315L165.959 21.4827C165.838 21.4976 165.716 21.5055 165.594 21.5064C165.573 21.452 165.543 21.3881 165.513 21.3148C165.279 20.7796 164.991 20.26 164.651 19.7609C164.651 19.7609 164.651 19.0679 164.907 18.8929C165.163 18.7179 164.802 16.1753 164.802 16.1753C164.802 16.1753 162.169 11.3433 159.811 14.9502C159.811 14.9502 155.353 17.2846 159.094 20.0045C159.094 20.0045 160.6 20.5722 160.799 21.0215C160.937 21.3125 161.443 22.1284 161.784 22.6772L161.937 22.9137L161.895 22.9421L161.949 23.3962L161.973 23.5712C161.269 23.8858 160.79 24.198 160.907 24.4321C161.115 24.8328 161.257 25.2523 161.332 25.6809C161.332 25.6809 166.507 30.7708 167.175 32.9443C167.175 32.9443 181.053 39.4202 185.616 39.8814L184.809 43.1098C184.691 43.9859 184.631 44.8661 184.628 45.747C184.688 46.44 184.08 49.5857 184.08 49.5857C184.08 49.5857 183.288 54.2119 182.619 54.86C181.95 55.508 182.071 58.2824 182.071 58.2824C181.913 59.6105 181.61 60.9256 181.167 62.2133C180.498 63.9706 180.983 66.1466 180.983 66.1466C180.983 66.1466 178.673 70.3093 184.209 67.4876C184.209 67.4876 186.92 67.3552 190.059 67.27C190.059 67.3504 190.059 67.4332 190.059 67.5065C190.059 67.8235 190.059 68.1664 190.038 68.5259C189.996 70.91 189.978 74.2023 190.116 76.681C190.36 81.0755 192.065 89.7722 192.065 89.7722V94.1502C191.955 94.5608 191.9 94.9794 191.902 95.399C191.866 96.9393 192.389 98.456 193.408 99.7722L193.836 102.686C193.836 102.686 194.836 104.607 194.854 105.761C194.85 105.854 194.836 105.946 194.812 106.037C194.773 106.184 194.757 106.335 194.764 106.485C194.707 107.809 195.722 110.978 195.722 110.978C195.722 110.978 195.782 114.169 196.39 114.356C196.912 114.514 195.695 116.194 195.333 116.676C195.324 116.646 195.316 116.616 195.312 116.586L195.237 116.681C195.111 116.939 195.047 117.213 195.047 117.49C195.013 117.707 195.058 117.929 195.177 118.127C195.297 118.325 195.486 118.493 195.722 118.611C196.878 119.167 197.499 119.628 196.517 119.812C196.156 119.856 195.798 119.915 195.445 119.99C195.445 119.954 195.408 119.916 195.393 119.883C195.255 119.926 195.139 120.004 195.066 120.106C194.993 120.208 194.967 120.326 194.993 120.441C195.002 120.817 195.125 121.185 195.351 121.515C196.324 123.228 196.999 123.88 196.999 123.88L197.466 123.84C197.397 123.98 197.306 124.113 197.195 124.235C197.017 124.433 196.782 124.596 196.508 124.708C196.253 124.828 195.969 124.905 195.674 124.933C195.344 124.941 195.02 125.004 194.723 125.117C194.426 125.231 194.163 125.392 193.951 125.59C193.348 126.208 192.963 127.047 194.161 127.785L198.514 128.968C198.514 128.968 206.002 129.732 205.605 128.412C205.207 127.092 204.966 125.938 204.966 125.938C204.998 125.132 204.792 124.332 204.364 123.599C204.285 123.479 204.197 123.364 204.099 123.254L204.364 123.232C204.364 123.232 204.912 120.316 205.641 119.763C205.809 119.635 205.849 119.526 205.809 119.46C205.885 119.301 205.692 119.209 205.448 119.155L205.394 119.271C205.155 119.23 204.912 119.208 204.668 119.207C204.668 119.207 204.424 117.681 205.216 117.125C205.28 117.062 205.327 116.989 205.353 116.911C205.38 116.833 205.385 116.751 205.37 116.671C205.376 116.462 205.347 116.253 205.285 116.049C205.277 116.062 205.268 116.075 205.258 116.087C204.861 114.701 203.511 112.499 203.511 112.499C203.511 112.499 203.451 111.113 203.939 110.557C204.427 110.002 203.876 103.017 203.876 103.017C203.876 103.017 204.059 99.6421 203.511 98.0692C202.963 96.4964 204.18 94.6445 204.18 94.6445C204.18 94.6445 204.18 94.609 204.18 94.5451V94.5215L204.111 93.9893C204.109 94.0003 204.109 94.0114 204.111 94.0224C203.987 93.1284 203.755 91.5083 203.584 90.7609C203.34 89.6965 203.647 84.6114 203.647 84.6114L204.74 82.4355L206.689 86.1843L208.758 91.1795C208.758 91.1795 209.783 92.2344 209.807 93.3082C209.807 93.3602 209.807 93.4122 209.807 93.4643C209.79 93.5749 209.782 93.6863 209.783 93.7977C209.746 94.4289 209.966 95.0527 210.412 95.5787C210.412 95.5787 210.96 97.9439 211.813 98.5375C212.665 99.1312 212.665 100.295 212.665 100.295C212.665 100.295 213.698 103.72 214.171 104.316C214.581 104.822 214.602 106.208 214.599 106.641C214.599 106.719 214.599 106.764 214.599 106.764C214.599 106.764 214.744 107.989 214.738 109.015C214.738 109.143 214.738 109.266 214.738 109.382C214.739 109.373 214.739 109.364 214.738 109.356C214.737 109.636 214.695 109.916 214.611 110.188L214.593 110.236C214.593 110.177 214.593 110.12 214.614 110.063C214.402 110.76 214.301 111.475 214.313 112.192C214.286 113.422 214.524 114.878 215.473 115.739C217.117 117.22 218.15 117.036 218.15 117.036C218.15 117.036 217.361 118.885 216.385 119.256C216.348 119.27 216.314 119.288 216.283 119.308C216.283 119.271 216.265 119.235 216.259 119.2C216.15 119.292 216.067 119.401 216.015 119.52C215.963 119.639 215.944 119.765 215.957 119.89C215.888 120.704 216.542 122.019 217.162 122.631C217.393 122.809 217.675 122.939 217.985 123.01C217.936 123.037 217.884 123.062 217.831 123.083C217.723 123.13 217.611 123.172 217.497 123.209C217.338 123.261 217.171 123.296 217 123.31C216.669 123.317 216.345 123.379 216.048 123.493C215.751 123.606 215.488 123.768 215.277 123.968C214.674 124.583 214.289 125.422 215.488 126.16L219.84 127.343C219.84 127.343 227.28 128.093 226.889 126.775Z" fill="url(#paint0_linear)"/>
<path id="Vector_49" d="M198.3 128.961L194.083 127.778C192.92 127.04 193.291 126.2 193.878 125.583C194.08 125.386 194.334 125.226 194.622 125.112C194.91 124.999 195.225 124.935 195.547 124.926C195.833 124.897 196.107 124.82 196.351 124.701C196.619 124.587 196.848 124.425 197.02 124.228C197.328 123.845 197.493 123.402 197.499 122.948C197.499 122.948 202.126 121.884 203.391 122.948C203.617 123.141 203.805 123.359 203.951 123.594C204.371 124.329 204.577 125.128 204.553 125.933C204.553 125.933 204.788 127.087 205.171 128.407C205.553 129.727 198.3 128.961 198.3 128.961Z" fill="#2D293D"/>
<path id="Vector_50" d="M218.915 127.329L214.698 126.146C213.536 125.408 213.906 124.569 214.494 123.954C214.694 123.756 214.947 123.595 215.235 123.481C215.522 123.368 215.838 123.305 216.159 123.296C216.326 123.283 216.489 123.248 216.641 123.194C216.753 123.158 216.861 123.116 216.967 123.069C218.144 122.561 218.114 121.312 218.114 121.312C218.114 121.312 222.738 120.247 224.006 121.312C224.176 121.456 224.324 121.615 224.449 121.785C225.241 122.861 225.154 124.297 225.154 124.297C225.154 124.297 225.389 125.453 225.756 126.771C226.124 128.088 218.915 127.329 218.915 127.329Z" fill="#2D293D"/>
<path id="Vector_51" opacity="0.1" d="M203.394 122.946C203.62 123.139 203.808 123.356 203.954 123.592L197.026 124.223C197.334 123.84 197.5 123.397 197.505 122.944C197.505 122.944 202.129 121.882 203.394 122.946Z" fill="black"/>
<path id="Vector_52" opacity="0.1" d="M224.455 121.789V122.809C223.376 124.202 218.162 123.897 216.647 123.199C216.759 123.162 216.867 123.12 216.973 123.074C218.15 122.565 218.12 121.316 218.12 121.316C218.12 121.316 222.744 120.252 224.012 121.316C224.182 121.461 224.33 121.619 224.455 121.789V121.789Z" fill="black"/>
<path id="Vector_53" d="M225.277 117.395C224.955 117.839 224.68 118.304 224.455 118.784V122.438C223.274 123.963 217.15 123.455 216.322 122.622C215.494 121.79 214.629 119.623 215.56 119.247C216.491 118.871 217.268 117.026 217.268 117.026C217.268 117.026 216.265 117.211 214.674 115.73C213.084 114.249 213.557 110.967 213.852 110.181C214.147 109.396 213.852 106.759 213.852 106.759C213.852 106.759 213.912 104.907 213.442 104.306C212.972 103.706 211.969 100.286 211.969 100.286C211.969 100.286 211.969 99.129 211.144 98.5282C210.319 97.9275 209.789 95.567 209.789 95.567C209.306 94.9772 209.098 94.2743 209.201 93.5779C209.376 92.4213 208.198 91.1725 208.198 91.1725L206.195 86.1749L204.309 82.4285L203.249 84.6021C203.249 84.6021 202.948 89.6896 203.192 90.7515C203.436 91.8135 203.794 94.6375 203.794 94.6375C203.794 94.6375 202.617 96.4871 203.147 98.0599C203.677 99.6327 203.484 103.013 203.484 103.013C203.484 103.013 204.014 109.995 203.541 110.55C203.068 111.106 203.129 112.495 203.129 112.495C203.129 112.495 205.538 116.563 204.779 117.118C204.02 117.674 204.249 119.2 204.249 119.2C204.249 119.2 205.897 119.2 205.192 119.756C204.487 120.311 203.954 123.225 203.954 123.225L196.83 123.88C196.83 123.88 196.18 123.235 195.237 121.515C194.294 119.796 195.411 119.99 196.36 119.803C197.309 119.616 196.71 119.157 195.589 118.601C194.469 118.046 195.119 116.797 195.119 116.797C195.119 116.797 196.827 114.531 196.237 114.346C195.646 114.162 195.589 110.969 195.589 110.969C195.589 110.969 194.411 107.185 194.707 106.158C195.002 105.132 193.764 102.691 193.764 102.691L193.351 99.777C192.091 98.1235 191.631 96.1689 192.056 94.2709V89.7771C192.056 89.7771 190.405 81.0827 190.17 76.6882C190.02 73.8737 190.062 70.0327 190.11 67.6367C190.14 66.2933 190.17 65.4017 190.17 65.4017L215.617 63.3203C215.617 63.3203 215.593 64.2427 216.078 66.2886C216.34 67.386 216.747 68.8075 217.385 70.5837C219.211 75.6712 218.093 79.4626 218.093 79.4626L217.855 85.8935C217.855 85.8935 220.093 90.1934 219.623 91.6739C219.339 92.5531 219.18 93.4542 219.147 94.3608C219.147 94.3608 224.154 103.751 223.623 106.48C223.093 109.209 225.271 113.512 225.271 113.512C225.271 113.512 225.868 116.563 225.277 117.395Z" fill="#464353"/>
<path id="Vector_54" opacity="0.05" d="M210.728 93.2987L218.476 92.4874C218.476 92.4874 214.087 96.0044 210.728 93.2987Z" fill="black"/>
<path id="Vector_55" opacity="0.1" d="M217.355 86.5438C217.355 86.5438 217.62 88.6961 215.942 89.505C215.942 89.505 218.945 89.136 217.355 86.5438Z" fill="black"/>
<path id="Vector_56" opacity="0.1" d="M216.879 79.6991C216.879 79.6991 210.403 83.8854 208.048 83.5377C205.692 83.1901 216.879 79.6991 216.879 79.6991Z" fill="black"/>
<path id="Vector_57" opacity="0.1" d="M201.126 95.2618C201.126 95.2618 196.207 96.1393 196.059 97.6909C195.912 99.2424 201.126 95.2618 201.126 95.2618Z" fill="black"/>
<path id="Vector_58" opacity="0.05" d="M202.207 114.552C202.207 114.552 195.258 115.569 197.231 116.262C199.204 116.955 202.445 117.511 202.445 117.511C202.445 117.511 204.689 117.603 202.207 114.552Z" fill="black"/>
<g id="Group" opacity="0.05">
<path id="Vector_59" opacity="0.05" d="M195.827 117.364C195.652 117.279 195.505 117.163 195.395 117.026C195.284 116.89 195.215 116.735 195.192 116.574L195.119 116.671C195.119 116.671 194.472 117.92 195.592 118.474C195.719 118.537 195.842 118.601 195.954 118.663C196.162 118.632 196.384 118.608 196.598 118.566C197.547 118.381 196.948 117.92 195.827 117.364Z" fill="black"/>
<path id="Vector_60" opacity="0.05" d="M204.779 116.993C204.972 116.856 204.966 116.501 204.848 116.047C204.547 116.404 204.46 116.962 204.454 117.386C204.527 117.239 204.638 117.105 204.779 116.993V116.993Z" fill="black"/>
<path id="Vector_61" opacity="0.05" d="M203.71 93.9822C203.454 94.5293 203.296 95.1016 203.24 95.6827C203.374 95.2813 203.555 94.8902 203.779 94.5143L203.71 93.9822Z" fill="black"/>
<path id="Vector_62" opacity="0.05" d="M219.627 91.5556C219.673 91.3894 219.694 91.2195 219.69 91.0494C219.603 91.3948 219.542 91.714 219.497 91.9955C219.536 91.8512 219.578 91.714 219.627 91.5556Z" fill="black"/>
<path id="Vector_63" opacity="0.05" d="M203.544 110.427C203.641 110.314 203.695 109.93 203.719 109.398C203.501 109.81 203.386 110.251 203.379 110.697C203.42 110.602 203.475 110.511 203.544 110.427V110.427Z" fill="black"/>
<path id="Vector_64" opacity="0.05" d="M204.99 119.15C204.625 120.078 204.354 121.027 204.18 121.988L197.056 122.634C197.056 122.634 196.406 121.988 195.463 120.269C195.387 120.136 195.319 120 195.261 119.862C194.833 120.016 194.658 120.363 195.225 121.378C196.168 123.09 196.821 123.743 196.821 123.743L203.945 123.095C203.945 123.095 204.475 120.181 205.18 119.625C205.542 119.358 205.319 119.219 204.99 119.15Z" fill="black"/>
<path id="Vector_65" opacity="0.05" d="M195.592 110.843C195.592 110.843 195.649 114.034 196.24 114.219C196.541 113.691 196.737 113.19 196.472 113.107C195.869 112.922 195.824 109.729 195.824 109.729C195.824 109.729 194.646 105.945 194.942 104.919C195.237 103.892 193.999 101.451 193.999 101.451L193.586 98.5375C192.326 96.8839 191.866 94.9293 192.291 93.0314V88.5375C192.291 88.5375 190.64 79.8432 190.405 75.4487C190.255 72.6342 190.297 68.7931 190.345 66.3972C190.345 65.9644 190.363 65.5812 190.372 65.2572L190.17 65.2738C190.17 65.2738 190.137 66.1631 190.11 67.5088C190.062 69.9048 190.017 73.7458 190.17 76.558C190.405 80.9525 192.053 89.6492 192.053 89.6492V94.143C191.63 96.0405 192.091 97.994 193.351 99.6467L193.761 102.561C193.761 102.561 194.999 105.011 194.704 106.03C194.408 107.05 195.592 110.843 195.592 110.843Z" fill="black"/>
<path id="Vector_66" opacity="0.05" d="M216.563 121.387C215.984 120.73 215.598 119.979 215.433 119.19C214.707 119.706 215.542 121.707 216.337 122.501C217.159 123.334 223.286 123.843 224.47 122.315V121.435C222.864 122.672 217.34 122.175 216.563 121.387Z" fill="black"/>
<path id="Vector_67" opacity="0.05" d="M225.515 116.16C225.192 116.605 224.916 117.069 224.69 117.549V118.204C224.825 117.967 225.015 117.65 225.292 117.277C225.479 116.913 225.567 116.522 225.551 116.13C225.551 116.13 225.524 116.151 225.515 116.16Z" fill="black"/>
<path id="Vector_68" opacity="0.05" d="M216.925 116.891C217.149 116.535 217.343 116.167 217.506 115.791C217.506 115.791 216.503 115.976 214.912 114.495C213.756 113.419 213.689 111.385 213.855 110.056C213.554 110.843 213.087 114.126 214.677 115.607C215.717 116.574 216.503 116.83 216.925 116.891Z" fill="black"/>
<path id="Vector_69" opacity="0.05" d="M213.852 106.634C213.956 107.545 213.995 108.46 213.969 109.375C213.999 109.23 214.039 109.087 214.09 108.947C214.391 108.159 214.09 105.524 214.09 105.524C214.09 105.524 214.15 103.672 213.677 103.072C213.204 102.471 212.219 99.0461 212.219 99.0461C212.219 99.0461 212.219 97.8895 211.394 97.2887C210.569 96.688 210.039 94.3275 210.039 94.3275C209.552 93.7389 209.339 93.0362 209.436 92.3384C209.614 91.1819 208.436 89.9331 208.436 89.9331L206.433 84.9378L204.547 81.1914L203.484 83.3674C203.484 83.3674 203.484 83.6417 203.448 84.0769L204.309 82.3101L206.195 86.0495L208.198 91.0447C208.198 91.0447 209.376 92.2935 209.198 93.4501C209.101 94.1478 209.314 94.8505 209.801 95.4392C209.801 95.4392 210.331 97.8044 211.156 98.4004C211.981 98.9964 211.978 100.158 211.978 100.158C211.978 100.158 212.981 103.58 213.451 104.178C213.921 104.777 213.852 106.634 213.852 106.634Z" fill="black"/>
</g>
<path id="Vector_70" d="M218.798 21.5347L218.355 23.2235L218.382 23.9756L218.4 24.529L215.942 24.7277L215.668 24.328C215.159 23.6043 214.102 22.1331 213.762 21.9061C213.307 21.6081 212.496 16.9108 213.46 17.1899C214.054 17.3699 214.541 17.7162 214.828 18.162C214.828 18.162 219.669 18.5972 218.798 21.5347Z" fill="#FFCDD3"/>
<path id="Vector_71" opacity="0.1" d="M218.4 24.5291L215.942 24.7278L215.668 24.328C215.999 24.0325 216.45 23.8361 216.944 23.7723C217.438 23.7085 217.946 23.7812 218.379 23.978L218.4 24.5291Z" fill="black"/>
<path id="Vector_72" d="M219.021 25.4444L215.78 26.0333L215.711 25.6549L215.527 24.6355C215.527 24.6355 216.81 23.2921 218.665 24.2996L218.828 24.8176L219.021 25.4444Z" fill="#6C63FF"/>
<path id="Vector_73" d="M166.519 21.7194L163.058 23.1763L162.757 22.6654C162.428 22.1238 161.937 21.3078 161.802 21.0098C161.597 20.5604 160.154 19.9928 160.154 19.9928C156.539 17.2752 160.847 14.9384 160.847 14.9384C163.13 11.3316 165.666 16.1636 165.666 16.1636C165.666 16.1636 166.022 18.7109 165.772 18.8812C165.522 19.0515 165.522 19.7492 165.522 19.7492C165.852 20.2491 166.131 20.7687 166.356 21.3031C166.462 21.5609 166.519 21.7194 166.519 21.7194Z" fill="#FFCDD3"/>
<path id="Vector_74" opacity="0.1" d="M166.519 21.7194L163.058 23.1763L162.757 22.6654C163.245 22.3438 164.977 21.2463 165.546 21.2913C165.818 21.3179 166.092 21.3234 166.365 21.3078C166.462 21.5609 166.519 21.7194 166.519 21.7194Z" fill="black"/>
<path id="Vector_75" d="M166.871 22.5401L162.982 24.0443L162.904 23.3892L162.85 22.9351C162.85 22.9351 165.103 21.419 165.769 21.4781C166.105 21.5164 166.447 21.5164 166.784 21.4781L166.829 22.0268L166.871 22.5401Z" fill="#6C63FF"/>
<path id="Vector_76" d="M209.373 32.7528C209.373 32.7528 192.42 34.2547 195.589 33.4458C197.794 32.8805 198.671 31.7902 198.854 30.5603C199.005 29.5362 198.668 28.4317 198.225 27.4856C197.826 26.6463 197.322 25.8405 196.719 25.0802C196.719 25.0802 209.671 19.4842 207.084 24.5717C206.685 25.3412 206.437 26.1538 206.349 26.9818C206.271 27.8046 206.384 28.6317 206.683 29.4227C207.172 30.7061 208.103 31.8586 209.373 32.7528V32.7528Z" fill="#FFCDD3"/>
<path id="Vector_77" opacity="0.1" d="M207.075 24.5646C206.676 25.3341 206.428 26.1468 206.34 26.9747C205.12 27.7812 203.782 27.7268 202.062 27.7268C200.743 27.7268 199.279 27.9776 198.225 27.4785C197.826 26.6392 197.322 25.8334 196.719 25.0731C196.719 25.0731 209.668 19.4771 207.075 24.5646Z" fill="black"/>
<path id="Vector_78" d="M201.834 28.0816C205.705 28.0816 208.843 25.6175 208.843 22.5778C208.843 19.5382 205.705 17.0741 201.834 17.0741C197.962 17.0741 194.824 19.5382 194.824 22.5778C194.824 25.6175 197.962 28.0816 201.834 28.0816Z" fill="#FFCDD3"/>
<path id="Vector_79" opacity="0.1" d="M209.373 32.7528C209.373 32.7528 192.42 34.2547 195.589 33.4458C197.794 32.8805 198.671 31.7901 198.854 30.5603C199.698 29.8507 201.394 29.3233 202.469 29.0489C203.463 28.7864 204.537 28.7724 205.542 29.0087C205.937 29.1022 206.313 29.2391 206.659 29.4155C207.153 30.7037 208.092 31.859 209.373 32.7528V32.7528Z" fill="black"/>
<path id="Vector_80" opacity="0.1" d="M219.021 25.4445L215.78 26.0334L215.71 25.655C216.057 25.2807 216.543 24.9995 217.101 24.8497C217.659 24.6999 218.262 24.6887 218.828 24.8177L219.021 25.4445Z" fill="black"/>
<path id="Vector_81" opacity="0.1" d="M166.871 22.54L162.982 24.0443L162.904 23.3891C164.164 22.8573 165.473 22.4011 166.82 22.0244L166.871 22.54Z" fill="black"/>
<path id="Vector_82" opacity="0.1" d="M216.078 66.2932C209.508 67.1163 200.171 68.1665 198.689 67.8117C197.457 67.5184 193.529 67.5491 190.11 67.6414C190.14 66.298 190.17 65.4063 190.17 65.4063L215.617 63.325C215.617 63.325 215.593 64.2474 216.078 66.2932Z" fill="black"/>
<path id="Vector_83" d="M222.626 65.0822C222.626 65.0822 201.008 67.9961 198.689 67.4473C196.369 66.8986 184.456 67.4923 184.456 67.4923C179.095 70.3139 181.333 66.1512 181.333 66.1512C181.333 66.1512 180.863 63.9776 181.51 62.2203C181.945 60.9301 182.243 59.6137 182.399 58.2847C182.399 58.2847 182.282 55.508 182.929 54.8599C183.577 54.2119 184.345 49.588 184.345 49.588C184.345 49.588 184.932 46.4423 184.875 45.7493C184.818 45.0563 185.05 43.1121 185.05 43.1121L185.818 39.8742C181.399 39.413 167.968 32.9372 167.968 32.9372C167.32 30.7636 162.314 25.6761 162.314 25.6761C162.241 25.2483 162.102 24.829 161.901 24.4273C161.549 23.687 166.85 22.2064 166.85 22.2064C166.85 22.2064 170.796 25.9907 171.621 27.0172C172.447 28.0437 175.272 29.9311 175.272 29.9311C175.711 29.8956 176.155 29.941 176.567 30.0635L176.637 30.0801C177.584 30.3719 178.471 30.7703 179.272 31.2626C180.601 31.2379 181.889 31.6196 182.866 32.327C182.866 32.327 185.276 32.0479 185.694 32.3719C186.113 32.6959 188.167 32.3719 188.167 32.3719C188.167 32.3719 190.228 28.9495 191.583 29.9429C192.939 30.9363 198.689 30.889 198.689 30.889C199.454 30.0895 201.318 29.5172 202.484 29.2333C203.479 28.9719 204.552 28.9579 205.557 29.1931C205.99 29.2947 206.398 29.4548 206.761 29.6662L210.259 32.3483C210.259 32.3483 211.259 31.3289 211.141 31.0995C211.024 30.87 212.319 30.6832 212.319 30.6832C212.319 30.6832 214.027 30.2669 214.674 30.1274C215.322 29.9878 215.915 30.5389 215.97 30.5886C215.949 30.5294 215.506 29.406 215.668 28.5545C215.831 27.7031 214.961 26.8989 214.961 26.8989C217.021 22.9207 221.675 26.2509 221.675 26.2509C221.675 26.2509 222.205 28.4244 221.735 29.257C221.265 30.0895 222.205 31.8468 222.087 32.3104C221.97 32.774 222.325 33.5592 222.325 34.4391C222.325 35.3189 221.723 36.9816 221.382 37.7219C221.042 38.4622 218.202 40.1273 218.202 40.1273C218.202 40.1273 218.024 42.7645 216.786 44.29C215.548 45.8155 216.325 51.0331 216.325 51.0331C216.325 51.0331 217.503 55.1035 218.976 56.3996C220.449 57.6958 222.626 65.0822 222.626 65.0822Z" fill="#3F3D56"/>
<path id="Vector_84" opacity="0.1" d="M191.113 34.6473C191.113 34.6473 190.465 33.1218 189.875 32.9917C189.289 32.8224 188.718 32.6217 188.167 32.3909L188.547 31.8209C188.547 31.8209 190.758 32.294 191.113 32.8072C191.468 33.3204 191.113 34.6473 191.113 34.6473Z" fill="black"/>
<path id="Vector_85" opacity="0.1" d="M179.272 31.2723C179.155 31.7454 173.911 32.1498 173.911 32.1498L176.561 30.0637L176.628 30.0826C177.578 30.3761 178.469 30.7769 179.272 31.2723V31.2723Z" fill="black"/>
<path id="Vector_86" d="M164.103 25.2931C164.362 25.2931 164.573 25.1279 164.573 24.9241C164.573 24.7204 164.362 24.5552 164.103 24.5552C163.843 24.5552 163.633 24.7204 163.633 24.9241C163.633 25.1279 163.843 25.2931 164.103 25.2931Z" fill="#575988"/>
<path id="Vector_87" d="M164.705 26.0333C164.965 26.0333 165.175 25.8682 165.175 25.6644C165.175 25.4606 164.965 25.2954 164.705 25.2954C164.446 25.2954 164.235 25.4606 164.235 25.6644C164.235 25.8682 164.446 26.0333 164.705 26.0333Z" fill="#575988"/>
<path id="Vector_88" d="M165.296 26.7171C165.555 26.7171 165.766 26.5519 165.766 26.3481C165.766 26.1443 165.555 25.9791 165.296 25.9791C165.036 25.9791 164.826 26.1443 164.826 26.3481C164.826 26.5519 165.036 26.7171 165.296 26.7171Z" fill="#575988"/>
<path id="Vector_89" d="M165.913 27.4549C166.173 27.4549 166.383 27.2897 166.383 27.0859C166.383 26.8821 166.173 26.7169 165.913 26.7169C165.654 26.7169 165.443 26.8821 165.443 27.0859C165.443 27.2897 165.654 27.4549 165.913 27.4549Z" fill="#575988"/>
<path id="Vector_90" d="M221.44 27.346C221.651 27.346 221.822 27.2115 221.822 27.0456C221.822 26.8797 221.651 26.7452 221.44 26.7452C221.228 26.7452 221.057 26.8797 221.057 27.0456C221.057 27.2115 221.228 27.346 221.44 27.346Z" fill="#575988"/>
<path id="Vector_91" d="M221.5 28.0297C221.711 28.0297 221.882 27.8952 221.882 27.7293C221.882 27.5634 221.711 27.429 221.5 27.429C221.289 27.429 221.117 27.5634 221.117 27.7293C221.117 27.8952 221.289 28.0297 221.5 28.0297Z" fill="#575988"/>
<path id="Vector_92" d="M221.551 28.7107C221.762 28.7107 221.934 28.5763 221.934 28.4104C221.934 28.2445 221.762 28.11 221.551 28.11C221.34 28.11 221.169 28.2445 221.169 28.4104C221.169 28.5763 221.34 28.7107 221.551 28.7107Z" fill="#575988"/>
<path id="Vector_93" opacity="0.1" d="M191.134 47.1827C191.077 47.1283 204.358 60.2951 214.665 52.6864C214.674 52.6888 198.388 54.4224 191.134 47.1827Z" fill="black"/>
<path id="Vector_94" opacity="0.1" d="M183.513 54.0276C183.513 54.0276 191.46 54.1979 192.291 55.993V57.8615C192.065 57.9601 191.81 58.0118 191.551 58.0118C191.293 58.0118 191.038 57.9601 190.812 57.8615C190.011 57.5209 185.206 55.6052 183.513 56.5276V54.0276Z" fill="black"/>
<path id="Vector_95" d="M183.661 54.0276C183.661 54.0276 191.261 54.1908 192.056 55.9032V57.6818C191.839 57.7762 191.596 57.8258 191.348 57.8258C191.1 57.8258 190.857 57.7762 190.64 57.6818C189.875 57.3601 185.281 55.5318 183.661 56.4117V54.0276Z" fill="#3F3D56"/>
<path id="Vector_96" opacity="0.1" d="M187.851 40.4799C188.663 41.9553 189.697 43.3489 190.932 44.6307C192.276 46.0475 193.903 47.2833 195.752 48.2896C195.752 48.2896 187.984 41.336 187.851 40.4799Z" fill="black"/>
<path id="Vector_97" opacity="0.1" d="M185.251 33.2306C185.251 33.2306 186.577 37.7244 189.993 39.2499L185.251 33.2306Z" fill="black"/>
<path id="Vector_98" opacity="0.1" d="M183.218 33.6847C183.185 33.602 182.04 37.2325 187.622 39.25C187.622 39.25 185.251 38.6185 183.218 33.6847Z" fill="black"/>
<path id="Vector_99" opacity="0.1" d="M217.915 30.6715C217.828 30.6715 220.669 32.0906 221.443 32.7528C221.443 32.7528 219.593 30.5768 217.915 30.6715Z" fill="black"/>
<path id="Vector_100" d="M199.939 27.5661C199.94 27.6862 199.973 27.8048 200.035 27.9144C200.097 28.024 200.188 28.1222 200.301 28.2029C200.415 28.2836 200.548 28.345 200.693 28.3832C200.838 28.4213 200.991 28.4354 201.144 28.4246C203.279 28.5287 205.505 28.602 207.469 27.9516C207.838 27.8484 208.168 27.6763 208.433 27.4502C208.783 27.112 208.852 26.6531 208.993 26.2321C209.271 25.4091 209.861 24.6782 210.286 23.8953C211.004 22.5727 211.245 21.1202 210.981 19.6972C210.926 19.261 210.742 18.8408 210.445 18.4697C209.879 17.8334 208.846 17.5756 208.096 17.0695C207.346 16.5633 206.864 15.7899 205.987 15.4139C205.198 15.0685 204.231 15.1111 203.343 15.2294C201.595 15.4624 199.92 15.9562 198.409 16.684C197.9 16.9205 197.342 17.2114 196.758 17.1239C196.246 17.0482 195.872 16.71 195.553 16.393C195.142 17.1499 194.97 17.9734 195.05 18.7937C195.072 18.9141 195.067 19.0366 195.035 19.1556C194.961 19.2994 194.849 19.4292 194.707 19.5363C194.18 20.0094 193.851 20.7781 194.372 21.2653C194.598 21.4758 194.948 21.5917 195.168 21.8069C195.562 22.1924 195.43 22.753 195.421 23.2449C195.399 23.4167 195.454 23.5891 195.577 23.7322C195.691 23.8156 195.831 23.8744 195.982 23.903C196.134 23.9316 196.292 23.929 196.442 23.8953C196.74 23.8248 197.053 23.8015 197.363 23.8268C197.69 23.9101 197.972 24.0766 198.165 24.2998C199.138 25.2955 199.523 26.3788 199.939 27.5661Z" fill="#2D293D"/>
<g id="Group_2" opacity="0.1">
<path id="Vector_101" opacity="0.1" d="M208.683 27.0315C208.418 27.2576 208.088 27.4297 207.719 27.5329C205.743 28.1786 203.52 28.1053 201.394 28.006C201.165 28.0077 200.94 27.9681 200.734 27.8901C200.409 27.7411 200.285 27.4289 200.186 27.145C199.77 25.9625 199.388 24.8768 198.4 23.8906C198.209 23.6631 197.927 23.4923 197.598 23.4057C197.288 23.3828 196.976 23.406 196.677 23.4743C196.527 23.5082 196.369 23.5112 196.217 23.4831C196.066 23.4549 195.926 23.3965 195.812 23.3135C195.689 23.1704 195.634 22.998 195.656 22.8262C195.656 22.3296 195.797 21.7737 195.402 21.3882C195.183 21.173 194.833 21.0571 194.607 20.8442C194.46 20.6873 194.37 20.5019 194.346 20.3079C194.322 20.1138 194.365 19.9182 194.472 19.7421C194.095 20.2151 193.936 20.8088 194.372 21.2156C194.598 21.4261 194.948 21.542 195.168 21.7572C195.562 22.1451 195.43 22.7033 195.421 23.1952C195.397 23.3667 195.452 23.5392 195.574 23.6824C195.688 23.7662 195.828 23.8253 195.981 23.8539C196.133 23.8825 196.291 23.8797 196.442 23.8456C196.74 23.7751 197.053 23.7517 197.363 23.777C197.69 23.8604 197.972 24.0269 198.165 24.2501C199.15 25.2363 199.535 26.3196 199.951 27.5069C200 27.7991 200.185 28.0665 200.472 28.2567C200.678 28.3348 200.905 28.3737 201.135 28.3702C203.27 28.4743 205.496 28.5499 207.46 27.8972C207.829 27.7946 208.16 27.6224 208.424 27.3957C208.557 27.2625 208.659 27.112 208.725 26.9511C208.728 26.9818 208.707 27.0079 208.683 27.0315Z" fill="black"/>
<path id="Vector_102" opacity="0.1" d="M195.05 19.0113C195.145 18.9306 195.217 18.8357 195.264 18.7322C195.291 18.6125 195.291 18.49 195.264 18.3703C195.205 17.696 195.317 17.0192 195.592 16.3789L195.553 16.3434C195.141 17.0991 194.968 17.9221 195.05 18.7417C195.059 18.8314 195.059 18.9216 195.05 19.0113V19.0113Z" fill="black"/>
</g>
<path id="Vector_103" opacity="0.1" d="M198.689 30.9008C198.689 30.9008 207.445 31.8137 208.231 30.7802Z" fill="black"/>
<path id="Vector_104" opacity="0.1" d="M215.71 28.0555C215.71 28.0555 220.578 28.0555 221.647 29.4936Z" fill="black"/>
<path id="Vector_105" d="M242.944 155.81C241.5 156.824 239.624 157.374 237.687 157.352C237.193 157.352 236.51 157.426 236.507 157.813C236.518 157.927 236.568 158.037 236.651 158.13C237.262 158.93 238.227 159.526 239.362 159.803C240.416 160.053 241.543 160.011 242.642 159.966L245.85 159.836C246.453 159.81 247.055 159.786 247.658 159.727C248.26 159.668 248.917 159.571 249.546 159.49C251.093 159.318 252.657 159.261 254.218 159.32C254.634 159.332 255.122 159.32 255.369 159.084C255.616 158.847 255.489 158.395 255.396 158.04C255.203 157.31 255.396 156.543 255.218 155.81C254.917 154.523 253.498 153.537 251.944 153.071C250.498 152.641 247.938 152.146 246.57 152.865C245.127 153.62 244.245 154.881 242.944 155.81Z" fill="#3F3D56"/>
<path id="Vector_106" d="M246.13 112.703C246.414 113.76 247.718 114.569 247.754 115.647C247.787 116.513 247.001 117.239 246.435 117.979C245.901 118.746 245.451 119.547 245.088 120.373C244.022 122.524 242.699 124.591 241.136 126.546C240.383 127.492 239.54 128.502 239.712 129.602C239.832 130.116 240.063 130.61 240.395 131.063L242.654 134.587C243.149 135.291 243.536 136.038 243.808 136.813C244.004 137.482 244.022 138.175 244.136 138.857C244.492 141.018 245.784 143.194 245.019 145.29C244.953 145.47 244.718 145.687 244.534 145.562C245.281 146.657 245.88 147.759 245.823 149.001C245.793 149.651 245.54 150.33 245.844 150.936C245.974 151.189 246.2 151.425 246.197 151.697C246.197 151.877 246.091 152.045 246.067 152.22C246.004 152.719 246.588 153.135 247.194 153.294C247.799 153.452 248.459 153.44 249.07 153.584C250.245 153.861 251.085 154.656 252.082 155.207C253.105 155.76 254.311 156.068 255.552 156.094C255.73 156.109 255.908 156.081 256.065 156.014C256.153 155.953 256.224 155.878 256.273 155.794C256.322 155.71 256.347 155.619 256.348 155.526C256.402 155.085 256.318 154.639 256.101 154.229C255.885 153.819 255.543 153.457 255.107 153.175C254.915 153.081 254.757 152.951 254.646 152.797C254.59 152.66 254.575 152.515 254.604 152.374C254.785 150.435 254.741 148.487 254.471 146.555C254.349 145.943 254.31 145.322 254.354 144.703C254.417 144.188 254.616 143.677 254.543 143.164C254.471 142.65 254.137 142.182 253.941 141.688C253.592 140.808 253.688 139.862 253.64 138.942C253.58 137.343 253.113 135.772 252.649 134.211C252.465 133.599 252.263 132.958 251.712 132.504C251.242 132.118 250.483 131.749 250.661 131.236C250.759 131.047 250.906 130.875 251.091 130.732C251.31 130.517 251.47 130.27 251.562 130.005C251.654 129.739 251.676 129.462 251.628 129.19C251.826 129.23 252.035 129.214 252.22 129.146C252.406 129.078 252.555 128.961 252.643 128.816C256.312 127.456 259.269 124.737 260.589 121.721C260.667 121.497 260.786 121.283 260.944 121.087C261.285 120.713 261.875 120.553 262.399 120.347C264.044 119.696 265.179 118.478 266.222 117.286C266.824 116.596 267.426 115.881 267.697 115.068C267.84 114.541 267.908 114.004 267.899 113.466L267.993 110.687C268.013 110.504 267.991 110.32 267.926 110.143C267.837 109.978 267.707 109.829 267.544 109.704C266.542 108.872 265.226 108.314 263.791 108.114C262.827 107.979 261.842 108.005 260.866 107.941C258.974 107.818 257.107 107.357 255.215 107.468C252.242 107.641 249.594 109.259 248.194 111.326C247.703 112.054 247.185 112.688 246.13 112.703Z" fill="#464353"/>
<path id="Vector_107" d="M229.624 94.6326C229.664 95.0616 229.59 95.4925 229.407 95.898C229.175 96.2859 228.594 96.5886 228.084 96.4301C228.238 96.1581 227.831 95.8483 227.452 95.8814C227.265 95.9152 227.092 95.9841 226.946 96.0821C226.801 96.1802 226.688 96.3045 226.618 96.4443C226.366 96.8415 226.282 97.2913 226.377 97.7286C226.497 98.2726 226.898 98.7953 226.792 99.3416C226.708 99.7958 226.283 100.247 226.509 100.668C226.656 100.861 226.84 101.034 227.054 101.182C227.352 101.47 227.498 101.836 227.461 102.206C227.425 102.575 227.209 102.92 226.859 103.168L232.558 103.258C232.35 104.006 232.777 104.77 233.265 105.434C234.632 107.262 236.519 108.815 238.779 109.974C241.039 111.132 243.61 111.864 246.29 112.111C246.145 112.178 246.021 112.269 245.926 112.377C245.832 112.486 245.769 112.61 245.743 112.74C245.716 112.87 245.727 113.003 245.775 113.13C245.822 113.256 245.904 113.373 246.016 113.471C246.48 113.833 247.266 113.788 247.847 113.554C248.429 113.32 248.884 112.932 249.414 112.632C250.35 112.111 251.491 111.869 252.634 111.95C253.348 112.005 254.04 112.187 254.757 112.215C256.866 112.303 258.673 111.111 260.703 110.623C262.182 110.266 263.86 110.266 265.101 109.54C265.637 109.228 266.077 108.715 265.921 108.209C265.791 107.918 265.586 107.651 265.318 107.426C264.604 106.7 264.182 105.827 263.67 105.001C262.656 103.367 261.259 101.897 259.553 100.668C258.265 99.7846 256.9 98.9721 255.468 98.2371C255.122 98.0365 254.753 97.8615 254.366 97.7144C253.866 97.5418 253.312 97.459 252.86 97.2414C252.191 96.9103 251.805 96.3261 251.29 95.8554C250.161 94.8195 248.426 94.344 247.034 93.5304C246.1 92.9841 245.275 92.2651 244.16 92.0025C243.618 91.8725 243.043 91.863 242.501 91.7353C241.269 91.442 240.371 90.5834 239.163 90.2358C238.208 89.9614 237.154 90.0324 236.151 89.9354C235.02 89.8259 233.94 89.5029 233.003 88.994C232.702 88.801 232.363 88.6462 232 88.5352C230.473 88.171 230.35 90.4037 230.193 91.1771C229.991 92.3266 229.624 93.4689 229.624 94.6326Z" fill="#6C63FF"/>
<path id="Vector_108" d="M231.112 102.121C231.368 104.301 229.271 106.414 229.883 108.549C230.012 109.003 230.262 109.436 230.353 109.897C230.609 111.163 229.645 112.362 228.726 113.422L220.834 122.516C220.517 122.915 220.139 123.282 219.708 123.608C218.202 124.661 215.936 124.554 213.954 124.867C212.562 125.091 211.247 125.548 210.099 126.205C210.047 126.237 210.013 126.283 210.004 126.334C209.995 126.384 210.012 126.436 210.051 126.477C210.378 126.827 210.811 127.107 211.312 127.292C211.812 127.476 212.363 127.56 212.915 127.534C213.123 127.747 212.915 128.064 212.629 128.218C212.207 128.455 211.623 128.509 211.539 129.074C211.51 129.271 211.561 129.469 211.683 129.642C212.002 130.023 212.496 130.292 213.063 130.394C215.795 131.051 218.747 129.897 220.792 128.329C222.837 126.761 224.304 124.781 226.31 123.187C227.422 122.303 228.684 121.548 229.829 120.692C232.112 118.982 233.889 116.908 235.6 114.829C236.115 114.202 236.636 113.559 236.85 112.833C237.064 112.106 236.964 111.371 237.208 110.668C237.528 109.748 238.386 109.013 239.1 108.242C240.501 106.728 241.437 104.876 241.251 103.01C241.064 101.144 239.594 99.3038 237.353 98.67C236.658 98.4531 235.893 98.4166 235.169 98.5659C234.25 98.7882 233.573 99.3843 232.946 99.9566L231.44 101.314C231.073 101.615 230.786 101.969 230.594 102.357C230.497 102.553 230.473 102.766 230.527 102.972C230.58 103.177 230.708 103.366 230.895 103.516" fill="#FBBEBE"/>
<path id="Vector_109" d="M235.112 93.1758C234.076 93.2231 232.934 93.3035 232.202 93.8854C231.895 94.1525 231.647 94.4579 231.467 94.7889C230.756 95.9265 230.063 97.1162 230.012 98.3839C229.97 99.3962 230.344 100.387 230.539 101.388C230.702 102.22 230.289 103.069 230.211 103.911C231.497 103.602 233.196 103.181 234.362 102.658C235.157 102.301 235.925 101.894 236.793 101.667C238.031 101.343 240.106 101.903 241.284 102.353C241.347 101.705 240.727 100.574 240.793 99.9237C240.802 99.6499 240.864 99.3787 240.977 99.1195C241.153 98.8453 241.362 98.5848 241.6 98.3414C242.048 97.769 242.255 97.0999 242.189 96.43C242.124 95.76 241.79 95.1234 241.236 94.6115C240.19 93.6891 238.555 93.3438 236.995 93.1924C236.012 93.1029 235.022 93.076 234.034 93.112" fill="#6C63FF"/>
</g>
<defs>
<linearGradient id="paint0_linear" x1="192.243" y1="129.181" x2="192.243" y2="13.6044" gradientUnits="userSpaceOnUse">
<stop stop-color="#808080" stop-opacity="0.25"/>
<stop offset="0.54" stop-color="#808080" stop-opacity="0.12"/>
<stop offset="1" stop-color="#808080" stop-opacity="0.1"/>
</linearGradient>
</defs>
</svg>
