<svg width="100" height="200" viewBox="0 0 149 224" fill="none" xmlns="http://www.w3.org/2000/svg">
<g id="person">
<path id="Vector" d="M57.1459 188.826L56.4309 176.588L103.297 168.003L104.353 186.067L57.1459 188.826Z" fill="#FFB8B8"/>
<path id="Vector_2" d="M59.4163 167.641L60.7961 191.245L45.9346 192.113L43.6862 153.648C45.6378 153.534 47.5928 153.806 49.4395 154.447C51.2863 155.089 52.9886 156.087 54.4493 157.387C55.91 158.686 57.1004 160.261 57.9526 162.02C58.8049 163.779 59.3023 165.689 59.4163 167.641Z" fill="#2F2E41"/>
<path id="Vector_3" d="M77.5299 188.714L69.7449 198.185L29.5089 172.666L40.9979 158.688L77.5299 188.714Z" fill="#FFB8B8"/>
<path id="Vector_4" d="M61.4784 202.726L76.4916 184.46L87.9922 193.913L63.5263 223.679C62.016 222.438 60.7651 220.911 59.8448 219.187C58.9245 217.462 58.353 215.573 58.1628 213.627C57.9726 211.681 58.1676 209.717 58.7365 207.847C59.3054 205.976 60.2371 204.236 61.4784 202.726V202.726Z" fill="#2F2E41"/>
<path id="Vector_5" d="M55.1276 144.67L49.8078 169.749C49.6853 170.326 49.6922 170.924 49.8278 171.498C49.9635 172.073 50.2246 172.61 50.5925 173.072C50.9604 173.533 51.4258 173.908 51.9555 174.168C52.4852 174.429 53.066 174.569 53.6563 174.578L105.954 175.422C106.544 175.431 107.128 175.31 107.665 175.068C108.203 174.825 108.68 174.467 109.062 174.018C109.445 173.569 109.723 173.042 109.878 172.473C110.033 171.904 110.06 171.308 109.958 170.727L105.383 144.805C105.22 143.879 104.735 143.04 104.015 142.436C103.295 141.831 102.384 141.5 101.444 141.5H59.0405C58.1238 141.5 57.2349 141.815 56.5226 142.392C55.8103 142.969 55.3178 143.773 55.1276 144.67V144.67Z" fill="#2F2E41"/>
<path id="Vector_6" d="M63.8 153.5C63.8 153.5 12.8 121.5 2.8 138.5C-2.2 147 0.3 155.25 4.05 161.375C7.53003 166.952 12.5255 171.423 18.4525 174.266L59.8 194.5L74.8 178.5L64.8 169.5L63.8 153.5Z" fill="#2F2E41"/>
<path id="Vector_7" d="M89.8 148.5C89.8 148.5 155.8 129.5 142.8 165.5C129.8 201.5 80.8 187.5 80.8 187.5L75.8 172.5L92.8 160.5L89.8 148.5Z" fill="#2F2E41"/>
<path id="Vector_8" d="M84.4255 152.469C74.2196 152.314 64.066 150.977 54.1684 148.482L53.8759 148.402L40.1704 85.3575C38.9374 79.8175 39.7757 74.0178 42.527 69.0537C45.2782 64.0896 49.7519 60.3048 55.1032 58.4141C71.633 52.4833 89.6494 52.1235 106.403 57.3896H106.403C112.025 59.2012 116.756 63.0657 119.654 68.212C122.552 73.3583 123.404 79.4082 122.038 85.1543L106.73 148.35L106.514 148.452C100.152 151.466 92.1969 152.469 84.4255 152.469Z" fill="#CCCCCC"/>
<path id="Vector_9" d="M66.0153 157.366C66.5131 155.983 67.308 154.726 68.3443 153.683C69.3805 152.64 70.6327 151.837 72.0128 151.331C73.3929 150.824 74.8672 150.627 76.332 150.751C77.7968 150.876 79.2163 151.321 80.4907 152.054L107.477 128.63L109.919 147.038L83.9176 166.46C82.5445 168.519 80.4636 170.003 78.0694 170.631C75.6752 171.258 73.134 170.986 70.9273 169.865C68.7206 168.744 67.0017 166.852 66.0964 164.549C65.1911 162.245 65.1623 159.69 66.0153 157.366V157.366Z" fill="#FFB8B8"/>
<path id="Vector_10" d="M91.7531 162.476C91.314 162.475 90.8773 162.411 90.4567 162.285C89.7739 162.086 89.1486 161.727 88.6332 161.237C88.1178 160.747 87.7273 160.141 87.4943 159.469L84.237 150.24C83.9321 149.387 83.8933 148.462 84.1258 147.587C84.3584 146.711 84.8513 145.927 85.5392 145.338L122.308 123.264L107.814 58.6025L108.183 58.5137C108.332 58.4766 123.183 55.0967 129.268 71.3242C133.53 82.6895 149.3 107.401 148.187 124.101C147.976 127.441 146.645 130.612 144.409 133.103C142.173 135.594 139.163 137.259 135.865 137.828L94.477 161.541C93.6975 162.145 92.7395 162.474 91.7531 162.476Z" fill="#CCCCCC"/>
<path id="Vector_11" d="M95.877 155.173C95.3793 153.789 94.5843 152.532 93.5481 151.489C92.5119 150.446 91.2596 149.644 89.8795 149.137C88.4995 148.631 87.0251 148.433 85.5603 148.558C84.0956 148.683 82.676 149.128 81.4017 149.86L54.4152 126.436L51.9735 144.844L77.9747 164.267C79.3479 166.326 81.4287 167.81 83.8229 168.437C86.2171 169.065 88.7584 168.792 90.9651 167.671C93.1717 166.55 94.8906 164.659 95.7959 162.355C96.7012 160.052 96.7301 157.496 95.877 155.173V155.173Z" fill="#FFB8B8"/>
<path id="Vector_12" d="M72.8469 162.476C71.8605 162.474 70.9025 162.145 70.123 161.541L25.7348 139.828C22.4366 139.259 19.4266 137.594 17.1909 135.103C14.9552 132.612 13.6242 129.441 13.4128 126.101C12.3002 109.401 31.0703 82.6895 35.3317 71.3242C41.4167 55.0967 56.2673 58.4756 56.4174 58.5137L56.7861 58.6026L39.2919 125.264L79.0607 145.338C79.7487 145.927 80.2416 146.711 80.4741 147.587C80.7067 148.462 80.6679 149.387 80.363 150.24L77.1056 159.469C76.8727 160.141 76.4821 160.747 75.9667 161.237C75.4513 161.727 74.826 162.086 74.1432 162.285C73.7226 162.411 73.2859 162.475 72.8469 162.476V162.476Z" fill="#CCCCCC"/>
<path id="Vector_13" d="M125.8 172.5H36.8C34.9442 172.498 33.1649 171.76 31.8527 170.447C30.5404 169.135 29.8022 167.356 29.8 165.5V116.5C29.8022 114.644 30.5404 112.865 31.8527 111.553C33.1649 110.24 34.9442 109.502 36.8 109.5H125.8C127.656 109.502 129.435 110.24 130.747 111.553C132.06 112.865 132.798 114.644 132.8 116.5V165.5C132.798 167.356 132.06 169.135 130.747 170.447C129.435 171.76 127.656 172.498 125.8 172.5V172.5Z" fill="#6C63FF"/>
<path id="Vector_14" d="M81.3 147C84.6137 147 87.3 144.314 87.3 141C87.3 137.686 84.6137 135 81.3 135C77.9863 135 75.3 137.686 75.3 141C75.3 144.314 77.9863 147 81.3 147Z" fill="white"/>
<g id="head">
<path id="Vector_15" d="M81.7409 54C96.6526 54 108.741 41.9117 108.741 27C108.741 12.0883 96.6526 0 81.7409 0C66.8292 0 54.7409 12.0883 54.7409 27C54.7409 41.9117 66.8292 54 81.7409 54Z" fill="#2F2E41"/>
<path id="Vector_16" d="M82.0795 57.7264C95.6442 57.7264 106.641 46.73 106.641 33.1653C106.641 19.6007 95.6442 8.60432 82.0795 8.60432C68.5148 8.60432 57.5185 19.6007 57.5185 33.1653C57.5185 46.73 68.5148 57.7264 82.0795 57.7264Z" fill="#FFB8B8"/>
<path id="Vector_17" d="M57.2725 32.1657C55.8168 28.4734 58.2051 24.0733 61.7482 22.2847C65.2912 20.4961 69.5666 20.8363 73.3564 22.0151C76.5412 23.0057 79.5262 24.5409 82.6333 25.7535C85.6965 27.1109 89.0427 27.7069 92.3862 27.4904C95.7004 27.1161 98.9991 25.2576 100.355 22.2104C101.761 19.0518 100.805 15.1973 98.6401 12.5016C96.3368 9.89561 93.3556 7.97961 90.0283 6.96682C82.7208 4.39239 74.2801 4.31713 67.496 8.05932C60.712 11.8015 56.1016 19.7695 57.5038 27.3893" fill="#2F2E41"/>
</g>
</g>
</svg>
