<svg width="150" height="150" viewBox="0 0 150 150" fill="none" xmlns="http://www.w3.org/2000/svg">
<g id="profile">
<g id="Group 1">
<path id="Vector" d="M150 75C150.012 84.6347 148.162 94.1809 144.552 103.114C144.544 103.134 144.537 103.152 144.528 103.172V103.174C142.102 109.155 138.91 114.797 135.033 119.958C134.285 120.956 133.514 121.934 132.719 122.891C132.428 123.242 132.133 123.59 131.838 123.934C130.318 125.698 128.719 127.388 127.041 129.004C126.65 129.382 126.255 129.754 125.856 130.123C125.763 130.209 125.669 130.294 125.576 130.38C123.621 132.166 121.573 133.848 119.441 135.417C118.01 136.476 116.541 137.481 115.034 138.433C114.703 138.643 114.371 138.851 114.035 139.054C113.454 139.409 112.868 139.756 112.276 140.095C111.504 140.538 110.722 140.968 109.93 141.384C109.611 141.555 109.289 141.719 108.967 141.883C108.497 142.125 108.024 142.358 107.547 142.587C107.465 142.626 107.383 142.666 107.301 142.704C106.99 142.855 106.675 143.001 106.36 143.148C102.257 145.041 97.9889 146.555 93.6102 147.672C93.5858 147.679 93.5636 147.683 93.5392 147.69C93.253 147.763 92.9645 147.834 92.676 147.903C92.4608 147.956 92.2433 148.007 92.0259 148.056C91.9991 148.065 91.9716 148.072 91.9438 148.076C91.4978 148.18 91.0518 148.28 90.6013 148.371C90.3484 148.425 90.0954 148.478 89.8425 148.529C89.6894 148.562 89.534 148.591 89.3809 148.62C89.1879 148.658 88.9971 148.693 88.804 148.731C88.6975 148.753 88.591 148.771 88.4823 148.788C88.2382 148.833 87.9941 148.877 87.7522 148.919C87.3395 148.99 86.9223 149.059 86.5074 149.121C86.2056 149.168 85.9061 149.212 85.6043 149.254C85.2493 149.305 84.8942 149.352 84.537 149.396C84.4394 149.412 84.3417 149.423 84.2441 149.434C84.1176 149.45 83.9912 149.465 83.8647 149.481C83.6095 149.512 83.3543 149.541 83.0969 149.567C82.9638 149.583 82.8329 149.596 82.6997 149.609C82.4468 149.636 82.1938 149.661 81.9409 149.683C81.6147 149.714 81.2885 149.74 80.9601 149.767C80.5607 149.798 80.1635 149.827 79.7619 149.851C79.5045 149.867 79.2471 149.882 78.9874 149.896C78.3262 149.931 77.665 149.956 76.9993 149.973C76.6687 149.982 76.3358 149.989 76.003 149.993H75.9963C75.6657 149.998 75.3329 150 75 150C71.627 150.001 68.2577 149.776 64.915 149.325C62.4631 148.997 60.0503 148.552 57.6768 147.99C57.5814 147.967 57.486 147.945 57.3928 147.921C57.1532 147.865 56.9157 147.805 56.6783 147.746C56.4675 147.692 56.2589 147.637 56.0481 147.581C50.6154 146.168 45.3601 144.144 40.3825 141.548C40.358 141.535 40.3314 141.521 40.307 141.508C40.1628 141.433 40.0208 141.359 39.8788 141.282C39.5659 141.118 39.2545 140.95 38.9446 140.78C37.1805 139.811 35.4616 138.774 33.7878 137.669C33.3573 137.388 32.9313 137.101 32.5097 136.811C32.3743 136.717 32.2412 136.624 32.1081 136.531C31.9683 136.433 31.8285 136.336 31.6909 136.238C31.3248 135.979 30.9609 135.716 30.5992 135.45C29.1014 134.35 27.648 133.195 26.239 131.987C21.2447 127.709 16.8315 122.797 13.1118 117.375C11.8137 115.484 10.6022 113.533 9.47716 111.521C3.24263 100.36 -0.020641 87.7845 9.82396e-05 75C9.82396e-05 33.5791 33.5792 0 75 0C116.421 0 150 33.5791 150 75Z" fill="#F5F5F5"/>
<path id="Vector_2" opacity="0.2" d="M99.9158 50.2636C101.332 58.2512 98.2062 65.4838 98.2062 65.4838C98.2062 65.4838 92.7854 59.766 91.3696 51.7784C89.9538 43.7908 93.0792 36.5582 93.0792 36.5582C93.0792 36.5582 98.5 42.276 99.9158 50.2636Z" fill="black"/>
<path id="Vector_3" d="M97.6246 118.995L97.8954 119.135C97.8687 119.423 97.8044 119.601 97.6246 118.995Z" fill="#2F2E41"/>
<path id="Vector_4" d="M97.9819 119.088C97.9841 119.119 97.9885 119.152 97.9908 119.183L97.8953 119.135C97.8976 119.106 97.8998 119.075 97.9042 119.044C97.9264 118.655 97.8998 118.196 97.9819 119.088Z" fill="#2F2E41"/>
<path id="Vector_5" d="M69.1608 108.473C89.2844 108.473 105.598 92.1592 105.598 72.0357C105.598 51.9121 89.2844 35.5988 69.1608 35.5988C49.0373 35.5988 32.7239 51.9121 32.7239 72.0357C32.7239 92.1592 49.0373 108.473 69.1608 108.473Z" fill="#2F2E41"/>
<path id="Vector_6" d="M72.1603 106.987C84.347 106.987 94.2263 97.1082 94.2263 84.9214C94.2263 72.7347 84.347 62.8553 72.1603 62.8553C59.9735 62.8553 50.0942 72.7347 50.0942 84.9214C50.0942 97.1082 59.9735 106.987 72.1603 106.987Z" fill="#FDB797"/>
<path id="Vector_7" d="M122.545 127.214L122.519 127.22L117.386 128.452L106.7 131.017L105.242 131.368L88.9908 135.266L87.6106 135.599L48.1824 145.061C45.517 144.041 42.9128 142.868 40.3828 141.548C40.3584 141.535 40.3318 141.521 40.3074 141.508C40.1632 141.433 40.0211 141.359 39.8791 141.282C39.5663 141.118 39.2549 140.95 38.945 140.78C37.1809 139.811 35.462 138.774 33.7882 137.669C33.3577 137.388 32.9317 137.101 32.5101 136.811C32.3747 136.717 32.2416 136.624 32.1084 136.531C31.9686 136.433 31.8288 136.336 31.6913 136.238C31.3251 135.979 30.9612 135.716 30.5995 135.45C34.4294 128.49 43.5492 123.863 52.6691 121.331C59.5522 119.419 61.0655 113.132 60.9346 107.538C60.9013 106.263 60.7931 104.99 60.6106 103.726C60.3326 101.716 59.8903 99.7313 59.2881 97.7929L81.3554 98.5296L83.6321 103.775C83.5698 104.351 83.5497 104.931 83.5721 105.51C83.7452 109.813 86.4013 112.595 89.6787 114.391C90.1047 114.624 90.5418 114.841 90.9856 115.043C96.3599 117.486 102.686 117.652 102.686 117.652C104.612 117.439 106.558 117.476 108.475 117.761C108.941 117.832 109.394 117.917 109.833 118.016C112.398 118.59 114.822 119.674 116.958 121.205C117.774 121.785 118.546 122.425 119.268 123.12C120.551 124.32 121.655 125.699 122.545 127.214Z" fill="#FDB797"/>
<path id="Vector_8" d="M125.856 130.123C125.763 130.209 125.67 130.294 125.577 130.38C123.622 132.166 121.574 133.848 119.441 135.417C118.01 136.476 116.541 137.481 115.034 138.433C114.704 138.644 114.371 138.851 114.036 139.054C113.455 139.409 112.868 139.756 112.276 140.095C111.504 140.538 110.722 140.968 109.931 141.384C109.611 141.555 109.29 141.719 108.968 141.883C108.497 142.125 108.025 142.358 107.548 142.587C107.466 142.626 107.384 142.666 107.301 142.704L106.363 141.925L117.386 128.452L119.603 125.743C119.603 125.743 120.489 125.743 122.519 127.22C123.641 128.056 124.702 128.971 125.692 129.959C125.745 130.014 125.801 130.067 125.856 130.123Z" fill="#D0CDE1"/>
<path id="Vector_9" d="M125.701 129.972C125.671 130.111 125.629 130.248 125.577 130.38C123.622 132.166 121.574 133.848 119.441 135.417C117.591 136.084 115.671 136.54 113.719 136.777C113.719 136.777 113.885 137.612 114.036 139.054C113.454 139.409 112.868 139.756 112.276 140.095C111.504 140.538 110.722 140.968 109.931 141.384C109.611 141.555 109.29 141.719 108.968 141.883C108.497 142.125 108.025 142.358 107.548 142.587C107.466 142.626 107.384 142.666 107.301 142.704C106.991 142.855 106.676 143.001 106.361 143.148C102.257 145.041 97.9893 146.555 93.6106 147.672C93.5862 147.679 93.564 147.683 93.5396 147.69C93.2533 147.763 92.9649 147.834 92.6764 147.903C92.4612 147.956 92.2437 148.007 92.0263 148.056C91.9994 148.065 91.972 148.072 91.9442 148.076C91.4982 148.18 91.0522 148.28 90.6017 148.371C90.3488 148.425 90.0958 148.478 89.8428 148.529C89.6897 148.562 89.5344 148.591 89.3813 148.62C89.1883 148.658 88.9974 148.693 88.8044 148.731C88.6979 148.753 88.5914 148.771 88.4826 148.788C88.2386 148.833 87.9945 148.877 87.7526 148.919C87.3399 148.99 86.9227 149.059 86.5078 149.121C86.206 149.168 85.9064 149.212 85.6047 149.254C85.2496 149.305 84.8946 149.352 84.5374 149.396C84.4397 149.412 84.3421 149.423 84.2445 149.434C84.118 149.45 83.9915 149.465 83.865 149.481C83.6099 149.512 83.3547 149.541 83.0973 149.567C82.9641 149.583 82.8332 149.596 82.7001 149.609C82.4471 149.636 82.1942 149.66 81.9412 149.683C81.615 149.714 81.2888 149.74 80.9604 149.767C80.561 149.798 80.1639 149.827 79.7622 149.851C79.5048 149.867 79.2474 149.882 78.9878 149.896C78.3266 149.931 77.6653 149.956 76.9997 149.973C76.669 149.982 76.3362 149.989 76.0034 149.993H75.9967C75.6661 149.998 75.3332 150 75.0004 150C71.6274 150.001 68.2581 149.776 64.9153 149.325C62.4634 148.997 60.0507 148.552 57.6772 147.99C57.5818 147.967 57.4864 147.945 57.3932 147.921C57.1535 147.865 56.9161 147.805 56.6787 147.746C56.4679 147.692 56.2593 147.637 56.0485 147.581C50.6158 146.168 45.3604 144.144 40.3828 141.548C40.3584 141.535 40.3318 141.521 40.3074 141.508C40.1632 141.433 40.0211 141.359 39.8791 141.282C52.0589 138.444 71.3059 133.968 88.0078 130.134C88.476 130.027 88.9412 129.921 89.4035 129.814C95.5721 128.399 101.35 127.081 106.239 125.978C106.744 125.865 107.24 125.754 107.725 125.645C112.977 124.464 117.056 123.568 119.268 123.12C119.864 122.984 120.467 122.878 121.074 122.802L125.692 129.959L125.701 129.972Z" fill="#6C63FF"/>
<path id="Vector_10" d="M35.8249 56.5306C41.8192 56.5306 46.6785 51.6713 46.6785 45.6771C46.6785 39.6828 41.8192 34.8235 35.8249 34.8235C29.8307 34.8235 24.9714 39.6828 24.9714 45.6771C24.9714 51.6713 29.8307 56.5306 35.8249 56.5306Z" fill="#2F2E41"/>
<path id="Vector_11" d="M102.497 53.4296C108.491 53.4296 113.35 48.5703 113.35 42.5761C113.35 36.5818 108.491 31.7225 102.497 31.7225C96.5024 31.7225 91.6432 36.5818 91.6432 42.5761C91.6432 48.5703 96.5024 53.4296 102.497 53.4296Z" fill="#2F2E41"/>
<path id="Vector_12" d="M90.8679 37.9246C90.8682 35.2476 91.8579 32.6653 93.6466 30.6737C95.4354 28.6822 97.897 27.4219 100.559 27.1352C99.0428 26.9696 97.5092 27.1253 96.0577 27.592C94.6061 28.0587 93.2692 28.826 92.134 29.844C90.9989 30.8619 90.0909 32.1076 89.4693 33.4999C88.8477 34.8922 88.5265 36.3998 88.5265 37.9246C88.5265 39.4493 88.8477 40.9569 89.4693 42.3492C90.0909 43.7415 90.9989 44.9872 92.134 46.0051C93.2692 47.0231 94.6061 47.7904 96.0577 48.2571C97.5092 48.7238 99.0428 48.8795 100.559 48.7139C97.897 48.4272 95.4354 47.1669 93.6466 45.1754C91.8579 43.1838 90.8683 40.6015 90.8679 37.9246V37.9246Z" fill="#2F2E41"/>
<path id="Vector_13" d="M23.6978 54.4563C21.8246 52.544 20.7242 50.0068 20.608 47.3324C20.4919 44.658 21.3682 42.035 23.0686 39.9675C21.8701 40.9101 20.8836 42.0945 20.1734 43.4438C19.4633 44.7931 19.0454 46.2768 18.9469 47.7984C18.8485 49.3199 19.0718 50.8451 19.6022 52.2746C20.1326 53.7041 20.9583 55.0059 22.0254 56.0949C23.0925 57.184 24.377 58.0361 25.7954 58.5955C27.2138 59.155 28.7342 59.4093 30.2574 59.3419C31.7807 59.2746 33.2726 58.887 34.6361 58.2045C35.9995 57.522 37.2039 56.5599 38.1707 55.3808C36.0689 57.0387 33.4286 57.8613 30.7571 57.6907C28.0857 57.52 25.5715 56.3681 23.6978 54.4563V54.4563Z" fill="#2F2E41"/>
<path id="Vector_14" d="M69.1608 54.9801C56.316 54.9801 45.9032 61.0542 45.9032 68.547C45.9032 71.8996 47.9963 74.9637 51.4512 77.3308L55.9286 74.0867L54.711 79.169C55.2162 79.4031 55.7321 79.6297 56.2701 79.8392L62.9588 72.0357V81.6223C65.0098 81.9509 67.0837 82.1153 69.1608 82.114C82.0056 82.114 92.4184 76.0398 92.4184 68.547C92.4184 61.0542 82.0056 54.9801 69.1608 54.9801Z" fill="#2F2E41"/>
<path id="Vector_15" d="M91.6431 42.576C91.6431 42.576 89.9575 50.3286 100.491 53.4296L91.6431 42.576Z" fill="#2F2E41"/>
<path id="Vector_16" d="M45.9032 43.9871C45.9032 43.9871 49.7795 52.6544 38.1507 56.5307L45.9032 43.9871Z" fill="#2F2E41"/>
<path id="Vector_17" d="M51.6517 93.5845C52.6297 93.3107 52.8898 91.186 52.2327 88.8389C51.5757 86.4918 50.2502 84.811 49.2723 85.0848C48.2943 85.3586 48.0342 87.4832 48.6912 89.8303C49.3483 92.1775 50.6738 93.8582 51.6517 93.5845Z" fill="#FDB797"/>
<path id="Vector_18" d="M96.4294 85.7701C96.5793 83.3373 95.879 81.3146 94.8654 81.2522C93.8517 81.1897 92.9085 83.1113 92.7587 85.544C92.6089 87.9767 93.3091 89.9995 94.3228 90.0619C95.3364 90.1243 96.2796 88.2028 96.4294 85.7701Z" fill="#FDB797"/>
</g>
</g>
</svg>
