<svg width="200" height="200" viewBox="0 0 105 127" fill="none" xmlns="http://www.w3.org/2000/svg">
<g id="logo">
<g id="P">
<path id="Rectangle 4" d="M15.6089 124.118L8.09037 36.0015C6.79426 20.8112 23.1345 10.3021 36.3575 17.8218L44.1709 22.2651C59.2666 30.8497 52.5754 53.9956 35.1635 53.4235V53.4235C25.9613 53.1211 18.1987 60.3337 17.8251 69.5333L15.6089 124.118Z" fill="#4664D1"/>
<path id="Rectangle 5" d="M29.4706 47.8847C23.6924 52.1253 15.6979 48.3302 15.6979 41.3467L15.6979 34.5582C15.6978 25.9589 25.0077 20.1489 32.6896 23.9541L41.2857 28.2122C50.553 32.8027 45.905 46.846 35.4389 46.1398V46.1398C33.3326 45.9977 31.198 46.617 29.4706 47.8847V47.8847Z" fill="white"/>
</g>
<g id="Clock-settings">
<g id="Settings">
<path id="Vector" d="M84.8972 86.7935L89.1219 84.6106C90.8437 83.7209 91.4338 81.7502 90.4397 80.2086L82.4346 67.8C81.7677 66.7663 80.5574 66.1882 79.3134 66.1882C78.7024 66.1882 78.0834 66.3272 77.5166 66.6207L73.2919 68.8035C72.7117 69.103 72.0964 69.2399 71.4971 69.2399C69.6162 69.2399 67.8913 67.894 67.8913 66.0128V61.6471C67.8913 59.8676 66.2794 58.4245 64.2905 58.4245H48.2802C46.2919 58.4245 44.6794 59.8671 44.6794 61.6471V66.0128C44.6794 67.894 42.9539 69.2399 41.0737 69.2399C40.4743 69.2399 39.859 69.103 39.2788 68.8035L35.0541 66.6207C34.4873 66.3277 33.8677 66.1887 33.2573 66.1882C32.0126 66.1882 30.803 66.7663 30.1361 67.8L22.1313 80.2086C21.1371 81.7502 21.7272 83.7209 23.449 84.6106L27.6737 86.7935C30.0741 88.0339 30.0741 91.1345 27.6737 92.3749L23.449 94.5577C21.7266 95.4475 21.1371 97.4182 22.1313 98.9597L30.1361 111.368C30.803 112.402 32.0133 112.98 33.2573 112.98C33.8683 112.98 34.4873 112.841 35.0541 112.548L39.2788 110.365C39.859 110.065 40.4743 109.928 41.0737 109.928C42.9545 109.928 44.6794 111.274 44.6794 113.156V117.521C44.6794 119.301 46.2913 120.744 48.2802 120.744H64.2899C66.2782 120.744 67.8907 119.301 67.8907 117.521V113.156C67.8907 111.274 69.6162 109.928 71.4964 109.928C72.0958 109.928 72.711 110.065 73.2913 110.365L77.516 112.548C78.0828 112.841 78.7024 112.98 79.3128 112.98C80.5574 112.98 81.7671 112.402 82.434 111.368L90.4391 98.9597C91.4332 97.4182 90.8431 95.4475 89.1213 94.5577L84.8966 92.3749C82.4966 91.1345 82.4966 88.0333 84.8972 86.7935ZM56.2857 99.1444C50.3858 99.1444 45.6035 94.8638 45.6035 89.5842C45.6035 84.304 50.3864 80.024 56.2857 80.024C62.1849 80.024 66.9678 84.3045 66.9678 89.5842C66.9678 94.8638 62.1849 99.1444 56.2857 99.1444Z" fill="#4664D1"/>
<path id="hour" d="M55.8309 89.5842L66.2436 94.2582" stroke="black" stroke-width="0.7"/>
<line id="minutes" y1="-0.35" x2="14.6998" y2="-0.35" transform="matrix(0.530167 -0.847893 0.892266 0.45151 56.2854 89.5842)" stroke="black" stroke-width="0.7"/>
<path id="seconds" d="M56.2854 89.5714L46.7602 75.9518" stroke="#EF2424" stroke-width="0.4" stroke-linejoin="round"/>
</g>
<g id="three">
<line id="Line 11" y1="-0.5" x2="4.91245" y2="-0.5" transform="matrix(-1 0 0 1 81.4398 90.1505)" stroke="black"/>
<line id="Line 12" y1="-0.5" x2="4.91245" y2="-0.5" transform="matrix(-1 0 0 1 81.4398 87.6505)" stroke="black"/>
<line id="Line 10" y1="-0.5" x2="4.91245" y2="-0.5" transform="matrix(-1 0 0 1 81.4398 92.6505)" stroke="black"/>
</g>
<g id="twelve">
<line id="Line 6" y1="-0.5" x2="5.32303" y2="-0.5" transform="matrix(0.690213 -0.723606 0.690213 0.723606 54.0987 69.9653)" stroke="black"/>
<line id="Line 7" y1="-0.5" x2="5.32303" y2="-0.5" transform="matrix(0.690213 0.723606 -0.690213 0.723606 53.5791 66.1135)" stroke="black"/>
<line id="Line 8" x1="58.9916" y1="65.5688" x2="58.9916" y2="69.9266" stroke="black"/>
<line id="Line 9" x1="61.2197" y1="65.5688" x2="61.2197" y2="69.9266" stroke="black"/>
</g>
<g id="nine">
<line id="Line 6_2" y1="-0.5" x2="5.41614" y2="-0.5" transform="matrix(-0.788625 -0.613338 0.800562 -0.600823 35.5586 90.8781)" stroke="black"/>
<line id="Line 7_2" y1="-0.5" x2="5.41614" y2="-0.5" transform="matrix(0.800562 -0.600823 0.788625 0.613338 31.2504 91.3092)" stroke="black"/>
<line id="Line 8_2" y1="-0.5" x2="4.86931" y2="-0.5" transform="matrix(0.999969 0.00787496 -0.00983151 0.999952 30.631 93.4035)" stroke="black"/>
</g>
<g id="six">
<line id="Line 10_2" y1="-0.5" x2="4.43295" y2="-0.5" transform="matrix(0.286815 0.957986 -0.97243 0.233196 54.7681 107.51)" stroke="black"/>
<line id="Line 11_2" y1="-0.5" x2="4.43295" y2="-0.5" transform="matrix(0.286815 -0.957986 0.97243 0.233196 56.6144 111.723)" stroke="black"/>
<line id="Line 12_2" x1="58.9998" y1="107.336" x2="58.9998" y2="111.397" stroke="black"/>
</g>
</g>
<g id="inside-p">
<path id="arrow-1" d="M19.2547 29.8742C18.7979 29.9033 18.4627 30.2592 18.5058 30.6694C18.5492 31.0796 18.9545 31.3886 19.4114 31.3596L21.5016 31.2269C18.2322 35.0782 18.7203 40.5848 22.5775 44.0803L22.4918 43.8723C22.2466 43.2769 22.3728 42.6115 22.8209 42.1358C22.8304 42.1257 22.8408 42.1165 22.8506 42.1067C20.448 39.1873 20.3423 35.162 22.7656 32.2296L22.959 34.0634C23.0022 34.4736 23.4076 34.7826 23.8645 34.7536C24.0929 34.7391 24.2909 34.6429 24.4264 34.499C24.5619 34.3551 24.6349 34.1636 24.6133 33.9585L24.2281 30.3063C24.2072 30.1093 24.1001 29.926 23.9304 29.7966C23.7606 29.6672 23.542 29.6023 23.3226 29.6162L19.2547 29.8742Z" fill="#48C64D"/>
<g id="person">
<path id="Vector_2" d="M29.9305 34.5603C31.1402 34.5603 32.1243 33.5259 32.1243 32.2545C32.1243 30.9829 31.1402 29.9486 29.9305 29.9486C28.7209 29.9486 27.7368 30.9829 27.7368 32.2544C27.7368 33.5258 28.7209 34.5603 29.9305 34.5603Z" fill="#0028F9" fill-opacity="0.8"/>
<path id="Vector 2" d="M34.2041 40.7762V37.6063C34.2041 36.7289 33.6676 35.9508 32.8743 35.6777L32.8706 35.6764L31.7103 35.4745C31.6115 35.4425 31.506 35.4975 31.4705 35.5999L30.1539 39.3969C30.0779 39.6159 29.7831 39.6159 29.7072 39.3969L28.3906 35.5999C28.3619 35.5172 28.2876 35.4654 28.2081 35.4654C28.1892 35.4654 26.9904 35.6761 26.9904 35.6761C26.1906 35.9563 25.6562 36.7356 25.6562 37.6169V40.7762C25.6562 41.2497 26.0213 41.6335 26.4718 41.6335H33.3884C33.839 41.6335 34.2041 41.2496 34.2041 40.7762Z" fill="#4664D1"/>
<path id="Vector 3" d="M30.4087 35.4311C30.3582 35.3733 30.2842 35.3441 30.2094 35.3441H29.6516C29.5769 35.3441 29.5029 35.3733 29.4523 35.4311C29.374 35.5208 29.3627 35.6503 29.4182 35.7515L29.7164 36.2239L29.5768 37.4615L29.8517 38.23C29.8784 38.3073 29.9824 38.3073 30.0093 38.23L30.2841 37.4615L30.1446 36.2239L30.4427 35.7515C30.4983 35.6503 30.487 35.5208 30.4087 35.4311Z" fill="black"/>
</g>
<path id="arrow-2" d="M33.8894 26.8326C34.7139 27.1321 35.0011 27.9326 34.7815 28.7458C38.2735 30.4143 40.0956 34.1797 39.0611 37.8541L38.2 36.2718C38.0074 35.9179 37.5399 35.7844 37.1556 35.9736C36.7715 36.1628 36.6162 36.6029 36.8086 36.9568L38.5235 40.1079C38.7162 40.4618 39.1837 40.5953 39.5679 40.4062L42.9891 38.722C43.1812 38.6274 43.316 38.4701 43.3788 38.2922C43.4416 38.1142 43.4323 37.9157 43.3361 37.7388C43.1435 37.3849 42.6759 37.2514 42.2916 37.4405L40.5337 38.3059C41.9864 33.3962 39.0894 28.3178 33.8894 26.8326Z" fill="#5286EC" fill-opacity="0.93"/>
</g>
<g id="roject">
<path d="M55.9961 43.644C55.7884 43.6082 55.6183 43.5903 55.4858 43.5903C54.9451 43.576 54.5173 43.7783 54.2021 44.1973L53.5308 48H52.0161L53.0259 42.1885L54.4492 42.1831L54.3096 42.8921C54.6748 42.3442 55.126 42.0703 55.6631 42.0703C55.8135 42.0703 55.9889 42.0954 56.1895 42.1455L55.9961 43.644ZM59.5406 42.0811C60.0526 42.0882 60.4931 42.2207 60.8619 42.4785C61.2343 42.7327 61.5064 43.0854 61.6783 43.5366C61.8537 43.9842 61.9164 44.4819 61.8663 45.0298C61.7839 45.9536 61.4616 46.702 60.8995 47.2749C60.3409 47.8442 59.6498 48.1217 58.8262 48.1074C58.3213 48.1003 57.8845 47.9714 57.5157 47.7207C57.1469 47.4665 56.8747 47.1156 56.6993 46.668C56.5238 46.2204 56.4612 45.7262 56.5113 45.1855C56.6044 44.2259 56.9302 43.4632 57.4888 42.8975C58.0474 42.3317 58.7313 42.0596 59.5406 42.0811ZM58.0098 45.7388C58.017 46.0825 58.0976 46.3547 58.2515 46.5552C58.4055 46.7521 58.6221 46.8542 58.9014 46.8613C59.3669 46.8757 59.7322 46.6626 59.9971 46.2222C60.2621 45.7782 60.3856 45.1963 60.3677 44.4766C60.3534 44.1328 60.2693 43.8589 60.1153 43.6548C59.9649 43.4471 59.7483 43.3397 59.4654 43.3325C59.0142 43.3182 58.6526 43.5312 58.3804 43.9717C58.1119 44.4085 57.9883 44.9976 58.0098 45.7388ZM65.3624 42.1885L64.3204 48.3169C64.2381 48.965 64.0035 49.4699 63.6168 49.8315C63.2337 50.1932 62.7377 50.3704 62.129 50.3633C61.8855 50.3561 61.617 50.3221 61.3234 50.2612L61.4469 49.0259C61.6259 49.0653 61.7817 49.0885 61.9142 49.0957C62.3904 49.1029 62.6805 48.8451 62.7843 48.3223L63.837 42.1885H65.3624ZM63.9821 40.7114C63.9749 40.4751 64.0501 40.2799 64.2076 40.126C64.3652 39.9684 64.5675 39.8861 64.8146 39.8789C65.0616 39.8789 65.264 39.9523 65.4215 40.0991C65.5826 40.2459 65.6668 40.4321 65.6739 40.6577C65.6811 40.8976 65.6059 41.0964 65.4484 41.2539C65.2908 41.4079 65.0885 41.4884 64.8414 41.4956C64.6158 41.5028 64.4171 41.4347 64.2452 41.2915C64.0769 41.1483 63.9892 40.9549 63.9821 40.7114ZM68.7726 48.1074C68.2642 48.1038 67.813 47.9803 67.4191 47.7368C67.0288 47.4897 66.737 47.1532 66.5436 46.7271C66.3503 46.2974 66.2751 45.8247 66.318 45.3091L66.3342 45.0942C66.3879 44.5285 66.5526 44.0093 66.8283 43.5366C67.104 43.064 67.4585 42.7005 67.8918 42.4463C68.325 42.1885 68.8049 42.0667 69.3312 42.0811C70.0796 42.0954 70.6454 42.3711 71.0285 42.9082C71.4152 43.4417 71.562 44.1185 71.4689 44.9385L71.383 45.5991H67.822C67.8076 45.9751 67.8989 46.2759 68.0959 46.5015C68.2928 46.7271 68.5614 46.8434 68.9015 46.8506C69.453 46.8649 69.9364 46.6519 70.3517 46.2114L71.0446 47.0708C70.8262 47.4002 70.5111 47.658 70.0993 47.8442C69.6875 48.0269 69.2453 48.1146 68.7726 48.1074ZM69.256 43.3325C68.9767 43.3254 68.7279 43.4131 68.5095 43.5957C68.2946 43.7783 68.1012 44.0952 67.9294 44.5464H70.0134L70.0456 44.4067C70.0671 44.2635 70.0689 44.1274 70.051 43.9985C70.0151 43.7909 69.9274 43.6297 69.7878 43.5151C69.6481 43.397 69.4709 43.3361 69.256 43.3325ZM74.8201 46.8613C75.0994 46.8685 75.3321 46.7933 75.5183 46.6357C75.7045 46.4746 75.8262 46.2616 75.8835 45.9966L77.3069 45.9912C77.2818 46.3994 77.1529 46.7664 76.9202 47.0923C76.691 47.4181 76.383 47.6724 75.9963 47.855C75.6132 48.0376 75.2086 48.1235 74.7825 48.1128C74.0771 48.1021 73.5185 47.8586 73.1067 47.3823C72.6949 46.9061 72.4962 46.2723 72.5105 45.481L72.5266 45.1855L72.532 45.1265C72.6287 44.1812 72.9473 43.4328 73.488 42.8813C74.0287 42.3263 74.6965 42.0596 75.4914 42.0811C76.1467 42.0954 76.6659 42.3102 77.0491 42.7256C77.4358 43.1374 77.6256 43.6816 77.6184 44.3584H76.2058C76.2058 44.0469 76.1378 43.8016 76.0017 43.6226C75.8656 43.4435 75.6615 43.3468 75.3894 43.3325C74.6661 43.311 74.2274 43.8392 74.0735 44.917C74.0198 45.3073 74.0001 45.6367 74.0144 45.9053C74.0502 46.5319 74.3188 46.8506 74.8201 46.8613ZM81.4046 40.7598L81.1521 42.1885H82.1189L81.9202 43.3271H80.9534L80.4593 46.2383C80.4378 46.4209 80.4521 46.5605 80.5022 46.6572C80.5524 46.7539 80.6741 46.8058 80.8675 46.813C80.9248 46.8166 81.0787 46.8076 81.3294 46.7861L81.222 47.9731C80.9534 48.0627 80.6634 48.1038 80.3519 48.0967C79.8541 48.0895 79.4835 47.9338 79.24 47.6294C78.9966 47.325 78.8963 46.9132 78.9393 46.394L79.4388 43.3271H78.617L78.8157 42.1885H79.6375L79.8846 40.7598H81.4046Z" fill="#4664D1" style="mix-blend-mode:darken"/>
</g>
<g id="Management">
<path d="M48.2217 50.0234L48.8335 53.6226L50.6895 50.0234H52.0225L51.1577 55H50.1528L50.3989 53.5815L50.8843 51.3667L48.9771 55H48.29L47.6235 51.2402L47.3022 53.6909L47.0732 55H46.0718L46.9365 50.0234H48.2217ZM54.4113 55C54.3817 54.9066 54.3692 54.7949 54.3738 54.665C54.0958 54.943 53.7813 55.0775 53.4304 55.0684C53.1068 55.0638 52.8379 54.959 52.6238 54.7539C52.4118 54.5465 52.3127 54.2913 52.3264 53.9883C52.3423 53.585 52.511 53.2762 52.8322 53.062C53.1558 52.8455 53.5888 52.7373 54.1311 52.7373L54.5822 52.7441L54.6301 52.522C54.6438 52.4468 54.6472 52.375 54.6404 52.3066C54.629 52.1995 54.5879 52.1164 54.5173 52.0571C54.4489 51.9956 54.3578 51.9637 54.2439 51.9614C54.0935 51.9569 53.9659 51.9945 53.8611 52.0742C53.7562 52.1517 53.689 52.2645 53.6594 52.4126L52.6921 52.416C52.7081 52.0628 52.8698 51.7769 53.1775 51.5581C53.4874 51.3371 53.869 51.2288 54.3225 51.2334C54.7418 51.2425 55.0699 51.3678 55.3069 51.6094C55.5438 51.8486 55.643 52.1574 55.6042 52.5356L55.3205 54.3062L55.3034 54.5249C55.2989 54.6867 55.3182 54.8234 55.3615 54.9351L55.3581 55H54.4113ZM53.6696 54.3198C53.9476 54.3289 54.1903 54.2082 54.3977 53.9575L54.5173 53.3184L54.1823 53.3149C53.8269 53.3241 53.5705 53.4323 53.4133 53.6396C53.3563 53.7148 53.321 53.8071 53.3073 53.9165C53.2891 54.0396 53.3142 54.1375 53.3825 54.2104C53.4532 54.2811 53.5489 54.3175 53.6696 54.3198ZM57.7538 51.2983L57.6718 51.7358C57.968 51.3918 58.3269 51.2243 58.7485 51.2334C59.0971 51.2402 59.3546 51.3678 59.5209 51.6162C59.6873 51.8646 59.7477 52.2087 59.7021 52.6484L59.3124 55H58.3486L58.7451 52.6382C58.7565 52.5493 58.7587 52.4684 58.7519 52.3955C58.7223 52.1631 58.5764 52.0435 58.3144 52.0366C58.0615 52.0275 57.8347 52.1449 57.6342 52.3887L57.1728 55H56.2089L56.8515 51.3018L57.7538 51.2983ZM62.4909 55C62.4613 54.9066 62.4487 54.7949 62.4533 54.665C62.1753 54.943 61.8608 55.0775 61.5099 55.0684C61.1864 55.0638 60.9175 54.959 60.7033 54.7539C60.4914 54.5465 60.3922 54.2913 60.4059 53.9883C60.4219 53.585 60.5905 53.2762 60.9118 53.062C61.2353 52.8455 61.6683 52.7373 62.2106 52.7373L62.6618 52.7441L62.7096 52.522C62.7233 52.4468 62.7267 52.375 62.7199 52.3066C62.7085 52.1995 62.6675 52.1164 62.5968 52.0571C62.5285 51.9956 62.4373 51.9637 62.3234 51.9614C62.173 51.9569 62.0454 51.9945 61.9406 52.0742C61.8358 52.1517 61.7685 52.2645 61.7389 52.4126L60.7716 52.416C60.7876 52.0628 60.9494 51.7769 61.257 51.5581C61.5669 51.3371 61.9486 51.2288 62.402 51.2334C62.8213 51.2425 63.1494 51.3678 63.3864 51.6094C63.6234 51.8486 63.7225 52.1574 63.6838 52.5356L63.4001 54.3062L63.383 54.5249C63.3784 54.6867 63.3978 54.8234 63.4411 54.9351L63.4377 55H62.4909ZM61.7492 54.3198C62.0272 54.3289 62.2699 54.2082 62.4772 53.9575L62.5968 53.3184L62.2619 53.3149C61.9064 53.3241 61.6501 53.4323 61.4928 53.6396C61.4359 53.7148 61.4005 53.8071 61.3869 53.9165C61.3686 54.0396 61.3937 54.1375 61.4621 54.2104C61.5327 54.2811 61.6284 54.3175 61.7492 54.3198ZM64.4935 53.1475C64.5619 52.5755 64.7476 52.1118 65.0507 51.7563C65.356 51.3986 65.74 51.2231 66.2025 51.23C66.5967 51.2391 66.8907 51.3815 67.0844 51.6572L67.2108 51.2983L68.0961 51.3018L67.4911 54.8735C67.425 55.3657 67.2154 55.7554 66.8622 56.0425C66.509 56.3296 66.0715 56.4686 65.5497 56.4595C65.2945 56.4549 65.0507 56.3991 64.8182 56.292C64.5858 56.1872 64.3944 56.0425 64.244 55.8579L64.7225 55.27C64.9367 55.5412 65.2056 55.6813 65.5292 55.6904C65.7798 55.6995 65.994 55.6335 66.1718 55.4922C66.3495 55.3532 66.4703 55.1561 66.5341 54.9009L66.5888 54.6787C66.3199 54.9476 66.018 55.0775 65.683 55.0684C65.323 55.0638 65.037 54.9305 64.8251 54.6685C64.6132 54.4041 64.497 54.0612 64.4764 53.6396C64.4696 53.5007 64.4753 53.3366 64.4935 53.1475ZM65.4403 53.5508C65.4403 53.765 65.4847 53.937 65.5736 54.0669C65.6648 54.1945 65.7958 54.2617 65.9667 54.2686C66.2287 54.2777 66.4611 54.166 66.6639 53.9336L66.9511 52.3682C66.8531 52.154 66.6719 52.0423 66.4076 52.0332C66.1615 52.0264 65.953 52.1255 65.7821 52.3306C65.6112 52.5356 65.5041 52.8079 65.4608 53.1475C65.4449 53.3138 65.438 53.4482 65.4403 53.5508ZM70.256 55.0684C69.9324 55.0661 69.6453 54.9875 69.3946 54.8325C69.1463 54.6753 68.9605 54.4611 68.8375 54.1899C68.7145 53.9165 68.6666 53.6157 68.6939 53.2876L68.7042 53.1509C68.7384 52.7909 68.8432 52.4604 69.0187 52.1597C69.1941 51.8589 69.4197 51.6276 69.6954 51.4658C69.9711 51.3018 70.2765 51.2243 70.6114 51.2334C71.0877 51.2425 71.4477 51.418 71.6915 51.7598C71.9376 52.0993 72.031 52.5299 71.9718 53.0518L71.9171 53.4722H69.651C69.6419 53.7114 69.7 53.9028 69.8253 54.0464C69.9506 54.1899 70.1215 54.264 70.338 54.2686C70.6889 54.2777 70.9965 54.1421 71.2608 53.8618L71.7018 54.4087C71.5628 54.6183 71.3622 54.7824 71.1002 54.9009C70.8382 55.0171 70.5567 55.0729 70.256 55.0684ZM70.5636 52.0298C70.3858 52.0252 70.2275 52.0811 70.0885 52.1973C69.9518 52.3135 69.8287 52.5151 69.7193 52.8022H71.0455L71.066 52.7134C71.0797 52.6222 71.0808 52.5356 71.0694 52.4536C71.0466 52.3215 70.9908 52.2189 70.902 52.146C70.8131 52.0708 70.7003 52.0321 70.5636 52.0298ZM74.0223 51.2983L73.9437 51.7188C74.2422 51.3861 74.6033 51.2243 75.0272 51.2334C75.255 51.238 75.4442 51.2904 75.5946 51.3906C75.7449 51.4909 75.8463 51.6265 75.8988 51.7974C76.2246 51.4123 76.6074 51.2243 77.0472 51.2334C77.3867 51.2402 77.6419 51.3564 77.8128 51.582C77.986 51.8076 78.0589 52.1335 78.0316 52.5596L78.0247 52.645L77.6317 55H76.6644L77.0574 52.6382C77.0666 52.5539 77.07 52.4753 77.0677 52.4023C77.0517 52.1631 76.915 52.04 76.6575 52.0332C76.3932 52.0332 76.1665 52.1745 75.9774 52.457L75.9671 52.5356L75.5364 55H74.5726L74.9656 52.645C74.9748 52.5607 74.9782 52.4821 74.9759 52.4092C74.9599 52.1676 74.8244 52.0435 74.5692 52.0366C74.3253 52.0298 74.1055 52.1449 73.9095 52.3818L73.4481 55H72.4842L73.1234 51.3018L74.0223 51.2983ZM80.4341 55.0684C80.1106 55.0661 79.8234 54.9875 79.5728 54.8325C79.3244 54.6753 79.1387 54.4611 79.0157 54.1899C78.8926 53.9165 78.8448 53.6157 78.8721 53.2876L78.8824 53.1509C78.9165 52.7909 79.0214 52.4604 79.1968 52.1597C79.3723 51.8589 79.5979 51.6276 79.8736 51.4658C80.1493 51.3018 80.4546 51.2243 80.7896 51.2334C81.2658 51.2425 81.6259 51.418 81.8697 51.7598C82.1158 52.0993 82.2092 52.5299 82.1499 53.0518L82.0953 53.4722H79.8291C79.82 53.7114 79.8781 53.9028 80.0035 54.0464C80.1288 54.1899 80.2997 54.264 80.5162 54.2686C80.8671 54.2777 81.1747 54.1421 81.439 53.8618L81.8799 54.4087C81.7409 54.6183 81.5404 54.7824 81.2784 54.9009C81.0163 55.0171 80.7349 55.0729 80.4341 55.0684ZM80.7417 52.0298C80.564 52.0252 80.4056 52.0811 80.2666 52.1973C80.1299 52.3135 80.0069 52.5151 79.8975 52.8022H81.2237L81.2442 52.7134C81.2579 52.6222 81.259 52.5356 81.2476 52.4536C81.2248 52.3215 81.169 52.2189 81.0801 52.146C80.9912 52.0708 80.8785 52.0321 80.7417 52.0298ZM84.1868 51.2983L84.1047 51.7358C84.401 51.3918 84.7599 51.2243 85.1814 51.2334C85.53 51.2402 85.7875 51.3678 85.9539 51.6162C86.1202 51.8646 86.1806 52.2087 86.135 52.6484L85.7454 55H84.7815L85.178 52.6382C85.1894 52.5493 85.1917 52.4684 85.1848 52.3955C85.1552 52.1631 85.0094 52.0435 84.7473 52.0366C84.4944 52.0275 84.2677 52.1449 84.0672 52.3887L83.6057 55H82.6419L83.2844 51.3018L84.1868 51.2983ZM88.7392 50.3926L88.5786 51.3018H89.1938L89.0674 52.0264H88.4521L88.1377 53.8789C88.124 53.9951 88.1331 54.084 88.165 54.1455C88.1969 54.207 88.2744 54.2401 88.3974 54.2446C88.4339 54.2469 88.5319 54.2412 88.6914 54.2275L88.623 54.9829C88.4521 55.0399 88.2676 55.0661 88.0693 55.0615C87.7526 55.057 87.5167 54.9578 87.3618 54.7642C87.2068 54.5705 87.143 54.3084 87.1704 53.978L87.4883 52.0264H86.9653L87.0918 51.3018H87.6147L87.772 50.3926H88.7392Z" fill="#4664D1" style="mix-blend-mode:darken"/>
</g>
</g>
</svg>
