<svg width="500" height="250" viewBox="0 0 496 276" fill="none" xmlns="http://www.w3.org/2000/svg">
<g id="person">
<path id="Vector" d="M247.579 275.41C110.845 275.41 0 264.725 0 251.544C0 238.364 110.845 227.678 247.579 227.678C384.313 227.678 495.157 238.364 495.157 251.544C495.157 264.725 384.313 275.41 247.579 275.41Z" fill="#E6E6E6"/>
<path id="Vector_2" d="M54.1578 264.909C94.5275 255.157 138.673 256.778 184.981 264.909C163.874 240.725 145.659 216.541 166.765 192.357C125.595 203.885 119.828 202.718 74.0296 192.357C84.6523 216.541 64.7804 240.725 54.1578 264.909Z" fill="#7C63FF"/>
<path id="Vector_3" opacity="0.2" d="M54.1578 264.909C94.5275 255.157 138.673 256.778 184.981 264.909C163.874 240.725 145.659 216.541 166.765 192.357C125.595 203.885 119.828 202.718 74.0296 192.357C84.6523 216.541 64.7804 240.725 54.1578 264.909Z" fill="black"/>
<path id="Vector_4" d="M64.0047 254.591C98.2972 246.807 135.797 248.101 175.134 254.591C157.205 235.287 141.731 215.983 159.66 196.679C124.688 205.881 119.789 204.95 80.8851 196.679C89.9086 215.983 73.0282 235.287 64.0047 254.591Z" fill="#7C63FF"/>
<path id="Vector_5" d="M77.0663 223.488C66.975 223.488 58.7944 212.385 58.7944 198.688C58.7944 184.992 66.975 173.888 77.0663 173.888C87.1576 173.888 95.3382 184.992 95.3382 198.688C95.3382 212.385 87.1576 223.488 77.0663 223.488Z" fill="#2F2E41"/>
<path id="Vector_6" d="M160.012 169.923L147.352 172.788L141.021 197.607L159.308 212.882L180.409 169.923H160.715H160.012Z" fill="#A0616A"/>
<path id="Vector_7" d="M124.141 208.109C107.826 208.109 94.6004 190.158 94.6004 168.014C94.6004 145.871 107.826 127.92 124.141 127.92C140.456 127.92 153.682 145.871 153.682 168.014C153.682 190.158 140.456 208.109 124.141 208.109Z" fill="#A0616A"/>
<path id="Vector_8" d="M287.318 21.9565C287.318 21.9565 359.059 32.4574 371.72 30.5481C384.38 28.6389 390.007 26.7296 390.007 26.7296C390.007 26.7296 398.447 42.0036 394.227 48.686C391.863 52.5367 389.003 55.7714 385.787 58.2323C385.787 58.2323 378.05 55.3684 372.423 58.2323C366.796 61.0962 309.825 73.5063 299.978 62.0508C290.131 50.5953 287.318 21.9565 287.318 21.9565Z" fill="#2F2E41"/>
<path id="Vector_9" d="M282.394 234.838C282.394 234.838 329.519 216.7 337.959 136.512V128.875C337.959 128.875 347.283 151.076 350.619 155.604C354.488 160.855 368.203 208.109 367.5 212.882C366.796 217.655 367.5 219.564 367.5 219.564L387.897 216.7V208.109C387.897 208.109 376.995 163.719 376.291 153.218C375.588 142.717 349.212 69.6878 349.212 69.6878C349.212 69.6878 339.366 42.0037 322.485 69.6878C305.605 97.372 304.198 116.465 304.198 116.465L282.394 173.742L282.394 234.838Z" fill="#2F2E41"/>
<path id="Vector_10" d="M387.897 23.8658L410.404 13.3649C410.404 13.3649 431.504 -7.6369 426.581 13.3649C421.657 34.3667 399.15 80.1887 392.82 75.4156C386.49 70.6425 378.877 58.7947 380.573 57.0816C382.27 55.3684 393.523 42.9583 387.897 23.8658Z" fill="#2F2E41"/>
<path id="Vector_11" d="M385.176 202.473L403.345 214.516C403.345 214.516 425.317 219.104 413.063 227.706C400.81 236.308 367.007 245.484 365.317 237.455C363.627 229.427 364.298 216.102 366.075 216.456C367.852 216.81 380.106 218.53 385.176 202.473Z" fill="#2F2E41"/>
<path id="Vector_12" d="M291.538 171.833C291.538 171.833 300.681 225.292 285.208 236.747C269.734 248.203 161.418 250.112 152.978 229.11C144.538 208.109 148.758 208.109 148.758 208.109L171.265 173.742L152.978 171.833C152.978 171.833 152.978 164.196 159.308 163.241C165.639 162.287 185.332 152.74 202.213 159.423C219.093 166.105 228.94 146.058 228.94 146.058L291.538 171.833Z" fill="#575A89"/>
<path id="Vector_13" d="M303.495 4.77309L315.452 93.5538L233.16 80.189L218.39 0L303.495 4.77309Z" fill="#3F3D56"/>
<path id="Vector_14" d="M301.033 8.11452L310.88 87.3482L235.973 75.4159L221.555 3.34143L301.033 8.11452Z" fill="white"/>
<path id="Vector_15" d="M312.638 94.5083L315.452 93.5538L316.858 97.3716L294.351 182.334L292.235 181.235L291.538 175.652L312.638 94.5083Z" fill="#B3B3B3"/>
<path id="Vector_16" d="M315.452 92.5986L292.945 181.379L207.84 164.196L233.16 80.189L315.452 92.5986Z" fill="#D0CDE1"/>
<path id="Vector_17" d="M304.198 89.7352V94.5083L241.6 84.9621L242.304 80.189L304.198 89.7352Z" fill="#3F3D56"/>
<path id="Vector_18" d="M302.792 99.2814L292.945 136.512L228.94 126.011L240.193 90.6897L302.792 99.2814Z" fill="#3F3D56"/>
<path id="Vector_19" d="M222.61 151.786L224.72 144.149C224.72 144.149 240.897 105.964 249.337 113.601C257.777 121.238 231.753 158.468 231.753 158.468H223.313L222.61 151.786Z" fill="#A0616A"/>
<path id="Vector_20" d="M276.064 157.513L278.174 146.058C278.174 146.058 283.801 110.737 273.954 112.646C264.107 114.555 261.294 147.967 261.294 147.967L261.997 155.604L276.064 157.513Z" fill="#A0616A"/>
<path id="Vector_21" d="M259.184 152.74C259.184 152.74 277.471 148.922 278.174 154.65C278.878 160.377 282.394 246.294 264.811 249.158C247.227 252.022 160.012 264.432 169.155 234.838C178.299 205.245 192.366 209.063 192.366 209.063L252.15 217.655L259.184 152.74Z" fill="#575A89"/>
<path id="Vector_22" d="M203.971 163.719L222.61 146.058L234.918 158.945L219.445 181.857L203.971 163.719Z" fill="#575A89"/>
<path id="Vector_23" opacity="0.2" d="M253.908 180.902L251.096 217.178L202.564 213.359L244.765 212.405L253.908 180.902Z" fill="black"/>
<path id="Vector_24" d="M109.559 223.031C90.1364 223.031 74.3914 201.661 74.3914 175.3C74.3914 148.938 90.1364 127.568 109.559 127.568C128.981 127.568 144.726 148.938 144.726 175.3C144.726 201.661 128.981 223.031 109.559 223.031Z" fill="#2F2E41"/>
<path id="Vector_25" d="M290.483 35.7986L246.875 33.7383L242.655 11.9331L287.669 13.7769L290.483 35.7986Z" fill="#7C63FF"/>
<path id="Vector_26" d="M301.736 48.2091L235.622 45.3449L234.918 41.5262L301.033 44.6857L301.736 48.2091Z" fill="#E6E6E6"/>
<path id="Vector_27" d="M303.143 57.7552L237.028 54.891L236.325 51.0724L302.44 54.2319L303.143 57.7552Z" fill="#E6E6E6"/>
<path id="Vector_28" d="M303.846 65.3917L237.732 62.5283L237.028 58.7097L303.143 61.8683L303.846 65.3917Z" fill="#E6E6E6"/>
</g>
</svg>
