<svg width="450" height="350" viewBox="0 0 500 500" fill="none" xmlns="http://www.w3.org/2000/svg">
<g id="Work">
<path id="Vector" d="M143.909 339.845L496.26 383.825V396.302L143.014 350.827L143.909 339.845Z" fill="#EAECF0"/>
<path id="Vector_2" d="M143.374 386.203H136.69V201.824L141.5 203.447L141.554 208.976L143.374 386.203Z" fill="#EAECF0"/>
<path id="Vector_3" d="M146.318 383.23L143.374 386.203L141.554 208.976L141.5 203.447H144.98L145.026 209.307L146.318 383.23Z" fill="#D3DAE1"/>
<path id="Vector_4" d="M41.0414 378.474L138.564 340.737V344.304L41.0414 381.744V378.474Z" fill="#D3DAE1"/>
<path id="Vector_5" d="M42.785 390.356L41.0414 381.744L138.564 344.304V351.728L42.785 390.356Z" fill="#EAECF0"/>
<path id="Vector_6" d="M496.261 190.078V433.742H491.175L490.915 207.702L490.908 200.474L496.261 190.078Z" fill="#EAECF0"/>
<path id="Vector_7" d="M500 188.889V431.661L496.261 433.742V190.078L500 188.889Z" fill="#D3DAE1"/>
<path id="Vector_8" d="M418.269 428.399L491.114 383.179L496.261 386.5L418.269 433.742V428.399Z" fill="#D3DAE1"/>
<path id="Vector_9" d="M420.548 443.849L418.269 433.742L496.261 386.5V396.302L420.548 443.849Z" fill="#EAECF0"/>
<path id="Vector_10" d="M409.574 229.004L409.842 486.342H417.068L415.998 226.031L409.574 229.004Z" fill="#EAECF0"/>
<path id="Vector_11" d="M420.547 223.653V484.261L417.068 486.342L415.997 226.031L416.426 225.81L420.547 223.653Z" fill="#D3DAE1"/>
<path id="Vector_12" d="M40.1086 428.696H33.9527L31.8421 198.503L31.8116 194.537H37.6998L37.7456 199.064L40.1086 428.696Z" fill="#EAECF0"/>
<path id="Vector_13" d="M44.3832 426.913L40.1085 428.696L37.7456 199.064L37.6997 194.537H42.2497L42.2879 199.506L44.3832 426.913Z" fill="#D3DAE1"/>
<path id="Vector_14" opacity="0.1" d="M416.426 225.81L420.547 223.653V233.76L416.533 235.247L416.426 225.81Z" fill="black"/>
<path id="Vector_15" opacity="0.1" d="M500 188.889V204.338L496.261 205.731L490.915 207.702L490.908 200.474L496.261 190.078L500 188.889Z" fill="black"/>
<path id="Vector_16" d="M500 159.17V201.96L416.533 232.868L415.997 187.105L500 159.17Z" fill="#D48A9B"/>
<path id="Vector_17" d="M30.741 156.197L140.437 133.026L500 159.17L415.998 187.105L30.741 156.197Z" fill="#EFC6CD"/>
<path id="Vector_18" opacity="0.1" d="M42.2497 194.537L42.288 199.506L37.7456 199.064L31.8421 198.503L31.8116 194.537H42.2497Z" fill="black"/>
<path id="Vector_19" opacity="0.1" d="M145.026 209.307L141.554 208.976L136.69 208.517V201.824L141.5 203.447H144.98L145.026 209.307Z" fill="black"/>
<path id="Vector_20" d="M30.741 156.197V196.023L416.533 232.868L415.998 187.105L30.741 156.197Z" fill="#D48A9B"/>
<path id="Vector_21" d="M336.629 203.549H286.243V183.24L336.629 187.181V203.549Z" fill="#D48A9B"/>
<path id="Vector_22" opacity="0.1" d="M336.629 203.549H286.243V183.24L336.629 187.181V203.549Z" fill="black"/>
<path id="Vector_23" opacity="0.1" d="M218.552 178.79V210.879L411.983 227.22V193.051L336.537 188.294L329.043 195.726L298.279 193.348L287.314 184.43L218.552 178.79Z" fill="black"/>
<path id="Vector_24" d="M217.481 177.592V209.689L410.912 226.031V191.861L335.467 187.105L327.98 194.537L297.209 192.159L286.243 183.24L217.481 177.592Z" fill="white"/>
<path id="Vector_25" d="M98.1647 168.98L143.909 172.547L143.374 188.693H113.505L93.523 179.97L98.1647 168.98Z" fill="#D48A9B"/>
<path id="Vector_26" opacity="0.1" d="M98.1647 168.98L143.909 172.547L143.374 188.693H113.505L93.523 179.97L98.1647 168.98Z" fill="black"/>
<path id="Vector_27" opacity="0.1" d="M37.1644 164.521V193.348L212.671 208.798V178.187L144.98 173.736L137.761 179.673L110.469 177.898L99.2352 170.169L37.1644 164.521Z" fill="black"/>
<path id="Vector_28" d="M36.0939 163.332V192.159L211.6 207.608V177.006L143.909 172.547L136.69 178.493L109.398 176.709L98.1647 168.98L36.0939 163.332Z" fill="white"/>
<path id="Vector_29" opacity="0.1" d="M43.9627 380.623L45.1633 380.164L44.5591 389.643L43.9627 389.881V380.623Z" fill="black"/>
<path id="Vector_30" opacity="0.1" d="M412.006 163.442L436.606 165.234L395.84 178.79L375.078 177.117L412.006 163.442Z" fill="black"/>
<path id="Vector_31" d="M412.006 162.253L436.606 164.045L395.84 177.592L375.078 175.927L412.006 162.253Z" fill="white"/>
<path id="Vector_32" d="M409.062 165.319C410.033 164.86 411.065 165.727 412.12 165.948C412.709 166.075 413.321 165.948 413.91 166.075C415.118 166.253 416.319 167.154 417.466 166.695" fill="#D3DAE1"/>
<path id="Vector_33" d="M407.792 166.143C408.756 165.676 409.796 166.542 410.851 166.763C411.44 166.89 412.052 166.763 412.648 166.89C413.856 167.069 415.049 167.969 416.196 167.51" fill="#D3DAE1"/>
<path id="Vector_34" d="M404.886 167.774C405.858 167.315 406.898 168.181 407.945 168.402C408.534 168.53 409.146 168.402 409.742 168.53C410.95 168.708 412.143 169.608 413.29 169.15" fill="#D3DAE1"/>
<path id="Vector_35" d="M8.28928 463.155C12.255 463.155 15.4698 459.584 15.4698 455.179C15.4698 450.775 12.255 447.204 8.28928 447.204C4.32357 447.204 1.10873 450.775 1.10873 455.179C1.10873 459.584 4.32357 463.155 8.28928 463.155Z" fill="#535461"/>
<path id="Vector_36" d="M21.1363 494.352C25.102 494.352 28.3168 490.781 28.3168 486.376C28.3168 481.972 25.102 478.401 21.1363 478.401C17.1706 478.401 13.9557 481.972 13.9557 486.376C13.9557 490.781 17.1706 494.352 21.1363 494.352Z" fill="#535461"/>
<path id="Vector_37" d="M149.247 500C153.212 500 156.427 496.429 156.427 492.025C156.427 487.62 153.212 484.049 149.247 484.049C145.281 484.049 142.066 487.62 142.066 492.025C142.066 496.429 145.281 500 149.247 500Z" fill="#535461"/>
<path id="Vector_38" d="M177.869 459.29C181.835 459.29 185.05 455.719 185.05 451.315C185.05 446.91 181.835 443.339 177.869 443.339C173.904 443.339 170.689 446.91 170.689 451.315C170.689 455.719 173.904 459.29 177.869 459.29Z" fill="#535461"/>
<path id="Vector_39" d="M96.8494 314.33H87.8565V376.733H96.8494V314.33Z" fill="#535461"/>
<path id="Vector_40" opacity="0.1" d="M96.8494 366.625H87.8565V376.733H96.8494V366.625Z" fill="black"/>
<path id="Vector_41" d="M98.5852 369.004H86.1206V438.243H98.5852V369.004Z" fill="#3A3768"/>
<path id="Vector_42" d="M176.317 437.793L94.7082 434.081V448.665H189.416C188.475 445.597 186.72 442.917 184.382 440.976C182.044 439.036 179.233 437.926 176.317 437.793V437.793Z" fill="#3A3768"/>
<path id="Vector_43" d="M13.0993 437.793L94.7083 434.081V448.665H0C0.940603 445.596 2.69523 442.915 5.03323 440.975C7.37123 439.034 10.1832 437.925 13.0993 437.793V437.793Z" fill="#3A3768"/>
<path id="Vector_44" d="M86.1207 435.568L20.9681 471.241C18.2124 472.759 15.8932 475.102 14.2719 478.006C12.6506 480.91 11.7916 484.259 11.7917 487.676V488.763L87.8795 451.918L98.5853 451.026L161.857 495.898C162.26 492.581 161.839 489.205 160.638 486.135C159.437 483.066 157.502 480.42 155.043 478.486L98.5853 434.09L86.1207 435.568Z" fill="#3A3768"/>
<path id="Vector_45" opacity="0.1" d="M96.8494 314.322V321.049C95.2741 321.122 93.6682 321.159 92.0318 321.159C90.6171 321.159 89.2253 321.159 87.8565 321.074V314.322H96.8494Z" fill="black"/>
<path id="Vector_46" d="M92.0317 318.781C110.357 318.781 125.212 313.955 125.212 308.003C125.212 302.05 110.357 297.224 92.0317 297.224C73.7067 297.224 58.8513 302.05 58.8513 308.003C58.8513 313.955 73.7067 318.781 92.0317 318.781Z" fill="#3A3768"/>
<path id="Vector_47" opacity="0.1" d="M124.922 308.003C124.89 308.602 124.748 309.188 124.504 309.724C124.261 310.26 123.922 310.735 123.507 311.12C119.408 315.553 106.737 318.764 91.7488 318.764C77.0895 318.764 64.6631 315.672 60.2661 311.4C59.7788 311.003 59.3742 310.494 59.0799 309.908C58.7857 309.322 58.6086 308.672 58.5608 308.003C58.5608 302.057 73.4189 297.224 91.7488 297.224C110.079 297.224 124.922 302.049 124.922 308.003Z" fill="black"/>
<path id="Vector_48" opacity="0.1" d="M125.205 308.003C125.173 308.602 125.031 309.188 124.787 309.724C124.544 310.26 124.205 310.735 123.79 311.12C119.569 309.948 116.647 308.979 116.647 308.979C116.647 308.979 87.3977 310.797 60.549 311.417C60.0617 311.02 59.6571 310.511 59.3629 309.925C59.0686 309.339 58.8915 308.689 58.8437 308.02C58.8437 302.074 73.7019 297.241 92.0318 297.241C110.362 297.241 125.205 302.049 125.205 308.003Z" fill="black"/>
<path id="Vector_49" d="M8.28936 166.041C8.28936 166.041 19.2628 199.327 18.7275 219.236C18.1923 239.145 9.62759 276.585 9.62759 276.585C9.62759 276.585 1.07058 306.898 23.0099 309.574C44.9491 312.249 116.648 307.79 116.648 307.79C116.648 307.79 143.412 316.7 151.961 312.835C155.288 311.341 158.171 308.045 160.45 304.571C161.697 302.678 162.585 300.522 163.059 298.236C163.532 295.949 163.581 293.579 163.204 291.271C162.826 288.962 162.029 286.763 160.861 284.808C159.694 282.853 158.18 281.182 156.412 279.897C152.418 277.132 148.068 275.058 143.512 273.748C142.552 273.459 141.561 273.324 140.567 273.349L47.0827 275.396C47.0827 275.396 36.6521 273.612 38.5257 262.027C40.3992 250.442 43.6033 214.777 43.6033 214.777C43.6033 214.777 44.1386 171.392 25.411 159.212C6.68349 147.032 8.28936 166.041 8.28936 166.041Z" fill="#3A3768"/>
<path id="Vector_50" opacity="0.1" d="M8.28936 165.939C8.28936 165.939 19.2628 199.217 18.7275 219.126C18.1923 239.035 9.62759 276.483 9.62759 276.483C9.62759 276.483 1.07058 306.788 23.0099 309.463C44.9491 312.139 116.648 307.671 116.648 307.671C116.648 307.671 143.412 316.59 151.961 312.767C155.288 311.264 158.171 307.969 160.45 304.503C161.698 302.609 162.585 300.453 163.059 298.166C163.533 295.878 163.582 293.508 163.204 291.199C162.826 288.89 162.029 286.69 160.862 284.734C159.694 282.778 158.18 281.106 156.412 279.821C152.415 277.063 148.066 274.989 143.512 273.671C142.553 273.381 141.561 273.249 140.567 273.281L47.0827 275.294C47.0827 275.294 36.6521 273.51 38.5257 261.916C40.3992 250.323 43.6033 214.675 43.6033 214.675C43.6033 214.675 44.1386 171.29 25.411 159.102C6.68349 146.913 8.28936 165.939 8.28936 165.939Z" fill="black"/>
<path id="Vector_51" d="M10.4305 164.852C10.4305 164.852 21.4039 198.138 20.8687 218.047C20.3334 237.956 11.7687 275.396 11.7687 275.396C11.7687 275.396 3.2117 305.709 25.1433 308.385C47.075 311.06 118.781 306.601 118.781 306.601C118.781 306.601 145.546 315.511 154.103 311.697C157.429 310.194 160.312 306.898 162.591 303.425C163.839 301.531 164.726 299.376 165.2 297.089C165.673 294.802 165.723 292.433 165.345 290.124C164.967 287.816 164.17 285.617 163.002 283.661C161.835 281.706 160.321 280.035 158.553 278.751C154.561 275.971 150.211 273.883 145.653 272.559C144.694 272.27 143.702 272.135 142.709 272.16L49.2238 274.207C49.2238 274.207 38.7933 272.423 40.6668 260.838C42.5403 249.253 45.7444 213.588 45.7444 213.588C45.7444 213.588 46.2797 170.203 27.5521 158.023C8.8246 145.843 10.4305 164.852 10.4305 164.852Z" fill="#3A3768"/>
<path id="Vector_52" d="M200.26 450.983V461.728C200.26 461.728 246.471 462.654 256.649 462.654C266.827 462.654 280.837 457.099 281.67 452.648C282.504 448.198 269.993 444.494 265.321 444.316C260.648 444.138 260.488 442.091 254.477 438.566C251.09 436.578 245.943 430.811 242.104 426.165C239.145 422.581 236.966 419.668 236.966 419.668C236.966 419.668 212.105 419.116 204.932 423.558C203.281 424.585 202.141 426.59 201.361 429.079C198.776 437.377 200.26 450.983 200.26 450.983Z" fill="#434175"/>
<path id="Vector_53" opacity="0.1" d="M201.361 429.079C206.576 427.066 237.088 426.284 242.104 426.165C239.145 422.581 236.966 419.668 236.966 419.668C236.966 419.668 212.105 419.116 204.932 423.558C203.281 424.585 202.141 426.581 201.361 429.079Z" fill="black"/>
<path id="Vector_54" d="M67.3013 257.721L69.9931 259.53L71.0025 260.209L74.9254 262.825C95.8935 276.865 153.086 314.908 156.221 314.636C157.039 314.56 159.501 314.152 162.904 313.532C163.807 313.371 164.778 313.201 165.795 313.005C178.894 310.585 200.665 306.21 203.097 305.004C206.431 303.306 205.766 310.746 204.428 317.048C203.089 323.351 202.095 353.571 203.594 357.444C205.093 361.317 204.428 367.636 204.428 367.636L202.432 401.542L203.77 408.745C203.77 408.745 199.266 412.822 201.101 415.226C202.936 417.629 201.269 428.017 201.269 428.017C206.622 425.792 242.808 425.053 242.808 425.053C242.808 425.053 241.279 410.223 242.64 406.707C244.001 403.19 242.976 382.245 242.976 382.245C242.976 382.245 243.81 366.311 242.311 362.608C240.812 358.905 242.808 335.182 242.808 335.182C242.808 335.182 244.146 321.1 244.475 292.374C244.804 263.649 229.793 262.732 229.793 262.732C229.793 262.732 227.797 262.553 224.753 262.231C218.812 261.594 208.901 260.388 202.279 258.833C200.922 258.517 199.582 258.12 198.264 257.644C190.089 254.553 162.568 254.434 158.064 256.659C153.728 258.799 149.392 256.82 149.071 256.659L145.569 250.357L112.105 253.525L108.565 253.865L75.6213 256.982L73.3272 257.203L67.3013 257.721Z" fill="#565387"/>
<path id="Vector_55" opacity="0.1" d="M201.43 286.14C211.149 291.406 220.425 272.746 224.746 262.222C218.804 261.585 208.893 260.379 202.271 258.825C197.92 266.902 192.108 281.103 201.43 286.14Z" fill="black"/>
<path id="Vector_56" d="M172.234 160.07C172.435 161.342 172.834 162.567 173.411 163.688C177.005 171.774 187.413 188.422 187.413 188.422C190.508 190.573 193.123 193.478 195.06 196.915C197.897 202.292 198.73 214.888 198.73 214.888C198.73 214.888 205.07 242.865 208.067 246.764C209.597 248.709 208.901 249.864 207.861 250.535C205.729 251.854 203.922 253.735 202.6 256.013C198.226 263.819 191.244 279.32 201.07 284.637C214.415 291.865 226.933 253.983 226.933 253.983C226.933 253.983 224.424 227.118 223.759 222.489C223.094 217.86 219.087 198.767 219.087 198.767C219.087 198.767 216.25 190.613 214.583 184.871C212.916 179.13 207.915 172.454 207.915 172.454C207.915 172.454 198.899 152.443 196.398 149.478C195.236 148.103 193.607 146.37 192.2 144.909C190.571 143.21 189.225 141.885 189.225 141.885C189.225 141.885 172.065 155.636 172.234 160.07Z" fill="#EE8E9E"/>
<path id="Vector_57" d="M59.1266 448.758L89.4853 463.766C89.4853 463.766 128.829 464.692 135.711 462.654C142.594 460.615 141.064 452.096 132.041 450.423C123.017 448.75 120.869 444.316 117.863 442.278C115.837 440.902 108.641 432.009 104.183 426.378C102.034 423.668 100.512 421.706 100.512 421.706C100.512 421.706 94.67 404.473 78.4889 408.363C75.5302 409.079 72.804 410.68 70.6048 412.992C61.8796 421.961 61.1225 439.704 61.1225 439.704L59.1266 448.758Z" fill="#434175"/>
<path id="Vector_58" opacity="0.1" d="M71.0025 260.209L74.9254 262.825C95.8935 276.865 153.086 314.908 156.221 314.636C157.039 314.56 159.501 314.152 162.904 313.532C163.807 313.371 164.778 313.201 165.795 313.005L165.91 312.793C167.592 309.534 168.878 306.041 169.733 302.405C173.235 287.584 155.884 276.279 155.884 276.279L152.214 273.111C148.046 265.314 118.016 257.941 118.016 257.941L114.147 255.011L112.075 253.465L111.532 253.066L106.836 249.558L83.3142 251.41L76.3248 256.396L75.5601 256.922L73.006 258.782L71.0025 260.209Z" fill="black"/>
<path id="Vector_59" opacity="0.1" d="M70.6048 412.992C76.9901 437.53 103.663 429.512 103.663 429.512L104.168 426.403C102.019 423.694 100.497 421.732 100.497 421.732C100.497 421.732 94.6547 404.498 78.4736 408.388C75.5228 409.1 72.8025 410.692 70.6048 412.992V412.992Z" fill="black"/>
<path id="Vector_60" d="M63.6307 301.632C73.4724 301.632 98.807 314.789 98.807 314.789C103.976 319.24 110.981 317.753 110.981 317.753C110.981 317.753 98.6617 331.649 99.0058 337.399C99.3499 343.149 91.9935 352.594 91.9935 352.594L69.3048 402.434C70.9795 437.827 103.67 428.008 103.67 428.008L105.009 419.668C107.012 418.555 110.017 407.437 110.017 407.437C110.017 407.437 110.018 402.995 112.013 401.695C114.009 400.396 118.184 387.052 118.184 387.052C118.184 387.052 127.193 370.193 126.688 367.976C126.183 365.759 133.196 354.454 133.196 354.454C133.196 354.454 145.041 341.484 144.536 339.166C144.031 336.847 154.064 324.981 154.064 324.981C157.691 321.865 160.705 317.957 162.92 313.498C164.6 310.241 165.886 306.751 166.743 303.119C169.565 291.177 158.859 281.52 154.584 278.216C153.552 277.417 152.894 276.993 152.894 276.993L149.224 273.825C147.327 270.274 140.086 266.809 132.744 264.099C127.453 262.137 122.115 260.558 118.697 259.615C116.403 258.995 115.026 258.646 115.026 258.646L111.157 255.759L109.796 254.739L108.549 253.814L103.846 250.306L93.3852 251.155L80.3241 252.183L73.3424 257.177L70.0083 259.555L56.9702 268.898C56.9702 268.898 56.626 272.457 56.519 277.247C56.519 277.613 56.519 277.986 56.519 278.377C56.3431 288 57.2837 301.632 63.6307 301.632Z" fill="#565387"/>
<path id="Vector_61" d="M113.841 94.1003L117.359 107.996C117.359 107.996 123.537 131.905 124.203 133.57C124.868 135.235 141.026 152.103 141.722 152.468C142.418 152.833 151.197 158.414 151.197 158.414C151.197 158.414 151.893 127.837 151.197 118.953C151.139 116.998 151.286 115.043 151.633 113.126C152.696 106.153 155.387 95.935 157.62 88.0614C159.486 81.4619 161.038 76.5186 161.038 76.5186C161.038 76.5186 122 74.6585 123.339 78.9223C123.843 80.5361 123.675 83.2286 123.193 85.9295C122.383 90.3801 120.708 94.8308 119.668 94.4911C118.652 94.2334 117.613 94.1052 116.571 94.1088C115.149 94.0409 113.841 94.1003 113.841 94.1003Z" fill="#EE8E9E"/>
<path id="Vector_62" opacity="0.1" d="M123.209 85.9126C127.976 90.3295 133.898 92.9223 140.097 93.3063C146.295 93.6903 152.44 91.8452 157.62 88.0445C159.486 81.445 161.038 76.5017 161.038 76.5017C161.038 76.5017 122 74.6416 123.339 78.9054C123.859 80.5192 123.69 83.2116 123.209 85.9126Z" fill="black"/>
<path id="Vector_63" d="M112.839 60.194C112.838 66.5359 114.529 72.7358 117.701 78.0097C120.872 83.2836 125.38 87.3945 130.654 89.8226C135.929 92.2507 141.734 92.8869 147.334 91.6507C152.934 90.4145 158.078 87.3614 162.116 82.8776C166.154 78.3939 168.905 72.6807 170.019 66.4608C171.133 60.2409 170.562 53.7937 168.378 47.9344C166.193 42.0751 162.493 37.067 157.745 33.5434C152.998 30.0199 147.416 28.1392 141.707 28.1392C137.911 28.119 134.15 28.9342 130.64 30.5378C127.13 32.1415 123.941 34.5017 121.256 37.4822C118.572 40.4627 116.446 44.0044 115.002 47.9026C113.557 51.8009 112.822 55.9784 112.839 60.194V60.194Z" fill="#EE8E9E"/>
<path id="Vector_64" opacity="0.1" d="M113.841 94.1003L117.359 107.996C117.359 107.996 123.537 131.905 124.203 133.57C124.868 135.235 141.026 152.103 141.722 152.468C142.418 152.833 151.197 158.414 151.197 158.414C151.197 158.414 151.893 127.837 151.197 118.953C151.139 116.998 151.286 115.043 151.633 113.126L149.338 123.395L149.507 143.966L150.837 145.079L147.84 150.081V146.37C147.84 146.37 137.134 134.886 135.49 130.062C133.846 125.238 127.843 116.523 127.843 116.523C127.843 116.523 120.96 103.783 120.838 101.532C120.708 99.8335 117.833 95.7905 116.571 94.1088C115.149 94.0409 113.841 94.1003 113.841 94.1003Z" fill="black"/>
<path id="Vector_65" opacity="0.1" d="M172.234 160.07C172.435 161.342 172.834 162.567 173.411 163.688C177.059 163.281 189.47 160.698 192.223 144.934C190.594 143.236 189.248 141.911 189.248 141.911C189.248 141.911 172.065 155.636 172.234 160.07Z" fill="black"/>
<path id="Vector_66" opacity="0.1" d="M56.4807 278.318C59.8454 275.668 63.0495 272.058 64.9613 271.064C67.7983 269.578 72.1342 264.762 72.1342 264.762C72.1342 264.762 73.2353 263.912 74.9253 262.825C78.0224 260.812 83.1 257.89 86.9847 257.534C90.4641 257.211 102.042 256.387 111.142 255.759L123.017 254.909C123.017 254.909 133.861 250.662 138.533 253.423C141.879 255.277 145.404 256.702 149.04 257.67C149.04 257.67 149.04 257.262 149.04 256.565L145.538 250.263L108.534 253.771L103.831 250.263L80.3088 252.115L73.3271 257.109L67.3013 257.678L69.993 259.487L56.9549 268.83C56.9549 268.83 56.5572 272.975 56.4807 278.318Z" fill="black"/>
<path id="Vector_67" d="M51.5944 279.957C53.361 279.371 55.0168 278.432 56.4808 277.188V277.188C59.8379 274.546 63.0343 270.945 64.9384 269.951C67.7755 268.465 72.1113 263.649 72.1113 263.649C72.1113 263.649 80.9589 256.973 86.9618 256.421C88.5983 256.268 92.0242 256.005 96.1382 255.708L109.758 254.739L116.823 254.247L122.995 253.831C122.995 253.831 133.838 249.584 138.51 252.344C141.856 254.198 145.381 255.623 149.017 256.591C149.017 256.591 149.186 243.621 150.547 238.245C151.908 232.868 153.713 223.05 153.713 223.05C153.713 223.05 155.242 209.528 156.718 203.413C158.194 197.297 164.059 163.204 167.064 160.945C170.07 158.686 171.729 162.644 171.729 162.644C171.729 162.644 191.749 162.27 192.085 137.817C192.085 137.817 182.741 127.438 182.075 124.847C181.41 122.257 172.57 112.616 172.57 112.616C172.57 112.616 167.561 102.237 161.864 102.05C159.186 101.877 156.499 101.971 153.835 102.331L149.017 124.1L149.186 144.671L150.524 145.784L147.519 150.786V147.143C147.519 147.143 136.813 135.651 135.176 130.835C133.54 126.019 127.529 117.288 127.529 117.288C127.529 117.288 120.693 104.547 120.525 102.297C120.356 100.046 115.684 94.1173 115.684 94.1173C114.742 93.9912 113.789 93.9912 112.847 94.1173C112.426 94.1477 112.005 94.0812 111.608 93.922C108.914 92.9681 106.047 92.7869 103.273 93.3954C97.5071 94.7289 88.7436 97.158 86.3271 100.071C82.6566 104.522 77.3189 108.786 71.3084 127.31L103.671 140.28L100.902 146.132L75.1472 200.491C75.1472 200.491 74.2907 202.037 73.136 204.05C71.6066 206.666 69.6261 210.089 68.3031 211.966C65.9708 215.304 66.6361 225.861 66.6361 225.861C66.6361 225.861 66.139 230.864 64.472 232.724C62.8049 234.584 63.1261 241.421 63.1261 241.421L58.7902 259.394C58.7902 259.394 54.7832 263.471 54.7832 265.339C54.7832 267.208 51.6173 272.381 51.6173 272.381C51.6173 272.381 46.7768 281.248 51.5944 279.957Z" fill="#DFE5EE"/>
<path id="Vector_68" opacity="0.1" d="M73.1283 204.05C73.3513 205.072 73.5224 206.107 73.6406 207.15C73.6406 207.15 86.8164 241.43 88.4835 243.468C88.9958 244.097 90.9382 247.18 93.3699 251.113L96.1611 255.691C101.2 264.006 106.867 273.451 106.867 273.451L119.209 285.495C119.209 285.495 146.066 287.881 154.6 278.199C153.567 277.4 152.91 276.976 152.91 276.976L149.239 273.807C147.343 270.257 140.101 266.792 132.76 264.082C126 264.133 120.471 264.745 120.471 264.745L118.712 259.598L116.877 254.23L107.517 226.982C107.517 226.982 101.499 192.524 99.4952 190.851C97.4917 189.177 97.9658 183.996 97.9658 183.996C97.9658 183.996 101.636 169.362 100.298 167.323C98.9599 165.285 102.47 150.268 102.47 150.268C102.122 148.804 101.581 147.404 100.864 146.115L75.1089 200.474C75.1089 200.474 74.283 202.011 73.1283 204.05Z" fill="black"/>
<path id="Vector_69" d="M102.829 149.139C102.829 149.139 99.3271 164.147 100.665 166.185C102.004 168.224 98.3253 182.858 98.3253 182.858C98.3253 182.858 97.8282 188.048 99.8547 189.713C101.881 191.377 107.876 225.844 107.876 225.844L120.8 263.649C120.8 263.649 161.245 259.199 157.077 273.281C152.91 287.363 119.538 284.399 119.538 284.399L107.196 272.355C107.196 272.355 90.51 244.377 88.843 242.339C87.1759 240.3 73.9925 206.02 73.9925 206.02C73.9925 206.02 73.3272 199.166 70.4902 195.641C67.6531 192.116 69.8249 186.171 69.8249 186.171C69.8249 186.171 66.3225 141.35 69.9931 135.982C73.6637 130.614 99.0059 133.018 102.829 149.139Z" fill="#EE8E9E"/>
<path id="Vector_70" opacity="0.1" d="M222.452 293.292C222.452 293.292 211.937 297.19 209.123 302.745C206.309 308.3 222.452 293.292 222.452 293.292Z" fill="black"/>
<path id="Vector_71" opacity="0.1" d="M217.106 281.069C216.778 281.622 202.715 297.292 203.594 301.08C204.473 304.868 217.106 281.069 217.106 281.069Z" fill="black"/>
<path id="Vector_72" opacity="0.1" d="M139.871 292.188C139.871 292.188 124.187 300.401 122.849 303.977C121.511 307.552 139.871 292.188 139.871 292.188Z" fill="black"/>
<path id="Vector_73" opacity="0.1" d="M138.87 302.745C138.87 302.745 124.715 309.413 122.811 311.086C120.907 312.759 138.87 302.745 138.87 302.745Z" fill="black"/>
<path id="Vector_74" opacity="0.1" d="M132.362 317.014C132.362 317.014 126.092 322.204 122.635 318.127C119.179 314.05 132.362 317.014 132.362 317.014Z" fill="black"/>
<path id="Vector_75" opacity="0.1" d="M155.884 181.746C155.548 182.306 134.694 223.993 129.189 227.144C123.683 230.295 155.884 181.746 155.884 181.746Z" fill="black"/>
<path id="Vector_76" opacity="0.1" d="M154.883 197.501C154.883 198.427 134.526 246.764 131.177 247.341C127.827 247.919 154.883 197.501 154.883 197.501Z" fill="black"/>
<path id="Vector_77" opacity="0.1" d="M77.4718 228.63C77.4718 228.63 67.6531 251.945 63.8296 253.312C60.0061 254.68 77.4718 228.63 77.4718 228.63Z" fill="black"/>
<path id="Vector_78" opacity="0.1" d="M75.8048 218.251C75.8048 218.251 72.4172 226.405 70.3601 226.405C68.3031 226.405 75.8048 218.251 75.8048 218.251Z" fill="black"/>
<path id="Vector_79" opacity="0.1" d="M112.839 60.194C112.837 64.0255 113.456 67.8262 114.667 71.414C114.56 67.253 115.227 63.1122 116.626 59.2505C118.025 55.3887 120.126 51.889 122.798 48.9699C125.47 46.0509 128.655 43.7753 132.155 42.2853C135.654 40.7954 139.393 40.1231 143.137 40.3105C144.536 40.3784 146.196 40.7437 146.762 42.1536C146.984 42.9107 147.1 43.7014 147.106 44.4978C147.526 48.0991 150.814 50.3499 153.904 51.522C156.993 52.6941 160.434 53.4416 162.675 56.0831C164.724 58.5037 165.306 61.9776 166.315 65.1118C166.883 67.0308 167.846 68.776 169.129 70.2079C170.434 65.8003 170.863 61.1306 170.385 56.5212C169.907 51.9118 168.534 47.4725 166.361 43.5099C164.188 39.5473 161.266 36.1557 157.798 33.5695C154.329 30.9832 150.397 29.2637 146.272 28.5299C142.147 27.7961 137.928 28.0654 133.906 29.3192C129.884 30.5729 126.155 32.7813 122.977 35.7919C119.798 38.8024 117.245 42.5433 115.495 46.7563C113.745 50.9694 112.839 55.5541 112.839 60.194V60.194Z" fill="black"/>
<path id="Vector_80" d="M166.743 31.1714C164.373 27.5956 160.167 26.3556 156.511 24.555C151.991 22.2792 148 18.8823 144.846 14.6255C141.693 10.3687 139.46 5.36529 138.319 0C136.862 2.37952 136.179 5.23952 136.382 8.10835C136.585 10.9772 137.662 13.6835 139.436 15.7811C132.79 15.28 125.449 14.4306 120.945 8.98621C119.92 12.9102 122.987 17.3694 121.312 21.0046C119.875 24.1303 115.959 24.402 113.428 26.5254C110.729 28.7508 109.834 32.7852 109.666 36.5139C109.498 40.2426 109.849 44.0647 108.855 47.632C108.091 50.3414 106.561 52.8301 106.408 55.6584C106.391 57.7657 106.809 59.8492 107.632 61.7483C109.519 66.8077 112.076 71.5255 115.218 75.7457C114.362 71.2211 114.45 66.5391 115.474 62.0579C116.498 57.5766 118.431 53.4148 121.125 49.8905C123.819 46.3662 127.203 43.5729 131.018 41.724C134.833 39.8752 138.978 39.0198 143.137 39.2234C144.536 39.2913 146.196 39.665 146.761 41.0749C146.985 41.8317 147.102 42.6226 147.106 43.4192C147.526 47.012 150.814 49.2628 153.904 50.4349C156.993 51.607 160.434 52.3629 162.675 54.9959C164.724 57.4166 165.305 60.8905 166.315 64.0246C167.324 67.1587 169.274 70.4373 172.249 70.8195C172.93 66.165 173.618 61.4765 173.197 56.7541C172.738 51.7004 169.68 48.8381 168.609 44.4384C167.447 39.8264 169.649 35.5541 166.743 31.1714Z" fill="#603556"/>
<path id="Vector_81" opacity="0.1" d="M82.1824 120.974L71.6754 128.015C71.6754 128.015 68.6701 139.312 66.3225 140.756C66.3225 140.756 87.3441 127.786 103.189 157.615C103.189 157.615 102.692 153.725 104.856 151.874C107.02 150.022 106.523 142.055 106.523 142.055C107.106 140.793 107.617 139.491 108.052 138.157C109.505 134.122 101.667 110.782 82.1824 120.974Z" fill="black"/>
<path id="Vector_82" d="M81.8153 120.227L71.3007 127.268C71.3007 127.268 68.2954 138.573 65.9478 140.059C65.9478 140.059 86.9694 127.081 102.814 156.919C102.814 156.919 102.317 153.029 104.489 151.177C106.66 149.326 106.156 141.35 106.156 141.35C106.743 140.093 107.254 138.793 107.685 137.46C109.169 133.383 101.3 110.034 81.8153 120.227Z" fill="#DFE5EE"/>
<g id="Group" opacity="0.1">
<path id="Vector_83" opacity="0.1" d="M121.817 18.3291C121.779 15.3054 120.157 11.9759 120.945 8.98618L121.083 9.14756C121.274 12.2392 122.819 15.4923 121.817 18.3291Z" fill="black"/>
<path id="Vector_84" opacity="0.1" d="M110.002 34.2716C109.842 37.669 110.117 41.0665 109.429 44.3705C109.681 41.7799 109.543 39.1129 109.666 36.4969C109.716 35.2566 109.862 34.0234 110.102 32.8107C110.056 33.3288 110.018 33.7874 110.002 34.2716Z" fill="black"/>
<path id="Vector_85" opacity="0.1" d="M106.408 55.6414C106.452 54.9675 106.562 54.301 106.737 53.6539C106.766 55.6799 107.185 57.6756 107.968 59.506C109.695 64.1344 111.985 68.4782 114.774 72.4162C114.865 73.5288 115.013 74.6348 115.218 75.7287C112.076 71.5085 109.519 66.7906 107.632 61.7313C106.809 59.8322 106.391 57.7486 106.408 55.6414V55.6414Z" fill="black"/>
<path id="Vector_86" opacity="0.1" d="M139.772 13.5557C139.13 13.5133 138.472 13.4623 137.822 13.4028C136.365 10.4866 135.968 7.06152 136.713 3.8306C136.573 5.59986 136.773 7.38204 137.3 9.05879C137.828 10.7355 138.67 12.2685 139.772 13.5557Z" fill="black"/>
<path id="Vector_87" opacity="0.1" d="M121.45 47.6405C124.165 44.1437 127.554 41.3695 131.364 39.523C135.175 37.6765 139.311 36.8049 143.466 36.9726C144.865 37.049 146.524 37.4142 147.098 38.8242C147.318 39.5821 147.434 40.3723 147.442 41.1684C147.863 44.7612 151.143 47.0205 154.24 48.1841C157.337 49.3477 160.763 50.1121 163.004 52.7536C165.061 55.1743 165.642 58.6482 166.651 61.7738C167.661 64.8994 169.603 68.1779 172.57 68.5686L172.249 70.794C169.274 70.4372 167.324 67.1587 166.315 63.9991C165.306 60.8395 164.724 57.3911 162.675 54.9705C160.434 52.3374 156.993 51.573 153.904 50.4094C150.814 49.2458 147.526 47.012 147.106 43.3937C147.102 42.5972 146.986 41.8062 146.762 41.0495C146.165 39.6395 144.536 39.2658 143.137 39.1979C136.637 38.8612 130.244 41.1272 125.122 45.5837C120 50.0403 116.488 56.3912 115.225 63.481C115.89 57.6474 118.051 52.149 121.45 47.6405Z" fill="black"/>
</g>
<path id="Vector_88" d="M300.252 117.466V150.702L271.622 148.153V117.466H300.252Z" fill="#3A3768"/>
<path id="Vector_89" opacity="0.1" d="M300.252 147.984V150.702L271.622 148.153V145.436L300.252 147.984Z" fill="black"/>
<path id="Vector_90" d="M309 153.088L264.464 150.54C264.464 149.256 264.923 148.025 265.741 147.117C266.558 146.209 267.667 145.699 268.823 145.699L304.642 148.247C305.798 148.247 306.906 148.757 307.724 149.665C308.541 150.573 309 151.804 309 153.088Z" fill="#3A3768"/>
<path id="Vector_91" d="M363.394 126.597L209.345 121.501C208.729 121.502 208.119 121.368 207.55 121.107C206.98 120.845 206.463 120.462 206.028 119.978C205.592 119.494 205.247 118.92 205.012 118.288C204.777 117.656 204.656 116.978 204.657 116.294V15.2205C204.657 14.5371 204.778 13.8605 205.014 13.2293C205.25 12.5981 205.595 12.0247 206.03 11.5419C206.466 11.0591 206.983 10.6764 207.551 10.4156C208.12 10.1549 208.729 10.0213 209.345 10.0224L363.394 15.1186C364.636 15.1186 365.827 15.6659 366.706 16.6405C367.584 17.6151 368.079 18.9372 368.081 20.3166V121.39C368.081 122.771 367.587 124.095 366.708 125.072C365.829 126.048 364.637 126.597 363.394 126.597Z" fill="#3A3768"/>
<path id="Vector_92" d="M364.296 119.207L208.098 114.111V23.0431L364.296 28.1392V119.207Z" fill="#63A6FF"/>
<path id="Vector_93" d="M286.197 19.8495C286.957 19.8495 287.574 19.1726 287.574 18.3377C287.574 17.5027 286.957 16.8258 286.197 16.8258C285.437 16.8258 284.821 17.5027 284.821 18.3377C284.821 19.1726 285.437 19.8495 286.197 19.8495Z" fill="white"/>
<path id="Vector_94" opacity="0.1" d="M300.222 123.76L271.683 123.25V124.329H300.222V123.76Z" fill="black"/>
<path id="Vector_95" opacity="0.1" d="M248.253 155.033L287.336 157.879L279.009 171.171L236.04 166.075L248.253 155.033Z" fill="black"/>
<path id="Vector_96" d="M247.488 154.184L286.572 157.029L278.244 170.322L235.276 165.226L247.488 154.184Z" fill="#3A3768"/>
<path id="Vector_97" d="M249.216 155.169L283.299 157.479L276.042 168.309L238.564 164.155L249.216 155.169Z" fill="#D5E1F4"/>
<path id="text" d="M225.32 48.2336C225.32 49.3639 224.946 50.2275 224.199 50.8245C223.451 51.4215 222.355 51.72 220.911 51.72H219.988L219.147 55.6506H217.985L220.097 45.6565H222.353C223.328 45.6565 224.067 45.873 224.568 46.3059C225.069 46.7343 225.32 47.3769 225.32 48.2336ZM220.2 50.7219H221.109C222.093 50.7219 222.841 50.5146 223.351 50.0999C223.862 49.6851 224.117 49.0767 224.117 48.2747C224.117 47.705 223.957 47.2948 223.638 47.0442C223.324 46.789 222.838 46.6614 222.182 46.6614H221.068L220.2 50.7219ZM231.167 48.0217C231.482 48.0217 231.755 48.0536 231.988 48.1174L231.742 49.1428C231.5 49.0836 231.261 49.054 231.024 49.054C230.609 49.054 230.219 49.1907 229.855 49.4641C229.495 49.7375 229.178 50.1181 228.905 50.6057C228.636 51.0888 228.438 51.6265 228.31 52.219L227.578 55.6506H226.43L228.03 48.1584H228.98L228.829 49.5461H228.898C229.226 49.1132 229.497 48.8033 229.711 48.6165C229.925 48.425 230.149 48.2792 230.381 48.179C230.618 48.0741 230.88 48.0217 231.167 48.0217ZM236.673 48.0627C237.539 48.0627 238.222 48.3202 238.724 48.8352C239.225 49.3456 239.476 50.0497 239.476 50.9475C239.476 51.8043 239.312 52.6132 238.984 53.3743C238.655 54.1353 238.211 54.7232 237.651 55.1379C237.09 55.5527 236.457 55.76 235.75 55.76C234.875 55.76 234.189 55.5025 233.693 54.9875C233.196 54.4726 232.947 53.7685 232.947 52.8752C232.947 52.0094 233.114 51.1959 233.446 50.4348C233.779 49.6692 234.228 49.0836 234.793 48.678C235.358 48.2678 235.985 48.0627 236.673 48.0627ZM238.286 50.7903C238.286 50.2662 238.143 49.8424 237.856 49.5188C237.573 49.1907 237.188 49.0266 236.7 49.0266C236.204 49.0266 235.757 49.1952 235.36 49.5325C234.969 49.8697 234.663 50.3391 234.444 50.9407C234.23 51.5377 234.123 52.203 234.123 52.9368C234.123 53.5338 234.267 53.9963 234.554 54.3245C234.846 54.648 235.263 54.8098 235.805 54.8098C236.279 54.8098 236.705 54.6435 237.083 54.3108C237.461 53.9781 237.755 53.5064 237.965 52.8958C238.179 52.2805 238.286 51.5787 238.286 50.7903ZM239.916 59.0139C239.602 59.0139 239.321 58.9661 239.075 58.8704V57.9065C239.353 58.0068 239.624 58.0569 239.889 58.0569C240.458 58.0569 240.841 57.5898 241.037 56.6555L242.842 48.1584H243.977L242.158 56.7581C241.994 57.5374 241.732 58.107 241.372 58.467C241.017 58.8316 240.531 59.0139 239.916 59.0139ZM243.163 46.2444C243.163 45.9892 243.236 45.7818 243.382 45.6223C243.528 45.4583 243.717 45.3762 243.949 45.3762C244.341 45.3762 244.537 45.5813 244.537 45.9915C244.537 46.2421 244.46 46.454 244.305 46.6272C244.154 46.8004 243.979 46.887 243.778 46.887C243.605 46.887 243.459 46.8323 243.341 46.7229C243.222 46.609 243.163 46.4495 243.163 46.2444ZM248.457 55.7874C247.618 55.7874 246.96 55.539 246.481 55.0422C246.003 54.5455 245.763 53.8573 245.763 52.9778C245.763 52.121 245.932 51.3007 246.269 50.5168C246.611 49.7284 247.062 49.1155 247.623 48.678C248.183 48.2405 248.801 48.0217 249.475 48.0217C250.173 48.0217 250.697 48.1744 251.048 48.4797C251.399 48.7805 251.574 49.2021 251.574 49.7444C251.574 50.5647 251.196 51.2096 250.439 51.679C249.683 52.1438 248.6 52.3762 247.192 52.3762H246.967L246.939 52.9231C246.939 53.5201 247.078 53.9872 247.356 54.3245C247.639 54.6571 248.074 54.8235 248.662 54.8235C248.949 54.8235 249.243 54.7825 249.544 54.7004C249.849 54.6184 250.227 54.468 250.678 54.2493V55.2473C250.25 55.4478 249.872 55.5868 249.544 55.6643C249.216 55.7463 248.853 55.7874 248.457 55.7874ZM249.407 48.9993C248.938 48.9993 248.496 49.2135 248.081 49.6418C247.671 50.0702 247.356 50.665 247.137 51.426H247.219C248.259 51.426 249.054 51.2916 249.605 51.0227C250.161 50.7493 250.439 50.3551 250.439 49.8401C250.439 49.5986 250.355 49.398 250.186 49.2385C250.022 49.079 249.762 48.9993 249.407 48.9993ZM256.157 55.7874C255.273 55.7874 254.587 55.5435 254.099 55.0559C253.612 54.5683 253.368 53.8801 253.368 52.9915C253.368 52.08 253.536 51.2392 253.874 50.469C254.211 49.6988 254.676 49.0995 255.268 48.6711C255.865 48.2382 256.535 48.0217 257.278 48.0217C257.902 48.0217 258.513 48.1379 259.11 48.3704L258.789 49.3342C258.242 49.1018 257.743 48.9856 257.292 48.9856C256.781 48.9856 256.314 49.1611 255.89 49.512C255.471 49.8583 255.141 50.3437 254.899 50.968C254.662 51.5878 254.544 52.2623 254.544 52.9915C254.544 53.5748 254.694 54.0282 254.995 54.3518C255.3 54.6754 255.719 54.8372 256.252 54.8372C256.581 54.8372 256.891 54.7916 257.182 54.7004C257.474 54.6093 257.761 54.5022 258.044 54.3792V55.3567C257.478 55.6438 256.849 55.7874 256.157 55.7874ZM262.401 54.8508C262.651 54.8508 262.98 54.7916 263.385 54.6731V55.5549C263.23 55.6187 263.039 55.6734 262.811 55.719C262.583 55.7646 262.401 55.7874 262.264 55.7874C261.694 55.7874 261.257 55.6529 260.952 55.384C260.651 55.1106 260.5 54.705 260.5 54.1672C260.5 53.8665 260.541 53.5247 260.623 53.1418L261.492 49.0266H260.316L260.411 48.5276L261.676 47.9944L262.531 46.4358H263.201L262.825 48.1584H264.698L264.52 49.0266H262.654L261.772 53.1555C261.69 53.552 261.649 53.8528 261.649 54.0579C261.649 54.3131 261.715 54.509 261.847 54.6458C261.979 54.7825 262.164 54.8508 262.401 54.8508ZM273.897 55.6506L272.763 46.7913H272.708C272.676 47.1194 272.61 47.5706 272.51 48.1448C272.414 48.7144 272.33 49.1679 272.257 49.5051L270.958 55.6506H269.851L271.963 45.6565H273.631L274.649 53.887H274.711L279.216 45.6565H281.034L278.963 55.6506H277.773C278.348 52.9618 278.787 50.8997 279.093 49.4641C279.398 48.024 279.612 47.1285 279.735 46.7776H279.694L274.793 55.6506H273.897ZM286.061 48.0217C286.481 48.0217 286.854 48.1357 287.182 48.3635C287.51 48.5868 287.766 48.9104 287.948 49.3342H288.023L288.481 48.1584H289.349L287.757 55.6506H286.847L287.025 54.2219H286.97C286.155 55.2655 285.296 55.7874 284.393 55.7874C283.76 55.7874 283.263 55.5618 282.903 55.1106C282.543 54.6594 282.363 54.0419 282.363 53.2581C282.363 52.3101 282.525 51.4306 282.848 50.6194C283.172 49.8082 283.619 49.1724 284.188 48.7122C284.758 48.2519 285.382 48.0217 286.061 48.0217ZM284.762 54.8372C285.205 54.8372 285.644 54.6275 286.082 54.2083C286.519 53.7844 286.875 53.2353 287.148 52.5608C287.422 51.8818 287.558 51.2027 287.558 50.5237C287.558 50.0543 287.431 49.6806 287.176 49.4026C286.92 49.1246 286.585 48.9856 286.171 48.9856C285.697 48.9856 285.255 49.1816 284.844 49.5735C284.439 49.9654 284.12 50.4963 283.887 51.1663C283.655 51.8362 283.539 52.5426 283.539 53.2854C283.539 53.8049 283.646 54.1946 283.86 54.4543C284.074 54.7096 284.375 54.8372 284.762 54.8372ZM295.293 55.6506L296.304 50.9202C296.395 50.4462 296.441 50.1181 296.441 49.9358C296.441 49.6487 296.359 49.4185 296.195 49.2454C296.035 49.0722 295.778 48.9856 295.422 48.9856C295.017 48.9856 294.62 49.1223 294.233 49.3958C293.85 49.6692 293.511 50.0588 293.214 50.5647C292.923 51.0706 292.702 51.6835 292.551 52.4036L291.861 55.6506H290.712L292.312 48.1584H293.262L293.112 49.5461H293.18C293.618 48.9902 294.039 48.5982 294.445 48.3704C294.855 48.1379 295.279 48.0217 295.716 48.0217C296.295 48.0217 296.751 48.1812 297.084 48.5002C297.421 48.8147 297.589 49.2568 297.589 49.8264C297.589 50.1864 297.537 50.5966 297.432 51.0569L296.455 55.6506H295.293ZM303.457 48.0217C303.877 48.0217 304.25 48.1357 304.578 48.3635C304.907 48.5868 305.162 48.9104 305.344 49.3342H305.419L305.877 48.1584H306.745L305.153 55.6506H304.243L304.421 54.2219H304.367C303.551 55.2655 302.692 55.7874 301.789 55.7874C301.156 55.7874 300.659 55.5618 300.299 55.1106C299.939 54.6594 299.759 54.0419 299.759 53.2581C299.759 52.3101 299.921 51.4306 300.244 50.6194C300.568 49.8082 301.015 49.1724 301.584 48.7122C302.154 48.2519 302.778 48.0217 303.457 48.0217ZM302.159 54.8372C302.601 54.8372 303.04 54.6275 303.478 54.2083C303.915 53.7844 304.271 53.2353 304.544 52.5608C304.818 51.8818 304.954 51.2027 304.954 50.5237C304.954 50.0543 304.827 49.6806 304.572 49.4026C304.316 49.1246 303.981 48.9856 303.567 48.9856C303.093 48.9856 302.651 49.1816 302.241 49.5735C301.835 49.9654 301.516 50.4963 301.284 51.1663C301.051 51.8362 300.935 52.5426 300.935 53.2854C300.935 53.8049 301.042 54.1946 301.256 54.4543C301.47 54.7096 301.771 54.8372 302.159 54.8372ZM315.225 48.1584L315.054 48.8899L313.611 49.054C313.798 49.3365 313.892 49.6965 313.892 50.134C313.892 51.0045 313.625 51.6995 313.092 52.219C312.563 52.734 311.855 52.9915 310.966 52.9915C310.715 52.9915 310.524 52.9732 310.392 52.9368C309.758 53.1783 309.442 53.4768 309.442 53.8323C309.442 54.0191 309.517 54.1444 309.667 54.2083C309.818 54.2675 310.036 54.3153 310.323 54.3518L311.123 54.4475C311.948 54.5478 312.545 54.7483 312.914 55.0491C313.288 55.3499 313.475 55.7919 313.475 56.3752C313.475 57.2138 313.142 57.8632 312.477 58.3235C311.811 58.7838 310.875 59.0139 309.667 59.0139C308.783 59.0139 308.09 58.8453 307.589 58.5081C307.088 58.1754 306.837 57.7037 306.837 57.093C306.837 56.6145 307.001 56.1998 307.329 55.8489C307.657 55.498 308.188 55.1995 308.922 54.9534C308.567 54.7665 308.389 54.4908 308.389 54.1262C308.389 53.8118 308.505 53.5429 308.737 53.3196C308.97 53.0917 309.293 52.8798 309.708 52.6838C309.421 52.538 309.186 52.3238 309.004 52.0413C308.822 51.7542 308.731 51.4215 308.731 51.0432C308.731 50.1591 309.002 49.4345 309.544 48.8694C310.091 48.3043 310.788 48.0217 311.636 48.0217C311.991 48.0217 312.342 48.0673 312.689 48.1584H315.225ZM307.944 56.9836C307.944 57.3346 308.093 57.6125 308.389 57.8176C308.685 58.0227 309.125 58.1252 309.708 58.1252C310.538 58.1252 311.185 57.9794 311.65 57.6877C312.119 57.4006 312.354 56.9928 312.354 56.4641C312.354 56.1816 312.231 55.9583 311.985 55.7942C311.738 55.6301 311.319 55.5162 310.727 55.4524L309.64 55.343C309.093 55.4569 308.674 55.6575 308.382 55.9446C308.09 56.2317 307.944 56.578 307.944 56.9836ZM309.845 51.0022C309.845 51.3896 309.947 51.6858 310.152 51.8909C310.358 52.0914 310.642 52.1917 311.007 52.1917C311.367 52.1917 311.681 52.0959 311.95 51.9045C312.219 51.7131 312.424 51.4511 312.566 51.1184C312.711 50.7812 312.784 50.4166 312.784 50.0247C312.784 49.651 312.684 49.3661 312.484 49.1702C312.283 48.9742 311.996 48.8762 311.622 48.8762C311.267 48.8762 310.955 48.9696 310.686 49.1565C310.421 49.3388 310.214 49.5963 310.064 49.929C309.918 50.2571 309.845 50.6148 309.845 51.0022ZM318.782 55.7874C317.944 55.7874 317.285 55.539 316.807 55.0422C316.328 54.5455 316.089 53.8573 316.089 52.9778C316.089 52.121 316.257 51.3007 316.595 50.5168C316.936 49.7284 317.388 49.1155 317.948 48.678C318.509 48.2405 319.126 48.0217 319.801 48.0217C320.498 48.0217 321.022 48.1744 321.373 48.4797C321.724 48.7805 321.899 49.2021 321.899 49.7444C321.899 50.5647 321.521 51.2096 320.765 51.679C320.008 52.1438 318.926 52.3762 317.518 52.3762H317.292L317.265 52.9231C317.265 53.5201 317.404 53.9872 317.682 54.3245C317.964 54.6571 318.399 54.8235 318.987 54.8235C319.274 54.8235 319.568 54.7825 319.869 54.7004C320.174 54.6184 320.553 54.468 321.004 54.2493V55.2473C320.575 55.4478 320.197 55.5868 319.869 55.6643C319.541 55.7463 319.179 55.7874 318.782 55.7874ZM319.732 48.9993C319.263 48.9993 318.821 49.2135 318.406 49.6418C317.996 50.0702 317.682 50.665 317.463 51.426H317.545C318.584 51.426 319.379 51.2916 319.931 51.0227C320.487 50.7493 320.765 50.3551 320.765 49.8401C320.765 49.5986 320.68 49.398 320.512 49.2385C320.348 49.079 320.088 48.9993 319.732 48.9993ZM327.781 55.6506L328.793 50.9202C328.875 50.4918 328.916 50.1842 328.916 49.9973C328.916 49.6783 328.845 49.4299 328.704 49.2522C328.563 49.0745 328.321 48.9856 327.979 48.9856C327.596 48.9856 327.223 49.1223 326.858 49.3958C326.498 49.6692 326.179 50.0611 325.901 50.5715C325.628 51.0774 325.416 51.6881 325.265 52.4036L324.575 55.6506H323.427L325.026 48.1584H325.976L325.826 49.5461H325.894C326.291 49.0038 326.685 48.6142 327.077 48.3772C327.473 48.1402 327.881 48.0217 328.301 48.0217C328.816 48.0217 329.212 48.1698 329.49 48.4661C329.768 48.7623 329.932 49.1747 329.982 49.7034H330.037C330.429 49.1337 330.846 48.7122 331.288 48.4387C331.73 48.1607 332.177 48.0217 332.628 48.0217C333.206 48.0217 333.653 48.1767 333.968 48.4866C334.287 48.7965 334.446 49.2476 334.446 49.8401C334.446 50.15 334.396 50.5556 334.296 51.0569L333.311 55.6506H332.149L333.161 50.9202C333.252 50.4462 333.298 50.1135 333.298 49.9221C333.298 49.6396 333.218 49.414 333.058 49.2454C332.903 49.0722 332.657 48.9856 332.32 48.9856C331.951 48.9856 331.586 49.1178 331.226 49.3821C330.866 49.6464 330.55 50.0224 330.276 50.51C330.007 50.9931 329.802 51.5673 329.661 52.2327L328.929 55.6506H327.781ZM339.295 55.7874C338.457 55.7874 337.798 55.539 337.32 55.0422C336.841 54.5455 336.602 53.8573 336.602 52.9778C336.602 52.121 336.771 51.3007 337.108 50.5168C337.45 49.7284 337.901 49.1155 338.461 48.678C339.022 48.2405 339.64 48.0217 340.314 48.0217C341.011 48.0217 341.535 48.1744 341.886 48.4797C342.237 48.7805 342.413 49.2021 342.413 49.7444C342.413 50.5647 342.034 51.2096 341.278 51.679C340.521 52.1438 339.439 52.3762 338.031 52.3762H337.805L337.778 52.9231C337.778 53.5201 337.917 53.9872 338.195 54.3245C338.477 54.6571 338.913 54.8235 339.501 54.8235C339.788 54.8235 340.082 54.7825 340.382 54.7004C340.688 54.6184 341.066 54.468 341.517 54.2493V55.2473C341.089 55.4478 340.71 55.5868 340.382 55.6643C340.054 55.7463 339.692 55.7874 339.295 55.7874ZM340.246 48.9993C339.776 48.9993 339.334 49.2135 338.919 49.6418C338.509 50.0702 338.195 50.665 337.976 51.426H338.058C339.097 51.426 339.892 51.2916 340.444 51.0227C341 50.7493 341.278 50.3551 341.278 49.8401C341.278 49.5986 341.194 49.398 341.025 49.2385C340.861 49.079 340.601 48.9993 340.246 48.9993ZM348.52 55.6506L349.532 50.9202C349.623 50.4462 349.668 50.1181 349.668 49.9358C349.668 49.6487 349.586 49.4185 349.422 49.2454C349.263 49.0722 349.005 48.9856 348.65 48.9856C348.244 48.9856 347.848 49.1223 347.46 49.3958C347.077 49.6692 346.738 50.0588 346.442 50.5647C346.15 51.0706 345.929 51.6835 345.779 52.4036L345.088 55.6506H343.94L345.539 48.1584H346.49L346.339 49.5461H346.408C346.845 48.9902 347.267 48.5982 347.672 48.3704C348.082 48.1379 348.506 48.0217 348.944 48.0217C349.522 48.0217 349.978 48.1812 350.311 48.5002C350.648 48.8147 350.817 49.2568 350.817 49.8264C350.817 50.1864 350.764 50.5966 350.66 51.0569L349.682 55.6506H348.52ZM355.017 54.8508C355.267 54.8508 355.596 54.7916 356.001 54.6731V55.5549C355.846 55.6187 355.655 55.6734 355.427 55.719C355.199 55.7646 355.017 55.7874 354.88 55.7874C354.31 55.7874 353.873 55.6529 353.568 55.384C353.267 55.1106 353.116 54.705 353.116 54.1672C353.116 53.8665 353.157 53.5247 353.239 53.1418L354.108 49.0266H352.932L353.027 48.5276L354.292 47.9944L355.147 46.4358H355.817L355.441 48.1584H357.314L357.136 49.0266H355.27L354.388 53.1555C354.306 53.552 354.265 53.8528 354.265 54.0579C354.265 54.3131 354.331 54.509 354.463 54.6458C354.595 54.7825 354.78 54.8508 355.017 54.8508ZM228.058 82.6506L227.167 75.6897H227.124C227.099 75.9475 227.047 76.302 226.968 76.7532C226.893 77.2008 226.826 77.557 226.769 77.822L225.749 82.6506H224.879L226.538 74.7981H227.849L228.649 81.2649H228.697L232.237 74.7981H233.666L232.038 82.6506H231.104C231.555 80.538 231.9 78.9177 232.14 77.7898C232.38 76.6583 232.548 75.9547 232.645 75.679H232.613L228.762 82.6506H228.058ZM237.616 76.6565C237.945 76.6565 238.239 76.746 238.496 76.925C238.754 77.1005 238.955 77.3547 239.098 77.6877H239.157L239.517 76.7639H240.199L238.948 82.6506H238.233L238.373 81.5281H238.33C237.689 82.3481 237.014 82.7581 236.305 82.7581C235.807 82.7581 235.417 82.5808 235.134 82.2263C234.851 81.8718 234.71 81.3866 234.71 80.7708C234.71 80.026 234.837 79.3349 235.091 78.6975C235.345 78.0601 235.696 77.5606 236.144 77.199C236.591 76.8373 237.082 76.6565 237.616 76.6565ZM236.595 82.0115C236.942 82.0115 237.288 81.8468 237.632 81.5173C237.975 81.1843 238.255 80.7528 238.47 80.2229C238.684 79.6894 238.792 79.1558 238.792 78.6223C238.792 78.2535 238.692 77.9599 238.491 77.7415C238.291 77.523 238.027 77.4138 237.702 77.4138C237.329 77.4138 236.982 77.5678 236.66 77.8757C236.341 78.1837 236.09 78.6008 235.908 79.1272C235.725 79.6536 235.634 80.2086 235.634 80.7922C235.634 81.2004 235.718 81.5066 235.886 81.7107C236.054 81.9112 236.291 82.0115 236.595 82.0115ZM244.869 82.6506L245.664 78.9338C245.735 78.5614 245.771 78.3036 245.771 78.1604C245.771 77.9348 245.707 77.754 245.578 77.6179C245.452 77.4819 245.25 77.4138 244.971 77.4138C244.652 77.4138 244.341 77.5212 244.036 77.7361C243.735 77.9509 243.469 78.2571 243.236 78.6545C243.007 79.052 242.833 79.5336 242.715 80.0994L242.172 82.6506H241.27L242.527 76.7639H243.273L243.155 77.8542H243.209C243.553 77.4174 243.884 77.1095 244.203 76.9304C244.525 76.7478 244.858 76.6565 245.202 76.6565C245.656 76.6565 246.015 76.7818 246.276 77.0325C246.541 77.2795 246.673 77.6269 246.673 78.0745C246.673 78.3573 246.632 78.6796 246.55 79.0413L245.782 82.6506H244.869ZM251.284 76.6565C251.613 76.6565 251.907 76.746 252.165 76.925C252.423 77.1005 252.623 77.3547 252.766 77.6877H252.825L253.185 76.7639H253.867L252.616 82.6506H251.902L252.041 81.5281H251.998C251.357 82.3481 250.682 82.7581 249.973 82.7581C249.476 82.7581 249.085 82.5808 248.802 82.2263C248.52 81.8718 248.378 81.3866 248.378 80.7708C248.378 80.026 248.505 79.3349 248.76 78.6975C249.014 78.0601 249.365 77.5606 249.812 77.199C250.26 76.8373 250.75 76.6565 251.284 76.6565ZM250.263 82.0115C250.611 82.0115 250.956 81.8468 251.3 81.5173C251.644 81.1843 251.923 80.7528 252.138 80.2229C252.353 79.6894 252.46 79.1558 252.46 78.6223C252.46 78.2535 252.36 77.9599 252.159 77.7415C251.959 77.523 251.696 77.4138 251.37 77.4138C250.997 77.4138 250.65 77.5678 250.328 77.8757C250.009 78.1837 249.759 78.6008 249.576 79.1272C249.393 79.6536 249.302 80.2086 249.302 80.7922C249.302 81.2004 249.386 81.5066 249.554 81.7107C249.723 81.9112 249.959 82.0115 250.263 82.0115ZM260.53 76.7639L260.395 77.3386L259.262 77.4675C259.409 77.6895 259.482 77.9724 259.482 78.3162C259.482 79.0001 259.273 79.5461 258.854 79.9543C258.439 80.359 257.882 80.5613 257.184 80.5613C256.987 80.5613 256.836 80.547 256.732 80.5183C256.235 80.7081 255.986 80.9426 255.986 81.2219C255.986 81.3687 256.045 81.4672 256.163 81.5173C256.281 81.5639 256.453 81.6015 256.679 81.6301L257.307 81.7053C257.955 81.7841 258.424 81.9417 258.714 82.178C259.008 82.4143 259.155 82.7616 259.155 83.22C259.155 83.8788 258.893 84.3891 258.371 84.7507C257.848 85.1124 257.112 85.2932 256.163 85.2932C255.468 85.2932 254.924 85.1607 254.53 84.8958C254.136 84.6344 253.939 84.2638 253.939 83.7839C253.939 83.408 254.068 83.0821 254.326 82.8064C254.584 82.5307 255.001 82.2961 255.578 82.1028C255.298 81.956 255.159 81.7393 255.159 81.4529C255.159 81.2058 255.25 80.9945 255.433 80.8191C255.615 80.6401 255.869 80.4736 256.195 80.3196C255.97 80.205 255.785 80.0367 255.642 79.8147C255.499 79.5891 255.427 79.3277 255.427 79.0305C255.427 78.3359 255.64 77.7665 256.066 77.3225C256.496 76.8785 257.044 76.6565 257.71 76.6565C257.989 76.6565 258.265 76.6923 258.537 76.7639H260.53ZM254.81 83.698C254.81 83.9737 254.926 84.1921 255.159 84.3533C255.391 84.5144 255.737 84.595 256.195 84.595C256.847 84.595 257.355 84.4804 257.721 84.2512C258.089 84.0256 258.274 83.7052 258.274 83.2898C258.274 83.0678 258.177 82.8923 257.984 82.7634C257.79 82.6345 257.461 82.545 256.996 82.4949L256.142 82.4089C255.712 82.4985 255.382 82.656 255.153 82.8816C254.924 83.1072 254.81 83.3793 254.81 83.698ZM256.303 78.9983C256.303 79.3027 256.383 79.5354 256.544 79.6965C256.706 79.8541 256.929 79.9329 257.216 79.9329C257.499 79.9329 257.746 79.8577 257.957 79.7073C258.168 79.5569 258.329 79.351 258.44 79.0896C258.555 78.8246 258.612 78.5382 258.612 78.2302C258.612 77.9366 258.533 77.7128 258.376 77.5588C258.218 77.4049 257.993 77.3279 257.699 77.3279C257.42 77.3279 257.175 77.4013 256.963 77.5481C256.756 77.6913 256.593 77.8936 256.475 78.155C256.36 78.4128 256.303 78.6939 256.303 78.9983ZM263.325 82.7581C262.666 82.7581 262.149 82.5629 261.773 82.1726C261.397 81.7823 261.209 81.2416 261.209 80.5505C261.209 79.8774 261.341 79.2328 261.606 78.6169C261.875 77.9975 262.229 77.5159 262.67 77.1721C263.11 76.8284 263.595 76.6565 264.125 76.6565C264.673 76.6565 265.085 76.7764 265.36 77.0164C265.636 77.2527 265.774 77.5839 265.774 78.01C265.774 78.6545 265.477 79.1612 264.882 79.53C264.288 79.8953 263.438 80.0779 262.331 80.0779H262.154L262.132 80.5076C262.132 80.9766 262.242 81.3437 262.46 81.6086C262.682 81.87 263.024 82.0007 263.486 82.0007C263.712 82.0007 263.943 81.9685 264.179 81.9041C264.419 81.8396 264.716 81.7214 265.07 81.5496V82.3337C264.734 82.4913 264.437 82.6005 264.179 82.6614C263.921 82.7258 263.636 82.7581 263.325 82.7581ZM264.071 77.4246C263.703 77.4246 263.355 77.5929 263.029 77.9294C262.707 78.266 262.46 78.7333 262.288 79.3313H262.353C263.169 79.3313 263.794 79.2257 264.227 79.0144C264.664 78.7996 264.882 78.4898 264.882 78.0852C264.882 77.8954 264.816 77.7379 264.684 77.6125C264.555 77.4872 264.351 77.4246 264.071 77.4246ZM270.591 76.7639H271.493L271.891 79.6912C271.926 79.9382 271.96 80.3035 271.993 80.7869C272.029 81.2667 272.046 81.6534 272.046 81.947H272.079C272.204 81.6355 272.36 81.2774 272.546 80.8728C272.732 80.4682 272.87 80.1889 272.96 80.0349L274.705 76.7639H275.661L271.923 83.6497C271.59 84.2655 271.26 84.6934 270.935 84.9333C270.609 85.1733 270.217 85.2932 269.758 85.2932C269.501 85.2932 269.25 85.2556 269.006 85.1804V84.4553C269.232 84.5198 269.467 84.552 269.71 84.552C270.004 84.552 270.254 84.4607 270.462 84.2781C270.673 84.099 270.877 83.8323 271.074 83.4778L271.482 82.7473L270.591 76.7639ZM279.149 76.6887C279.83 76.6887 280.367 76.891 280.76 77.2957C281.154 77.6967 281.351 78.2499 281.351 78.9553C281.351 79.6285 281.222 80.2641 280.965 80.8621C280.707 81.46 280.358 81.922 279.917 82.2478C279.477 82.5736 278.979 82.7366 278.424 82.7366C277.737 82.7366 277.198 82.5343 276.807 82.1296C276.417 81.725 276.222 81.1718 276.222 80.47C276.222 79.7896 276.353 79.1505 276.614 78.5525C276.875 77.9509 277.228 77.4908 277.672 77.1721C278.116 76.8499 278.608 76.6887 279.149 76.6887ZM280.417 78.8318C280.417 78.42 280.304 78.087 280.078 77.8328C279.856 77.575 279.554 77.446 279.171 77.446C278.78 77.446 278.429 77.5785 278.118 77.8435C277.81 78.1085 277.57 78.4773 277.398 78.95C277.23 79.419 277.146 79.9418 277.146 80.5183C277.146 80.9874 277.259 81.3508 277.484 81.6086C277.713 81.8629 278.041 81.99 278.467 81.99C278.839 81.99 279.174 81.8593 279.471 81.5979C279.769 81.3365 280 80.9659 280.164 80.4861C280.333 80.0027 280.417 79.4513 280.417 78.8318ZM284.845 76.7639L284.039 80.4968C283.975 80.8155 283.942 81.0644 283.942 81.2434C283.942 81.7555 284.206 82.0115 284.732 82.0115C285.047 82.0115 285.357 81.9041 285.661 81.6892C285.965 81.4744 286.234 81.1664 286.467 80.7654C286.699 80.3643 286.877 79.8809 286.998 79.3152L287.536 76.7639H288.427L287.186 82.6506H286.44L286.558 81.5603H286.494C286.143 82.0079 285.808 82.3194 285.489 82.4949C285.171 82.6703 284.841 82.7581 284.501 82.7581C284.043 82.7581 283.683 82.6345 283.421 82.3875C283.16 82.1368 283.029 81.7805 283.029 81.3186C283.029 81.0966 283.069 80.7887 283.147 80.3948L283.932 76.7639H284.845ZM293.36 76.6565C293.607 76.6565 293.822 76.6816 294.005 76.7317L293.811 77.5374C293.621 77.4908 293.433 77.4675 293.247 77.4675C292.921 77.4675 292.615 77.575 292.329 77.7898C292.046 78.0046 291.797 78.3036 291.582 78.6868C291.371 79.0663 291.215 79.4889 291.115 79.9543L290.54 82.6506H289.638L290.895 76.7639H291.641L291.523 77.8542H291.577C291.835 77.5141 292.048 77.2706 292.216 77.1238C292.384 76.9734 292.56 76.8588 292.742 76.78C292.929 76.6977 293.134 76.6565 293.36 76.6565ZM300.567 82.7581C300.22 82.7581 299.915 82.6685 299.654 82.4895C299.392 82.3105 299.19 82.0598 299.047 81.7375H298.993L298.972 81.9417C298.961 82.0312 298.941 82.1565 298.913 82.3176C298.888 82.4788 298.683 83.4706 298.3 85.2932H297.409L299.213 76.7639H299.96L299.82 77.8865H299.863C300.504 77.0736 301.17 76.6672 301.861 76.6672C302.352 76.6672 302.739 76.8427 303.022 77.1936C303.304 77.5409 303.446 78.0297 303.446 78.6599C303.446 79.419 303.322 80.1155 303.075 80.7493C302.828 81.3831 302.486 81.8772 302.049 82.2317C301.613 82.5826 301.118 82.7581 300.567 82.7581ZM301.566 77.4138C301.222 77.4138 300.871 77.5839 300.513 77.9241C300.159 78.2642 299.876 78.6921 299.665 79.2078C299.457 79.7234 299.353 80.2515 299.353 80.7922C299.353 81.1861 299.452 81.4887 299.648 81.7C299.849 81.9076 300.137 82.0115 300.513 82.0115C300.868 82.0115 301.197 81.8665 301.502 81.5764C301.809 81.2864 302.057 80.8746 302.243 80.3411C302.429 79.804 302.522 79.2346 302.522 78.6331C302.522 77.8202 302.203 77.4138 301.566 77.4138ZM308.577 76.6565C308.824 76.6565 309.039 76.6816 309.222 76.7317L309.029 77.5374C308.839 77.4908 308.651 77.4675 308.465 77.4675C308.139 77.4675 307.833 77.575 307.546 77.7898C307.263 78.0046 307.014 78.3036 306.8 78.6868C306.588 79.0663 306.433 79.4889 306.332 79.9543L305.758 82.6506H304.855L306.112 76.7639H306.859L306.74 77.8542H306.794C307.052 77.5141 307.265 77.2706 307.433 77.1238C307.602 76.9734 307.777 76.8588 307.96 76.78C308.146 76.6977 308.352 76.6565 308.577 76.6565ZM312.903 76.6887C313.584 76.6887 314.121 76.891 314.515 77.2957C314.908 77.6967 315.105 78.2499 315.105 78.9553C315.105 79.6285 314.977 80.2641 314.719 80.8621C314.461 81.46 314.112 81.922 313.671 82.2478C313.231 82.5736 312.733 82.7366 312.178 82.7366C311.491 82.7366 310.952 82.5343 310.561 82.1296C310.171 81.725 309.976 81.1718 309.976 80.47C309.976 79.7896 310.107 79.1505 310.368 78.5525C310.629 77.9509 310.982 77.4908 311.426 77.1721C311.87 76.8499 312.363 76.6887 312.903 76.6887ZM314.171 78.8318C314.171 78.42 314.058 78.087 313.832 77.8328C313.61 77.575 313.308 77.446 312.925 77.446C312.534 77.446 312.184 77.5785 311.872 77.8435C311.564 78.1085 311.324 78.4773 311.152 78.95C310.984 79.419 310.9 79.9418 310.9 80.5183C310.9 80.9874 311.013 81.3508 311.238 81.6086C311.467 81.8629 311.795 81.99 312.221 81.99C312.594 81.99 312.928 81.8593 313.226 81.5979C313.523 81.3365 313.754 80.9659 313.918 80.4861C314.087 80.0027 314.171 79.4513 314.171 78.8318ZM315.451 85.2932C315.204 85.2932 314.984 85.2556 314.791 85.1804V84.4231C315.009 84.5019 315.222 84.5413 315.43 84.5413C315.877 84.5413 316.178 84.1742 316.332 83.4402L317.75 76.7639H318.642L317.213 83.5208C317.084 84.1331 316.878 84.5806 316.595 84.8635C316.316 85.15 315.935 85.2932 315.451 85.2932ZM318.003 75.26C318.003 75.0595 318.06 74.8966 318.174 74.7712C318.289 74.6423 318.438 74.5779 318.62 74.5779C318.928 74.5779 319.082 74.739 319.082 75.0613C319.082 75.2582 319.021 75.4247 318.9 75.5608C318.781 75.6969 318.644 75.7649 318.486 75.7649C318.35 75.7649 318.235 75.7219 318.142 75.636C318.049 75.5465 318.003 75.4211 318.003 75.26ZM322.162 82.7581C321.503 82.7581 320.986 82.5629 320.61 82.1726C320.234 81.7823 320.046 81.2416 320.046 80.5505C320.046 79.8774 320.178 79.2328 320.443 78.6169C320.712 77.9975 321.066 77.5159 321.507 77.1721C321.947 76.8284 322.432 76.6565 322.962 76.6565C323.51 76.6565 323.922 76.7764 324.198 77.0164C324.473 77.2527 324.611 77.5839 324.611 78.01C324.611 78.6545 324.314 79.1612 323.72 79.53C323.125 79.8953 322.275 80.0779 321.168 80.0779H320.991L320.97 80.5076C320.97 80.9766 321.079 81.3437 321.297 81.6086C321.519 81.87 321.861 82.0007 322.323 82.0007C322.549 82.0007 322.78 81.9685 323.016 81.9041C323.256 81.8396 323.553 81.7214 323.908 81.5496V82.3337C323.571 82.4913 323.274 82.6005 323.016 82.6614C322.758 82.7258 322.473 82.7581 322.162 82.7581ZM322.909 77.4246C322.54 77.4246 322.192 77.5929 321.867 77.9294C321.544 78.266 321.297 78.7333 321.125 79.3313H321.19C322.006 79.3313 322.631 79.2257 323.064 79.0144C323.501 78.7996 323.72 78.4898 323.72 78.0852C323.72 77.8954 323.653 77.7379 323.521 77.6125C323.392 77.4872 323.188 77.4246 322.909 77.4246ZM328.212 82.7581C327.517 82.7581 326.978 82.5665 326.595 82.1833C326.212 81.8002 326.021 81.2595 326.021 80.5613C326.021 79.8451 326.153 79.1845 326.418 78.5793C326.683 77.9742 327.048 77.5033 327.514 77.1667C327.983 76.8266 328.509 76.6565 329.093 76.6565C329.583 76.6565 330.063 76.7478 330.532 76.9304L330.28 77.6877C329.85 77.5051 329.458 77.4138 329.104 77.4138C328.703 77.4138 328.335 77.5517 328.002 77.8274C327.673 78.0995 327.413 78.4809 327.224 78.9714C327.037 79.4584 326.944 79.9884 326.944 80.5613C326.944 81.0196 327.063 81.3759 327.299 81.6301C327.539 81.8844 327.868 82.0115 328.287 82.0115C328.545 82.0115 328.788 81.9757 329.018 81.9041C329.247 81.8324 329.472 81.7483 329.694 81.6516V82.4197C329.25 82.6453 328.756 82.7581 328.212 82.7581ZM333.118 82.0222C333.315 82.0222 333.573 81.9757 333.891 81.8826V82.5754C333.77 82.6256 333.619 82.6685 333.44 82.7043C333.261 82.7402 333.118 82.7581 333.01 82.7581C332.563 82.7581 332.219 82.6524 331.979 82.4412C331.743 82.2263 331.625 81.9076 331.625 81.4851C331.625 81.2488 331.657 80.9802 331.721 80.6794L332.404 77.446H331.48L331.555 77.054L332.549 76.635L333.22 75.4104H333.746L333.451 76.7639H334.923L334.783 77.446H333.317L332.624 80.6902C332.559 81.0017 332.527 81.238 332.527 81.3992C332.527 81.5997 332.579 81.7537 332.683 81.8611C332.787 81.9685 332.932 82.0222 333.118 82.0222ZM339.06 80.9802C339.06 81.5388 338.862 81.9757 338.464 82.2908C338.07 82.6023 337.514 82.7581 336.794 82.7581C336.189 82.7581 335.643 82.6345 335.156 82.3875V81.5388C335.406 81.6892 335.677 81.8056 335.967 81.8879C336.257 81.9703 336.525 82.0115 336.772 82.0115C337.224 82.0115 337.564 81.922 337.793 81.7429C338.022 81.5639 338.137 81.3347 338.137 81.0554C338.137 80.8513 338.074 80.6794 337.949 80.5398C337.823 80.4001 337.553 80.2086 337.138 79.9651C336.672 79.7037 336.343 79.4477 336.149 79.197C335.956 78.9464 335.859 78.6492 335.859 78.3054C335.859 77.8113 336.04 77.4138 336.402 77.113C336.763 76.8087 337.24 76.6565 337.831 76.6565C338.443 76.6565 339.034 76.789 339.603 77.054L339.313 77.7898L339.012 77.6555C338.65 77.5015 338.257 77.4246 337.831 77.4246C337.497 77.4246 337.236 77.5033 337.046 77.6609C336.857 77.8149 336.762 78.0154 336.762 78.2625C336.762 78.463 336.824 78.6348 336.95 78.7781C337.079 78.9213 337.342 79.1057 337.739 79.3313C338.122 79.5461 338.396 79.7306 338.561 79.8845C338.729 80.0385 338.855 80.205 338.937 80.384C339.019 80.5595 339.06 80.7582 339.06 80.9802ZM340.61 82.2532C340.61 81.9775 340.681 81.759 340.824 81.5979C340.971 81.4332 341.172 81.3508 341.426 81.3508C341.58 81.3508 341.703 81.3974 341.797 81.4905C341.893 81.5836 341.942 81.725 341.942 81.9148C341.942 82.169 341.87 82.3821 341.727 82.554C341.583 82.7222 341.39 82.8064 341.147 82.8064C340.982 82.8064 340.851 82.7598 340.755 82.6667C340.658 82.5736 340.61 82.4358 340.61 82.2532ZM343.942 82.2532C343.942 81.9775 344.013 81.759 344.157 81.5979C344.303 81.4332 344.504 81.3508 344.758 81.3508C344.912 81.3508 345.036 81.3974 345.129 81.4905C345.225 81.5836 345.274 81.725 345.274 81.9148C345.274 82.169 345.202 82.3821 345.059 82.554C344.916 82.7222 344.722 82.8064 344.479 82.8064C344.314 82.8064 344.183 82.7598 344.087 82.6667C343.99 82.5736 343.942 82.4358 343.942 82.2532ZM347.274 82.2532C347.274 81.9775 347.346 81.759 347.489 81.5979C347.636 81.4332 347.836 81.3508 348.09 81.3508C348.244 81.3508 348.368 81.3974 348.461 81.4905C348.558 81.5836 348.606 81.725 348.606 81.9148C348.606 82.169 348.534 82.3821 348.391 82.554C348.248 82.7222 348.055 82.8064 347.811 82.8064C347.646 82.8064 347.516 82.7598 347.419 82.6667C347.322 82.5736 347.274 82.4358 347.274 82.2532Z" fill="black"/>
</g>
</svg>
