<svg width="500" height="500" viewBox="0 0 500 500" fill="none" xmlns="http://www.w3.org/2000/svg">
<g id="Work">
<path id="Vector" d="M143.909 339.845L496.26 383.825V396.302L143.014 350.827L143.909 339.845Z" fill="#EAECF0"/>
<path id="Vector_2" d="M143.374 386.203H136.69V201.824L141.5 203.447L141.554 208.976L143.374 386.203Z" fill="#EAECF0"/>
<path id="Vector_3" d="M146.318 383.23L143.374 386.203L141.554 208.976L141.5 203.447H144.98L145.026 209.307L146.318 383.23Z" fill="#D3DAE1"/>
<path id="Vector_4" d="M41.0414 378.474L138.564 340.737V344.304L41.0414 381.744V378.474Z" fill="#D3DAE1"/>
<path id="Vector_5" d="M42.785 390.356L41.0414 381.744L138.564 344.304V351.728L42.785 390.356Z" fill="#EAECF0"/>
<path id="Vector_6" d="M496.26 190.078V433.742H491.175L490.915 207.702L490.908 200.474L496.26 190.078Z" fill="#EAECF0"/>
<path id="Vector_7" d="M500 188.889V431.661L496.26 433.742V190.078L500 188.889Z" fill="#D3DAE1"/>
<path id="Vector_8" d="M418.269 428.399L491.114 383.179L496.261 386.5L418.269 433.742V428.399Z" fill="#D3DAE1"/>
<path id="Vector_9" d="M420.547 443.849L418.269 433.742L496.261 386.5V396.302L420.547 443.849Z" fill="#EAECF0"/>
<path id="Vector_10" d="M409.574 229.004L409.842 486.342H417.068L415.998 226.031L409.574 229.004Z" fill="#EAECF0"/>
<path id="Vector_11" d="M420.547 223.653V484.261L417.068 486.342L415.997 226.031L416.426 225.81L420.547 223.653Z" fill="#D3DAE1"/>
<path id="Vector_12" d="M40.1086 428.696H33.9527L31.8421 198.503L31.8116 194.537H37.6998L37.7456 199.064L40.1086 428.696Z" fill="#EAECF0"/>
<path id="Vector_13" d="M44.3832 426.913L40.1085 428.696L37.7456 199.064L37.6997 194.537H42.2497L42.2879 199.506L44.3832 426.913Z" fill="#D3DAE1"/>
<path id="Vector_14" opacity="0.1" d="M416.426 225.81L420.548 223.653V233.76L416.533 235.247L416.426 225.81Z" fill="black"/>
<path id="Vector_15" opacity="0.1" d="M500 188.889V204.338L496.261 205.731L490.915 207.702L490.908 200.474L496.261 190.078L500 188.889Z" fill="black"/>
<path id="Vector_16" d="M500 159.17V201.96L416.533 232.868L415.997 187.105L500 159.17Z" fill="#D48A9B"/>
<path id="Vector_17" d="M30.741 156.197L140.437 133.026L500 159.17L415.998 187.105L30.741 156.197Z" fill="#EFC6CD"/>
<path id="Vector_18" opacity="0.1" d="M42.2497 194.537L42.288 199.506L37.7456 199.064L31.8421 198.503L31.8116 194.537H42.2497Z" fill="black"/>
<path id="Vector_19" opacity="0.1" d="M145.026 209.307L141.554 208.976L136.69 208.517V201.824L141.5 203.447H144.98L145.026 209.307Z" fill="black"/>
<path id="Vector_20" d="M30.741 156.197V196.023L416.533 232.868L415.998 187.105L30.741 156.197Z" fill="#D48A9B"/>
<path id="Vector_21" d="M336.629 203.549H286.243V183.24L336.629 187.181V203.549Z" fill="#D48A9B"/>
<path id="Vector_22" opacity="0.1" d="M336.629 203.549H286.243V183.24L336.629 187.181V203.549Z" fill="black"/>
<path id="Vector_23" opacity="0.1" d="M218.552 178.79V210.879L411.983 227.22V193.051L336.537 188.294L329.043 195.726L298.279 193.348L287.314 184.43L218.552 178.79Z" fill="black"/>
<path id="Vector_24" d="M217.481 177.592V209.689L410.912 226.031V191.861L335.467 187.105L327.98 194.537L297.209 192.159L286.243 183.24L217.481 177.592Z" fill="white"/>
<path id="Vector_25" d="M98.1647 168.98L143.909 172.547L143.374 188.693H113.505L93.523 179.97L98.1647 168.98Z" fill="#D48A9B"/>
<path id="Vector_26" opacity="0.1" d="M98.1647 168.98L143.909 172.547L143.374 188.693H113.505L93.523 179.97L98.1647 168.98Z" fill="black"/>
<path id="Vector_27" opacity="0.1" d="M37.1644 164.521V193.348L212.671 208.798V178.187L144.98 173.736L137.761 179.673L110.469 177.898L99.2352 170.169L37.1644 164.521Z" fill="black"/>
<path id="Vector_28" d="M36.0939 163.332V192.159L211.6 207.608V177.006L143.909 172.547L136.69 178.493L109.398 176.709L98.1647 168.98L36.0939 163.332Z" fill="white"/>
<path id="Vector_29" opacity="0.1" d="M43.9627 380.623L45.1633 380.164L44.5591 389.643L43.9627 389.881V380.623Z" fill="black"/>
<path id="Vector_30" opacity="0.1" d="M412.006 163.442L436.606 165.234L395.84 178.79L375.078 177.117L412.006 163.442Z" fill="black"/>
<path id="Vector_31" d="M412.006 162.253L436.606 164.045L395.84 177.592L375.078 175.927L412.006 162.253Z" fill="white"/>
<path id="Vector_32" d="M409.062 165.319C410.033 164.86 411.065 165.727 412.12 165.948C412.709 166.075 413.321 165.948 413.91 166.075C415.118 166.253 416.319 167.154 417.466 166.695" fill="#D3DAE1"/>
<path id="Vector_33" d="M407.792 166.143C408.756 165.676 409.796 166.542 410.851 166.763C411.44 166.89 412.052 166.763 412.648 166.89C413.856 167.069 415.049 167.969 416.196 167.51" fill="#D3DAE1"/>
<path id="Vector_34" d="M404.886 167.774C405.858 167.315 406.898 168.181 407.945 168.402C408.534 168.53 409.146 168.402 409.742 168.53C410.95 168.708 412.143 169.608 413.29 169.15" fill="#D3DAE1"/>
<path id="Vector_35" d="M8.28928 463.155C12.255 463.155 15.4698 459.584 15.4698 455.179C15.4698 450.775 12.255 447.204 8.28928 447.204C4.32357 447.204 1.10873 450.775 1.10873 455.179C1.10873 459.584 4.32357 463.155 8.28928 463.155Z" fill="#535461"/>
<path id="Vector_36" d="M21.1363 494.352C25.102 494.352 28.3168 490.781 28.3168 486.376C28.3168 481.972 25.102 478.401 21.1363 478.401C17.1706 478.401 13.9557 481.972 13.9557 486.376C13.9557 490.781 17.1706 494.352 21.1363 494.352Z" fill="#535461"/>
<path id="Vector_37" d="M149.247 500C153.212 500 156.427 496.429 156.427 492.025C156.427 487.62 153.212 484.049 149.247 484.049C145.281 484.049 142.066 487.62 142.066 492.025C142.066 496.429 145.281 500 149.247 500Z" fill="#535461"/>
<path id="Vector_38" d="M177.869 459.29C181.835 459.29 185.05 455.719 185.05 451.315C185.05 446.91 181.835 443.339 177.869 443.339C173.904 443.339 170.689 446.91 170.689 451.315C170.689 455.719 173.904 459.29 177.869 459.29Z" fill="#535461"/>
<path id="Vector_39" d="M96.8494 314.33H87.8565V376.733H96.8494V314.33Z" fill="#535461"/>
<path id="Vector_40" opacity="0.1" d="M96.8494 366.625H87.8565V376.733H96.8494V366.625Z" fill="black"/>
<path id="Vector_41" d="M98.5852 369.004H86.1206V438.243H98.5852V369.004Z" fill="#3A3768"/>
<path id="Vector_42" d="M176.317 437.793L94.7082 434.081V448.665H189.416C188.475 445.597 186.72 442.917 184.382 440.976C182.044 439.036 179.233 437.926 176.317 437.793Z" fill="#3A3768"/>
<path id="Vector_43" d="M13.0993 437.793L94.7083 434.081V448.665H0C0.940603 445.596 2.69523 442.915 5.03323 440.975C7.37123 439.034 10.1832 437.925 13.0993 437.793Z" fill="#3A3768"/>
<path id="Vector_44" d="M86.1207 435.568L20.9681 471.241C18.2124 472.759 15.8932 475.102 14.2719 478.006C12.6506 480.91 11.7916 484.259 11.7917 487.676V488.763L87.8795 451.918L98.5853 451.026L161.857 495.898C162.26 492.581 161.839 489.205 160.638 486.135C159.437 483.066 157.502 480.42 155.043 478.486L98.5853 434.09L86.1207 435.568Z" fill="#3A3768"/>
<path id="Vector_45" opacity="0.1" d="M96.8494 314.322V321.049C95.2741 321.122 93.6682 321.159 92.0318 321.159C90.6171 321.159 89.2253 321.159 87.8565 321.074V314.322H96.8494Z" fill="black"/>
<path id="Vector_46" d="M92.0317 318.781C110.357 318.781 125.212 313.955 125.212 308.003C125.212 302.05 110.357 297.224 92.0317 297.224C73.7067 297.224 58.8513 302.05 58.8513 308.003C58.8513 313.955 73.7067 318.781 92.0317 318.781Z" fill="#3A3768"/>
<path id="Vector_47" opacity="0.1" d="M124.922 308.003C124.89 308.602 124.748 309.188 124.504 309.724C124.261 310.26 123.922 310.735 123.507 311.12C119.408 315.553 106.737 318.764 91.7488 318.764C77.0895 318.764 64.6631 315.672 60.2661 311.4C59.7788 311.003 59.3742 310.494 59.0799 309.908C58.7857 309.322 58.6086 308.672 58.5608 308.003C58.5608 302.057 73.4189 297.224 91.7488 297.224C110.079 297.224 124.922 302.049 124.922 308.003Z" fill="black"/>
<path id="Vector_48" opacity="0.1" d="M125.205 308.003C125.173 308.602 125.031 309.188 124.787 309.724C124.544 310.26 124.205 310.735 123.79 311.12C119.569 309.948 116.647 308.979 116.647 308.979C116.647 308.979 87.3977 310.797 60.549 311.417C60.0617 311.02 59.6571 310.511 59.3629 309.925C59.0686 309.339 58.8915 308.689 58.8437 308.02C58.8437 302.074 73.7019 297.241 92.0318 297.241C110.362 297.241 125.205 302.049 125.205 308.003Z" fill="black"/>
<path id="Vector_49" d="M8.28936 166.041C8.28936 166.041 19.2628 199.327 18.7275 219.236C18.1923 239.145 9.62759 276.585 9.62759 276.585C9.62759 276.585 1.07058 306.898 23.0099 309.574C44.9491 312.249 116.648 307.79 116.648 307.79C116.648 307.79 143.412 316.7 151.961 312.835C155.288 311.341 158.171 308.045 160.45 304.571C161.697 302.678 162.585 300.522 163.059 298.236C163.532 295.949 163.581 293.579 163.204 291.271C162.826 288.962 162.029 286.763 160.861 284.808C159.694 282.853 158.18 281.182 156.412 279.897C152.418 277.132 148.068 275.058 143.512 273.748C142.552 273.459 141.561 273.324 140.567 273.349L47.0827 275.396C47.0827 275.396 36.6521 273.612 38.5257 262.027C40.3992 250.442 43.6033 214.777 43.6033 214.777C43.6033 214.777 44.1386 171.392 25.411 159.212C6.68349 147.032 8.28936 166.041 8.28936 166.041Z" fill="#3A3768"/>
<path id="Vector_50" opacity="0.1" d="M8.28936 165.939C8.28936 165.939 19.2628 199.217 18.7275 219.126C18.1923 239.035 9.62759 276.483 9.62759 276.483C9.62759 276.483 1.07058 306.788 23.0099 309.463C44.9491 312.139 116.648 307.671 116.648 307.671C116.648 307.671 143.412 316.59 151.961 312.767C155.288 311.264 158.171 307.969 160.45 304.503C161.698 302.609 162.585 300.453 163.059 298.166C163.533 295.878 163.582 293.508 163.204 291.199C162.826 288.89 162.029 286.69 160.862 284.734C159.694 282.778 158.18 281.106 156.412 279.821C152.415 277.063 148.066 274.989 143.512 273.672C142.553 273.381 141.561 273.249 140.567 273.281L47.0827 275.294C47.0827 275.294 36.6521 273.51 38.5257 261.916C40.3992 250.323 43.6033 214.675 43.6033 214.675C43.6033 214.675 44.1386 171.29 25.411 159.102C6.68349 146.913 8.28936 165.939 8.28936 165.939Z" fill="black"/>
<path id="Vector_51" d="M10.4305 164.852C10.4305 164.852 21.4039 198.138 20.8687 218.047C20.3334 237.956 11.7687 275.396 11.7687 275.396C11.7687 275.396 3.2117 305.709 25.1433 308.385C47.075 311.06 118.781 306.601 118.781 306.601C118.781 306.601 145.546 315.511 154.103 311.697C157.429 310.194 160.312 306.898 162.591 303.425C163.839 301.531 164.726 299.376 165.2 297.089C165.673 294.802 165.723 292.433 165.345 290.124C164.967 287.816 164.17 285.617 163.002 283.661C161.835 281.706 160.321 280.035 158.553 278.751C154.561 275.971 150.211 273.883 145.653 272.559C144.694 272.27 143.702 272.135 142.709 272.16L49.2238 274.207C49.2238 274.207 38.7933 272.423 40.6668 260.838C42.5403 249.253 45.7444 213.588 45.7444 213.588C45.7444 213.588 46.2797 170.203 27.5521 158.023C8.8246 145.843 10.4305 164.852 10.4305 164.852Z" fill="#3A3768"/>
<path id="Vector_52" d="M200.26 450.983V461.728C200.26 461.728 246.471 462.654 256.649 462.654C266.827 462.654 280.837 457.099 281.67 452.648C282.504 448.198 269.993 444.494 265.321 444.316C260.648 444.138 260.488 442.091 254.477 438.566C251.09 436.578 245.943 430.811 242.104 426.165C239.145 422.581 236.966 419.668 236.966 419.668C236.966 419.668 212.105 419.116 204.932 423.558C203.281 424.585 202.141 426.59 201.361 429.079C198.776 437.377 200.26 450.983 200.26 450.983Z" fill="#434175"/>
<path id="Vector_53" opacity="0.1" d="M201.361 429.079C206.576 427.066 237.088 426.284 242.104 426.165C239.145 422.581 236.966 419.668 236.966 419.668C236.966 419.668 212.105 419.116 204.932 423.558C203.281 424.585 202.141 426.581 201.361 429.079Z" fill="black"/>
<path id="Vector_54" d="M67.3013 257.721L69.9931 259.53L71.0025 260.209L74.9254 262.825C95.8935 276.865 153.086 314.908 156.221 314.636C157.039 314.56 159.501 314.152 162.904 313.532C163.807 313.371 164.778 313.201 165.795 313.005C178.894 310.585 200.665 306.21 203.097 305.004C206.431 303.306 205.766 310.746 204.428 317.048C203.089 323.351 202.095 353.571 203.594 357.444C205.093 361.317 204.428 367.636 204.428 367.636L202.432 401.542L203.77 408.745C203.77 408.745 199.266 412.822 201.101 415.226C202.936 417.629 201.269 428.017 201.269 428.017C206.622 425.792 242.808 425.053 242.808 425.053C242.808 425.053 241.279 410.223 242.64 406.707C244.001 403.19 242.976 382.245 242.976 382.245C242.976 382.245 243.81 366.311 242.311 362.608C240.812 358.905 242.808 335.182 242.808 335.182C242.808 335.182 244.146 321.1 244.475 292.374C244.804 263.649 229.793 262.732 229.793 262.732C229.793 262.732 227.797 262.553 224.753 262.231C218.812 261.594 208.901 260.388 202.279 258.833C200.922 258.517 199.582 258.12 198.264 257.644C190.089 254.553 162.568 254.434 158.064 256.659C153.728 258.799 149.392 256.82 149.071 256.659L145.569 250.357L112.105 253.525L108.565 253.865L75.6213 256.982L73.3272 257.203L67.3013 257.721Z" fill="#565387"/>
<path id="Vector_55" opacity="0.1" d="M201.43 286.14C211.149 291.406 220.425 272.746 224.746 262.222C218.804 261.585 208.893 260.379 202.271 258.825C197.92 266.902 192.108 281.103 201.43 286.14Z" fill="black"/>
<path id="Vector_56" d="M172.234 160.07C172.435 161.342 172.834 162.567 173.411 163.688C177.005 171.774 187.413 188.422 187.413 188.422C190.508 190.573 193.123 193.478 195.06 196.915C197.897 202.292 198.73 214.888 198.73 214.888C198.73 214.888 205.07 242.865 208.067 246.764C209.597 248.709 208.901 249.864 207.861 250.535C205.729 251.854 203.922 253.735 202.6 256.013C198.226 263.819 191.244 279.32 201.07 284.637C214.415 291.865 226.933 253.983 226.933 253.983C226.933 253.983 224.424 227.118 223.759 222.489C223.094 217.86 219.087 198.767 219.087 198.767C219.087 198.767 216.25 190.613 214.583 184.871C212.916 179.13 207.915 172.454 207.915 172.454C207.915 172.454 198.899 152.443 196.398 149.478C195.236 148.103 193.607 146.37 192.2 144.909C190.571 143.21 189.225 141.885 189.225 141.885C189.225 141.885 172.065 155.636 172.234 160.07Z" fill="#EE8E9E"/>
<path id="Vector_57" d="M59.1266 448.758L89.4853 463.766C89.4853 463.766 128.829 464.692 135.711 462.654C142.594 460.615 141.064 452.096 132.041 450.423C123.017 448.75 120.869 444.316 117.863 442.278C115.837 440.902 108.641 432.009 104.183 426.378C102.034 423.668 100.512 421.706 100.512 421.706C100.512 421.706 94.67 404.473 78.4889 408.363C75.5302 409.079 72.804 410.68 70.6048 412.992C61.8796 421.961 61.1225 439.704 61.1225 439.704L59.1266 448.758Z" fill="#434175"/>
<path id="Vector_58" opacity="0.1" d="M71.0025 260.209L74.9254 262.825C95.8935 276.865 153.086 314.908 156.221 314.636C157.039 314.56 159.501 314.152 162.904 313.532C163.807 313.371 164.778 313.201 165.795 313.005L165.91 312.793C167.592 309.534 168.878 306.041 169.733 302.405C173.235 287.584 155.884 276.279 155.884 276.279L152.214 273.111C148.046 265.314 118.016 257.941 118.016 257.941L114.147 255.011L112.075 253.465L111.532 253.066L106.836 249.558L83.3142 251.41L76.3248 256.396L75.5601 256.922L73.006 258.782L71.0025 260.209Z" fill="black"/>
<path id="Vector_59" opacity="0.1" d="M70.6048 412.992C76.9901 437.53 103.663 429.512 103.663 429.512L104.168 426.403C102.019 423.694 100.497 421.732 100.497 421.732C100.497 421.732 94.6547 404.498 78.4736 408.388C75.5228 409.1 72.8025 410.692 70.6048 412.992Z" fill="black"/>
<path id="Vector_60" d="M63.6307 301.632C73.4724 301.632 98.807 314.789 98.807 314.789C103.976 319.24 110.981 317.753 110.981 317.753C110.981 317.753 98.6617 331.649 99.0058 337.399C99.3499 343.149 91.9935 352.594 91.9935 352.594L69.3048 402.434C70.9795 437.827 103.67 428.008 103.67 428.008L105.009 419.668C107.012 418.555 110.017 407.437 110.017 407.437C110.017 407.437 110.018 402.995 112.013 401.695C114.009 400.396 118.184 387.052 118.184 387.052C118.184 387.052 127.193 370.193 126.688 367.976C126.183 365.759 133.196 354.454 133.196 354.454C133.196 354.454 145.041 341.484 144.536 339.166C144.031 336.847 154.064 324.981 154.064 324.981C157.691 321.865 160.705 317.957 162.92 313.498C164.6 310.241 165.886 306.751 166.743 303.119C169.565 291.177 158.859 281.52 154.584 278.216C153.552 277.417 152.894 276.993 152.894 276.993L149.224 273.825C147.327 270.274 140.086 266.809 132.744 264.099C127.453 262.137 122.115 260.558 118.697 259.615C116.403 258.995 115.026 258.646 115.026 258.646L111.157 255.759L109.796 254.739L108.549 253.814L103.846 250.306L93.3852 251.155L80.3241 252.183L73.3424 257.177L70.0083 259.555L56.9702 268.898C56.9702 268.898 56.626 272.457 56.519 277.247C56.519 277.613 56.519 277.986 56.519 278.377C56.3431 288 57.2837 301.632 63.6307 301.632Z" fill="#565387"/>
<path id="Vector_61" d="M113.841 94.1003L117.359 107.996C117.359 107.996 123.537 131.905 124.203 133.57C124.868 135.235 141.026 152.103 141.722 152.468C142.418 152.833 151.197 158.414 151.197 158.414C151.197 158.414 151.893 127.837 151.197 118.953C151.139 116.998 151.286 115.043 151.633 113.126C152.695 106.153 155.387 95.935 157.62 88.0614C159.486 81.4619 161.038 76.5186 161.038 76.5186C161.038 76.5186 122 74.6585 123.339 78.9223C123.843 80.5361 123.675 83.2286 123.193 85.9295C122.383 90.3801 120.708 94.8308 119.668 94.4911C118.652 94.2334 117.613 94.1052 116.571 94.1088C115.149 94.0409 113.841 94.1003 113.841 94.1003Z" fill="#EE8E9E"/>
<path id="Vector_62" opacity="0.1" d="M123.209 85.9126C127.976 90.3295 133.898 92.9223 140.097 93.3063C146.295 93.6903 152.44 91.8452 157.62 88.0445C159.486 81.445 161.038 76.5017 161.038 76.5017C161.038 76.5017 122 74.6416 123.339 78.9054C123.859 80.5192 123.69 83.2116 123.209 85.9126Z" fill="black"/>
<path id="Vector_63" d="M112.839 60.194C112.838 66.5359 114.529 72.7358 117.701 78.0097C120.872 83.2836 125.38 87.3945 130.654 89.8226C135.929 92.2507 141.734 92.8869 147.334 91.6507C152.934 90.4145 158.078 87.3614 162.116 82.8776C166.154 78.3939 168.905 72.6807 170.019 66.4608C171.133 60.2409 170.562 53.7937 168.378 47.9344C166.193 42.0751 162.493 37.067 157.745 33.5434C152.998 30.0199 147.416 28.1392 141.707 28.1392C137.911 28.119 134.15 28.9342 130.64 30.5378C127.13 32.1415 123.941 34.5017 121.256 37.4822C118.572 40.4627 116.446 44.0044 115.002 47.9026C113.557 51.8009 112.822 55.9784 112.839 60.194Z" fill="#EE8E9E"/>
<path id="Vector_64" opacity="0.1" d="M113.841 94.1003L117.359 107.996C117.359 107.996 123.537 131.905 124.203 133.57C124.868 135.235 141.026 152.103 141.722 152.468C142.418 152.833 151.197 158.414 151.197 158.414C151.197 158.414 151.893 127.837 151.197 118.953C151.139 116.998 151.286 115.043 151.633 113.126L149.338 123.395L149.507 143.966L150.837 145.079L147.84 150.081V146.37C147.84 146.37 137.134 134.886 135.49 130.062C133.846 125.238 127.843 116.523 127.843 116.523C127.843 116.523 120.96 103.783 120.838 101.532C120.708 99.8335 117.833 95.7905 116.571 94.1088C115.149 94.0409 113.841 94.1003 113.841 94.1003Z" fill="black"/>
<path id="Vector_65" opacity="0.1" d="M172.234 160.07C172.435 161.342 172.834 162.567 173.411 163.688C177.059 163.281 189.47 160.698 192.223 144.934C190.594 143.236 189.248 141.911 189.248 141.911C189.248 141.911 172.065 155.636 172.234 160.07Z" fill="black"/>
<path id="Vector_66" opacity="0.1" d="M56.4807 278.318C59.8454 275.668 63.0495 272.058 64.9613 271.064C67.7983 269.578 72.1342 264.762 72.1342 264.762C72.1342 264.762 73.2353 263.912 74.9253 262.825C78.0224 260.812 83.1 257.89 86.9847 257.534C90.4641 257.211 102.042 256.387 111.142 255.759L123.017 254.909C123.017 254.909 133.861 250.662 138.533 253.423C141.879 255.277 145.404 256.702 149.04 257.67C149.04 257.67 149.04 257.262 149.04 256.565L145.538 250.263L108.534 253.771L103.831 250.263L80.3088 252.115L73.3271 257.109L67.3013 257.678L69.993 259.487L56.9549 268.83C56.9549 268.83 56.5572 272.975 56.4807 278.318Z" fill="black"/>
<path id="Vector_67" d="M51.5944 279.957C53.361 279.371 55.0168 278.432 56.4808 277.188C59.8379 274.546 63.0343 270.945 64.9384 269.951C67.7755 268.465 72.1113 263.649 72.1113 263.649C72.1113 263.649 80.9589 256.973 86.9618 256.421C88.5983 256.268 92.0242 256.005 96.1382 255.708L109.758 254.739L116.823 254.247L122.995 253.831C122.995 253.831 133.838 249.584 138.51 252.344C141.856 254.198 145.381 255.623 149.017 256.591C149.017 256.591 149.186 243.621 150.547 238.245C151.908 232.868 153.713 223.05 153.713 223.05C153.713 223.05 155.242 209.528 156.718 203.413C158.194 197.297 164.059 163.204 167.064 160.945C170.07 158.686 171.729 162.644 171.729 162.644C171.729 162.644 191.749 162.27 192.085 137.817C192.085 137.817 182.741 127.438 182.075 124.847C181.41 122.257 172.57 112.616 172.57 112.616C172.57 112.616 167.561 102.237 161.864 102.05C159.186 101.877 156.499 101.971 153.835 102.331L149.017 124.1L149.186 144.671L150.524 145.784L147.519 150.786V147.143C147.519 147.143 136.813 135.651 135.176 130.835C133.54 126.019 127.529 117.288 127.529 117.288C127.529 117.288 120.693 104.547 120.525 102.297C120.356 100.046 115.684 94.1173 115.684 94.1173C114.742 93.9912 113.789 93.9912 112.847 94.1173C112.426 94.1477 112.005 94.0812 111.608 93.922C108.914 92.9681 106.047 92.7869 103.273 93.3954C97.5071 94.7289 88.7436 97.158 86.3271 100.071C82.6566 104.522 77.3189 108.786 71.3084 127.31L103.671 140.28L100.902 146.132L75.1472 200.491C75.1472 200.491 74.2907 202.037 73.136 204.05C71.6066 206.666 69.6261 210.089 68.3031 211.966C65.9708 215.304 66.6361 225.861 66.6361 225.861C66.6361 225.861 66.139 230.864 64.472 232.724C62.8049 234.584 63.1261 241.421 63.1261 241.421L58.7902 259.394C58.7902 259.394 54.7832 263.471 54.7832 265.339C54.7832 267.208 51.6173 272.381 51.6173 272.381C51.6173 272.381 46.7768 281.248 51.5944 279.957Z" fill="#DFE5EE"/>
<path id="Vector_68" opacity="0.1" d="M73.1283 204.05C73.3513 205.072 73.5224 206.107 73.6406 207.15C73.6406 207.15 86.8164 241.43 88.4835 243.468C88.9958 244.097 90.9382 247.18 93.3699 251.113L96.1611 255.691C101.2 264.006 106.867 273.451 106.867 273.451L119.209 285.495C119.209 285.495 146.066 287.881 154.6 278.199C153.567 277.4 152.91 276.976 152.91 276.976L149.239 273.807C147.343 270.257 140.101 266.792 132.76 264.082C126 264.133 120.471 264.745 120.471 264.745L118.712 259.598L116.877 254.23L107.517 226.982C107.517 226.982 101.499 192.524 99.4952 190.851C97.4917 189.177 97.9658 183.996 97.9658 183.996C97.9658 183.996 101.636 169.362 100.298 167.323C98.9599 165.285 102.47 150.268 102.47 150.268C102.122 148.804 101.581 147.404 100.864 146.115L75.1089 200.474C75.1089 200.474 74.283 202.011 73.1283 204.05Z" fill="black"/>
<path id="Vector_69" d="M102.829 149.139C102.829 149.139 99.3271 164.147 100.665 166.185C102.004 168.224 98.3253 182.858 98.3253 182.858C98.3253 182.858 97.8282 188.048 99.8547 189.713C101.881 191.377 107.876 225.844 107.876 225.844L120.8 263.649C120.8 263.649 161.245 259.199 157.077 273.281C152.91 287.363 119.538 284.399 119.538 284.399L107.196 272.355C107.196 272.355 90.51 244.377 88.843 242.339C87.1759 240.3 73.9925 206.02 73.9925 206.02C73.9925 206.02 73.3272 199.166 70.4902 195.641C67.6531 192.116 69.8249 186.171 69.8249 186.171C69.8249 186.171 66.3225 141.35 69.9931 135.982C73.6637 130.614 99.0059 133.018 102.829 149.139Z" fill="#EE8E9E"/>
<path id="Vector_70" opacity="0.1" d="M222.452 293.292C222.452 293.292 211.937 297.19 209.123 302.745C206.309 308.3 222.452 293.292 222.452 293.292Z" fill="black"/>
<path id="Vector_71" opacity="0.1" d="M217.106 281.069C216.778 281.622 202.715 297.292 203.594 301.08C204.473 304.868 217.106 281.069 217.106 281.069Z" fill="black"/>
<path id="Vector_72" opacity="0.1" d="M139.871 292.188C139.871 292.188 124.187 300.401 122.849 303.977C121.511 307.552 139.871 292.188 139.871 292.188Z" fill="black"/>
<path id="Vector_73" opacity="0.1" d="M138.87 302.745C138.87 302.745 124.715 309.413 122.811 311.086C120.907 312.759 138.87 302.745 138.87 302.745Z" fill="black"/>
<path id="Vector_74" opacity="0.1" d="M132.362 317.014C132.362 317.014 126.092 322.204 122.635 318.127C119.179 314.05 132.362 317.014 132.362 317.014Z" fill="black"/>
<path id="Vector_75" opacity="0.1" d="M155.884 181.746C155.548 182.306 134.695 223.993 129.189 227.144C123.683 230.295 155.884 181.746 155.884 181.746Z" fill="black"/>
<path id="Vector_76" opacity="0.1" d="M154.883 197.501C154.883 198.427 134.526 246.764 131.177 247.341C127.827 247.919 154.883 197.501 154.883 197.501Z" fill="black"/>
<path id="Vector_77" opacity="0.1" d="M77.4718 228.63C77.4718 228.63 67.6531 251.945 63.8296 253.312C60.0061 254.68 77.4718 228.63 77.4718 228.63Z" fill="black"/>
<path id="Vector_78" opacity="0.1" d="M75.8048 218.251C75.8048 218.251 72.4172 226.405 70.3601 226.405C68.3031 226.405 75.8048 218.251 75.8048 218.251Z" fill="black"/>
<path id="Vector_79" opacity="0.1" d="M112.839 60.194C112.837 64.0255 113.456 67.8262 114.667 71.414C114.56 67.253 115.227 63.1122 116.626 59.2505C118.025 55.3887 120.126 51.889 122.798 48.9699C125.47 46.0509 128.655 43.7753 132.155 42.2853C135.654 40.7954 139.393 40.1231 143.137 40.3105C144.536 40.3784 146.196 40.7437 146.762 42.1536C146.984 42.9107 147.1 43.7014 147.106 44.4978C147.526 48.0991 150.814 50.3499 153.904 51.522C156.993 52.6941 160.434 53.4416 162.675 56.0831C164.724 58.5037 165.306 61.9776 166.315 65.1118C166.883 67.0308 167.846 68.776 169.129 70.2079C170.434 65.8003 170.863 61.1306 170.385 56.5212C169.907 51.9118 168.534 47.4725 166.361 43.5099C164.188 39.5473 161.266 36.1557 157.798 33.5695C154.329 30.9832 150.397 29.2637 146.272 28.5299C142.147 27.7961 137.928 28.0654 133.906 29.3192C129.884 30.5729 126.155 32.7813 122.977 35.7919C119.798 38.8024 117.245 42.5433 115.495 46.7563C113.745 50.9694 112.839 55.5541 112.839 60.194Z" fill="black"/>
<path id="Vector_80" d="M166.743 31.1714C164.373 27.5956 160.167 26.3556 156.511 24.555C151.991 22.2792 148 18.8823 144.846 14.6255C141.693 10.3687 139.46 5.36529 138.319 0C136.862 2.37952 136.179 5.23952 136.382 8.10835C136.585 10.9772 137.662 13.6835 139.436 15.7811C132.79 15.28 125.449 14.4306 120.945 8.98621C119.92 12.9102 122.987 17.3694 121.312 21.0046C119.875 24.1303 115.959 24.402 113.428 26.5254C110.729 28.7508 109.834 32.7852 109.666 36.5139C109.498 40.2426 109.849 44.0647 108.855 47.632C108.091 50.3414 106.561 52.8301 106.408 55.6584C106.391 57.7657 106.809 59.8492 107.632 61.7483C109.519 66.8076 112.076 71.5255 115.218 75.7457C114.362 71.2211 114.45 66.5391 115.474 62.0579C116.498 57.5766 118.431 53.4148 121.125 49.8905C123.819 46.3662 127.203 43.5729 131.018 41.724C134.833 39.8752 138.978 39.0198 143.137 39.2234C144.536 39.2913 146.196 39.665 146.761 41.0749C146.985 41.8317 147.102 42.6226 147.106 43.4192C147.526 47.012 150.814 49.2628 153.904 50.4349C156.993 51.607 160.434 52.3629 162.675 54.9959C164.724 57.4166 165.305 60.8905 166.315 64.0246C167.324 67.1587 169.274 70.4373 172.249 70.8195C172.93 66.165 173.618 61.4765 173.197 56.7541C172.738 51.7004 169.68 48.8381 168.609 44.4384C167.447 39.8264 169.649 35.5541 166.743 31.1714Z" fill="#603556"/>
<path id="Vector_81" opacity="0.1" d="M82.1824 120.974L71.6754 128.015C71.6754 128.015 68.6701 139.312 66.3225 140.756C66.3225 140.756 87.3441 127.786 103.189 157.615C103.189 157.615 102.692 153.725 104.856 151.874C107.02 150.022 106.523 142.055 106.523 142.055C107.106 140.793 107.617 139.491 108.052 138.157C109.505 134.122 101.667 110.782 82.1824 120.974Z" fill="black"/>
<path id="Vector_82" d="M81.8153 120.227L71.3007 127.268C71.3007 127.268 68.2954 138.573 65.9478 140.059C65.9478 140.059 86.9694 127.081 102.814 156.919C102.814 156.919 102.317 153.029 104.489 151.177C106.66 149.326 106.156 141.35 106.156 141.35C106.743 140.093 107.254 138.793 107.685 137.46C109.169 133.383 101.3 110.034 81.8153 120.227Z" fill="#DFE5EE"/>
<g id="Group" opacity="0.1">
<path id="Vector_83" opacity="0.1" d="M121.817 18.3291C121.779 15.3054 120.157 11.9759 120.945 8.98618L121.083 9.14756C121.274 12.2392 122.819 15.4923 121.817 18.3291Z" fill="black"/>
<path id="Vector_84" opacity="0.1" d="M110.002 34.2716C109.842 37.669 110.117 41.0665 109.429 44.3705C109.681 41.7799 109.543 39.1129 109.666 36.4969C109.716 35.2566 109.862 34.0234 110.102 32.8107C110.056 33.3288 110.018 33.7874 110.002 34.2716Z" fill="black"/>
<path id="Vector_85" opacity="0.1" d="M106.408 55.6414C106.452 54.9675 106.562 54.301 106.737 53.6539C106.766 55.6799 107.185 57.6756 107.968 59.506C109.695 64.1344 111.985 68.4782 114.774 72.4162C114.865 73.5289 115.013 74.6348 115.218 75.7287C112.076 71.5085 109.519 66.7906 107.632 61.7313C106.809 59.8322 106.391 57.7486 106.408 55.6414Z" fill="black"/>
<path id="Vector_86" opacity="0.1" d="M139.772 13.5557C139.13 13.5133 138.472 13.4623 137.822 13.4028C136.365 10.4866 135.968 7.06152 136.713 3.8306C136.573 5.59986 136.773 7.38204 137.3 9.05879C137.828 10.7355 138.67 12.2685 139.772 13.5557Z" fill="black"/>
<path id="Vector_87" opacity="0.1" d="M121.45 47.6405C124.165 44.1437 127.554 41.3695 131.364 39.523C135.175 37.6765 139.311 36.8049 143.466 36.9726C144.865 37.049 146.524 37.4142 147.098 38.8242C147.318 39.5821 147.434 40.3723 147.442 41.1684C147.863 44.7612 151.143 47.0205 154.24 48.1841C157.337 49.3477 160.763 50.1121 163.004 52.7536C165.061 55.1743 165.642 58.6482 166.651 61.7738C167.661 64.8994 169.603 68.1779 172.57 68.5686L172.249 70.794C169.274 70.4372 167.324 67.1587 166.315 63.9991C165.306 60.8395 164.724 57.3911 162.675 54.9705C160.434 52.3374 156.993 51.573 153.904 50.4094C150.814 49.2458 147.526 47.012 147.106 43.3937C147.102 42.5972 146.986 41.8062 146.762 41.0495C146.165 39.6395 144.536 39.2658 143.137 39.1979C136.637 38.8612 130.244 41.1272 125.122 45.5837C120 50.0403 116.488 56.3912 115.225 63.481C115.89 57.6474 118.051 52.149 121.45 47.6405Z" fill="black"/>
</g>
<path id="Vector_88" d="M300.252 117.466V150.702L271.622 148.153V117.466H300.252Z" fill="#3A3768"/>
<path id="Vector_89" opacity="0.1" d="M300.252 147.984V150.702L271.622 148.153V145.436L300.252 147.984Z" fill="black"/>
<path id="Vector_90" d="M309 153.088L264.464 150.54C264.464 149.256 264.923 148.025 265.741 147.117C266.558 146.209 267.667 145.699 268.823 145.699L304.642 148.247C305.798 148.247 306.906 148.757 307.724 149.665C308.541 150.573 309 151.804 309 153.088Z" fill="#3A3768"/>
<path id="Vector_91" d="M363.394 126.597L209.345 121.501C208.729 121.502 208.119 121.368 207.55 121.107C206.98 120.845 206.463 120.462 206.028 119.978C205.592 119.494 205.247 118.92 205.012 118.288C204.777 117.656 204.656 116.978 204.657 116.294V15.2205C204.657 14.5371 204.778 13.8605 205.014 13.2293C205.25 12.5981 205.595 12.0247 206.03 11.5419C206.466 11.0591 206.983 10.6764 207.551 10.4156C208.12 10.1549 208.729 10.0213 209.345 10.0224L363.394 15.1186C364.636 15.1186 365.827 15.6659 366.706 16.6405C367.584 17.6151 368.079 18.9372 368.081 20.3166V121.39C368.081 122.771 367.587 124.095 366.708 125.072C365.829 126.048 364.637 126.597 363.394 126.597Z" fill="#3A3768"/>
<path id="Vector_92" d="M363 119L208 113.913V23L363 28.0874V119Z" fill="#F4F8FD"/>
<path id="Vector_93" d="M286.197 19.8495C286.957 19.8495 287.574 19.1726 287.574 18.3377C287.574 17.5027 286.957 16.8258 286.197 16.8258C285.437 16.8258 284.821 17.5027 284.821 18.3377C284.821 19.1726 285.437 19.8495 286.197 19.8495Z" fill="white"/>
<path id="Vector_94" opacity="0.1" d="M300.222 123.76L271.683 123.25V124.329H300.222V123.76Z" fill="black"/>
<path id="Vector_95" opacity="0.1" d="M248.253 155.033L287.336 157.879L279.009 171.171L236.04 166.075L248.253 155.033Z" fill="black"/>
<path id="Vector_96" d="M247.488 154.184L286.572 157.029L278.244 170.322L235.276 165.226L247.488 154.184Z" fill="#3A3768"/>
<path id="Vector_97" d="M249.216 155.169L283.299 157.479L276.042 168.309L238.564 164.155L249.216 155.169Z" fill="#D5E1F4"/>
<g id="project-logo 1" clip-path="url(#clip0)">
<g id="logo ready">
<g id="Clock settings">
<g id="Settings">
<path id="Vector_98" d="M329.407 82.1154L335.105 80.4325C337.427 79.7466 338.264 78.1014 336.974 76.7577L326.587 65.9413C325.722 65.0402 324.12 64.5035 322.458 64.455C321.642 64.4311 320.811 64.5247 320.047 64.7509L314.349 66.4338C313.567 66.6647 312.742 66.7565 311.941 66.7331C309.428 66.6597 307.157 65.453 307.204 63.8607L307.312 60.1651C307.356 58.6587 305.239 57.3742 302.582 57.2965L281.194 56.6715C278.538 56.5938 276.348 57.752 276.304 59.2588L276.196 62.9544C276.15 64.5468 273.811 65.6187 271.3 65.5453C270.499 65.5219 269.681 65.3821 268.913 65.1059L263.323 63.0932C262.573 62.8231 261.749 62.6812 260.934 62.6569C259.271 62.6083 257.641 63.0505 256.724 63.8995L245.724 74.0909C244.358 75.3569 245.098 77.0482 247.376 77.8686L252.965 79.8813C256.141 81.025 256.064 83.6497 252.827 84.6059L247.13 86.2888C244.807 86.9747 243.97 88.6199 245.26 89.9637L255.647 100.78C256.512 101.681 258.114 102.218 259.776 102.266C260.592 102.29 261.423 102.196 262.187 101.97L267.885 100.288C268.667 100.057 269.493 99.9648 270.293 99.9882C272.806 100.062 275.077 101.268 275.03 102.861L274.922 106.556C274.878 108.063 276.996 109.347 279.652 109.425L301.039 110.05C303.695 110.127 305.885 108.969 305.929 107.462L306.037 103.767C306.083 102.174 308.422 101.103 310.933 101.176C311.734 101.199 312.553 101.339 313.32 101.615L318.91 103.628C319.66 103.898 320.484 104.041 321.299 104.064C322.962 104.113 324.592 103.671 325.509 102.822L336.509 92.6305C337.876 91.3644 337.136 89.6731 334.858 88.8527L329.268 86.84C326.093 85.6964 326.17 83.0712 329.407 82.1154ZM290.881 91.4534C283 91.2231 276.717 87.4129 276.848 82.9436C276.978 78.4739 283.473 75.0376 291.354 75.268C299.234 75.4983 305.518 79.3085 305.387 83.7777C305.257 88.247 298.761 91.6837 290.881 91.4534Z" fill="url(#paint0_linear)"/>
<path id="hour" d="M290.51 83.3429L304.304 87.706" stroke="black" stroke-width="0.7"/>
<path id="minutes" d="M290.765 83.2363L301.484 72.9899" stroke="black" stroke-width="0.7"/>
<path id="seconds" d="M291.117 83.3499L278.73 71.449" stroke="#EF2424" stroke-width="0.4" stroke-linejoin="round"/>
</g>
<g id="three">
<path id="Line 11" d="M324.717 84.4359L318.155 84.2442" stroke="black"/>
<path id="Line 12" d="M324.779 82.3196L318.217 82.1279" stroke="black"/>
<path id="Line 10" d="M324.655 86.5522L318.093 86.3604" stroke="black"/>
</g>
<g id="twelve">
<path id="Line 6" d="M288.286 66.3882L293.289 63.2711" stroke="black"/>
<path id="Line 7" d="M288.494 63.1309L293.306 66.5349" stroke="black"/>
<path id="Line 8" d="M295.218 63.1342L295.111 66.823" stroke="black"/>
<path id="Line 9" d="M298.195 63.2212L298.087 66.91" stroke="black"/>
</g>
<g id="nine">
<path id="Line 6 2" d="M262.929 83.8529L257.305 80.8742" stroke="black" stroke-width="0.999997"/>
<path id="Line 7 2" d="M257.183 83.6061L263.056 81.0207" stroke="black" stroke-width="0.999997"/>
<path id="Line 8 2" d="M256.769 85.2062L263.273 85.4295" stroke="black"/>
</g>
<g id="six">
<path id="Line 10 2" d="M289.196 98.4082L290.789 102.053" stroke="black"/>
<path id="Line 11 2" d="M290.464 102.015L292.268 98.4694" stroke="black"/>
<path id="Line 12 2" d="M294.196 98.4902L294.096 101.928" stroke="black"/>
</g>
</g>
<g id="ROJECT">
<path id="Vector_99" style="mix-blend-mode:darken" d="M283.583 45.2515L282.145 45.2095L282.081 47.4207L280.276 47.3679L280.452 41.3276L283.707 41.4227C284.742 41.4529 285.536 41.6353 286.088 41.9698C286.64 42.3042 286.908 42.7618 286.891 43.3427C286.879 43.7548 286.738 44.0953 286.47 44.3643C286.205 44.6306 285.807 44.8376 285.277 44.9854L287.1 47.5093L287.099 47.5673L285.161 47.5107L283.583 45.2515ZM282.175 44.2013L283.631 44.2439C284.084 44.2571 284.437 44.1886 284.691 44.0382C284.944 43.8851 285.075 43.6688 285.083 43.3895C285.091 43.1046 284.98 42.8771 284.748 42.7071C284.52 42.5371 284.163 42.445 283.678 42.4308L282.228 42.3884L282.175 44.2013ZM295.672 44.9322C295.655 45.5267 295.487 46.0437 295.169 46.4828C294.851 46.922 294.404 47.2549 293.827 47.4817C293.254 47.7085 292.601 47.8112 291.867 47.7897C291.141 47.7685 290.497 47.6293 289.934 47.372C289.372 47.1147 288.94 46.7589 288.641 46.3045C288.341 45.8473 288.198 45.3282 288.21 44.7473L288.219 44.4486C288.237 43.854 288.406 43.3357 288.728 42.894C289.054 42.4495 289.504 42.1152 290.076 41.8911C290.653 41.6644 291.306 41.5617 292.036 41.5831C292.766 41.6044 293.411 41.745 293.969 42.0049C294.532 42.2622 294.961 42.6221 295.256 43.0848C295.556 43.5447 295.697 44.0706 295.68 44.6625L295.672 44.9322ZM293.851 44.6049C293.869 43.9715 293.719 43.4855 293.4 43.1468C293.08 42.808 292.616 42.6297 292.006 42.6119C291.401 42.5942 290.929 42.7438 290.59 43.0605C290.252 43.3744 290.071 43.8453 290.049 44.473L290.04 44.7676C290.022 45.3843 290.173 45.8676 290.492 46.2174C290.811 46.5672 291.279 46.7511 291.897 46.7692C292.502 46.7869 292.973 46.6373 293.307 46.3204C293.642 46.0008 293.82 45.5272 293.842 44.8994L293.851 44.6049ZM300.854 41.9238L302.659 41.9766L302.537 46.1584C302.525 46.5428 302.391 46.8793 302.134 47.168C301.881 47.454 301.527 47.6707 301.073 47.818C300.619 47.9653 300.109 48.0306 299.544 48.0141C298.617 47.987 297.9 47.8041 297.392 47.4654C296.884 47.1239 296.639 46.6559 296.656 46.0612L298.473 46.1143C298.465 46.4103 298.549 46.6314 298.725 46.7778C298.901 46.9241 299.184 47.0029 299.573 47.0143C299.918 47.0244 300.195 46.9508 300.405 46.7936C300.614 46.6364 300.723 46.407 300.732 46.1056L300.854 41.9238ZM309.622 45.6056L306.156 45.5043L306.109 47.1223L310.176 47.2412L310.147 48.2409L304.275 48.0693L304.452 42.0289L310.312 42.2002L310.282 43.2083L306.227 43.0898L306.185 44.5293L309.65 44.6306L309.622 45.6056ZM318.388 46.468C318.301 47.116 317.937 47.6174 317.296 47.9724C316.66 48.3275 315.828 48.49 314.801 48.46C313.678 48.4272 312.801 48.1413 312.171 47.6026C311.544 47.061 311.244 46.3353 311.271 45.4254L311.282 45.0562C311.299 44.4753 311.462 43.968 311.772 43.5342C312.082 43.1004 312.515 42.7739 313.071 42.5549C313.631 42.3332 314.277 42.2331 315.007 42.2544C316.017 42.2839 316.826 42.4944 317.433 42.8859C318.04 43.2773 318.381 43.8118 318.458 44.4894L316.653 44.4367C316.62 44.0454 316.47 43.7587 316.202 43.5765C315.939 43.3916 315.53 43.2911 314.977 43.275C314.375 43.2574 313.92 43.3935 313.61 43.6834C313.305 43.9707 313.139 44.4268 313.112 45.0515L313.099 45.5079C313.08 46.1606 313.208 46.6419 313.484 46.9517C313.764 47.2616 314.213 47.4255 314.831 47.4436C315.388 47.4599 315.806 47.3849 316.084 47.2186C316.366 47.0497 316.532 46.7819 316.583 46.4152L318.388 46.468ZM326.322 43.6771L323.638 43.5987L323.491 48.6309L321.686 48.5782L321.833 43.5459L319.186 43.4686L319.216 42.4604L326.351 42.669L326.322 43.6771Z" fill="url(#paint1_linear)"/>
</g>
<g id="Management">
<path id="Vector_100" style="mix-blend-mode:darken" d="M280.884 49.3969L282.621 53.0351L284.557 49.5042L286.496 49.5609L286.352 54.503L284.87 54.4597L284.91 53.1088L285.125 50.7812L283.083 54.4075L282.069 54.3779L280.247 50.642L280.327 52.9749L280.287 54.3258L278.81 54.2826L278.955 49.3405L280.884 49.3969ZM290.836 54.6341C290.773 54.5439 290.729 54.4328 290.703 54.3006C290.351 54.5553 289.899 54.6746 289.347 54.6585C288.826 54.6433 288.396 54.5265 288.057 54.3083C287.722 54.0901 287.559 53.8226 287.568 53.5058C287.579 53.1166 287.797 52.824 288.219 52.628C288.646 52.4321 289.254 52.3445 290.045 52.3654L290.7 52.3845L290.706 52.1741C290.711 52.0043 290.651 51.8667 290.526 51.7611C290.404 51.6557 290.207 51.599 289.935 51.591C289.695 51.584 289.505 51.6181 289.365 51.6933C289.228 51.7685 289.158 51.8752 289.154 52.0132L287.731 51.9716C287.737 51.7589 287.838 51.5649 288.034 51.3894C288.23 51.2139 288.503 51.0803 288.854 50.9887C289.204 50.8947 289.597 50.8541 290.03 50.8668C290.686 50.8859 291.203 51.0155 291.58 51.2552C291.961 51.4928 292.145 51.8175 292.133 52.2294L292.087 53.8213C292.08 54.1699 292.142 54.4356 292.275 54.6184L292.273 54.6761L290.836 54.6341ZM289.68 53.9174C289.89 53.9236 290.084 53.8976 290.263 53.8394C290.442 53.7789 290.576 53.6956 290.665 53.5895L290.683 52.9582L290.151 52.9426C289.439 52.9218 289.055 53.0804 288.999 53.4186L288.993 53.4761C288.989 53.5983 289.049 53.7009 289.171 53.7837C289.293 53.8665 289.463 53.9111 289.68 53.9174ZM294.773 51.0733L294.805 51.4989C295.195 51.1819 295.71 51.0328 296.35 51.0515C296.915 51.068 297.331 51.1946 297.6 51.4312C297.869 51.6678 298 52.0136 297.994 52.4686L297.924 54.8412L296.502 54.7997L296.57 52.4508C296.576 52.2426 296.515 52.0902 296.387 51.9936C296.258 51.8947 296.041 51.8408 295.736 51.8319C295.336 51.8202 295.032 51.9291 294.825 52.1586L294.749 54.7484L293.327 54.7069L293.434 51.0342L294.773 51.0733ZM302.295 54.969C302.232 54.8788 302.188 54.7677 302.162 54.6355C301.81 54.8903 301.358 55.0095 300.807 54.9934C300.285 54.9782 299.855 54.8614 299.516 54.6432C299.181 54.425 299.018 54.1575 299.027 53.8408C299.039 53.4515 299.256 53.1589 299.679 52.9629C300.105 52.767 300.714 52.6794 301.504 52.7003L302.159 52.7194L302.165 52.509C302.17 52.3393 302.11 52.2016 301.985 52.0961C301.864 51.9906 301.666 51.9339 301.394 51.9259C301.155 51.9189 300.965 51.953 300.825 52.0282C300.688 52.1034 300.617 52.2101 300.613 52.3481L299.191 52.3065C299.197 52.0938 299.298 51.8998 299.493 51.7243C299.689 51.5488 299.962 51.4152 300.313 51.3236C300.664 51.2297 301.056 51.189 301.489 51.2017C302.145 51.2208 302.662 51.3504 303.04 51.5901C303.42 51.8277 303.605 52.1524 303.592 52.5643L303.546 54.1563C303.539 54.5048 303.602 54.7705 303.735 54.9533L303.733 55.011L302.295 54.969ZM301.139 54.2523C301.349 54.2585 301.543 54.2325 301.722 54.1743C301.902 54.1138 302.035 54.0306 302.124 53.9244L302.142 53.2931L301.611 53.2776C300.899 53.2567 300.515 53.4154 300.459 53.7535L300.452 53.811C300.449 53.9332 300.508 54.0358 300.63 54.1186C300.753 54.2014 300.922 54.246 301.139 54.2523ZM304.663 53.1731C304.68 52.6097 304.887 52.1616 305.284 51.829C305.685 51.4964 306.215 51.3398 306.874 51.359C307.458 51.3761 307.909 51.5274 308.226 51.8131L308.295 51.4685L309.585 51.5062L309.481 55.0567C309.471 55.378 309.357 55.6543 309.136 55.8857C308.919 56.1172 308.617 56.2895 308.23 56.4028C307.842 56.516 307.391 56.5651 306.875 56.5501C306.485 56.5387 306.106 56.4732 305.738 56.3537C305.37 56.2365 305.094 56.0903 304.908 55.915L305.556 55.3361C305.902 55.6203 306.328 55.7697 306.834 55.7845C307.211 55.7955 307.507 55.7339 307.721 55.5997C307.935 55.4679 308.046 55.274 308.053 55.0184L308.059 54.8215C307.723 55.0676 307.288 55.1829 306.753 55.1672C306.113 55.1485 305.6 54.9614 305.213 54.6058C304.829 54.2481 304.645 53.7841 304.662 53.2138L304.663 53.1731ZM306.084 53.286C306.074 53.6187 306.163 53.8828 306.351 54.0785C306.54 54.272 306.803 54.3737 307.141 54.3836C307.574 54.3963 307.887 54.2933 308.081 54.0747L308.126 52.5303C307.942 52.3008 307.639 52.1797 307.215 52.1673C306.874 52.1574 306.602 52.2458 306.399 52.4323C306.2 52.619 306.095 52.9036 306.084 53.286ZM313.226 55.3564C312.445 55.3336 311.813 55.1497 311.331 54.805C310.851 54.4604 310.62 54.013 310.636 53.4632L310.639 53.3682C310.649 52.9993 310.762 52.6731 310.978 52.3895C311.193 52.1036 311.491 51.8881 311.873 51.7429C312.259 51.5957 312.694 51.5291 313.18 51.5433C313.908 51.5646 314.477 51.7398 314.884 52.0688C315.295 52.3978 315.492 52.8532 315.475 53.4347L315.463 53.8352L312.071 53.7361C312.11 53.9774 312.243 54.1737 312.468 54.3252C312.697 54.4769 312.988 54.5579 313.343 54.5683C313.891 54.5843 314.323 54.4599 314.64 54.1951L315.323 54.7552C315.103 54.9572 314.81 55.1116 314.442 55.2187C314.074 55.3234 313.669 55.3693 313.226 55.3564ZM313.152 52.3375C312.87 52.3292 312.638 52.3881 312.457 52.5142C312.279 52.6404 312.162 52.8249 312.106 53.0679L314.085 53.1257L314.087 53.0476C314.087 52.8302 314.006 52.6603 313.846 52.5378C313.685 52.4131 313.454 52.3463 313.152 52.3375ZM317.874 51.7485L317.906 52.1605C318.293 51.8525 318.808 51.7078 319.451 51.7266C320.137 51.7467 320.602 51.9471 320.848 52.328C321.233 51.9655 321.771 51.7944 322.464 51.8147C323.041 51.8315 323.468 51.9607 323.743 52.202C324.019 52.4411 324.15 52.7937 324.136 53.2598L324.068 55.6053L322.64 55.5636L322.708 53.2215C322.714 53.0133 322.66 52.86 322.544 52.7615C322.429 52.6607 322.222 52.6059 321.924 52.5972C321.497 52.5847 321.197 52.7165 321.025 52.9923L320.956 55.5144L319.534 55.4728L319.602 53.1341C319.608 52.9214 319.552 52.7658 319.434 52.6671C319.315 52.5686 319.109 52.515 318.817 52.5064C318.414 52.4946 318.118 52.6016 317.931 52.8271L317.855 55.4237L316.433 55.3822L316.54 51.7095L317.874 51.7485ZM327.816 55.7828C327.035 55.76 326.403 55.5762 325.921 55.2314C325.442 54.8868 325.21 54.4394 325.226 53.8896L325.229 53.7946C325.239 53.4257 325.352 53.0995 325.568 52.8159C325.783 52.53 326.082 52.3145 326.464 52.1694C326.849 52.0221 327.284 51.9556 327.77 51.9697C328.499 51.991 329.067 52.1662 329.474 52.4952C329.885 52.8242 330.082 53.2796 330.065 53.8612L330.053 54.2616L326.662 54.1625C326.701 54.4038 326.833 54.6001 327.058 54.7517C327.287 54.9033 327.579 54.9843 327.933 54.9947C328.481 55.0107 328.913 54.8863 329.23 54.6215L329.913 55.1817C329.694 55.3836 329.4 55.538 329.032 55.6451C328.665 55.7499 328.259 55.7958 327.816 55.7828ZM327.742 52.7639C327.46 52.7556 327.228 52.8146 327.047 52.9406C326.869 53.0668 326.752 53.2513 326.696 53.4943L328.675 53.5521L328.677 53.474C328.677 53.2566 328.596 53.0867 328.436 52.9643C328.275 52.8395 328.044 52.7727 327.742 52.7639ZM332.439 52.1742L332.471 52.5997C332.862 52.2827 333.377 52.1336 334.017 52.1523C334.581 52.1688 334.998 52.2954 335.267 52.532C335.536 52.7686 335.667 53.1144 335.66 53.5694L335.591 55.9421L334.168 55.9005L334.237 53.5516C334.243 53.3435 334.182 53.191 334.053 53.0944C333.925 52.9956 333.708 52.9416 333.403 52.9327C333.002 52.921 332.699 53.0299 332.491 53.2594L332.416 55.8493L330.993 55.8077L331.101 52.135L332.439 52.1742ZM338.712 51.4539L338.686 52.3567L339.597 52.3833L339.576 53.103L338.665 53.0764L338.611 54.9093C338.607 55.045 338.643 55.1435 338.716 55.2045C338.79 55.2655 338.933 55.2992 339.147 55.3054C339.305 55.31 339.444 55.3061 339.565 55.2938L339.544 56.0372C339.263 56.0879 338.975 56.1089 338.68 56.1003C337.683 56.0712 337.184 55.7089 337.185 55.0137L337.242 53.0348L336.465 53.0121L336.486 52.2924L337.263 52.3151L337.29 51.4123L338.712 51.4539Z" fill="url(#paint2_linear)"/>
</g>
<path id="Rectangle 6" d="M233.306 112.478L225.882 43.938C224.591 32.0151 243.104 23.9699 258.34 29.8333L268.428 33.7159C286.475 40.6614 278.396 59.5111 257.81 58.4905C247.161 57.9627 237.966 63.4548 237.272 70.7576L233.306 112.478Z" fill="url(#paint3_linear)"/>
<path id="Rectangle 7" d="M250.878 54.5079C243.292 57.6986 233.727 54.2919 233.899 48.4247L234.033 43.8297C234.229 37.1133 245.054 32.6185 253.843 35.6039L265.132 39.4387C275.878 43.089 270.263 54.2256 258.112 53.3607C255.618 53.1832 253.057 53.5913 250.878 54.5079Z" fill="white"/>
<g id="inside p">
<path id="arrow 1" d="M238.565 40.689C237.996 40.694 237.571 40.9473 237.616 41.2548C237.66 41.5624 238.158 41.8075 238.727 41.8025L241.332 41.7796C237.179 44.5332 237.666 48.6582 242.391 51.4058L242.289 51.2475C241.997 50.7945 242.168 50.3028 242.736 49.9643C242.748 49.9571 242.761 49.9506 242.774 49.9437C239.847 47.6788 239.803 44.6725 242.883 42.5734L243.084 43.9484C243.129 44.2558 243.627 44.501 244.196 44.496C244.481 44.4935 244.729 44.429 244.901 44.3265C245.073 44.2242 245.168 44.0839 245.145 43.9302L244.745 41.1921C244.724 41.0444 244.594 40.9038 244.386 40.8011C244.177 40.6984 243.907 40.642 243.634 40.6445L238.565 40.689Z" fill="#48C64D"/>
<g id="person">
<path id="Vector 2" d="M251.75 44.5725C253.256 44.6165 254.503 43.8807 254.531 42.9324C254.559 41.984 253.356 41.1767 251.851 41.1327C250.345 41.0887 249.098 41.8244 249.07 42.7728C249.042 43.7211 250.245 44.5285 251.75 44.5725Z" fill="#0028F9" fill-opacity="0.8"/>
<path id="Vector 2_2" d="M256.934 49.3642L257.003 46.9999C257.022 46.3455 256.371 45.7456 255.39 45.513L255.385 45.5119L253.945 45.3191C253.823 45.2917 253.691 45.3288 253.644 45.4039L251.923 48.1881C251.823 48.3488 251.457 48.338 251.367 48.1718L249.811 45.2919C249.777 45.2292 249.686 45.1878 249.587 45.1849C249.563 45.1842 248.067 45.2978 248.067 45.2978C247.065 45.4777 246.383 46.0395 246.364 46.6968L246.295 49.0533C246.284 49.4065 246.73 49.706 247.291 49.7224L255.9 49.974C256.461 49.9904 256.923 49.7174 256.934 49.3642Z" fill="#4664D1"/>
<path id="Vector 3" d="M252.326 45.2395C252.265 45.1945 252.173 45.1701 252.08 45.1673L251.386 45.147C251.293 45.1443 251.2 45.1633 251.136 45.2047C251.037 45.2687 251.02 45.3649 251.087 45.4423L251.447 45.8056L251.247 46.7236L251.572 47.3068C251.604 47.3654 251.733 47.3692 251.768 47.3125L252.127 46.7493L251.98 45.8211L252.362 45.4796C252.433 45.4062 252.422 45.3092 252.326 45.2395Z" fill="black"/>
</g>
<path id="arrow 2" d="M256.846 38.9526C257.866 39.206 258.206 39.8134 257.915 40.4121C262.224 41.7836 264.41 44.6584 263.042 47.3614L262.005 46.1499C261.773 45.8789 261.194 45.7623 260.712 45.8895C260.23 46.0166 260.027 46.3392 260.259 46.6102L262.324 49.0229C262.556 49.2939 263.135 49.4105 263.618 49.2834L267.913 48.1516C268.154 48.0881 268.325 47.9757 268.407 47.8452C268.489 47.7148 268.482 47.5663 268.366 47.4309C268.134 47.16 267.555 47.0433 267.072 47.1705L264.866 47.7519C266.781 44.1428 263.286 40.2495 256.846 38.9526Z" fill="#5286EC" fill-opacity="0.93"/>
</g>
</g>
</g>
</g>
<defs>
<linearGradient id="paint0_linear" x1="291.888" y1="56.984" x2="290.346" y2="109.737" gradientUnits="userSpaceOnUse">
<stop offset="0.578125" stop-color="#4664D1"/>
<stop offset="1" stop-color="#46D14B" stop-opacity="0.59"/>
</linearGradient>
<linearGradient id="paint1_linear" x1="303.243" y1="40.3086" x2="302.949" y2="50.3498" gradientUnits="userSpaceOnUse">
<stop offset="0.411458" stop-color="#4664D1"/>
<stop offset="1" stop-color="#46D175" stop-opacity="0.79"/>
</linearGradient>
<linearGradient id="paint2_linear" x1="310.858" y1="48.2617" x2="311.76" y2="61.6363" gradientUnits="userSpaceOnUse">
<stop offset="0.5625" stop-color="#4664D1"/>
<stop offset="1" stop-color="#46D17E" stop-opacity="0.81"/>
</linearGradient>
<linearGradient id="paint3_linear" x1="253.152" y1="28.0218" x2="250.402" y2="112.979" gradientUnits="userSpaceOnUse">
<stop offset="0.0188868" stop-color="#4664D1"/>
<stop offset="0.989583" stop-color="#46D17E" stop-opacity="0.63"/>
</linearGradient>
<clipPath id="clip0">
<rect width="117.667" height="85" fill="white" transform="translate(226.268 27.2361) rotate(1.67403)"/>
</clipPath>
</defs>
</svg>
