<svg width="151" height="151" viewBox="0 0 151 151" fill="none" xmlns="http://www.w3.org/2000/svg">
<g id="signup-profile">
<path id="Vector" d="M75.04 149.834C116.461 149.834 150.04 116.322 150.04 74.982C150.04 33.6424 116.461 0.130005 75.04 0.130005C33.6186 0.130005 0.039978 33.6424 0.039978 74.982C0.039978 116.322 33.6186 149.834 75.04 149.834Z" fill="#F5F5F5"/>
<path id="Vector_2" d="M75.1102 150.13C89.7652 150.154 104.103 145.871 116.336 137.817C113.572 122.743 103.054 121.884 103.054 121.884H45.0545C45.0545 121.884 35.1296 122.697 32.0298 136.563C44.6416 145.417 59.6909 150.156 75.1102 150.13V150.13Z" fill="#6C63FF"/>
<path id="Vector_3" d="M74.3133 109.534C94.3062 109.534 110.514 93.358 110.514 73.4046C110.514 53.4511 94.3062 37.2756 74.3133 37.2756C54.3204 37.2756 38.1129 53.4511 38.1129 73.4046C38.1129 93.358 54.3204 109.534 74.3133 109.534Z" fill="#333333"/>
<path id="Vector_4" opacity="0.1" d="M62.63 103.497H85.8255V122.018C85.8255 125.087 84.6042 128.03 82.4301 130.201C80.2561 132.371 77.3073 133.591 74.2321 133.593V133.593C71.1562 133.593 68.2063 132.373 66.0313 130.202C63.8563 128.032 62.6344 125.087 62.6344 122.018V103.497H62.63Z" fill="black"/>
<path id="Vector_5" d="M63.3654 102.639H85.0988C85.2939 102.639 85.4809 102.716 85.6188 102.854C85.7568 102.991 85.8342 103.178 85.8342 103.373V121.159C85.8345 122.679 85.5346 124.185 84.9516 125.59C84.3686 126.995 83.514 128.271 82.4366 129.346C81.3591 130.421 80.08 131.274 78.6722 131.856C77.2645 132.437 75.7557 132.736 74.2321 132.736V132.736C71.1562 132.736 68.2063 131.516 66.0313 129.346C63.8563 127.175 62.6344 124.231 62.6344 121.161V103.373C62.6344 103.179 62.7113 102.993 62.8482 102.855C62.9852 102.718 63.1711 102.64 63.3654 102.639V102.639Z" fill="#FDB797"/>
<path id="Vector_6" opacity="0.1" d="M62.6717 112.239C70.1474 115.027 78.3763 115.049 85.8672 112.303V109.455H62.6717V112.239Z" fill="black"/>
<path id="Vector_7" d="M74.3133 113.788C92.6755 113.788 107.561 98.9322 107.561 80.6063C107.561 62.2803 92.6755 47.4241 74.3133 47.4241C55.9511 47.4241 41.0656 62.2803 41.0656 80.6063C41.0656 98.9322 55.9511 113.788 74.3133 113.788Z" fill="#FDB797"/>
<path id="Vector_8" opacity="0.1" d="M50.6305 50.4236C50.6305 50.4236 64.6431 78.8097 104.169 62.3249L94.9667 47.9237L78.6534 42.0804L50.6305 50.4236Z" fill="black"/>
<path id="Vector_9" d="M50.6305 50.0072C50.6305 50.0072 64.6431 78.3933 104.169 61.9042L94.9667 47.503L78.6534 41.6597L50.6305 50.0072Z" fill="#333333"/>
<path id="Vector_10" d="M50.5076 48.0836C51.4524 45.1646 53.0853 42.5146 55.2692 40.3561C61.8089 33.9037 72.5307 32.5431 78.03 25.1859C79.3471 27.2278 78.3285 30.3675 76.0542 31.2439C81.3229 31.2088 87.428 30.7487 90.407 26.4237C91.1432 28.1343 91.3779 30.0182 91.0837 31.8566C90.7896 33.695 89.9786 35.4123 88.7452 36.8089C93.4146 37.028 98.4045 40.183 98.6986 44.8388C98.9006 47.9412 96.9424 50.8771 94.3981 52.6561C91.8537 54.4352 88.754 55.2524 85.7135 55.9207C76.8357 57.8772 44.7142 66.0648 50.5076 48.0836Z" fill="#333333"/>
<path id="Vector_11" d="M41.0525 86.3641C42.7608 86.3641 44.1456 83.7725 44.1456 80.5756C44.1456 77.3787 42.7608 74.787 41.0525 74.787C39.3441 74.787 37.9593 77.3787 37.9593 80.5756C37.9593 83.7725 39.3441 86.3641 41.0525 86.3641Z" fill="#FDB797"/>
<path id="Vector_12" d="M107.557 88.5551C109.265 88.5551 110.65 85.9635 110.65 82.7665C110.65 79.5696 109.265 76.978 107.557 76.978C105.848 76.978 104.463 79.5696 104.463 82.7665C104.463 85.9635 105.848 88.5551 107.557 88.5551Z" fill="#FDB797"/>
</g>
</svg>
