<svg width="100" height="200" viewBox="0 0 150 150" fill="none" xmlns="http://www.w3.org/2000/svg">
<path d="M69.0797 147.566C107.231 147.566 138.159 119.144 138.159 84.0834C138.159 49.0227 107.231 20.6004 69.0797 20.6004C30.928 20.6004 0 49.0227 0 84.0834C0 119.144 30.928 147.566 69.0797 147.566Z" fill="#3F3D56"/>
<path d="M69.0797 142.311C104.073 142.311 132.441 116.242 132.441 84.0834C132.441 51.9251 104.073 25.8556 69.0797 25.8556C34.0863 25.8556 5.71851 51.9251 5.71851 84.0834C5.71851 116.242 34.0863 142.311 69.0797 142.311Z" fill="white"/>
<path d="M68.851 92.0713C73.5252 92.0713 77.3144 88.5891 77.3144 84.2936C77.3144 79.9981 73.5252 76.5159 68.851 76.5159C64.1767 76.5159 60.3875 79.9981 60.3875 84.2936C60.3875 88.5891 64.1767 92.0713 68.851 92.0713Z" fill="#3F3D56"/>
<path d="M70.6809 28.7986H67.021V35.1048H70.6809V28.7986Z" fill="#3F3D56"/>
<path d="M70.6809 133.482H67.021V139.789H70.6809V133.482Z" fill="#3F3D56"/>
<path d="M15.3256 85.9752V82.6119H8.46341V85.9752H15.3256Z" fill="#3F3D56"/>
<path d="M129.238 85.9752V82.6119H122.376V85.9752H129.238Z" fill="#3F3D56"/>
<path d="M66.4112 87.6699L69.5389 81.0977L108.73 101.045L66.4112 87.6699Z" fill="#3F3D56"/>
<path d="M78.0006 5.2552H60.1588V24.174H78.0006V5.2552Z" fill="#3F3D56"/>
<path d="M69.0797 10.5104C80.4494 10.5104 89.6663 8.15758 89.6663 5.25521C89.6663 2.35284 80.4494 0 69.0797 0C57.71 0 48.493 2.35284 48.493 5.25521C48.493 8.15758 57.71 10.5104 69.0797 10.5104Z" fill="#3F3D56"/>
<path d="M107.622 95.3295L106.479 96.801C106.479 96.801 101.218 102.477 100.989 99.7439C100.76 97.0112 104.878 95.1193 104.878 95.1193L107.165 93.8581L107.622 95.3295Z" fill="#FFB8B8"/>
<path d="M140.183 100.294L141.14 101.874C141.14 101.874 144.471 108.672 141.685 107.693C138.9 106.713 138.801 102.484 138.801 102.484L138.54 100.044L140.183 100.294Z" fill="#FFB8B8"/>
<path d="M135.033 72.2837C138.88 72.2837 141.998 69.418 141.998 65.883C141.998 62.348 138.88 59.4822 135.033 59.4822C131.187 59.4822 128.068 62.348 128.068 65.883C128.068 69.418 131.187 72.2837 135.033 72.2837Z" fill="#2F2E41"/>
<path d="M134.385 118.452L135.3 123.918V125.6H140.561V123.497C140.561 123.497 140.79 119.714 139.875 118.663C138.96 117.612 134.385 118.452 134.385 118.452Z" fill="#FFB8B8"/>
<path d="M125.007 118.452L125.922 123.918V125.6H131.183V123.497C131.183 123.497 131.412 119.714 130.497 118.663C129.582 117.612 125.007 118.452 125.007 118.452Z" fill="#FFB8B8"/>
<path d="M128.547 74.551C128.547 74.551 126.524 75.5311 127.906 77.7606C129.288 79.9901 137.397 103.056 137.397 103.056L142.075 101.835L137.949 87.248L135.587 78.0796L128.547 74.551Z" fill="#6C63FF"/>
<path d="M134.271 72.5219C137.176 72.5219 139.532 70.3573 139.532 67.6871C139.532 65.0169 137.176 62.8523 134.271 62.8523C131.365 62.8523 129.01 65.0169 129.01 67.6871C129.01 70.3573 131.365 72.5219 134.271 72.5219Z" fill="#FFB8B8"/>
<path d="M136.673 68.4228L135.986 78.3026L131.183 75.1495C131.183 75.1495 132.784 69.2637 132.326 68.8432L136.673 68.4228Z" fill="#FFB8B8"/>
<path d="M136.673 77.4618L131.498 73.9403C131.498 73.9403 129.124 73.0474 128.438 74.0985C127.752 75.1495 124.321 90.7049 126.15 93.6479C126.15 93.6479 135.986 95.5397 138.045 94.4887L138.96 89.0233C138.96 89.0233 140.104 85.6599 138.274 83.5579L136.673 77.4618Z" fill="#6C63FF"/>
<path d="M129.81 74.3087C129.81 74.3087 127.98 73.0474 126.379 75.1495C124.778 77.2516 105.564 93.8581 105.564 93.8581L108.766 97.2214L121.347 87.5518L129.353 81.666L129.81 74.3087Z" fill="#6C63FF"/>
<path d="M138.159 94.3836C138.159 94.3836 126.837 92.3866 125.693 93.8581L125.464 96.1703C125.464 96.1703 122.948 100.585 124.321 107.732C125.693 114.879 124.778 119.293 124.778 119.293C124.778 119.293 130.954 118.663 135.529 119.293C140.104 119.924 140.79 119.293 140.79 119.293L138.159 94.3836Z" fill="#2F2E41"/>
<path d="M141.019 124.759L134.385 124.969L136.673 140.735C136.673 140.735 134.843 147.461 136.901 147.882C138.332 148.147 139.788 148.288 141.247 148.302C141.247 148.302 143.306 150.194 145.593 149.984C147.113 149.805 148.585 149.378 149.94 148.722C149.94 148.722 150.397 147.461 148.796 147.041C147.195 146.62 142.849 145.359 141.934 140.945L141.019 124.759Z" fill="#2F2E41"/>
<path d="M131.64 124.759L125.007 124.969L127.294 140.735C127.294 140.735 125.464 147.461 127.523 147.882C128.954 148.147 130.409 148.288 131.869 148.302C131.869 148.302 133.928 150.194 136.215 149.984C137.734 149.805 139.206 149.378 140.561 148.722C140.561 148.722 141.019 147.461 139.417 147.041C137.816 146.62 133.47 145.359 132.555 140.945L131.64 124.759Z" fill="#2F2E41"/>
<path d="M137.47 61.7948C139.062 61.7948 140.352 60.609 140.352 59.1463C140.352 57.6835 139.062 56.4977 137.47 56.4977C135.878 56.4977 134.588 57.6835 134.588 59.1463C134.588 60.609 135.878 61.7948 137.47 61.7948Z" fill="#2F2E41"/>
<path d="M141.313 57.7116C141.313 57.0569 141.049 56.4255 140.572 55.939C140.095 55.4526 139.439 55.1456 138.731 55.0773C138.83 55.0678 138.931 55.063 139.031 55.063C139.795 55.063 140.528 55.3421 141.069 55.8388C141.609 56.3355 141.913 57.0092 141.913 57.7116C141.913 58.4141 141.609 59.0877 141.069 59.5844C140.528 60.0811 139.795 60.3602 139.031 60.3602C138.931 60.3602 138.83 60.3554 138.731 60.3459C139.439 60.2776 140.095 59.9707 140.572 59.4842C141.049 58.9978 141.313 58.3663 141.313 57.7116V57.7116Z" fill="#2F2E41"/>
<path d="M134.223 67.1744C136.876 67.1744 139.027 65.9886 139.027 64.5259C139.027 63.0631 136.876 61.8773 134.223 61.8773C131.57 61.8773 129.42 63.0631 129.42 64.5259C129.42 65.9886 131.57 67.1744 134.223 67.1744Z" fill="#2F2E41"/>
</svg>
