<svg width="475" height="504" viewBox="0 0 475 504" fill="none" xmlns="http://www.w3.org/2000/svg">
<g id="logo-ready-title">
<g id="Clock-settings">
<g id="Settings">
<path id="Vector" d="M422.648 307.39L445.44 296.429C454.729 291.962 457.913 282.066 452.549 274.326L409.363 212.019C405.765 206.828 399.236 203.925 392.524 203.925C389.228 203.925 385.889 204.623 382.831 206.097L360.039 217.057C356.909 218.561 353.589 219.249 350.356 219.249C340.209 219.249 330.904 212.491 330.904 203.045V181.123C330.904 172.188 322.208 164.941 311.478 164.941H225.104C214.378 164.941 205.679 172.185 205.679 181.123V203.045C205.679 212.491 196.37 219.249 186.226 219.249C182.993 219.249 179.673 218.561 176.543 217.057L153.751 206.097C150.694 204.626 147.351 203.928 144.058 203.925C137.343 203.925 130.817 206.828 127.219 212.019L84.0345 274.326C78.6712 282.066 81.8547 291.962 91.1437 296.429L113.935 307.39C126.885 313.618 126.885 329.187 113.935 335.415L91.1437 346.376C81.8514 350.844 78.6712 360.739 84.0345 368.48L127.219 430.787C130.817 435.977 137.346 438.88 144.058 438.88C147.354 438.88 150.694 438.179 153.751 436.709L176.543 425.748C179.673 424.244 182.993 423.557 186.226 423.557C196.373 423.557 205.679 430.315 205.679 439.761V461.682C205.679 470.617 214.374 477.864 225.104 477.864H311.474C322.201 477.864 330.9 470.62 330.9 461.682V439.761C330.9 430.315 340.209 423.557 350.353 423.557C353.586 423.557 356.905 424.244 360.036 425.748L382.828 436.709C385.885 438.179 389.228 438.88 392.521 438.88C399.236 438.88 405.762 435.977 409.36 430.787L452.546 368.48C457.909 360.739 454.726 350.844 445.437 346.376L422.645 335.415C409.697 329.187 409.697 313.615 422.648 307.39ZM268.293 369.407C236.464 369.407 210.664 347.913 210.664 321.403C210.664 294.889 236.467 273.398 268.293 273.398C300.118 273.398 325.921 294.892 325.921 321.403C325.921 347.913 300.118 369.407 268.293 369.407Z" fill="url(#paint0_linear)"/>
<path id="hour" d="M265.84 321.403L322.015 344.872" stroke="black" stroke-width="0.7"/>
<line id="minutes" y1="-0.35" x2="75.3958" y2="-0.35" transform="matrix(0.557646 -0.830079 0.904681 0.42609 268.292 321.403)" stroke="black" stroke-width="0.7"/>
<path id="seconds" d="M268.292 321.338L216.904 252.951" stroke="#EF2424" stroke-width="0.4" stroke-linejoin="round"/>
</g>
<g id="three">
<line id="Line 11" y1="-0.5" x2="26.502" y2="-0.5" transform="matrix(-1 0 0 1 403.996 324.246)" stroke="black"/>
<line id="Line 12" y1="-0.5" x2="26.502" y2="-0.5" transform="matrix(-1 0 0 1 403.996 311.693)" stroke="black"/>
<line id="Line 10" y1="-0.5" x2="26.502" y2="-0.5" transform="matrix(-1 0 0 1 403.996 336.8)" stroke="black"/>
</g>
<g id="twelve">
<line id="Line 6" y1="-0.5" x2="27.6936" y2="-0.5" transform="matrix(0.715721 -0.698386 0.715721 0.698386 256.495 222.892)" stroke="black"/>
<line id="Line 7" y1="-0.5" x2="27.6936" y2="-0.5" transform="matrix(0.715721 0.698386 -0.715721 0.698386 253.692 203.551)" stroke="black"/>
<line id="Line 8" x1="280.694" y1="200.815" x2="280.694" y2="222.697" stroke="black"/>
<line id="Line 9" x1="292.714" y1="200.815" x2="292.714" y2="222.697" stroke="black"/>
</g>
<g id="nine">
<line id="Line 6_2" y1="-0.5" x2="28.4902" y2="-0.5" transform="matrix(-0.808806 -0.585472 0.821049 -0.573526 156.473 327.9)" stroke="black"/>
<line id="Line 7_2" y1="-0.5" x2="28.4902" y2="-0.5" transform="matrix(0.821049 -0.573526 0.808806 0.585472 133.231 330.065)" stroke="black"/>
<line id="Line 8_2" y1="-0.5" x2="26.2664" y2="-0.5" transform="matrix(0.999973 0.00732964 -0.0105629 0.999944 129.889 340.58)" stroke="black"/>
</g>
<g id="six">
<line id="Line 10_2" y1="-0.5" x2="22.3997" y2="-0.5" transform="matrix(0.304411 0.952541 -0.97568 0.219198 260.106 411.411)" stroke="black"/>
<line id="Line 11_2" y1="-0.5" x2="22.3999" y2="-0.5" transform="matrix(0.306217 -0.951962 0.975984 0.21784 270.066 432.566)" stroke="black"/>
<line id="Line 12_2" x1="280.738" y1="410.538" x2="280.738" y2="430.929" stroke="black"/>
</g>
</g>
<g id="ROJECT">
<path d="M232.823 100.569H227.221V113.061H220.19V78.9361H232.869C236.901 78.9361 240.01 79.8345 242.198 81.6314C244.385 83.4283 245.479 85.9673 245.479 89.2486C245.479 91.5767 244.971 93.522 243.955 95.0845C242.955 96.6314 241.432 97.8658 239.385 98.7877L246.768 112.733V113.061H239.221L232.823 100.569ZM227.221 94.8736H232.893C234.658 94.8736 236.026 94.4283 236.994 93.5377C237.963 92.6314 238.448 91.3892 238.448 89.8111C238.448 88.2017 237.987 86.9361 237.065 86.0142C236.158 85.0923 234.76 84.6314 232.869 84.6314H227.221V94.8736ZM279.837 96.772C279.837 100.131 279.243 103.077 278.056 105.608C276.868 108.139 275.165 110.092 272.947 111.467C270.743 112.842 268.212 113.53 265.353 113.53C262.525 113.53 260.001 112.85 257.783 111.491C255.564 110.131 253.845 108.194 252.626 105.678C251.408 103.147 250.79 100.241 250.775 96.9595V95.272C250.775 91.9127 251.376 88.9595 252.579 86.4127C253.798 83.8502 255.509 81.8892 257.712 80.5298C259.931 79.1548 262.462 78.4673 265.306 78.4673C268.15 78.4673 270.673 79.1548 272.876 80.5298C275.095 81.8892 276.806 83.8502 278.009 86.4127C279.228 88.9595 279.837 91.9048 279.837 95.2486V96.772ZM272.712 95.2252C272.712 91.647 272.072 88.9283 270.79 87.0689C269.509 85.2095 267.681 84.2798 265.306 84.2798C262.947 84.2798 261.126 85.2017 259.845 87.0455C258.564 88.8736 257.915 91.5611 257.9 95.108V96.772C257.9 100.256 258.54 102.96 259.822 104.881C261.103 106.803 262.947 107.764 265.353 107.764C267.712 107.764 269.525 106.842 270.79 104.999C272.056 103.139 272.697 100.436 272.712 96.8892V95.2252ZM299.664 78.9361H306.696V102.561C306.696 104.733 306.211 106.655 305.243 108.327C304.289 109.983 302.938 111.264 301.188 112.17C299.438 113.077 297.461 113.53 295.258 113.53C291.649 113.53 288.836 112.616 286.821 110.788C284.805 108.944 283.797 106.342 283.797 102.983H290.875C290.875 104.655 291.227 105.889 291.93 106.686C292.633 107.483 293.743 107.881 295.258 107.881C296.602 107.881 297.672 107.42 298.469 106.499C299.266 105.577 299.664 104.264 299.664 102.561V78.9361ZM334.21 98.272H320.71V107.413H336.554V113.061H313.679V78.9361H336.507V84.6314H320.71V92.7642H334.21V98.272ZM368.428 101.694C368.163 105.366 366.803 108.256 364.35 110.366C361.913 112.475 358.694 113.53 354.694 113.53C350.319 113.53 346.873 112.061 344.358 109.124C341.858 106.17 340.608 102.124 340.608 96.983V94.897C340.608 91.6158 341.186 88.7252 342.342 86.2252C343.498 83.7252 345.147 81.8111 347.288 80.483C349.444 79.1392 351.944 78.4673 354.788 78.4673C358.725 78.4673 361.897 79.522 364.303 81.6314C366.709 83.7408 368.1 86.7017 368.475 90.5142H361.444C361.272 88.3111 360.655 86.7173 359.592 85.733C358.545 84.733 356.944 84.233 354.788 84.233C352.444 84.233 350.686 85.0767 349.514 86.7642C348.358 88.4361 347.764 91.0377 347.733 94.5689V97.147C347.733 100.835 348.288 103.53 349.397 105.233C350.522 106.936 352.288 107.788 354.694 107.788C356.866 107.788 358.483 107.295 359.545 106.311C360.623 105.311 361.241 103.772 361.397 101.694H368.428ZM398.99 84.6314H388.537V113.061H381.505V84.6314H371.193V78.9361H398.99V84.6314Z" fill="url(#paint1_linear)" style="mix-blend-mode:darken"/>
</g>
<g id="Management">
<path d="M222.305 122.863L229.244 142.456L236.146 122.863H243.457V149.878H237.872V142.494L238.429 129.746L231.137 149.878H227.314L220.041 129.765L220.598 142.494V149.878H215.031V122.863H222.305ZM260.359 149.878C260.112 149.396 259.933 148.796 259.821 148.078C258.523 149.526 256.834 150.249 254.756 150.249C252.789 150.249 251.156 149.68 249.858 148.542C248.571 147.404 247.928 145.969 247.928 144.238C247.928 142.11 248.713 140.477 250.284 139.339C251.868 138.201 254.15 137.626 257.131 137.614H259.599V136.463C259.599 135.536 259.358 134.793 258.875 134.237C258.405 133.68 257.657 133.402 256.63 133.402C255.727 133.402 255.016 133.618 254.496 134.051C253.989 134.484 253.735 135.078 253.735 135.832H248.373C248.373 134.67 248.732 133.593 249.449 132.604C250.167 131.614 251.181 130.841 252.492 130.285C253.803 129.716 255.276 129.431 256.908 129.431C259.382 129.431 261.343 130.056 262.79 131.305C264.25 132.542 264.98 134.286 264.98 136.537V145.24C264.992 147.145 265.258 148.586 265.777 149.563V149.878H260.359ZM255.925 146.149C256.717 146.149 257.446 145.976 258.114 145.629C258.782 145.271 259.277 144.794 259.599 144.201V140.749H257.595C254.911 140.749 253.482 141.677 253.309 143.533L253.29 143.848C253.29 144.516 253.525 145.066 253.995 145.499C254.465 145.932 255.109 146.149 255.925 146.149ZM274.794 129.802L274.961 132.121C276.396 130.328 278.32 129.431 280.732 129.431C282.859 129.431 284.443 130.056 285.482 131.305C286.521 132.554 287.053 134.422 287.077 136.909V149.878H281.715V137.038C281.715 135.9 281.468 135.078 280.973 134.571C280.478 134.051 279.656 133.791 278.505 133.791C276.996 133.791 275.864 134.435 275.11 135.721V149.878H269.747V129.802H274.794ZM303.553 149.878C303.306 149.396 303.127 148.796 303.015 148.078C301.716 149.526 300.028 150.249 297.95 150.249C295.983 150.249 294.35 149.68 293.051 148.542C291.765 147.404 291.122 145.969 291.122 144.238C291.122 142.11 291.907 140.477 293.478 139.339C295.061 138.201 297.344 137.626 300.325 137.614H302.793V136.463C302.793 135.536 302.551 134.793 302.069 134.237C301.599 133.68 300.851 133.402 299.824 133.402C298.921 133.402 298.21 133.618 297.69 134.051C297.183 134.484 296.929 135.078 296.929 135.832H291.567C291.567 134.67 291.926 133.593 292.643 132.604C293.361 131.614 294.375 130.841 295.686 130.285C296.997 129.716 298.469 129.431 300.102 129.431C302.576 129.431 304.537 130.056 305.984 131.305C307.444 132.542 308.173 134.286 308.173 136.537V145.24C308.186 147.145 308.452 148.586 308.971 149.563V149.878H303.553ZM299.119 146.149C299.91 146.149 300.64 145.976 301.308 145.629C301.976 145.271 302.471 144.794 302.793 144.201V140.749H300.789C298.104 140.749 296.676 141.677 296.503 143.533L296.484 143.848C296.484 144.516 296.719 145.066 297.189 145.499C297.659 145.932 298.302 146.149 299.119 146.149ZM312.273 139.692C312.273 136.612 313.003 134.132 314.463 132.251C315.935 130.371 317.914 129.431 320.4 129.431C322.602 129.431 324.315 130.186 325.54 131.695L325.763 129.802H330.624V149.21C330.624 150.967 330.222 152.495 329.418 153.793C328.626 155.092 327.507 156.082 326.059 156.762C324.612 157.442 322.917 157.783 320.975 157.783C319.503 157.783 318.069 157.486 316.671 156.892C315.273 156.311 314.215 155.556 313.498 154.628L315.873 151.363C317.209 152.859 318.829 153.608 320.734 153.608C322.157 153.608 323.264 153.224 324.056 152.457C324.847 151.703 325.243 150.627 325.243 149.229V148.153C324.006 149.55 322.379 150.249 320.363 150.249C317.951 150.249 315.997 149.309 314.5 147.429C313.015 145.536 312.273 143.032 312.273 139.914V139.692ZM317.636 140.081C317.636 141.9 318 143.328 318.73 144.368C319.46 145.394 320.462 145.908 321.736 145.908C323.369 145.908 324.538 145.295 325.243 144.071V135.628C324.526 134.404 323.369 133.791 321.773 133.791C320.487 133.791 319.472 134.317 318.73 135.369C318 136.42 317.636 137.991 317.636 140.081ZM344.762 150.249C341.818 150.249 339.418 149.346 337.563 147.54C335.719 145.734 334.798 143.328 334.798 140.323V139.803C334.798 137.787 335.188 135.987 335.967 134.404C336.746 132.808 337.847 131.583 339.27 130.73C340.705 129.864 342.337 129.431 344.168 129.431C346.914 129.431 349.073 130.297 350.644 132.029C352.227 133.76 353.019 136.216 353.019 139.395V141.584H340.234C340.408 142.896 340.927 143.947 341.793 144.739C342.671 145.53 343.778 145.926 345.114 145.926C347.18 145.926 348.794 145.178 349.957 143.681L352.592 146.631C351.788 147.769 350.699 148.66 349.326 149.303C347.953 149.934 346.432 150.249 344.762 150.249ZM344.149 133.773C343.086 133.773 342.22 134.132 341.552 134.849C340.896 135.566 340.476 136.593 340.29 137.929H347.749V137.502C347.724 136.315 347.403 135.399 346.784 134.756C346.166 134.101 345.288 133.773 344.149 133.773ZM361.868 129.802L362.035 132.047C363.458 130.303 365.381 129.431 367.806 129.431C370.391 129.431 372.166 130.452 373.131 132.493C374.541 130.452 376.551 129.431 379.161 129.431C381.339 129.431 382.959 130.068 384.023 131.342C385.087 132.604 385.618 134.509 385.618 137.057V149.878H380.238V137.076C380.238 135.938 380.015 135.109 379.57 134.589C379.124 134.057 378.339 133.791 377.213 133.791C375.605 133.791 374.492 134.558 373.873 136.092L373.892 149.878H368.53V137.094C368.53 135.931 368.301 135.09 367.843 134.571C367.385 134.051 366.606 133.791 365.505 133.791C363.984 133.791 362.883 134.422 362.202 135.684V149.878H356.84V129.802H361.868ZM399.756 150.249C396.812 150.249 394.413 149.346 392.557 147.54C390.714 145.734 389.793 143.328 389.793 140.323V139.803C389.793 137.787 390.182 135.987 390.961 134.404C391.741 132.808 392.842 131.583 394.264 130.73C395.699 129.864 397.332 129.431 399.163 129.431C401.909 129.431 404.067 130.297 405.638 132.029C407.222 133.76 408.013 136.216 408.013 139.395V141.584H395.229C395.402 142.896 395.922 143.947 396.788 144.739C397.666 145.53 398.773 145.926 400.109 145.926C402.175 145.926 403.789 145.178 404.952 143.681L407.586 146.631C406.782 147.769 405.694 148.66 404.321 149.303C402.948 149.934 401.426 150.249 399.756 150.249ZM399.144 133.773C398.08 133.773 397.214 134.132 396.546 134.849C395.891 135.566 395.47 136.593 395.285 137.929H402.744V137.502C402.719 136.315 402.397 135.399 401.779 134.756C401.16 134.101 400.282 133.773 399.144 133.773ZM416.77 129.802L416.937 132.121C418.372 130.328 420.296 129.431 422.708 129.431C424.835 129.431 426.419 130.056 427.458 131.305C428.497 132.554 429.029 134.422 429.054 136.909V149.878H423.691V137.038C423.691 135.9 423.444 135.078 422.949 134.571C422.454 134.051 421.632 133.791 420.481 133.791C418.972 133.791 417.84 134.435 417.086 135.721V149.878H411.723V129.802H416.77ZM440.315 124.867V129.802H443.748V133.736H440.315V143.755C440.315 144.497 440.458 145.029 440.742 145.351C441.027 145.673 441.571 145.833 442.375 145.833C442.969 145.833 443.494 145.79 443.952 145.703V149.767C442.901 150.089 441.818 150.249 440.705 150.249C436.945 150.249 435.027 148.351 434.953 144.553V133.736H432.022V129.802H434.953V124.867H440.315Z" fill="url(#paint2_linear)" style="mix-blend-mode:darken"/>
</g>
<path id="Rectangle 6" d="M38.4533 503.988L0.415233 99.0544C-6.20171 28.6139 67.5521 -22.2748 129.719 9.83717L170.885 31.101C244.525 69.1392 214.148 182.256 130.961 179.773C87.9315 178.489 51.4767 212.632 49.5367 256.034L38.4533 503.988Z" fill="url(#paint3_linear)"/>
<path id="Rectangle 7" d="M102.52 157.37C72.2875 177.594 33.2917 159.06 33.2915 124.257L33.2914 97.0007C33.2912 57.1604 76.439 28.6455 112.254 44.8169L158.26 65.5894C202.052 85.3625 180.707 152.339 131.575 149.317C121.491 148.697 111.205 151.559 102.52 157.37Z" fill="white"/>
<g id="inside-p">
<path id="arrow-1" d="M51.2069 77.601C48.9107 77.7298 47.2261 79.3043 47.4428 81.119C47.6607 82.934 49.6981 84.3009 51.9944 84.1727L62.5011 83.5856C46.0675 100.625 48.5206 124.989 67.9088 140.454L67.478 139.534C66.2458 136.9 66.8798 133.955 69.1323 131.851C69.1799 131.806 69.2323 131.766 69.2815 131.722C57.2052 118.806 56.6739 100.996 68.8543 88.0219L69.8262 96.1357C70.0436 97.9504 72.0815 99.3176 74.3778 99.1893C75.526 99.1249 76.521 98.6993 77.2021 98.0627C77.8833 97.426 78.2504 96.5786 78.1417 95.6716L76.2053 79.5126C76.1005 78.641 75.5623 77.83 74.709 77.2576C73.8554 76.6848 72.7566 76.3977 71.6541 76.4593L51.2069 77.601Z" fill="#48C64D"/>
<g id="person">
<path id="Vector_2" d="M104.868 95.0311C110.949 95.0311 115.895 90.1678 115.895 84.1898C115.895 78.2115 110.949 73.3481 104.868 73.3481C98.7881 73.3481 93.8415 78.2115 93.8415 84.1895C93.8415 90.1675 98.7881 95.0311 104.868 95.0311Z" fill="#0028F9" fill-opacity="0.8"/>
<path id="Vector 2" d="M126.349 124.257V109.353C126.349 105.228 123.653 101.569 119.665 100.285L119.647 100.279L113.814 99.3296C113.318 99.1795 112.787 99.4379 112.609 99.9193L105.991 117.772C105.609 118.802 104.127 118.802 103.746 117.772L97.128 99.9193C96.9839 99.5305 96.6105 99.2868 96.2106 99.2868C96.1157 99.2868 90.0902 100.278 90.0902 100.278C86.0698 101.595 83.3835 105.259 83.3835 109.403V124.257C83.3835 126.483 85.219 128.288 87.483 128.288H122.249C124.514 128.288 126.349 126.483 126.349 124.257Z" fill="#4664D1"/>
<path id="Vector 3" d="M107.272 99.1261C107.018 98.854 106.646 98.7169 106.27 98.7169H103.466C103.091 98.7169 102.719 98.854 102.465 99.1261C102.071 99.5477 102.014 100.157 102.293 100.632L103.792 102.853L103.09 108.672L104.472 112.286C104.607 112.649 105.129 112.649 105.264 112.286L106.646 108.672L105.944 102.853L107.443 100.632C107.722 100.157 107.665 99.5477 107.272 99.1261Z" fill="black"/>
</g>
<path id="arrow-2" d="M124.767 64.1437C128.912 65.4686 130.355 69.0103 129.252 72.6083C146.804 79.9903 155.963 96.6501 150.763 112.907L146.435 105.907C145.466 104.341 143.116 103.75 141.185 104.587C139.254 105.424 138.473 107.371 139.441 108.937L148.06 122.879C149.029 124.445 151.379 125.035 153.31 124.198L170.507 116.747C171.472 116.328 172.15 115.633 172.466 114.845C172.781 114.058 172.735 113.18 172.251 112.397C171.283 110.831 168.932 110.24 167.001 111.077L158.165 114.906C165.467 93.1834 150.905 70.7146 124.767 64.1437Z" fill="#5286EC" fill-opacity="0.93"/>
</g>
</g>
<defs>
<linearGradient id="paint0_linear" x1="268.291" y1="164.941" x2="268.291" y2="477.864" gradientUnits="userSpaceOnUse">
<stop offset="0.578125" stop-color="#4664D1"/>
<stop offset="1" stop-color="#46D14B" stop-opacity="0.59"/>
</linearGradient>
<linearGradient id="paint1_linear" x1="312.143" y1="69.0611" x2="312.143" y2="128.623" gradientUnits="userSpaceOnUse">
<stop offset="0.411458" stop-color="#4664D1"/>
<stop offset="1" stop-color="#46D175" stop-opacity="0.79"/>
</linearGradient>
<linearGradient id="paint2_linear" x1="343.809" y1="114.878" x2="354.939" y2="193.148" gradientUnits="userSpaceOnUse">
<stop offset="0.5625" stop-color="#4664D1"/>
<stop offset="1" stop-color="#46D17E" stop-opacity="0.81"/>
</linearGradient>
<linearGradient id="paint3_linear" x1="108.571" y1="4.4884e-08" x2="106.251" y2="503.987" gradientUnits="userSpaceOnUse">
<stop offset="0.0188868" stop-color="#4664D1"/>
<stop offset="0.989583" stop-color="#46D17E" stop-opacity="0.63"/>
</linearGradient>
</defs>
</svg>
